%TF.GenerationSoftware,KiCad,Pcbnew,(7.0.0)*%
%TF.CreationDate,2023-04-19T19:20:55+08:00*%
%TF.ProjectId,Commander,436f6d6d-616e-4646-9572-2e6b69636164,rev?*%
%TF.SameCoordinates,Original*%
%TF.FileFunction,Soldermask,Bot*%
%TF.FilePolarity,Negative*%
%FSLAX46Y46*%
G04 Gerber Fmt 4.6, Leading zero omitted, Abs format (unit mm)*
G04 Created by KiCad (PCBNEW (7.0.0)) date 2023-04-19 19:20:55*
%MOMM*%
%LPD*%
G01*
G04 APERTURE LIST*
G04 Aperture macros list*
%AMRoundRect*
0 Rectangle with rounded corners*
0 $1 Rounding radius*
0 $2 $3 $4 $5 $6 $7 $8 $9 X,Y pos of 4 corners*
0 Add a 4 corners polygon primitive as box body*
4,1,4,$2,$3,$4,$5,$6,$7,$8,$9,$2,$3,0*
0 Add four circle primitives for the rounded corners*
1,1,$1+$1,$2,$3*
1,1,$1+$1,$4,$5*
1,1,$1+$1,$6,$7*
1,1,$1+$1,$8,$9*
0 Add four rect primitives between the rounded corners*
20,1,$1+$1,$2,$3,$4,$5,0*
20,1,$1+$1,$4,$5,$6,$7,0*
20,1,$1+$1,$6,$7,$8,$9,0*
20,1,$1+$1,$8,$9,$2,$3,0*%
G04 Aperture macros list end*
%ADD10C,4.000000*%
%ADD11RoundRect,0.147500X0.172500X-0.147500X0.172500X0.147500X-0.172500X0.147500X-0.172500X-0.147500X0*%
%ADD12C,0.800000*%
%ADD13C,1.200000*%
%ADD14R,0.550000X1.550000*%
%ADD15RoundRect,0.140000X-0.140000X-0.170000X0.140000X-0.170000X0.140000X0.170000X-0.140000X0.170000X0*%
%ADD16RoundRect,0.135000X-0.185000X0.135000X-0.185000X-0.135000X0.185000X-0.135000X0.185000X0.135000X0*%
%ADD17RoundRect,0.135000X0.135000X0.185000X-0.135000X0.185000X-0.135000X-0.185000X0.135000X-0.185000X0*%
%ADD18RoundRect,0.140000X-0.170000X0.140000X-0.170000X-0.140000X0.170000X-0.140000X0.170000X0.140000X0*%
%ADD19RoundRect,0.135000X-0.135000X-0.185000X0.135000X-0.185000X0.135000X0.185000X-0.135000X0.185000X0*%
G04 APERTURE END LIST*
D10*
%TO.C,J4*%
X119800000Y-64675000D03*
X119800000Y-78675000D03*
X158792442Y-78673977D03*
X158800000Y-64675000D03*
%TD*%
D11*
%TO.C,FB1*%
X147564999Y-71815002D03*
X147564999Y-70845002D03*
%TD*%
D12*
%TO.C,j2*%
X129200000Y-65175000D03*
D13*
X149400000Y-65175000D03*
D14*
X146899999Y-67324999D03*
X146899999Y-63024999D03*
X146099999Y-67324999D03*
X146099999Y-63024999D03*
X145299999Y-67324999D03*
X145299999Y-63024999D03*
X144499999Y-67324999D03*
X144499999Y-63024999D03*
X143699999Y-67324999D03*
X143699999Y-63024999D03*
X142899999Y-67324999D03*
X142899999Y-63024999D03*
X142099999Y-67324999D03*
X142099999Y-63024999D03*
X141299999Y-67324999D03*
X141299999Y-63024999D03*
X140499999Y-67324999D03*
X140499999Y-63024999D03*
X139699999Y-67324999D03*
X139699999Y-63024999D03*
X138899999Y-67324999D03*
X138899999Y-63024999D03*
X138099999Y-67324999D03*
X138099999Y-63024999D03*
X137299999Y-67324999D03*
X137299999Y-63024999D03*
X136499999Y-67324999D03*
X136499999Y-63024999D03*
X135699999Y-63024999D03*
X135699999Y-67324999D03*
X134899999Y-63024999D03*
X134899999Y-67324999D03*
X134099999Y-63024999D03*
X134099999Y-67324999D03*
X133299999Y-63024999D03*
X133299999Y-67324999D03*
X132499999Y-63024999D03*
X132499999Y-67324999D03*
X131699999Y-63024999D03*
X131699999Y-67324999D03*
%TD*%
D15*
%TO.C,C1*%
X146585000Y-72730000D03*
X147545000Y-72730000D03*
%TD*%
%TO.C,C3*%
X146610000Y-69930000D03*
X147570000Y-69930000D03*
%TD*%
D16*
%TO.C,R1*%
X146615000Y-70820000D03*
X146615000Y-71840000D03*
%TD*%
D17*
%TO.C,R14*%
X154610000Y-75175000D03*
X153590000Y-75175000D03*
%TD*%
D18*
%TO.C,C9*%
X135225000Y-74695000D03*
X135225000Y-75655000D03*
%TD*%
D19*
%TO.C,R12*%
X146365000Y-76275000D03*
X147385000Y-76275000D03*
%TD*%
%TO.C,R11*%
X146365000Y-75250000D03*
X147385000Y-75250000D03*
%TD*%
D15*
%TO.C,C6*%
X131040000Y-69150000D03*
X132000000Y-69150000D03*
%TD*%
%TO.C,C5*%
X131040000Y-70110000D03*
X132000000Y-70110000D03*
%TD*%
D18*
%TO.C,C4*%
X145610000Y-69880000D03*
X145610000Y-70840000D03*
%TD*%
%TO.C,C10*%
X136200000Y-74690000D03*
X136200000Y-75650000D03*
%TD*%
D15*
%TO.C,C2*%
X146580000Y-73679999D03*
X147540000Y-73679999D03*
%TD*%
%TO.C,C7*%
X131050000Y-71080000D03*
X132010000Y-71080000D03*
%TD*%
M02*
