%TF.GenerationSoftware,KiCad,Pcbnew,(7.0.0)*%
%TF.CreationDate,2023-04-20T14:35:00+08:00*%
%TF.ProjectId,Expansion,45787061-6e73-4696-9f6e-2e6b69636164,rev?*%
%TF.SameCoordinates,Original*%
%TF.FileFunction,Soldermask,Bot*%
%TF.FilePolarity,Negative*%
%FSLAX46Y46*%
G04 Gerber Fmt 4.6, Leading zero omitted, Abs format (unit mm)*
G04 Created by KiCad (PCBNEW (7.0.0)) date 2023-04-20 14:35:00*
%MOMM*%
%LPD*%
G01*
G04 APERTURE LIST*
%ADD10C,0.200000*%
%ADD11C,0.650000*%
%ADD12O,1.000000X2.000000*%
%ADD13O,0.900000X1.800000*%
%ADD14C,4.000000*%
%ADD15C,1.200000*%
%ADD16C,0.800000*%
G04 APERTURE END LIST*
D10*
G36*
X156418000Y-86147690D02*
G01*
X156407271Y-86151663D01*
X156391247Y-86157686D01*
X156375306Y-86163785D01*
X156359447Y-86169960D01*
X156343670Y-86176210D01*
X156327976Y-86182535D01*
X156312364Y-86188936D01*
X156296835Y-86195413D01*
X156281388Y-86201965D01*
X156266024Y-86208593D01*
X156250742Y-86215296D01*
X156240600Y-86219783D01*
X156225455Y-86226484D01*
X156210393Y-86233150D01*
X156195413Y-86239783D01*
X156180516Y-86246381D01*
X156165701Y-86252944D01*
X156150969Y-86259474D01*
X156136319Y-86265968D01*
X156121751Y-86272429D01*
X156107266Y-86278855D01*
X156092863Y-86285247D01*
X156092863Y-86681507D01*
X156418000Y-86672519D01*
X156418000Y-86951542D01*
X156216743Y-86951542D01*
X156195704Y-86951235D01*
X156174743Y-86950899D01*
X156153859Y-86950535D01*
X156133054Y-86950143D01*
X156112326Y-86949723D01*
X156091676Y-86949275D01*
X156071104Y-86948798D01*
X156050609Y-86948293D01*
X156030193Y-86947760D01*
X156009854Y-86947199D01*
X155989594Y-86946609D01*
X155969411Y-86945991D01*
X155949306Y-86945345D01*
X155929279Y-86944671D01*
X155909329Y-86943968D01*
X155889458Y-86943237D01*
X155869664Y-86942478D01*
X155849949Y-86941691D01*
X155830311Y-86940876D01*
X155810751Y-86940032D01*
X155791269Y-86939160D01*
X155771864Y-86938259D01*
X155752538Y-86937331D01*
X155733289Y-86936374D01*
X155714118Y-86935389D01*
X155695025Y-86934376D01*
X155676010Y-86933335D01*
X155657073Y-86932265D01*
X155638214Y-86931167D01*
X155619432Y-86930041D01*
X155600729Y-86928886D01*
X155582103Y-86927704D01*
X155563522Y-86926519D01*
X155545001Y-86925309D01*
X155526540Y-86924073D01*
X155508140Y-86922813D01*
X155489800Y-86921527D01*
X155471520Y-86920216D01*
X155453301Y-86918880D01*
X155435142Y-86917519D01*
X155417043Y-86916132D01*
X155399005Y-86914721D01*
X155381026Y-86913284D01*
X155363109Y-86911822D01*
X155345251Y-86910335D01*
X155327454Y-86908822D01*
X155309717Y-86907285D01*
X155292040Y-86905722D01*
X155274424Y-86904134D01*
X155256867Y-86902521D01*
X155239372Y-86900882D01*
X155221936Y-86899219D01*
X155204561Y-86897530D01*
X155187246Y-86895816D01*
X155169991Y-86894077D01*
X155152797Y-86892313D01*
X155135663Y-86890523D01*
X155118589Y-86888709D01*
X155101576Y-86886869D01*
X155084623Y-86885004D01*
X155067730Y-86883114D01*
X155050897Y-86881198D01*
X155034125Y-86879258D01*
X155017413Y-86877292D01*
X155017413Y-86672519D01*
X155281977Y-86672519D01*
X155288772Y-86672815D01*
X155305798Y-86673582D01*
X155322882Y-86674387D01*
X155340023Y-86675231D01*
X155357221Y-86676112D01*
X155374476Y-86677032D01*
X155391789Y-86677990D01*
X155409294Y-86679051D01*
X155427372Y-86680035D01*
X155446022Y-86680944D01*
X155465245Y-86681775D01*
X155481035Y-86682386D01*
X155497192Y-86682948D01*
X155513715Y-86683461D01*
X155517910Y-86683606D01*
X155535065Y-86684165D01*
X155552818Y-86684687D01*
X155571170Y-86685172D01*
X155590120Y-86685621D01*
X155609669Y-86686033D01*
X155629816Y-86686409D01*
X155650561Y-86686748D01*
X155666513Y-86686978D01*
X155677374Y-86687111D01*
X155694095Y-86687258D01*
X155711332Y-86687344D01*
X155729083Y-86687368D01*
X155747350Y-86687330D01*
X155766132Y-86687231D01*
X155785429Y-86687069D01*
X155805241Y-86686846D01*
X155825569Y-86686561D01*
X155846411Y-86686214D01*
X155867769Y-86685806D01*
X155867769Y-86388806D01*
X155853473Y-86395257D01*
X155832459Y-86404762D01*
X155811960Y-86414061D01*
X155791976Y-86423154D01*
X155772507Y-86432040D01*
X155753553Y-86440721D01*
X155735115Y-86449195D01*
X155717192Y-86457464D01*
X155699784Y-86465526D01*
X155682891Y-86473382D01*
X155666513Y-86481032D01*
X155661158Y-86483564D01*
X155645319Y-86491065D01*
X155629816Y-86498420D01*
X155614650Y-86505632D01*
X155599820Y-86512700D01*
X155585327Y-86519623D01*
X155566526Y-86528629D01*
X155548324Y-86537379D01*
X155530720Y-86545873D01*
X155513715Y-86554110D01*
X155501298Y-86560223D01*
X155485096Y-86568247D01*
X155469297Y-86576124D01*
X155453900Y-86583854D01*
X155438907Y-86591438D01*
X155424316Y-86598875D01*
X155410129Y-86606166D01*
X155392961Y-86615073D01*
X155389564Y-86616832D01*
X155372509Y-86625665D01*
X155355339Y-86634555D01*
X155338055Y-86643503D01*
X155324146Y-86650702D01*
X155310163Y-86657937D01*
X155296107Y-86665210D01*
X155281977Y-86672519D01*
X155017413Y-86672519D01*
X155017413Y-86582247D01*
X155034731Y-86571686D01*
X155052198Y-86561109D01*
X155069814Y-86550514D01*
X155087578Y-86539901D01*
X155105491Y-86529271D01*
X155123554Y-86518623D01*
X155141765Y-86507957D01*
X155160124Y-86497274D01*
X155178633Y-86486574D01*
X155197291Y-86475856D01*
X155216097Y-86465120D01*
X155235052Y-86454367D01*
X155254156Y-86443596D01*
X155273409Y-86432808D01*
X155292810Y-86422002D01*
X155312361Y-86411179D01*
X155332060Y-86400338D01*
X155351908Y-86389479D01*
X155371905Y-86378603D01*
X155392051Y-86367710D01*
X155412346Y-86356799D01*
X155432789Y-86345870D01*
X155453382Y-86334924D01*
X155474123Y-86323960D01*
X155495013Y-86312978D01*
X155516052Y-86301979D01*
X155537240Y-86290963D01*
X155558576Y-86279929D01*
X155580061Y-86268877D01*
X155601696Y-86257808D01*
X155623479Y-86246721D01*
X155645411Y-86235617D01*
X155667460Y-86224491D01*
X155689644Y-86213338D01*
X155711964Y-86202158D01*
X155734419Y-86190951D01*
X155757009Y-86179718D01*
X155779733Y-86168458D01*
X155802593Y-86157171D01*
X155825588Y-86145858D01*
X155848719Y-86134518D01*
X155871984Y-86123151D01*
X155895384Y-86111757D01*
X155918920Y-86100337D01*
X155942590Y-86088890D01*
X155966396Y-86077416D01*
X155990337Y-86065916D01*
X156014413Y-86054389D01*
X156038624Y-86042835D01*
X156062970Y-86031255D01*
X156087451Y-86019647D01*
X156112067Y-86008013D01*
X156136818Y-85996353D01*
X156161705Y-85984665D01*
X156186726Y-85972951D01*
X156211883Y-85961210D01*
X156237175Y-85949443D01*
X156262602Y-85937648D01*
X156288163Y-85925827D01*
X156313860Y-85913980D01*
X156339693Y-85902105D01*
X156365660Y-85890204D01*
X156391762Y-85878276D01*
X156418000Y-85866322D01*
X156418000Y-86147690D01*
G37*
G36*
X156374622Y-87624870D02*
G01*
X156401095Y-87619245D01*
X156426780Y-87613019D01*
X156451678Y-87606190D01*
X156475787Y-87598761D01*
X156499109Y-87590730D01*
X156521644Y-87582097D01*
X156543391Y-87572863D01*
X156564350Y-87563028D01*
X156584521Y-87552591D01*
X156603905Y-87541553D01*
X156622501Y-87529913D01*
X156640309Y-87517672D01*
X156657330Y-87504830D01*
X156673563Y-87491386D01*
X156689008Y-87477340D01*
X156703666Y-87462693D01*
X156717531Y-87447486D01*
X156730502Y-87431662D01*
X156742578Y-87415221D01*
X156753760Y-87398164D01*
X156764047Y-87380490D01*
X156773440Y-87362199D01*
X156781938Y-87343292D01*
X156789542Y-87323768D01*
X156796251Y-87303627D01*
X156802065Y-87282869D01*
X156806985Y-87261495D01*
X156811011Y-87239504D01*
X156814142Y-87216896D01*
X156816378Y-87193672D01*
X156817720Y-87169831D01*
X156818167Y-87145373D01*
X156817990Y-87128648D01*
X156817459Y-87112278D01*
X156816573Y-87096262D01*
X156815334Y-87080600D01*
X156813286Y-87061520D01*
X156810686Y-87042994D01*
X156807531Y-87025021D01*
X156806834Y-87021493D01*
X156803243Y-87004184D01*
X156799308Y-86987429D01*
X156795030Y-86971227D01*
X156790409Y-86955578D01*
X156785444Y-86940482D01*
X156779032Y-86923098D01*
X156777916Y-86920279D01*
X156565718Y-86996873D01*
X156571164Y-87011870D01*
X156576171Y-87027550D01*
X156580739Y-87043914D01*
X156584866Y-87060963D01*
X156588064Y-87076684D01*
X156590476Y-87093415D01*
X156592103Y-87111156D01*
X156592872Y-87127166D01*
X156593073Y-87141074D01*
X156592482Y-87159072D01*
X156590710Y-87176135D01*
X156587756Y-87192264D01*
X156583621Y-87207459D01*
X156577303Y-87224006D01*
X156576269Y-87226266D01*
X156568583Y-87241549D01*
X156559888Y-87255598D01*
X156550183Y-87268413D01*
X156539468Y-87279993D01*
X156532891Y-87286057D01*
X156520627Y-87296037D01*
X156507427Y-87305120D01*
X156493293Y-87313305D01*
X156478224Y-87320593D01*
X156469193Y-87324354D01*
X156452860Y-87330458D01*
X156436003Y-87335777D01*
X156418623Y-87340310D01*
X156403309Y-87343571D01*
X156390254Y-87345847D01*
X155592654Y-87499036D01*
X155592654Y-87271598D01*
X155367560Y-87327871D01*
X155367560Y-87546322D01*
X155303861Y-87557655D01*
X155287285Y-87561109D01*
X155271066Y-87564732D01*
X155255204Y-87568522D01*
X155239699Y-87572480D01*
X155224551Y-87576606D01*
X155202499Y-87583111D01*
X155181251Y-87589993D01*
X155160807Y-87597252D01*
X155141167Y-87604890D01*
X155122330Y-87612905D01*
X155104297Y-87621298D01*
X155087067Y-87630069D01*
X155081503Y-87633077D01*
X155065256Y-87642317D01*
X155049634Y-87651867D01*
X155034637Y-87661726D01*
X155020265Y-87671893D01*
X155006518Y-87682370D01*
X154993397Y-87693156D01*
X154980900Y-87704251D01*
X154969029Y-87715655D01*
X154957783Y-87727369D01*
X154947161Y-87739391D01*
X154940428Y-87747578D01*
X154930734Y-87760161D01*
X154921583Y-87772999D01*
X154912975Y-87786091D01*
X154902341Y-87803942D01*
X154892672Y-87822245D01*
X154883968Y-87841000D01*
X154876228Y-87860206D01*
X154869454Y-87879865D01*
X154865006Y-87894905D01*
X154860955Y-87910222D01*
X154857303Y-87925689D01*
X154854049Y-87941308D01*
X154851194Y-87957077D01*
X154848737Y-87972998D01*
X154846678Y-87989070D01*
X154845018Y-88005293D01*
X154843757Y-88021667D01*
X154842893Y-88038193D01*
X154842429Y-88054869D01*
X154842340Y-88066071D01*
X154842511Y-88084047D01*
X154843024Y-88101828D01*
X154843879Y-88119413D01*
X154845076Y-88136803D01*
X154846614Y-88153998D01*
X154848495Y-88170997D01*
X154850718Y-88187801D01*
X154853282Y-88204410D01*
X154856158Y-88220896D01*
X154859510Y-88237138D01*
X154863339Y-88253136D01*
X154867644Y-88268890D01*
X154872425Y-88284399D01*
X154877682Y-88299665D01*
X154883416Y-88314685D01*
X154889625Y-88329462D01*
X155105732Y-88232547D01*
X155098510Y-88215886D01*
X155092084Y-88199610D01*
X155086456Y-88183719D01*
X155081625Y-88168213D01*
X155077590Y-88153091D01*
X155076422Y-88148136D01*
X155072920Y-88130647D01*
X155070603Y-88115030D01*
X155068918Y-88098837D01*
X155067864Y-88082067D01*
X155067443Y-88064719D01*
X155067434Y-88061772D01*
X155067752Y-88044253D01*
X155068706Y-88027257D01*
X155070295Y-88010786D01*
X155072521Y-87994837D01*
X155074078Y-87985959D01*
X155078327Y-87968911D01*
X155084824Y-87952547D01*
X155092352Y-87938789D01*
X155101601Y-87925555D01*
X155104559Y-87921870D01*
X155116054Y-87909517D01*
X155129681Y-87897763D01*
X155143058Y-87888164D01*
X155158001Y-87879005D01*
X155174510Y-87870286D01*
X155189600Y-87863432D01*
X155206292Y-87857035D01*
X155224588Y-87851097D01*
X155240378Y-87846676D01*
X155257194Y-87842549D01*
X155275036Y-87838714D01*
X155293904Y-87835173D01*
X155298781Y-87834333D01*
X155367560Y-87823000D01*
X155367560Y-88205582D01*
X155592654Y-88149309D01*
X155592654Y-87778060D01*
X156374622Y-87624870D01*
G37*
G36*
X156374622Y-88744089D02*
G01*
X156401095Y-88738464D01*
X156426780Y-88732237D01*
X156451678Y-88725409D01*
X156475787Y-88717979D01*
X156499109Y-88709948D01*
X156521644Y-88701316D01*
X156543391Y-88692082D01*
X156564350Y-88682247D01*
X156584521Y-88671810D01*
X156603905Y-88660771D01*
X156622501Y-88649132D01*
X156640309Y-88636891D01*
X156657330Y-88624048D01*
X156673563Y-88610604D01*
X156689008Y-88596559D01*
X156703666Y-88581912D01*
X156717531Y-88566704D01*
X156730502Y-88550881D01*
X156742578Y-88534440D01*
X156753760Y-88517383D01*
X156764047Y-88499709D01*
X156773440Y-88481418D01*
X156781938Y-88462510D01*
X156789542Y-88442986D01*
X156796251Y-88422845D01*
X156802065Y-88402088D01*
X156806985Y-88380713D01*
X156811011Y-88358722D01*
X156814142Y-88336115D01*
X156816378Y-88312890D01*
X156817720Y-88289049D01*
X156818167Y-88264591D01*
X156817990Y-88247867D01*
X156817459Y-88231496D01*
X156816573Y-88215480D01*
X156815334Y-88199818D01*
X156813286Y-88180738D01*
X156810686Y-88162212D01*
X156807531Y-88144239D01*
X156806834Y-88140711D01*
X156803243Y-88123402D01*
X156799308Y-88106647D01*
X156795030Y-88090445D01*
X156790409Y-88074796D01*
X156785444Y-88059701D01*
X156779032Y-88042317D01*
X156777916Y-88039497D01*
X156565718Y-88116092D01*
X156571164Y-88131088D01*
X156576171Y-88146769D01*
X156580739Y-88163133D01*
X156584866Y-88180181D01*
X156588064Y-88195902D01*
X156590476Y-88212633D01*
X156592103Y-88230374D01*
X156592872Y-88246384D01*
X156593073Y-88260293D01*
X156592482Y-88278290D01*
X156590710Y-88295354D01*
X156587756Y-88311483D01*
X156583621Y-88326678D01*
X156577303Y-88343224D01*
X156576269Y-88345484D01*
X156568583Y-88360768D01*
X156559888Y-88374817D01*
X156550183Y-88387631D01*
X156539468Y-88399212D01*
X156532891Y-88405275D01*
X156520627Y-88415256D01*
X156507427Y-88424338D01*
X156493293Y-88432523D01*
X156478224Y-88439811D01*
X156469193Y-88443572D01*
X156452860Y-88449677D01*
X156436003Y-88454995D01*
X156418623Y-88459529D01*
X156403309Y-88462789D01*
X156390254Y-88465066D01*
X155592654Y-88618255D01*
X155592654Y-88390816D01*
X155367560Y-88447090D01*
X155367560Y-88665540D01*
X155303861Y-88676873D01*
X155287285Y-88680328D01*
X155271066Y-88683950D01*
X155255204Y-88687740D01*
X155239699Y-88691699D01*
X155224551Y-88695825D01*
X155202499Y-88702329D01*
X155181251Y-88709211D01*
X155160807Y-88716471D01*
X155141167Y-88724108D01*
X155122330Y-88732124D01*
X155104297Y-88740517D01*
X155087067Y-88749288D01*
X155081503Y-88752295D01*
X155065256Y-88761536D01*
X155049634Y-88771085D01*
X155034637Y-88780944D01*
X155020265Y-88791112D01*
X155006518Y-88801589D01*
X154993397Y-88812375D01*
X154980900Y-88823470D01*
X154969029Y-88834874D01*
X154957783Y-88846587D01*
X154947161Y-88858610D01*
X154940428Y-88866796D01*
X154930734Y-88879380D01*
X154921583Y-88892218D01*
X154912975Y-88905309D01*
X154902341Y-88923160D01*
X154892672Y-88941463D01*
X154883968Y-88960218D01*
X154876228Y-88979425D01*
X154869454Y-88999083D01*
X154865006Y-89014124D01*
X154860955Y-89029440D01*
X154857303Y-89044907D01*
X154854049Y-89060526D01*
X154851194Y-89076296D01*
X154848737Y-89092217D01*
X154846678Y-89108288D01*
X154845018Y-89124512D01*
X154843757Y-89140886D01*
X154842893Y-89157411D01*
X154842429Y-89174088D01*
X154842340Y-89185289D01*
X154842511Y-89203265D01*
X154843024Y-89221046D01*
X154843879Y-89238632D01*
X154845076Y-89256022D01*
X154846614Y-89273217D01*
X154848495Y-89290216D01*
X154850718Y-89307020D01*
X154853282Y-89323628D01*
X154856158Y-89340115D01*
X154859510Y-89356357D01*
X154863339Y-89372355D01*
X154867644Y-89388108D01*
X154872425Y-89403618D01*
X154877682Y-89418883D01*
X154883416Y-89433904D01*
X154889625Y-89448681D01*
X155105732Y-89351765D01*
X155098510Y-89335105D01*
X155092084Y-89318829D01*
X155086456Y-89302938D01*
X155081625Y-89287431D01*
X155077590Y-89272310D01*
X155076422Y-89267355D01*
X155072920Y-89249865D01*
X155070603Y-89234249D01*
X155068918Y-89218055D01*
X155067864Y-89201285D01*
X155067443Y-89183938D01*
X155067434Y-89180990D01*
X155067752Y-89163471D01*
X155068706Y-89146476D01*
X155070295Y-89130004D01*
X155072521Y-89114056D01*
X155074078Y-89105177D01*
X155078327Y-89088129D01*
X155084824Y-89071765D01*
X155092352Y-89058007D01*
X155101601Y-89044773D01*
X155104559Y-89041088D01*
X155116054Y-89028736D01*
X155129681Y-89016981D01*
X155143058Y-89007383D01*
X155158001Y-88998224D01*
X155174510Y-88989504D01*
X155189600Y-88982650D01*
X155206292Y-88976254D01*
X155224588Y-88970316D01*
X155240378Y-88965895D01*
X155257194Y-88961767D01*
X155275036Y-88957933D01*
X155293904Y-88954391D01*
X155298781Y-88953551D01*
X155367560Y-88942219D01*
X155367560Y-89324801D01*
X155592654Y-89268527D01*
X155592654Y-88897278D01*
X156374622Y-88744089D01*
G37*
G36*
X156377748Y-90261912D02*
G01*
X156384411Y-90247509D01*
X156390956Y-90233018D01*
X156393771Y-90226741D01*
X156400084Y-90210903D01*
X156405591Y-90194594D01*
X156410330Y-90178600D01*
X156414995Y-90160998D01*
X156415655Y-90158353D01*
X156419529Y-90141857D01*
X156423239Y-90124317D01*
X156426204Y-90108903D01*
X156429055Y-90092764D01*
X156431791Y-90075900D01*
X156434413Y-90058311D01*
X156436889Y-90040054D01*
X156438946Y-90021186D01*
X156440584Y-90001707D01*
X156441591Y-89985685D01*
X156442330Y-89969272D01*
X156442800Y-89952468D01*
X156443002Y-89935273D01*
X156443010Y-89930914D01*
X156442702Y-89912112D01*
X156441777Y-89893905D01*
X156440235Y-89876293D01*
X156438076Y-89859277D01*
X156435301Y-89842856D01*
X156431909Y-89827031D01*
X156427900Y-89811801D01*
X156420731Y-89790072D01*
X156412174Y-89769683D01*
X156402230Y-89750633D01*
X156390898Y-89732923D01*
X156378178Y-89716552D01*
X156364071Y-89701521D01*
X156348640Y-89687832D01*
X156332096Y-89675491D01*
X156314440Y-89664495D01*
X156295670Y-89654846D01*
X156275788Y-89646543D01*
X156254793Y-89639587D01*
X156232686Y-89633977D01*
X156217329Y-89630985D01*
X156201477Y-89628591D01*
X156185132Y-89626796D01*
X156168291Y-89625599D01*
X156150956Y-89625001D01*
X156142103Y-89624926D01*
X156125179Y-89625188D01*
X156107919Y-89625973D01*
X156090323Y-89627282D01*
X156072390Y-89629115D01*
X156061991Y-89630397D01*
X156046068Y-89632788D01*
X156029953Y-89635563D01*
X156013645Y-89638723D01*
X155997145Y-89642267D01*
X155980452Y-89646197D01*
X155974845Y-89647592D01*
X155092445Y-89856664D01*
X155092445Y-89563963D01*
X154867351Y-89617892D01*
X154867351Y-90187662D01*
X156008062Y-89921926D01*
X156024107Y-89918785D01*
X156039494Y-89915610D01*
X156055645Y-89912130D01*
X156057302Y-89911765D01*
X156073093Y-89908880D01*
X156089142Y-89906940D01*
X156103806Y-89906294D01*
X156120553Y-89907160D01*
X156136504Y-89909756D01*
X156151657Y-89914084D01*
X156168330Y-89921321D01*
X156181757Y-89929399D01*
X156183917Y-89930914D01*
X156195471Y-89942106D01*
X156204635Y-89956926D01*
X156210445Y-89972046D01*
X156214596Y-89989685D01*
X156216720Y-90005609D01*
X156217783Y-90023146D01*
X156217916Y-90032519D01*
X156217574Y-90048224D01*
X156216548Y-90064075D01*
X156214838Y-90080073D01*
X156212445Y-90096217D01*
X156209318Y-90112411D01*
X156205801Y-90128164D01*
X156201893Y-90143478D01*
X156197595Y-90158353D01*
X156192724Y-90174283D01*
X156187748Y-90190677D01*
X156183229Y-90205698D01*
X156181963Y-90209937D01*
X156177255Y-90225342D01*
X156172144Y-90240117D01*
X156170630Y-90243935D01*
X156377748Y-90261912D01*
G37*
G36*
X156057271Y-90501408D02*
G01*
X156081115Y-90502411D01*
X156104215Y-90504083D01*
X156126569Y-90506423D01*
X156148178Y-90509432D01*
X156169043Y-90513109D01*
X156189162Y-90517455D01*
X156208537Y-90522470D01*
X156227166Y-90528153D01*
X156245051Y-90534505D01*
X156262191Y-90541525D01*
X156278586Y-90549214D01*
X156294236Y-90557572D01*
X156309140Y-90566598D01*
X156323300Y-90576293D01*
X156336715Y-90586657D01*
X156349312Y-90597600D01*
X156361115Y-90609036D01*
X156372125Y-90620962D01*
X156382340Y-90633381D01*
X156391762Y-90646290D01*
X156400390Y-90659692D01*
X156408224Y-90673584D01*
X156415264Y-90687969D01*
X156421510Y-90702845D01*
X156426963Y-90718212D01*
X156431622Y-90734071D01*
X156435487Y-90750422D01*
X156438559Y-90767264D01*
X156440836Y-90784597D01*
X156442320Y-90802423D01*
X156443010Y-90820739D01*
X156442870Y-90835756D01*
X156442132Y-90857622D01*
X156440763Y-90878698D01*
X156438762Y-90898984D01*
X156436128Y-90918481D01*
X156432863Y-90937187D01*
X156428966Y-90955103D01*
X156424437Y-90972230D01*
X156419276Y-90988566D01*
X156413483Y-91004113D01*
X156407057Y-91018869D01*
X156402573Y-91028320D01*
X156393658Y-91046479D01*
X156384816Y-91063649D01*
X156376048Y-91079830D01*
X156367353Y-91095022D01*
X156358731Y-91109225D01*
X156348057Y-91125587D01*
X156337497Y-91140404D01*
X156341887Y-91141720D01*
X156357036Y-91147048D01*
X156370030Y-91152226D01*
X156384782Y-91158381D01*
X156399926Y-91165024D01*
X156414092Y-91171667D01*
X156421976Y-91175797D01*
X156436367Y-91183000D01*
X156396115Y-91426071D01*
X156380954Y-91421113D01*
X156365756Y-91416399D01*
X156350521Y-91411929D01*
X156335250Y-91407704D01*
X156319942Y-91403722D01*
X156304598Y-91399986D01*
X156289216Y-91396493D01*
X156273799Y-91393244D01*
X156258314Y-91390405D01*
X156242731Y-91387944D01*
X156227050Y-91385862D01*
X156211272Y-91384159D01*
X156195397Y-91382834D01*
X156179423Y-91381887D01*
X156163352Y-91381319D01*
X156147183Y-91381130D01*
X156137139Y-91381197D01*
X156119649Y-91381638D01*
X156102271Y-91382490D01*
X156085006Y-91383754D01*
X156067853Y-91385429D01*
X156057973Y-91386668D01*
X156040625Y-91389161D01*
X156023202Y-91392064D01*
X156005705Y-91395380D01*
X155988132Y-91399106D01*
X155416408Y-91538618D01*
X155411748Y-91526512D01*
X155405049Y-91508389D01*
X155398701Y-91490307D01*
X155392703Y-91472265D01*
X155387055Y-91454265D01*
X155381758Y-91436307D01*
X155376811Y-91418389D01*
X155372214Y-91400513D01*
X155367967Y-91382678D01*
X155364071Y-91364884D01*
X155360526Y-91347131D01*
X155358349Y-91335365D01*
X155355347Y-91317738D01*
X155352661Y-91300139D01*
X155350291Y-91282567D01*
X155348237Y-91265023D01*
X155346499Y-91247506D01*
X155345077Y-91230017D01*
X155343971Y-91212555D01*
X155343181Y-91195121D01*
X155342707Y-91177714D01*
X155342549Y-91160334D01*
X155342746Y-91143538D01*
X155343337Y-91126855D01*
X155343879Y-91117739D01*
X155567644Y-91117739D01*
X155567653Y-91120825D01*
X155567973Y-91136533D01*
X155568752Y-91152699D01*
X155569988Y-91169323D01*
X155570300Y-91172731D01*
X155572406Y-91189454D01*
X155575429Y-91205643D01*
X155579367Y-91221297D01*
X155989695Y-91124382D01*
X155994545Y-91123275D01*
X156010966Y-91119666D01*
X156026527Y-91116468D01*
X156043258Y-91113318D01*
X156058865Y-91110704D01*
X156072123Y-91108824D01*
X156089444Y-91106406D01*
X156105100Y-91104256D01*
X156121000Y-91102107D01*
X156125845Y-91098106D01*
X156137611Y-91087716D01*
X156148881Y-91076773D01*
X156159654Y-91065276D01*
X156169931Y-91053226D01*
X156179712Y-91040623D01*
X156188997Y-91027466D01*
X156192499Y-91022062D01*
X156200265Y-91007858D01*
X156206620Y-90992662D01*
X156211562Y-90976473D01*
X156215092Y-90959292D01*
X156217210Y-90941119D01*
X156217916Y-90921953D01*
X156217600Y-90909451D01*
X156216195Y-90893551D01*
X156213272Y-90876714D01*
X156208928Y-90860990D01*
X156205663Y-90852755D01*
X156198103Y-90838893D01*
X156188380Y-90826267D01*
X156176492Y-90814877D01*
X156173548Y-90812519D01*
X156160517Y-90803787D01*
X156145484Y-90796179D01*
X156130687Y-90790444D01*
X156114357Y-90785568D01*
X156101526Y-90782641D01*
X156084820Y-90779783D01*
X156066685Y-90777640D01*
X156050481Y-90776400D01*
X156033285Y-90775656D01*
X156015096Y-90775408D01*
X156004419Y-90775499D01*
X155988476Y-90775980D01*
X155972623Y-90776873D01*
X155956859Y-90778178D01*
X155941184Y-90779896D01*
X155925599Y-90782025D01*
X155910103Y-90784567D01*
X155894696Y-90787521D01*
X155879378Y-90790887D01*
X155864150Y-90794665D01*
X155849011Y-90798855D01*
X155843974Y-90800366D01*
X155829081Y-90805144D01*
X155809737Y-90812093D01*
X155790979Y-90819701D01*
X155772808Y-90827969D01*
X155755222Y-90836896D01*
X155738223Y-90846482D01*
X155721810Y-90856728D01*
X155705983Y-90867634D01*
X155690827Y-90879241D01*
X155676429Y-90891399D01*
X155662788Y-90904105D01*
X155649905Y-90917362D01*
X155637778Y-90931168D01*
X155626408Y-90945523D01*
X155615796Y-90960428D01*
X155605941Y-90975882D01*
X155596965Y-90991862D01*
X155589186Y-91008342D01*
X155582603Y-91025323D01*
X155577218Y-91042805D01*
X155573029Y-91060787D01*
X155570037Y-91079270D01*
X155568242Y-91098254D01*
X155567644Y-91117739D01*
X155343879Y-91117739D01*
X155344322Y-91110285D01*
X155345700Y-91093827D01*
X155347472Y-91077483D01*
X155349639Y-91061251D01*
X155352199Y-91045133D01*
X155355152Y-91029127D01*
X155358500Y-91013235D01*
X155362241Y-90997455D01*
X155366377Y-90981788D01*
X155370906Y-90966235D01*
X155375829Y-90950794D01*
X155381146Y-90935466D01*
X155386857Y-90920251D01*
X155392961Y-90905150D01*
X155399421Y-90890222D01*
X155406199Y-90875529D01*
X155413294Y-90861071D01*
X155420707Y-90846849D01*
X155428437Y-90832861D01*
X155436485Y-90819109D01*
X155444851Y-90805592D01*
X155453533Y-90792309D01*
X155462534Y-90779262D01*
X155471852Y-90766450D01*
X155481487Y-90753873D01*
X155491440Y-90741531D01*
X155501710Y-90729424D01*
X155512298Y-90717553D01*
X155523204Y-90705916D01*
X155534427Y-90694515D01*
X155545904Y-90683427D01*
X155557672Y-90672636D01*
X155569730Y-90662142D01*
X155582078Y-90651943D01*
X155594716Y-90642040D01*
X155607644Y-90632434D01*
X155620863Y-90623124D01*
X155634371Y-90614110D01*
X155648169Y-90605392D01*
X155662257Y-90596970D01*
X155676635Y-90588844D01*
X155691304Y-90581015D01*
X155706262Y-90573481D01*
X155721510Y-90566244D01*
X155737049Y-90559303D01*
X155752877Y-90552658D01*
X155768900Y-90546412D01*
X155785117Y-90540568D01*
X155801531Y-90535128D01*
X155818139Y-90530090D01*
X155834943Y-90525456D01*
X155851942Y-90521224D01*
X155869137Y-90517396D01*
X155886527Y-90513970D01*
X155904113Y-90510948D01*
X155921893Y-90508328D01*
X155939870Y-90506112D01*
X155958041Y-90504298D01*
X155976408Y-90502888D01*
X155994971Y-90501880D01*
X156013729Y-90501276D01*
X156032682Y-90501074D01*
X156057271Y-90501408D01*
G37*
G36*
X155592654Y-91935268D02*
G01*
X155592654Y-91723852D01*
X155367560Y-91780125D01*
X155367560Y-91989197D01*
X155112375Y-92052505D01*
X155067434Y-92342861D01*
X155367560Y-92266266D01*
X155367560Y-92669169D01*
X155592654Y-92612896D01*
X155592654Y-92212337D01*
X156013143Y-92113077D01*
X156030587Y-92109812D01*
X156046772Y-92107101D01*
X156064531Y-92104577D01*
X156080477Y-92102851D01*
X156096789Y-92101844D01*
X156103024Y-92101744D01*
X156119504Y-92102465D01*
X156138095Y-92105392D01*
X156154454Y-92110570D01*
X156168580Y-92118001D01*
X156182584Y-92129889D01*
X156193374Y-92145020D01*
X156194859Y-92147857D01*
X156201501Y-92162573D01*
X156207018Y-92177899D01*
X156211409Y-92193836D01*
X156214673Y-92210383D01*
X156216812Y-92227541D01*
X156217826Y-92245310D01*
X156217916Y-92252588D01*
X156217563Y-92271716D01*
X156216504Y-92290996D01*
X156214739Y-92310428D01*
X156212818Y-92326084D01*
X156210446Y-92341838D01*
X156207622Y-92357689D01*
X156204346Y-92373638D01*
X156203457Y-92377641D01*
X156199591Y-92393614D01*
X156195421Y-92409490D01*
X156190945Y-92425268D01*
X156186164Y-92440949D01*
X156181078Y-92456531D01*
X156175686Y-92472016D01*
X156169989Y-92487404D01*
X156163987Y-92502693D01*
X156384001Y-92500348D01*
X156391188Y-92482720D01*
X156397898Y-92464616D01*
X156404133Y-92446035D01*
X156409891Y-92426978D01*
X156415172Y-92407445D01*
X156419978Y-92387435D01*
X156423269Y-92372115D01*
X156426293Y-92356528D01*
X156428160Y-92345987D01*
X156430814Y-92330170D01*
X156433207Y-92314374D01*
X156435338Y-92298599D01*
X156437209Y-92282844D01*
X156438819Y-92267110D01*
X156440168Y-92251396D01*
X156441255Y-92235703D01*
X156442082Y-92220031D01*
X156442647Y-92204379D01*
X156442952Y-92188748D01*
X156443010Y-92178339D01*
X156442711Y-92156175D01*
X156441813Y-92134723D01*
X156440317Y-92113982D01*
X156438223Y-92093953D01*
X156435530Y-92074635D01*
X156432239Y-92056028D01*
X156428349Y-92038133D01*
X156423861Y-92020949D01*
X156418775Y-92004476D01*
X156413090Y-91988715D01*
X156406807Y-91973665D01*
X156399926Y-91959326D01*
X156388481Y-91939152D01*
X156375691Y-91920578D01*
X156366415Y-91909085D01*
X156351369Y-91893232D01*
X156335100Y-91878938D01*
X156317609Y-91866204D01*
X156298894Y-91855028D01*
X156278957Y-91845412D01*
X156257798Y-91837356D01*
X156235415Y-91830859D01*
X156219814Y-91827393D01*
X156203670Y-91824621D01*
X156186982Y-91822542D01*
X156169750Y-91821156D01*
X156151976Y-91820463D01*
X156142884Y-91820376D01*
X156127099Y-91820582D01*
X156111201Y-91821199D01*
X156095192Y-91822228D01*
X156079070Y-91823668D01*
X156069807Y-91824675D01*
X156053151Y-91827045D01*
X156036008Y-91830050D01*
X156018380Y-91833691D01*
X156002882Y-91837318D01*
X155989695Y-91840697D01*
X155592654Y-91935268D01*
G37*
G36*
X156443010Y-93092784D02*
G01*
X156442679Y-93070449D01*
X156441685Y-93048973D01*
X156440029Y-93028354D01*
X156437710Y-93008593D01*
X156434729Y-92989690D01*
X156431085Y-92971646D01*
X156426779Y-92954458D01*
X156421810Y-92938129D01*
X156416178Y-92922658D01*
X156409885Y-92908045D01*
X156399202Y-92887733D01*
X156387028Y-92869352D01*
X156373364Y-92852901D01*
X156358209Y-92838381D01*
X156341689Y-92825530D01*
X156324077Y-92813944D01*
X156305373Y-92803622D01*
X156285577Y-92794563D01*
X156264689Y-92786769D01*
X156242708Y-92780239D01*
X156227447Y-92776587D01*
X156211701Y-92773497D01*
X156195470Y-92770969D01*
X156178753Y-92769003D01*
X156161551Y-92767599D01*
X156143863Y-92766756D01*
X156125690Y-92766475D01*
X156106054Y-92766754D01*
X156085834Y-92767588D01*
X156065030Y-92768979D01*
X156043642Y-92770927D01*
X156021671Y-92773431D01*
X155999115Y-92776491D01*
X155975976Y-92780108D01*
X155960225Y-92782828D01*
X155944215Y-92785795D01*
X155927946Y-92789010D01*
X155911417Y-92792472D01*
X155894628Y-92796182D01*
X155886136Y-92798129D01*
X155367560Y-92923963D01*
X155367560Y-93200642D01*
X155876757Y-93081451D01*
X155893659Y-93077097D01*
X155910170Y-93073025D01*
X155926290Y-93069233D01*
X155942019Y-93065722D01*
X155957357Y-93062492D01*
X155975981Y-93058849D01*
X155993994Y-93055645D01*
X156001028Y-93054487D01*
X156018064Y-93051897D01*
X156034489Y-93049747D01*
X156050304Y-93048035D01*
X156068476Y-93046561D01*
X156085768Y-93045718D01*
X156099507Y-93045498D01*
X156120668Y-93046488D01*
X156139747Y-93049455D01*
X156156746Y-93054401D01*
X156171662Y-93061325D01*
X156188314Y-93073635D01*
X156201265Y-93089462D01*
X156208549Y-93103640D01*
X156213753Y-93119797D01*
X156216875Y-93137932D01*
X156217916Y-93158046D01*
X156217277Y-93177077D01*
X156215359Y-93194850D01*
X156212163Y-93211363D01*
X156207688Y-93226617D01*
X156200631Y-93243259D01*
X156191733Y-93258087D01*
X156181475Y-93272018D01*
X156170337Y-93285675D01*
X156158321Y-93299056D01*
X156145424Y-93312163D01*
X156134006Y-93322875D01*
X156126862Y-93329211D01*
X156111182Y-93331458D01*
X156093892Y-93333752D01*
X156076972Y-93335799D01*
X156065899Y-93337027D01*
X156048482Y-93339623D01*
X156031806Y-93342969D01*
X156016293Y-93346699D01*
X155999920Y-93351176D01*
X155997511Y-93351877D01*
X155367560Y-93500376D01*
X155367560Y-93777055D01*
X155988914Y-93626210D01*
X156006467Y-93622428D01*
X156023909Y-93618944D01*
X156041238Y-93615760D01*
X156058456Y-93612875D01*
X156068244Y-93611360D01*
X156085397Y-93609228D01*
X156102662Y-93607620D01*
X156120040Y-93606536D01*
X156137529Y-93605975D01*
X156147574Y-93605889D01*
X156163737Y-93606097D01*
X156179789Y-93606720D01*
X156195732Y-93607758D01*
X156211565Y-93609211D01*
X156227289Y-93611079D01*
X156242902Y-93613363D01*
X156258405Y-93616062D01*
X156273799Y-93619176D01*
X156289125Y-93622699D01*
X156304427Y-93626430D01*
X156319704Y-93630368D01*
X156334957Y-93634515D01*
X156350185Y-93638868D01*
X156365390Y-93643429D01*
X156380569Y-93648198D01*
X156395725Y-93653175D01*
X156436367Y-93410104D01*
X156421976Y-93402901D01*
X156414092Y-93398771D01*
X156399926Y-93392128D01*
X156384782Y-93385484D01*
X156369737Y-93379330D01*
X156356646Y-93374152D01*
X156341698Y-93368982D01*
X156337497Y-93367508D01*
X156348057Y-93352796D01*
X156358731Y-93336749D01*
X156367353Y-93322949D01*
X156376048Y-93308295D01*
X156384816Y-93292785D01*
X156393658Y-93276421D01*
X156402573Y-93259202D01*
X156407057Y-93250272D01*
X156415484Y-93232082D01*
X156422787Y-93213464D01*
X156428966Y-93194419D01*
X156434022Y-93174947D01*
X156437954Y-93155047D01*
X156440763Y-93134720D01*
X156442448Y-93113966D01*
X156442975Y-93098119D01*
X156443010Y-93092784D01*
G37*
G36*
X156217916Y-94241311D02*
G01*
X156217641Y-94263007D01*
X156216817Y-94283398D01*
X156215443Y-94302483D01*
X156213519Y-94320263D01*
X156211046Y-94336738D01*
X156206894Y-94356674D01*
X156201765Y-94374290D01*
X156195659Y-94389586D01*
X156186653Y-94405443D01*
X156176484Y-94418502D01*
X156163551Y-94431251D01*
X156149822Y-94440814D01*
X156135296Y-94447188D01*
X156119972Y-94450376D01*
X156112012Y-94450774D01*
X156095396Y-94449278D01*
X156079419Y-94444355D01*
X156076450Y-94442958D01*
X156062730Y-94433950D01*
X156051446Y-94422776D01*
X156045969Y-94415994D01*
X156036726Y-94402576D01*
X156028472Y-94388020D01*
X156021188Y-94373109D01*
X156016660Y-94362847D01*
X156009920Y-94347264D01*
X156003756Y-94332509D01*
X155997234Y-94316462D01*
X155990356Y-94299124D01*
X155984351Y-94283689D01*
X155981879Y-94277264D01*
X155976183Y-94261779D01*
X155970424Y-94246782D01*
X155963141Y-94228724D01*
X155955762Y-94211428D01*
X155948288Y-94194896D01*
X155940718Y-94179127D01*
X155934594Y-94167062D01*
X155926597Y-94152667D01*
X155918237Y-94139035D01*
X155907727Y-94123684D01*
X155896695Y-94109433D01*
X155885141Y-94096280D01*
X155877148Y-94088122D01*
X155864495Y-94076934D01*
X155851155Y-94066818D01*
X155837127Y-94057774D01*
X155822413Y-94049801D01*
X155807012Y-94042899D01*
X155801726Y-94040837D01*
X155785189Y-94035525D01*
X155767526Y-94031311D01*
X155751946Y-94028640D01*
X155735583Y-94026732D01*
X155718439Y-94025587D01*
X155700512Y-94025205D01*
X155680491Y-94025657D01*
X155660975Y-94027013D01*
X155641962Y-94029272D01*
X155623453Y-94032435D01*
X155605448Y-94036502D01*
X155587946Y-94041472D01*
X155570949Y-94047346D01*
X155554454Y-94054124D01*
X155538464Y-94061805D01*
X155522978Y-94070390D01*
X155507995Y-94079879D01*
X155493516Y-94090272D01*
X155479541Y-94101568D01*
X155466069Y-94113768D01*
X155453101Y-94126871D01*
X155440637Y-94140879D01*
X155428759Y-94155840D01*
X155417648Y-94171708D01*
X155407303Y-94188483D01*
X155397724Y-94206165D01*
X155388911Y-94224753D01*
X155380865Y-94244248D01*
X155373585Y-94264650D01*
X155367071Y-94285959D01*
X155361324Y-94308174D01*
X155356343Y-94331297D01*
X155352128Y-94355326D01*
X155348680Y-94380261D01*
X155345998Y-94406104D01*
X155344082Y-94432853D01*
X155342933Y-94460509D01*
X155342549Y-94489071D01*
X155342725Y-94510375D01*
X155343250Y-94531350D01*
X155344126Y-94551994D01*
X155345352Y-94572309D01*
X155346929Y-94592295D01*
X155348855Y-94611950D01*
X155351133Y-94631276D01*
X155353760Y-94650272D01*
X155356738Y-94668938D01*
X155360066Y-94687274D01*
X155362480Y-94699316D01*
X155366271Y-94716921D01*
X155370173Y-94733832D01*
X155374185Y-94750049D01*
X155378307Y-94765573D01*
X155383973Y-94785191D01*
X155389835Y-94803577D01*
X155395892Y-94820729D01*
X155402145Y-94836647D01*
X155408593Y-94851332D01*
X155623917Y-94750118D01*
X155616443Y-94733523D01*
X155609408Y-94716222D01*
X155602811Y-94698215D01*
X155597850Y-94683301D01*
X155593170Y-94667935D01*
X155588770Y-94652117D01*
X155584652Y-94635847D01*
X155583666Y-94631709D01*
X155579911Y-94614557D01*
X155576656Y-94596318D01*
X155573902Y-94576993D01*
X155571649Y-94556580D01*
X155570288Y-94540557D01*
X155569208Y-94523923D01*
X155568410Y-94506678D01*
X155567894Y-94488821D01*
X155567659Y-94470353D01*
X155567644Y-94464061D01*
X155568059Y-94447832D01*
X155569158Y-94431956D01*
X155570944Y-94415012D01*
X155571161Y-94413258D01*
X155573568Y-94397679D01*
X155577766Y-94380948D01*
X155583567Y-94364828D01*
X155585620Y-94360111D01*
X155593260Y-94345487D01*
X155602503Y-94332390D01*
X155613349Y-94320819D01*
X155615711Y-94318688D01*
X155629807Y-94309120D01*
X155644706Y-94303869D01*
X155661589Y-94301900D01*
X155663387Y-94301884D01*
X155680046Y-94302931D01*
X155695404Y-94306377D01*
X155698167Y-94307355D01*
X155711722Y-94315512D01*
X155723471Y-94326888D01*
X155727085Y-94331193D01*
X155736237Y-94343954D01*
X155744669Y-94358050D01*
X155752320Y-94372656D01*
X155757176Y-94382777D01*
X155764221Y-94398717D01*
X155770586Y-94414077D01*
X155777254Y-94431003D01*
X155783041Y-94446304D01*
X155789039Y-94462694D01*
X155792738Y-94473049D01*
X155799479Y-94489651D01*
X155806220Y-94505655D01*
X155812961Y-94521061D01*
X155819702Y-94535868D01*
X155826443Y-94550077D01*
X155834870Y-94566997D01*
X155843296Y-94582981D01*
X155846667Y-94589113D01*
X155855143Y-94603865D01*
X155863962Y-94617835D01*
X155873125Y-94631022D01*
X155884574Y-94645814D01*
X155896517Y-94659479D01*
X155906848Y-94670006D01*
X155919703Y-94681671D01*
X155933355Y-94692043D01*
X155947803Y-94701125D01*
X155963048Y-94708914D01*
X155979091Y-94715413D01*
X155984615Y-94717292D01*
X156001953Y-94722339D01*
X156017367Y-94725747D01*
X156033659Y-94728429D01*
X156050828Y-94730387D01*
X156068876Y-94731620D01*
X156087801Y-94732127D01*
X156091691Y-94732142D01*
X156107781Y-94731721D01*
X156123809Y-94730457D01*
X156139776Y-94728350D01*
X156155683Y-94725401D01*
X156171528Y-94721609D01*
X156187312Y-94716974D01*
X156203035Y-94711497D01*
X156218697Y-94705177D01*
X156234042Y-94697960D01*
X156249008Y-94689790D01*
X156263595Y-94680668D01*
X156277804Y-94670593D01*
X156291634Y-94659565D01*
X156305086Y-94647585D01*
X156318159Y-94634652D01*
X156330854Y-94620767D01*
X156343066Y-94605856D01*
X156354692Y-94589846D01*
X156365732Y-94572737D01*
X156373627Y-94559184D01*
X156381192Y-94545012D01*
X156388428Y-94530222D01*
X156395334Y-94514815D01*
X156401910Y-94498788D01*
X156408157Y-94482144D01*
X156412138Y-94470704D01*
X156417655Y-94453096D01*
X156422629Y-94434856D01*
X156427061Y-94415983D01*
X156430950Y-94396479D01*
X156434297Y-94376343D01*
X156437101Y-94355574D01*
X156439362Y-94334174D01*
X156441080Y-94312142D01*
X156442256Y-94289478D01*
X156442889Y-94266181D01*
X156443010Y-94250300D01*
X156442914Y-94233203D01*
X156442625Y-94216498D01*
X156442144Y-94200184D01*
X156441471Y-94184262D01*
X156440274Y-94163642D01*
X156438736Y-94143718D01*
X156436855Y-94124490D01*
X156434632Y-94105958D01*
X156432068Y-94088122D01*
X156429357Y-94071007D01*
X156426499Y-94054441D01*
X156423495Y-94038425D01*
X156420344Y-94022958D01*
X156416200Y-94004398D01*
X156411826Y-93986696D01*
X156407224Y-93969853D01*
X156406276Y-93966587D01*
X156401494Y-93950765D01*
X156396674Y-93935782D01*
X156390840Y-93918911D01*
X156384950Y-93903249D01*
X156378010Y-93886504D01*
X156375013Y-93879832D01*
X156368094Y-93865308D01*
X156360828Y-93850403D01*
X156353471Y-93835795D01*
X156347658Y-93824731D01*
X156134678Y-93928290D01*
X156142486Y-93943164D01*
X156150523Y-93959698D01*
X156157118Y-93974120D01*
X156163859Y-93989605D01*
X156170746Y-94006153D01*
X156177781Y-94023763D01*
X156184961Y-94042435D01*
X156188607Y-94052170D01*
X156193844Y-94067246D01*
X156198567Y-94082871D01*
X156202775Y-94099046D01*
X156206467Y-94115771D01*
X156209644Y-94133045D01*
X156212306Y-94150868D01*
X156214452Y-94169241D01*
X156216084Y-94188164D01*
X156217200Y-94207636D01*
X156217801Y-94227658D01*
X156217916Y-94241311D01*
G37*
D11*
%TO.C,U3*%
X126735000Y-103025000D03*
X132515000Y-103025000D03*
D12*
X125299999Y-102544999D03*
D13*
X133954999Y-102514999D03*
X125299999Y-106724999D03*
X133949999Y-106724999D03*
%TD*%
D14*
%TO.C,J4*%
X113760000Y-79330000D03*
X117470000Y-83240000D03*
X117500000Y-106420000D03*
X117510000Y-97250000D03*
X156470000Y-83250000D03*
X156490000Y-97250000D03*
X156530000Y-106410000D03*
X160220000Y-79330000D03*
%TD*%
D15*
%TO.C,j1*%
X126910000Y-83770000D03*
D16*
X147110000Y-83770000D03*
%TD*%
D11*
%TO.C,U2*%
X141576625Y-103028375D03*
X147356625Y-103028375D03*
D12*
X140141624Y-102548374D03*
D13*
X148796624Y-102518374D03*
X140141624Y-106728374D03*
X148791624Y-106728374D03*
%TD*%
M02*
