M48
; DRILL file {KiCad (7.0.0)} date Wed Apr 19 19:18:24 2023
; FORMAT={-:-/ absolute / inch / decimal}
; #@! TF.CreationDate,2023-04-19T19:18:24+08:00
; #@! TF.GenerationSoftware,Kicad,Pcbnew,(7.0.0)
; #@! TF.FileFunction,Plated,1,2,PTH
FMAT,2
INCH
; #@! TA.AperFunction,Plated,PTH,ViaDrill
T1C0.0118
; #@! TA.AperFunction,Plated,PTH,ViaDrill
T2C0.0157
; #@! TA.AperFunction,Plated,PTH,ComponentDrill
T3C0.0256
; #@! TA.AperFunction,Plated,PTH,ComponentDrill
T4C0.0984
%
G90
G05
T1
X4.6427Y-3.0108
X4.6673Y-4.0256
X4.6939Y-4.0512
X4.7323Y-4.2274
X4.7411Y-3.0108
X4.7528Y-3.4197
X4.7785Y-4.0581
X4.7785Y-4.0906
X4.78Y-3.5753
X4.7825Y-4.25
X4.7854Y-3.4189
X4.7862Y-3.3906
X4.8138Y-3.5067
X4.8179Y-3.9705
X4.8209Y-4.1122
X4.8307Y-3.5862
X4.8435Y-3.0108
X4.8435Y-3.9705
X4.8691Y-3.9705
X4.8691Y-3.997
X4.8799Y-4.2736
X4.8831Y-3.5465
X4.8937Y-3.997
X4.8947Y-3.9705
X4.9419Y-3.0108
X4.9518Y-3.6437
X4.9567Y-3.3494
X4.9783Y-3.6437
X4.9807Y-3.3717
X4.9807Y-3.5953
X4.9811Y-3.5575
X5.0024Y-3.348
X5.0055Y-3.9343
X5.0327Y-3.3949
X5.0364Y-3.9321
X5.0446Y-3.273
X5.0446Y-3.3026
X5.0551Y-3.4681
X5.0555Y-3.3709
X5.0602Y-3.5197
X5.0618Y-3.5567
X5.0736Y-2.8083
X5.0756Y-3.4469
X5.0787Y-3.4894
X5.0928Y-3.7039
X5.1223Y-3.7039
X5.1457Y-2.8409
X5.1457Y-3.6213
X5.1539Y-3.5567
X5.1567Y-3.339
X5.1685Y-3.6579
X5.1724Y-3.7067
X5.1728Y-3.7488
X5.1787Y-3.828
X5.1807Y-3.9335
X5.189Y-3.428
X5.2195Y-3.3386
X5.2453Y-2.822
X5.2504Y-3.4283
X5.252Y-3.5579
X5.2835Y-3.428
X5.3035Y-3.6189
X5.3106Y-3.5508
X5.3142Y-3.4323
X5.3429Y-3.4276
X5.349Y-3.6189
X5.3571Y-3.5051
X5.3594Y-2.8315
X5.3713Y-3.8256
X5.378Y-3.4268
X5.3996Y-3.5567
X5.4031Y-3.6189
X5.4098Y-3.3386
X5.4378Y-2.8307
X5.4413Y-3.4244
X5.4484Y-3.5567
X5.4488Y-3.6189
X5.4732Y-3.3409
X5.5039Y-3.4256
X5.5325Y-3.7965
X5.5366Y-3.3402
X5.5429Y-2.828
X5.5445Y-3.513
X5.5616Y-3.7335
X5.5616Y-3.763
X5.5685Y-3.426
X5.5771Y-3.4799
X5.5977Y-3.5768
X5.6Y-3.3413
X5.6303Y-3.5437
X5.6307Y-3.4272
X5.6417Y-2.8154
X5.6766Y-3.6055
X5.678Y-3.4472
X5.6975Y-3.884
X5.7006Y-3.5715
X5.7244Y-3.4469
X5.727Y-3.884
X5.7413Y-2.8256
X5.7551Y-3.3681
X5.7858Y-3.3575
X5.8028Y-2.8181
X5.8161Y-3.5157
X5.8193Y-3.4441
X5.8626Y-3.5154
X5.8657Y-3.4437
X5.9055Y-3.548
X5.9326Y-3.4635
X5.936Y-3.6713
X5.9402Y-2.8232
X5.9657Y-3.4961
X5.9665Y-3.6713
X6.0161Y-3.022
X6.1012Y-4.0142
X6.115Y-3.0453
X6.1496Y-3.936
X6.15Y-4.0232
X6.1673Y-4.0679
T2
X4.6053Y-3.9508
X4.627Y-3.0817
X4.7441Y-3.3642
X5.0727Y-4.1406
X5.1347Y-4.1406
X5.6053Y-3.8289
X5.6574Y-4.1289
X5.7194Y-4.1289
X5.874Y-3.9665
X5.997Y-3.7323
X6.0217Y-3.2283
T4
X4.4787Y-3.1232
X4.6248Y-3.2772
X4.626Y-4.1898
X4.6264Y-3.8287
X6.1602Y-3.2776
X6.161Y-3.8287
X6.1626Y-4.1894
X6.3079Y-3.1232
T3
G00X4.9331Y-4.0161
M15
G01X4.9331Y-4.0583
M16
G05
G00X4.9331Y-4.187
M15
G01X4.9331Y-4.2165
M16
G05
G00X5.2736Y-4.187
M15
G01X5.2736Y-4.2165
M16
G05
G00X5.2738Y-4.0213
M15
G01X5.2738Y-4.0508
M16
G05
G00X5.5174Y-4.0163
M15
G01X5.5174Y-4.0584
M16
G05
G00X5.5174Y-4.1871
M15
G01X5.5174Y-4.2167
M16
G05
G00X5.8579Y-4.1871
M15
G01X5.8579Y-4.2167
M16
G05
G00X5.8581Y-4.0214
M15
G01X5.8581Y-4.0509
M16
G05
T0
M30
