%TF.GenerationSoftware,KiCad,Pcbnew,(7.0.0)*%
%TF.CreationDate,2023-04-20T14:35:00+08:00*%
%TF.ProjectId,Expansion,45787061-6e73-4696-9f6e-2e6b69636164,rev?*%
%TF.SameCoordinates,Original*%
%TF.FileFunction,Legend,Top*%
%TF.FilePolarity,Positive*%
%FSLAX46Y46*%
G04 Gerber Fmt 4.6, Leading zero omitted, Abs format (unit mm)*
G04 Created by KiCad (PCBNEW (7.0.0)) date 2023-04-20 14:35:00*
%MOMM*%
%LPD*%
G01*
G04 APERTURE LIST*
%ADD10C,0.150000*%
%ADD11C,0.300000*%
%ADD12C,0.120000*%
%ADD13C,0.127000*%
%ADD14C,0.100000*%
%ADD15C,0.200000*%
G04 APERTURE END LIST*
D10*
X118650000Y-90975000D02*
X118225001Y-90550001D01*
X114787783Y-92750749D02*
X115176691Y-92326484D01*
X115590000Y-90975000D02*
X118650000Y-90975000D01*
X116975000Y-91874999D02*
X116925000Y-91325000D01*
X116925000Y-91325000D02*
X116975000Y-91874999D01*
X118650000Y-90975000D02*
X118225001Y-91399999D01*
X116550144Y-94029396D02*
G75*
G03*
X114787783Y-92750749I-1309844J48496D01*
G01*
X116975000Y-91874999D02*
X116400000Y-91900000D01*
X115212047Y-93104301D02*
X114787783Y-92750749D01*
X115590000Y-90980000D02*
X115590000Y-94460000D01*
X116633016Y-89724739D02*
G75*
G03*
X116975000Y-91874999I891984J-960461D01*
G01*
X115590000Y-94460000D02*
X115165000Y-94035000D01*
X115590000Y-94460000D02*
X116015000Y-94035000D01*
G36*
X135154633Y-108036385D02*
G01*
X135165749Y-108034243D01*
X135176993Y-108032030D01*
X135188364Y-108029747D01*
X135199864Y-108027394D01*
X135211491Y-108024969D01*
X135223246Y-108022474D01*
X135235129Y-108019909D01*
X135247140Y-108017273D01*
X135259279Y-108014566D01*
X135271545Y-108011789D01*
X135283940Y-108008941D01*
X135296462Y-108006022D01*
X135309112Y-108003033D01*
X135321890Y-107999973D01*
X135334796Y-107996843D01*
X135347829Y-107993642D01*
X135360927Y-107990365D01*
X135374024Y-107987067D01*
X135387122Y-107983748D01*
X135400219Y-107980407D01*
X135413317Y-107977046D01*
X135426414Y-107973664D01*
X135439512Y-107970261D01*
X135452609Y-107966837D01*
X135465707Y-107963391D01*
X135478804Y-107959925D01*
X135491902Y-107956438D01*
X135505000Y-107952930D01*
X135518097Y-107949401D01*
X135531195Y-107945851D01*
X135544292Y-107942280D01*
X135557390Y-107938688D01*
X135570422Y-107935082D01*
X135583386Y-107931471D01*
X135596281Y-107927854D01*
X135609108Y-107924231D01*
X135621866Y-107920603D01*
X135634555Y-107916969D01*
X135647176Y-107913329D01*
X135659727Y-107909684D01*
X135672210Y-107906032D01*
X135684625Y-107902376D01*
X135696971Y-107898713D01*
X135709248Y-107895044D01*
X135721456Y-107891370D01*
X135733596Y-107887690D01*
X135745666Y-107884005D01*
X135757669Y-107880314D01*
X135769513Y-107876636D01*
X135781169Y-107872990D01*
X135792639Y-107869377D01*
X135803922Y-107865796D01*
X135815018Y-107862248D01*
X135825927Y-107858732D01*
X135836649Y-107855249D01*
X135847184Y-107851798D01*
X135857532Y-107848380D01*
X135867692Y-107844994D01*
X135877666Y-107841640D01*
X135887453Y-107838319D01*
X135897053Y-107835030D01*
X135906466Y-107831774D01*
X135915692Y-107828550D01*
X135924731Y-107825359D01*
X135911089Y-107821077D01*
X135901747Y-107818146D01*
X135892206Y-107815154D01*
X135882467Y-107812101D01*
X135872530Y-107808987D01*
X135862394Y-107805812D01*
X135852059Y-107802576D01*
X135841526Y-107799278D01*
X135830795Y-107795920D01*
X135819865Y-107792501D01*
X135808736Y-107789020D01*
X135797410Y-107785479D01*
X135785884Y-107781876D01*
X135774161Y-107778212D01*
X135762239Y-107774488D01*
X135756203Y-107772602D01*
X135744052Y-107768820D01*
X135731840Y-107765042D01*
X135719567Y-107761271D01*
X135707233Y-107757505D01*
X135694837Y-107753745D01*
X135682381Y-107749991D01*
X135669863Y-107746242D01*
X135657285Y-107742500D01*
X135644645Y-107738762D01*
X135631945Y-107735031D01*
X135619183Y-107731305D01*
X135606360Y-107727585D01*
X135593476Y-107723871D01*
X135580532Y-107720163D01*
X135567526Y-107716460D01*
X135554459Y-107712763D01*
X135541365Y-107709083D01*
X135528279Y-107705432D01*
X135515200Y-107701809D01*
X135502130Y-107698215D01*
X135489066Y-107694650D01*
X135476011Y-107691113D01*
X135462963Y-107687605D01*
X135449923Y-107684125D01*
X135436890Y-107680675D01*
X135423865Y-107677252D01*
X135410848Y-107673859D01*
X135397838Y-107670494D01*
X135384836Y-107667157D01*
X135371841Y-107663849D01*
X135358855Y-107660570D01*
X135345875Y-107657320D01*
X135332935Y-107654089D01*
X135320127Y-107650931D01*
X135307450Y-107647846D01*
X135294905Y-107644833D01*
X135282491Y-107641892D01*
X135270210Y-107639024D01*
X135258059Y-107636229D01*
X135246041Y-107633506D01*
X135234154Y-107630856D01*
X135222399Y-107628278D01*
X135210776Y-107625772D01*
X135199284Y-107623340D01*
X135187924Y-107620979D01*
X135176695Y-107618691D01*
X135165598Y-107616476D01*
X135154633Y-107614333D01*
X135154633Y-107493433D01*
X135165599Y-107495664D01*
X135177248Y-107498144D01*
X135189579Y-107500873D01*
X135202593Y-107503851D01*
X135216289Y-107507078D01*
X135225799Y-107509368D01*
X135235613Y-107511769D01*
X135245730Y-107514280D01*
X135256150Y-107516902D01*
X135266874Y-107519634D01*
X135277901Y-107522477D01*
X135289232Y-107525431D01*
X135300866Y-107528496D01*
X135306796Y-107530069D01*
X135318793Y-107533253D01*
X135330969Y-107536515D01*
X135343324Y-107539855D01*
X135355859Y-107543274D01*
X135368573Y-107546770D01*
X135381466Y-107550345D01*
X135394539Y-107553998D01*
X135407791Y-107557730D01*
X135421222Y-107561539D01*
X135434833Y-107565427D01*
X135448623Y-107569393D01*
X135462593Y-107573438D01*
X135476742Y-107577560D01*
X135491070Y-107581761D01*
X135505578Y-107586040D01*
X135520265Y-107590397D01*
X135535067Y-107594824D01*
X135549982Y-107599312D01*
X135565010Y-107603861D01*
X135580150Y-107608471D01*
X135595403Y-107613142D01*
X135610768Y-107617875D01*
X135626246Y-107622668D01*
X135641837Y-107627522D01*
X135657540Y-107632438D01*
X135673355Y-107637414D01*
X135689284Y-107642452D01*
X135705324Y-107647550D01*
X135721478Y-107652710D01*
X135737744Y-107657930D01*
X135754122Y-107663212D01*
X135770614Y-107668555D01*
X135787111Y-107673942D01*
X135803571Y-107679355D01*
X135819993Y-107684795D01*
X135836376Y-107690262D01*
X135852721Y-107695756D01*
X135869028Y-107701276D01*
X135885297Y-107706823D01*
X135901528Y-107712397D01*
X135917720Y-107717997D01*
X135933875Y-107723624D01*
X135949991Y-107729278D01*
X135966069Y-107734959D01*
X135982109Y-107740666D01*
X135998111Y-107746400D01*
X136014074Y-107752160D01*
X136030000Y-107757948D01*
X136030000Y-107901318D01*
X136014077Y-107906775D01*
X135998122Y-107912214D01*
X135982135Y-107917636D01*
X135966115Y-107923041D01*
X135950062Y-107928428D01*
X135933978Y-107933799D01*
X135917861Y-107939152D01*
X135901711Y-107944488D01*
X135885529Y-107949807D01*
X135869314Y-107955109D01*
X135853068Y-107960394D01*
X135836788Y-107965661D01*
X135820476Y-107970911D01*
X135804132Y-107976144D01*
X135787755Y-107981360D01*
X135771346Y-107986559D01*
X135754944Y-107991725D01*
X135738648Y-107996840D01*
X135722460Y-108001906D01*
X135706378Y-108006923D01*
X135690403Y-108011890D01*
X135674535Y-108016807D01*
X135658773Y-108021675D01*
X135643119Y-108026493D01*
X135627571Y-108031261D01*
X135612131Y-108035980D01*
X135596797Y-108040649D01*
X135581570Y-108045269D01*
X135566449Y-108049839D01*
X135551436Y-108054359D01*
X135536530Y-108058830D01*
X135521730Y-108063251D01*
X135507040Y-108067610D01*
X135492524Y-108071892D01*
X135478181Y-108076097D01*
X135464012Y-108080226D01*
X135450017Y-108084279D01*
X135436196Y-108088256D01*
X135422548Y-108092156D01*
X135409073Y-108095980D01*
X135395772Y-108099728D01*
X135382645Y-108103399D01*
X135369692Y-108106994D01*
X135356912Y-108110512D01*
X135344306Y-108113955D01*
X135331873Y-108117321D01*
X135319614Y-108120610D01*
X135307529Y-108123824D01*
X135295655Y-108126920D01*
X135284089Y-108129918D01*
X135272833Y-108132820D01*
X135261886Y-108135624D01*
X135251248Y-108138330D01*
X135240920Y-108140940D01*
X135230900Y-108143452D01*
X135221189Y-108145867D01*
X135207203Y-108149306D01*
X135193912Y-108152527D01*
X135181317Y-108155529D01*
X135169417Y-108158311D01*
X135158213Y-108160875D01*
X135154633Y-108161681D01*
X135154633Y-108036385D01*
G37*
G36*
X135788475Y-106846269D02*
G01*
X135803651Y-106847243D01*
X135818341Y-106848865D01*
X135832544Y-106851135D01*
X135846261Y-106854055D01*
X135859491Y-106857623D01*
X135872235Y-106861840D01*
X135884492Y-106866706D01*
X135896262Y-106872220D01*
X135907546Y-106878384D01*
X135918343Y-106885196D01*
X135928654Y-106892657D01*
X135938478Y-106900766D01*
X135947816Y-106909525D01*
X135956667Y-106918932D01*
X135965031Y-106928988D01*
X135972898Y-106939752D01*
X135980258Y-106951286D01*
X135987110Y-106963589D01*
X135993455Y-106976661D01*
X135999292Y-106990502D01*
X136004621Y-107005111D01*
X136009443Y-107020490D01*
X136013757Y-107036638D01*
X136017564Y-107053554D01*
X136020863Y-107071240D01*
X136023655Y-107089695D01*
X136025939Y-107108918D01*
X136026891Y-107118818D01*
X136027715Y-107128911D01*
X136028413Y-107139196D01*
X136028984Y-107149672D01*
X136029428Y-107160342D01*
X136029746Y-107171203D01*
X136029936Y-107182257D01*
X136030000Y-107193503D01*
X136029923Y-107204463D01*
X136029731Y-107214805D01*
X136029422Y-107225848D01*
X136029065Y-107235871D01*
X136028778Y-107242840D01*
X136028212Y-107253373D01*
X136027610Y-107263906D01*
X136026975Y-107274439D01*
X136026305Y-107284972D01*
X136025601Y-107295505D01*
X136025359Y-107299016D01*
X136024466Y-107309557D01*
X136023435Y-107320116D01*
X136022268Y-107330692D01*
X136020963Y-107341285D01*
X136019520Y-107351895D01*
X136019009Y-107355436D01*
X136017326Y-107365720D01*
X136015574Y-107375506D01*
X136013443Y-107386293D01*
X136011220Y-107396403D01*
X136009239Y-107404528D01*
X135175394Y-107404528D01*
X135172783Y-107393629D01*
X135170625Y-107383441D01*
X135168583Y-107372645D01*
X135166925Y-107362908D01*
X135165868Y-107356168D01*
X135164306Y-107345776D01*
X135162914Y-107335297D01*
X135161695Y-107324733D01*
X135160648Y-107314082D01*
X135159772Y-107303346D01*
X135159518Y-107299748D01*
X135158728Y-107288992D01*
X135158007Y-107278339D01*
X135157354Y-107267789D01*
X135156770Y-107257342D01*
X135156255Y-107246998D01*
X135156099Y-107243572D01*
X135155601Y-107233403D01*
X135155206Y-107223594D01*
X135154875Y-107212606D01*
X135154685Y-107202109D01*
X135154633Y-107193503D01*
X135154689Y-107186664D01*
X135248422Y-107186664D01*
X135248440Y-107197822D01*
X135248494Y-107208550D01*
X135248583Y-107218850D01*
X135248709Y-107228719D01*
X135248906Y-107239997D01*
X135249155Y-107250655D01*
X135249569Y-107261852D01*
X135250271Y-107272759D01*
X135251353Y-107282621D01*
X135252575Y-107289246D01*
X135529790Y-107289246D01*
X135623579Y-107289246D01*
X135930593Y-107289246D01*
X135932357Y-107278825D01*
X135933330Y-107268864D01*
X135934256Y-107257494D01*
X135934920Y-107246171D01*
X135935369Y-107235948D01*
X135935722Y-107225010D01*
X135935979Y-107213356D01*
X135936117Y-107203518D01*
X135936193Y-107193221D01*
X135936210Y-107185198D01*
X135936103Y-107174326D01*
X135935783Y-107163568D01*
X135935249Y-107152924D01*
X135934501Y-107142395D01*
X135933539Y-107131980D01*
X135932363Y-107121680D01*
X135930974Y-107111494D01*
X135929371Y-107101423D01*
X135927421Y-107091554D01*
X135925112Y-107081975D01*
X135921722Y-107070409D01*
X135917771Y-107059297D01*
X135913259Y-107048638D01*
X135908187Y-107038431D01*
X135903726Y-107030593D01*
X135897563Y-107021191D01*
X135890827Y-107012375D01*
X135883519Y-107004142D01*
X135875638Y-106996494D01*
X135867185Y-106989430D01*
X135858159Y-106982951D01*
X135854389Y-106980523D01*
X135844337Y-106975035D01*
X135833414Y-106970476D01*
X135824048Y-106967500D01*
X135814126Y-106965118D01*
X135803646Y-106963332D01*
X135792610Y-106962142D01*
X135781016Y-106961546D01*
X135775010Y-106961472D01*
X135764481Y-106961747D01*
X135754387Y-106962571D01*
X135742381Y-106964374D01*
X135731055Y-106967036D01*
X135720409Y-106970557D01*
X135710442Y-106974936D01*
X135702958Y-106979057D01*
X135694091Y-106984827D01*
X135685809Y-106991146D01*
X135678111Y-106998012D01*
X135670997Y-107005428D01*
X135664467Y-107013392D01*
X135658522Y-107021905D01*
X135656308Y-107025464D01*
X135651127Y-107034697D01*
X135646424Y-107044383D01*
X135642197Y-107054522D01*
X135638448Y-107065115D01*
X135635175Y-107076161D01*
X135632380Y-107087660D01*
X135631395Y-107092386D01*
X135629144Y-107104288D01*
X135627274Y-107116333D01*
X135626052Y-107126073D01*
X135625075Y-107135903D01*
X135624343Y-107145826D01*
X135623854Y-107155840D01*
X135623610Y-107165945D01*
X135623579Y-107171032D01*
X135623579Y-107289246D01*
X135529790Y-107289246D01*
X135529790Y-107197899D01*
X135529617Y-107186908D01*
X135529098Y-107175917D01*
X135528234Y-107164926D01*
X135527023Y-107153935D01*
X135525467Y-107142944D01*
X135523565Y-107131953D01*
X135522707Y-107127557D01*
X135520285Y-107116739D01*
X135517445Y-107106267D01*
X135514188Y-107096141D01*
X135510514Y-107086360D01*
X135506422Y-107076926D01*
X135501913Y-107067837D01*
X135499993Y-107064298D01*
X135494833Y-107055725D01*
X135489126Y-107047712D01*
X135481552Y-107038836D01*
X135473189Y-107030767D01*
X135464035Y-107023506D01*
X135457494Y-107019113D01*
X135448676Y-107014258D01*
X135439167Y-107010226D01*
X135428965Y-107007017D01*
X135418072Y-107004630D01*
X135406487Y-107003067D01*
X135396721Y-107002409D01*
X135389106Y-107002260D01*
X135377403Y-107002642D01*
X135366261Y-107003787D01*
X135355679Y-107005695D01*
X135345658Y-107008367D01*
X135336197Y-107011801D01*
X135327297Y-107015999D01*
X135323893Y-107017892D01*
X135314079Y-107024014D01*
X135304968Y-107030841D01*
X135296562Y-107038371D01*
X135288860Y-107046606D01*
X135281862Y-107055545D01*
X135279685Y-107058681D01*
X135273626Y-107068398D01*
X135268271Y-107078682D01*
X135264346Y-107087685D01*
X135260910Y-107097081D01*
X135257963Y-107106871D01*
X135255505Y-107117055D01*
X135253465Y-107127448D01*
X135251770Y-107138020D01*
X135250421Y-107148772D01*
X135249418Y-107159702D01*
X135248761Y-107170811D01*
X135248450Y-107182099D01*
X135248422Y-107186664D01*
X135154689Y-107186664D01*
X135154732Y-107181442D01*
X135155028Y-107169532D01*
X135155522Y-107157771D01*
X135156213Y-107146162D01*
X135157102Y-107134702D01*
X135158188Y-107123393D01*
X135159472Y-107112233D01*
X135160953Y-107101225D01*
X135162632Y-107090366D01*
X135164508Y-107079658D01*
X135165868Y-107072602D01*
X135168110Y-107062155D01*
X135170622Y-107051969D01*
X135173405Y-107042045D01*
X135176459Y-107032383D01*
X135179782Y-107022982D01*
X135183377Y-107013844D01*
X135188590Y-107002067D01*
X135194283Y-106990755D01*
X135200458Y-106979909D01*
X135203726Y-106974661D01*
X135210588Y-106964567D01*
X135217984Y-106955045D01*
X135225914Y-106946096D01*
X135234378Y-106937719D01*
X135243377Y-106929915D01*
X135252910Y-106922683D01*
X135262978Y-106916024D01*
X135273579Y-106909937D01*
X135284715Y-106904498D01*
X135296508Y-106899785D01*
X135308956Y-106895797D01*
X135318724Y-106893282D01*
X135328860Y-106891175D01*
X135339366Y-106889475D01*
X135350241Y-106888184D01*
X135361485Y-106887300D01*
X135373099Y-106886824D01*
X135381046Y-106886734D01*
X135392509Y-106887086D01*
X135403818Y-106888142D01*
X135414972Y-106889902D01*
X135425972Y-106892366D01*
X135436817Y-106895535D01*
X135440397Y-106896748D01*
X135450993Y-106900686D01*
X135461349Y-106905174D01*
X135471464Y-106910211D01*
X135481338Y-106915799D01*
X135490973Y-106921935D01*
X135494131Y-106924103D01*
X135503350Y-106930895D01*
X135512140Y-106938082D01*
X135520500Y-106945664D01*
X135528432Y-106953641D01*
X135535933Y-106962013D01*
X135538339Y-106964891D01*
X135545073Y-106973713D01*
X135551173Y-106982774D01*
X135556637Y-106992077D01*
X135561465Y-107001619D01*
X135565659Y-107011402D01*
X135566915Y-107014717D01*
X135570821Y-107001459D01*
X135575301Y-106988613D01*
X135580357Y-106976180D01*
X135585989Y-106964159D01*
X135592196Y-106952549D01*
X135598978Y-106941352D01*
X135606335Y-106930568D01*
X135614268Y-106920195D01*
X135622776Y-106910234D01*
X135631859Y-106900686D01*
X135638234Y-106894549D01*
X135648215Y-106885863D01*
X135658742Y-106878032D01*
X135669814Y-106871054D01*
X135681431Y-106864931D01*
X135693593Y-106859663D01*
X135706300Y-106855248D01*
X135719553Y-106851688D01*
X135733351Y-106848983D01*
X135747695Y-106847132D01*
X135757560Y-106846372D01*
X135767667Y-106845993D01*
X135772812Y-106845945D01*
X135788475Y-106846269D01*
G37*
G36*
X136045631Y-106429267D02*
G01*
X136045434Y-106443580D01*
X136044841Y-106457485D01*
X136043854Y-106470983D01*
X136042471Y-106484073D01*
X136040694Y-106496754D01*
X136038521Y-106509028D01*
X136035954Y-106520894D01*
X136032991Y-106532353D01*
X136029634Y-106543403D01*
X136025882Y-106554045D01*
X136023161Y-106560914D01*
X136018743Y-106570900D01*
X136014007Y-106580526D01*
X136008954Y-106589791D01*
X136003583Y-106598695D01*
X135997894Y-106607239D01*
X135991888Y-106615422D01*
X135985564Y-106623244D01*
X135978922Y-106630706D01*
X135971963Y-106637807D01*
X135964686Y-106644548D01*
X135959658Y-106648841D01*
X135951849Y-106655002D01*
X135943718Y-106660845D01*
X135935265Y-106666371D01*
X135926490Y-106671579D01*
X135917393Y-106676469D01*
X135907974Y-106681041D01*
X135898234Y-106685296D01*
X135888171Y-106689233D01*
X135877786Y-106692852D01*
X135867079Y-106696154D01*
X135859762Y-106698178D01*
X135848509Y-106700928D01*
X135837008Y-106703407D01*
X135825257Y-106705616D01*
X135813257Y-106707555D01*
X135801008Y-106709223D01*
X135788510Y-106710620D01*
X135775763Y-106711747D01*
X135762767Y-106712604D01*
X135749522Y-106713190D01*
X135736028Y-106713505D01*
X135726894Y-106713565D01*
X135154633Y-106713565D01*
X135154633Y-106598039D01*
X135718834Y-106598039D01*
X135731145Y-106597933D01*
X135743074Y-106597618D01*
X135754621Y-106597092D01*
X135765786Y-106596356D01*
X135776569Y-106595409D01*
X135786969Y-106594252D01*
X135796988Y-106592884D01*
X135809751Y-106590734D01*
X135821836Y-106588209D01*
X135830453Y-106586071D01*
X135841352Y-106582926D01*
X135851702Y-106579476D01*
X135861502Y-106575721D01*
X135870753Y-106571660D01*
X135881544Y-106566155D01*
X135891476Y-106560173D01*
X135900549Y-106553714D01*
X135902260Y-106552365D01*
X135910281Y-106545346D01*
X135917550Y-106537873D01*
X135924067Y-106529947D01*
X135929833Y-106521568D01*
X135934848Y-106512735D01*
X135939112Y-106503450D01*
X135940607Y-106499609D01*
X135943843Y-106489713D01*
X135946531Y-106479411D01*
X135948671Y-106468704D01*
X135950262Y-106457591D01*
X135951304Y-106446073D01*
X135951798Y-106434150D01*
X135951842Y-106429267D01*
X135951567Y-106417181D01*
X135950745Y-106405501D01*
X135949373Y-106394226D01*
X135947453Y-106383357D01*
X135944984Y-106372893D01*
X135941967Y-106362835D01*
X135940607Y-106358925D01*
X135936644Y-106349458D01*
X135931929Y-106340444D01*
X135926464Y-106331884D01*
X135920247Y-106323777D01*
X135913278Y-106316123D01*
X135905559Y-106308922D01*
X135902260Y-106306168D01*
X135893359Y-106299614D01*
X135883599Y-106293536D01*
X135872980Y-106287936D01*
X135863867Y-106283799D01*
X135854204Y-106279968D01*
X135843991Y-106276441D01*
X135833229Y-106273220D01*
X135830453Y-106272463D01*
X135818878Y-106269658D01*
X135806624Y-106267227D01*
X135793691Y-106265170D01*
X135783545Y-106263873D01*
X135773017Y-106262786D01*
X135762107Y-106261909D01*
X135750815Y-106261243D01*
X135739140Y-106260787D01*
X135727084Y-106260542D01*
X135718834Y-106260495D01*
X135154633Y-106260495D01*
X135154633Y-106144968D01*
X135726894Y-106144968D01*
X135740554Y-106145105D01*
X135753965Y-106145518D01*
X135767127Y-106146205D01*
X135780040Y-106147166D01*
X135792704Y-106148403D01*
X135805119Y-106149914D01*
X135817284Y-106151700D01*
X135829201Y-106153761D01*
X135840869Y-106156096D01*
X135852288Y-106158707D01*
X135859762Y-106160600D01*
X135870684Y-106163646D01*
X135881283Y-106167014D01*
X135891561Y-106170704D01*
X135901516Y-106174716D01*
X135911150Y-106179050D01*
X135920461Y-106183706D01*
X135929451Y-106188684D01*
X135938118Y-106193985D01*
X135946464Y-106199607D01*
X135954487Y-106205551D01*
X135959658Y-106209692D01*
X135967147Y-106216193D01*
X135974318Y-106223053D01*
X135981171Y-106230275D01*
X135987707Y-106237857D01*
X135993925Y-106245799D01*
X135999826Y-106254103D01*
X136005409Y-106262767D01*
X136010674Y-106271791D01*
X136015621Y-106281176D01*
X136020251Y-106290922D01*
X136023161Y-106297620D01*
X136027176Y-106307990D01*
X136030797Y-106318769D01*
X136034023Y-106329955D01*
X136036854Y-106341549D01*
X136039289Y-106353551D01*
X136041330Y-106365961D01*
X136042976Y-106378779D01*
X136044227Y-106392004D01*
X136045082Y-106405638D01*
X136045543Y-106419679D01*
X136045631Y-106429267D01*
G37*
G36*
X135951842Y-105752226D02*
G01*
X135951710Y-105741308D01*
X135951315Y-105730721D01*
X135950657Y-105720464D01*
X135949735Y-105710536D01*
X135947859Y-105696265D01*
X135945390Y-105682736D01*
X135942329Y-105669949D01*
X135938676Y-105657906D01*
X135934429Y-105646605D01*
X135929591Y-105636047D01*
X135924160Y-105626232D01*
X135918136Y-105617159D01*
X135911477Y-105608866D01*
X135904229Y-105601388D01*
X135896393Y-105594727D01*
X135887968Y-105588881D01*
X135878956Y-105583850D01*
X135869355Y-105579636D01*
X135859167Y-105576237D01*
X135848390Y-105573654D01*
X135837025Y-105571886D01*
X135825071Y-105570934D01*
X135816775Y-105570753D01*
X135806765Y-105571016D01*
X135794779Y-105572086D01*
X135783376Y-105573979D01*
X135772558Y-105576694D01*
X135762325Y-105580233D01*
X135752675Y-105584594D01*
X135747166Y-105587606D01*
X135738333Y-105593153D01*
X135729845Y-105599260D01*
X135721703Y-105605928D01*
X135713907Y-105613156D01*
X135706457Y-105620945D01*
X135699353Y-105629294D01*
X135696608Y-105632791D01*
X135689882Y-105641741D01*
X135683442Y-105651038D01*
X135677288Y-105660680D01*
X135671420Y-105670668D01*
X135665839Y-105681001D01*
X135660544Y-105691681D01*
X135658506Y-105696050D01*
X135653516Y-105707076D01*
X135648622Y-105718175D01*
X135643823Y-105729345D01*
X135639119Y-105740586D01*
X135635425Y-105749631D01*
X135631792Y-105758721D01*
X135628220Y-105767857D01*
X135624064Y-105778310D01*
X135619778Y-105788664D01*
X135615363Y-105798918D01*
X135610818Y-105809073D01*
X135606143Y-105819129D01*
X135601338Y-105829086D01*
X135596404Y-105838943D01*
X135591339Y-105848702D01*
X135586046Y-105858219D01*
X135580547Y-105867478D01*
X135574842Y-105876477D01*
X135568930Y-105885216D01*
X135562813Y-105893696D01*
X135556489Y-105901916D01*
X135549959Y-105909877D01*
X135543224Y-105917578D01*
X135536179Y-105924951D01*
X135528844Y-105931927D01*
X135521219Y-105938507D01*
X135513304Y-105944689D01*
X135505099Y-105950474D01*
X135496604Y-105955863D01*
X135487819Y-105960855D01*
X135478743Y-105965450D01*
X135469248Y-105969571D01*
X135459326Y-105973143D01*
X135448976Y-105976166D01*
X135438199Y-105978639D01*
X135426994Y-105980562D01*
X135415362Y-105981936D01*
X135403303Y-105982760D01*
X135390816Y-105983035D01*
X135377086Y-105982755D01*
X135363739Y-105981913D01*
X135350776Y-105980511D01*
X135338197Y-105978547D01*
X135326001Y-105976023D01*
X135314189Y-105972937D01*
X135302760Y-105969291D01*
X135291714Y-105965083D01*
X135281053Y-105960315D01*
X135270774Y-105954985D01*
X135260880Y-105949095D01*
X135251369Y-105942643D01*
X135242241Y-105935631D01*
X135233497Y-105928058D01*
X135225136Y-105919923D01*
X135217159Y-105911228D01*
X135209588Y-105902032D01*
X135202505Y-105892398D01*
X135195910Y-105882325D01*
X135189804Y-105871813D01*
X135184187Y-105860862D01*
X135179057Y-105849472D01*
X135174417Y-105837644D01*
X135170265Y-105825376D01*
X135166601Y-105812670D01*
X135163426Y-105799525D01*
X135160739Y-105785941D01*
X135158541Y-105771918D01*
X135156831Y-105757456D01*
X135155610Y-105742555D01*
X135154877Y-105727216D01*
X135154633Y-105711437D01*
X135154746Y-105700464D01*
X135155086Y-105689527D01*
X135155653Y-105678625D01*
X135156446Y-105667760D01*
X135157466Y-105656930D01*
X135158712Y-105646135D01*
X135159274Y-105641828D01*
X135160772Y-105631185D01*
X135162365Y-105620781D01*
X135164054Y-105610615D01*
X135165838Y-105600688D01*
X135167717Y-105591000D01*
X135170099Y-105579688D01*
X135170509Y-105577836D01*
X135173076Y-105566977D01*
X135175833Y-105556564D01*
X135178778Y-105546598D01*
X135181912Y-105537078D01*
X135185807Y-105526536D01*
X135186385Y-105525080D01*
X135190350Y-105515361D01*
X135194911Y-105505313D01*
X135199502Y-105496394D01*
X135204703Y-105487711D01*
X135295317Y-105524347D01*
X135290432Y-105533643D01*
X135285547Y-105543977D01*
X135281639Y-105552991D01*
X135277732Y-105562669D01*
X135273824Y-105573011D01*
X135269916Y-105584018D01*
X135266008Y-105595688D01*
X135264054Y-105601772D01*
X135260390Y-105614225D01*
X135257963Y-105623799D01*
X135255811Y-105633576D01*
X135253933Y-105643554D01*
X135252330Y-105653735D01*
X135251002Y-105664117D01*
X135249949Y-105674700D01*
X135249170Y-105685486D01*
X135248667Y-105696473D01*
X135248438Y-105707662D01*
X135248422Y-105711437D01*
X135248701Y-105723150D01*
X135249539Y-105734567D01*
X135250934Y-105745687D01*
X135252887Y-105756511D01*
X135255399Y-105767039D01*
X135258469Y-105777271D01*
X135262097Y-105787206D01*
X135266283Y-105796846D01*
X135271027Y-105806189D01*
X135276329Y-105815235D01*
X135280174Y-105821102D01*
X135286363Y-105829395D01*
X135293114Y-105836873D01*
X135300428Y-105843535D01*
X135308304Y-105849381D01*
X135316742Y-105854411D01*
X135325743Y-105858626D01*
X135335307Y-105862025D01*
X135345433Y-105864608D01*
X135356121Y-105866375D01*
X135367372Y-105867327D01*
X135375184Y-105867508D01*
X135386359Y-105867186D01*
X135396985Y-105866220D01*
X135407062Y-105864610D01*
X135416591Y-105862356D01*
X135427302Y-105858801D01*
X135437222Y-105854319D01*
X135446441Y-105848938D01*
X135455231Y-105842870D01*
X135463592Y-105836115D01*
X135471523Y-105828674D01*
X135479025Y-105820545D01*
X135481430Y-105817683D01*
X135488454Y-105808707D01*
X135495237Y-105799181D01*
X135500707Y-105790824D01*
X135506009Y-105782084D01*
X135511144Y-105772963D01*
X135516113Y-105763461D01*
X135520921Y-105753636D01*
X135525730Y-105743549D01*
X135530538Y-105733200D01*
X135535347Y-105722588D01*
X135540155Y-105711714D01*
X135544964Y-105700578D01*
X135546887Y-105696050D01*
X135551009Y-105686102D01*
X135555130Y-105676318D01*
X135559252Y-105666696D01*
X135563374Y-105657238D01*
X135567495Y-105647943D01*
X135571617Y-105638811D01*
X135575738Y-105629842D01*
X135581234Y-105618138D01*
X135586729Y-105606723D01*
X135590851Y-105598353D01*
X135596476Y-105587442D01*
X135602361Y-105576936D01*
X135608505Y-105566834D01*
X135614909Y-105557137D01*
X135621572Y-105547844D01*
X135628495Y-105538956D01*
X135635677Y-105530472D01*
X135643119Y-105522393D01*
X135650862Y-105514677D01*
X135658949Y-105507403D01*
X135667379Y-105500572D01*
X135676153Y-105494183D01*
X135685270Y-105488237D01*
X135694730Y-105482734D01*
X135704534Y-105477674D01*
X135714682Y-105473056D01*
X135725223Y-105468934D01*
X135736328Y-105465362D01*
X135747998Y-105462340D01*
X135760233Y-105459867D01*
X135773033Y-105457943D01*
X135783004Y-105456862D01*
X135793292Y-105456089D01*
X135803898Y-105455625D01*
X135814822Y-105455471D01*
X135828542Y-105455770D01*
X135841860Y-105456669D01*
X135854775Y-105458167D01*
X135867288Y-105460264D01*
X135879398Y-105462960D01*
X135891105Y-105466255D01*
X135902410Y-105470150D01*
X135913312Y-105474644D01*
X135923812Y-105479736D01*
X135933909Y-105485428D01*
X135943603Y-105491720D01*
X135952895Y-105498610D01*
X135961784Y-105506099D01*
X135970271Y-105514188D01*
X135978355Y-105522876D01*
X135986036Y-105532163D01*
X135993252Y-105542010D01*
X136000003Y-105552378D01*
X136006289Y-105563267D01*
X136012109Y-105574676D01*
X136017463Y-105586607D01*
X136022352Y-105599059D01*
X136026775Y-105612031D01*
X136030732Y-105625525D01*
X136034224Y-105639539D01*
X136037250Y-105654074D01*
X136039811Y-105669131D01*
X136041906Y-105684708D01*
X136043536Y-105700806D01*
X136044700Y-105717425D01*
X136045398Y-105734565D01*
X136045631Y-105752226D01*
X136045532Y-105763739D01*
X136045234Y-105775078D01*
X136044738Y-105786240D01*
X136044043Y-105797227D01*
X136043150Y-105808039D01*
X136042059Y-105818675D01*
X136040769Y-105829135D01*
X136039281Y-105839420D01*
X136037640Y-105849476D01*
X136035892Y-105859250D01*
X136033557Y-105871070D01*
X136031055Y-105882448D01*
X136028386Y-105893385D01*
X136025550Y-105903881D01*
X136023161Y-105911960D01*
X136020037Y-105921622D01*
X136016926Y-105930913D01*
X136013208Y-105941575D01*
X136009507Y-105951704D01*
X136005823Y-105961301D01*
X136003377Y-105967404D01*
X135999161Y-105977338D01*
X135994486Y-105987375D01*
X135989409Y-105996987D01*
X135985059Y-106004040D01*
X135889316Y-105968869D01*
X135894796Y-105959442D01*
X135900550Y-105948714D01*
X135905351Y-105939196D01*
X135910327Y-105928847D01*
X135915479Y-105917665D01*
X135919458Y-105908733D01*
X135923536Y-105899332D01*
X135927713Y-105889464D01*
X135929127Y-105886071D01*
X135933187Y-105875556D01*
X135936847Y-105864621D01*
X135940107Y-105853265D01*
X135942969Y-105841489D01*
X135945431Y-105829291D01*
X135947494Y-105816673D01*
X135949158Y-105803634D01*
X135950422Y-105790175D01*
X135951287Y-105776294D01*
X135951753Y-105761993D01*
X135951842Y-105752226D01*
G37*
G36*
X115760000Y-94994647D02*
G01*
X115769659Y-94989112D01*
X115778195Y-94984158D01*
X115787172Y-94978893D01*
X115796589Y-94973319D01*
X115806449Y-94967435D01*
X115816749Y-94961241D01*
X115818862Y-94959965D01*
X115827384Y-94954839D01*
X115835974Y-94949600D01*
X115844633Y-94944245D01*
X115853361Y-94938777D01*
X115862158Y-94933193D01*
X115871023Y-94927496D01*
X115879957Y-94921683D01*
X115888960Y-94915757D01*
X115897985Y-94909742D01*
X115906988Y-94903667D01*
X115915968Y-94897530D01*
X115924924Y-94891332D01*
X115933858Y-94885074D01*
X115942769Y-94878754D01*
X115951658Y-94872373D01*
X115960523Y-94865931D01*
X115969308Y-94859466D01*
X115977956Y-94853017D01*
X115986466Y-94846582D01*
X115994839Y-94840163D01*
X116003075Y-94833760D01*
X116011173Y-94827371D01*
X116019134Y-94820998D01*
X116026957Y-94814640D01*
X116018737Y-94808248D01*
X116010440Y-94801772D01*
X116002067Y-94795211D01*
X115993618Y-94788567D01*
X115985092Y-94781839D01*
X115976490Y-94775027D01*
X115967812Y-94768131D01*
X115959057Y-94761151D01*
X115950253Y-94754159D01*
X115941426Y-94747229D01*
X115932576Y-94740360D01*
X115923703Y-94733551D01*
X115914807Y-94726804D01*
X115905889Y-94720118D01*
X115896947Y-94713493D01*
X115887983Y-94706929D01*
X115879041Y-94700453D01*
X115870168Y-94694091D01*
X115861364Y-94687844D01*
X115852629Y-94681711D01*
X115843962Y-94675693D01*
X115835364Y-94669789D01*
X115826834Y-94664000D01*
X115818374Y-94658325D01*
X115810088Y-94652818D01*
X115800129Y-94646245D01*
X115790611Y-94640019D01*
X115781534Y-94634138D01*
X115772899Y-94628603D01*
X115763118Y-94622418D01*
X115760000Y-94620467D01*
X115760000Y-94500788D01*
X115770368Y-94506699D01*
X115780775Y-94512767D01*
X115791221Y-94518995D01*
X115801704Y-94525380D01*
X115812225Y-94531924D01*
X115822785Y-94538627D01*
X115833383Y-94545487D01*
X115844019Y-94552506D01*
X115854693Y-94559684D01*
X115865406Y-94567020D01*
X115876156Y-94574514D01*
X115886945Y-94582167D01*
X115897772Y-94589978D01*
X115908637Y-94597947D01*
X115919540Y-94606075D01*
X115930481Y-94614361D01*
X115941406Y-94622719D01*
X115952261Y-94631061D01*
X115963044Y-94639388D01*
X115973758Y-94647700D01*
X115984400Y-94655997D01*
X115994973Y-94664278D01*
X116005474Y-94672544D01*
X116015905Y-94680795D01*
X116026265Y-94689031D01*
X116036555Y-94697251D01*
X116046774Y-94705456D01*
X116056922Y-94713646D01*
X116067000Y-94721820D01*
X116077008Y-94729979D01*
X116086944Y-94738123D01*
X116096810Y-94746252D01*
X116416524Y-94510558D01*
X116416524Y-94641472D01*
X116185959Y-94810976D01*
X116416524Y-94979016D01*
X116416524Y-95102847D01*
X116102672Y-94872281D01*
X116092508Y-94880711D01*
X116082289Y-94889146D01*
X116072015Y-94897586D01*
X116061685Y-94906033D01*
X116051300Y-94914485D01*
X116040860Y-94922943D01*
X116030364Y-94931406D01*
X116019813Y-94939876D01*
X116009206Y-94948351D01*
X115998545Y-94956831D01*
X115987828Y-94965318D01*
X115977055Y-94973810D01*
X115966227Y-94982308D01*
X115955344Y-94990812D01*
X115944406Y-94999321D01*
X115933412Y-95007836D01*
X115922402Y-95016305D01*
X115911415Y-95024613D01*
X115900451Y-95032760D01*
X115889509Y-95040748D01*
X115878591Y-95048575D01*
X115867695Y-95056242D01*
X115856823Y-95063749D01*
X115845973Y-95071095D01*
X115835146Y-95078281D01*
X115824342Y-95085307D01*
X115813561Y-95092172D01*
X115802803Y-95098878D01*
X115792068Y-95105423D01*
X115781355Y-95111807D01*
X115770666Y-95118032D01*
X115760000Y-95124096D01*
X115760000Y-94994647D01*
G37*
G36*
X118820000Y-91270533D02*
G01*
X119145331Y-91270533D01*
X119154163Y-91265191D01*
X119162980Y-91259879D01*
X119171784Y-91254599D01*
X119180574Y-91249349D01*
X119189351Y-91244131D01*
X119198113Y-91238943D01*
X119206862Y-91233786D01*
X119215597Y-91228661D01*
X119224318Y-91223566D01*
X119233025Y-91218503D01*
X119241718Y-91213470D01*
X119250397Y-91208469D01*
X119259063Y-91203498D01*
X119267715Y-91198559D01*
X119276353Y-91193651D01*
X119284977Y-91188773D01*
X119293587Y-91183927D01*
X119302184Y-91179111D01*
X119310766Y-91174327D01*
X119319335Y-91169573D01*
X119327890Y-91164851D01*
X119344958Y-91155499D01*
X119361971Y-91146271D01*
X119378929Y-91137167D01*
X119395831Y-91128188D01*
X119412678Y-91119332D01*
X119421081Y-91114951D01*
X119437895Y-91106318D01*
X119454752Y-91097823D01*
X119471654Y-91089465D01*
X119488599Y-91081245D01*
X119505588Y-91073162D01*
X119522621Y-91065217D01*
X119539698Y-91057409D01*
X119556819Y-91049738D01*
X119573984Y-91042204D01*
X119591192Y-91034808D01*
X119608445Y-91027550D01*
X119625741Y-91020429D01*
X119643082Y-91013445D01*
X119660466Y-91006598D01*
X119677894Y-90999889D01*
X119695366Y-90993318D01*
X119695366Y-91122766D01*
X119680690Y-91127912D01*
X119666095Y-91133151D01*
X119651580Y-91138483D01*
X119637144Y-91143909D01*
X119622789Y-91149428D01*
X119608515Y-91155041D01*
X119594320Y-91160747D01*
X119580205Y-91166547D01*
X119566171Y-91172440D01*
X119552217Y-91178427D01*
X119538343Y-91184507D01*
X119524549Y-91190681D01*
X119510835Y-91196949D01*
X119497201Y-91203309D01*
X119483647Y-91209764D01*
X119470174Y-91216311D01*
X119456746Y-91222937D01*
X119443269Y-91229623D01*
X119429742Y-91236370D01*
X119416166Y-91243178D01*
X119402540Y-91250047D01*
X119388864Y-91256978D01*
X119375139Y-91263969D01*
X119361364Y-91271022D01*
X119347539Y-91278135D01*
X119333665Y-91285310D01*
X119319741Y-91292546D01*
X119305768Y-91299842D01*
X119291745Y-91307200D01*
X119277672Y-91314619D01*
X119263550Y-91322099D01*
X119249378Y-91329640D01*
X119264230Y-91337672D01*
X119278989Y-91345588D01*
X119293654Y-91353388D01*
X119308226Y-91361071D01*
X119322704Y-91368638D01*
X119337088Y-91376088D01*
X119351379Y-91383422D01*
X119365577Y-91390640D01*
X119379681Y-91397741D01*
X119393692Y-91404726D01*
X119407609Y-91411594D01*
X119421432Y-91418346D01*
X119435162Y-91424982D01*
X119448799Y-91431501D01*
X119462342Y-91437904D01*
X119475792Y-91444190D01*
X119489243Y-91450383D01*
X119502731Y-91456505D01*
X119516255Y-91462557D01*
X119529815Y-91468538D01*
X119543412Y-91474448D01*
X119557044Y-91480288D01*
X119570713Y-91486058D01*
X119584419Y-91491756D01*
X119598160Y-91497384D01*
X119611938Y-91502942D01*
X119625752Y-91508429D01*
X119639602Y-91513845D01*
X119653489Y-91519191D01*
X119667412Y-91524466D01*
X119681371Y-91529670D01*
X119695366Y-91534804D01*
X119695366Y-91661566D01*
X119678082Y-91654820D01*
X119660851Y-91647953D01*
X119643674Y-91640967D01*
X119626550Y-91633860D01*
X119609480Y-91626633D01*
X119592463Y-91619285D01*
X119575500Y-91611818D01*
X119558590Y-91604230D01*
X119541733Y-91596522D01*
X119524930Y-91588694D01*
X119508180Y-91580746D01*
X119491484Y-91572677D01*
X119474841Y-91564488D01*
X119458252Y-91556179D01*
X119441716Y-91547750D01*
X119425233Y-91539200D01*
X119408723Y-91530530D01*
X119392104Y-91521737D01*
X119375376Y-91512822D01*
X119358540Y-91503785D01*
X119341594Y-91494626D01*
X119324540Y-91485345D01*
X119307378Y-91475942D01*
X119298755Y-91471194D01*
X119290106Y-91466416D01*
X119281429Y-91461608D01*
X119272726Y-91456769D01*
X119263995Y-91451899D01*
X119255236Y-91446999D01*
X119246451Y-91442068D01*
X119237639Y-91437107D01*
X119228799Y-91432115D01*
X119219932Y-91427093D01*
X119211038Y-91422040D01*
X119202116Y-91416957D01*
X119193168Y-91411843D01*
X119184192Y-91406699D01*
X119175189Y-91401524D01*
X119166159Y-91396318D01*
X119157102Y-91391082D01*
X119148018Y-91385816D01*
X118820000Y-91385816D01*
X118820000Y-91270533D01*
G37*
D11*
X150041071Y-106123571D02*
X150228571Y-104623571D01*
X150228571Y-104623571D02*
X150800000Y-104623571D01*
X150800000Y-104623571D02*
X150933928Y-104695000D01*
X150933928Y-104695000D02*
X150996428Y-104766428D01*
X150996428Y-104766428D02*
X151050000Y-104909285D01*
X151050000Y-104909285D02*
X151023214Y-105123571D01*
X151023214Y-105123571D02*
X150933928Y-105266428D01*
X150933928Y-105266428D02*
X150853571Y-105337857D01*
X150853571Y-105337857D02*
X150701785Y-105409285D01*
X150701785Y-105409285D02*
X150130357Y-105409285D01*
X151585714Y-104623571D02*
X151755357Y-106123571D01*
X151755357Y-106123571D02*
X152175000Y-105052142D01*
X152175000Y-105052142D02*
X152326785Y-106123571D01*
X152326785Y-106123571D02*
X152871428Y-104623571D01*
X154112500Y-106123571D02*
X153701786Y-105409285D01*
X153255357Y-106123571D02*
X153442857Y-104623571D01*
X153442857Y-104623571D02*
X154014286Y-104623571D01*
X154014286Y-104623571D02*
X154148214Y-104695000D01*
X154148214Y-104695000D02*
X154210714Y-104766428D01*
X154210714Y-104766428D02*
X154264286Y-104909285D01*
X154264286Y-104909285D02*
X154237500Y-105123571D01*
X154237500Y-105123571D02*
X154148214Y-105266428D01*
X154148214Y-105266428D02*
X154067857Y-105337857D01*
X154067857Y-105337857D02*
X153916071Y-105409285D01*
X153916071Y-105409285D02*
X153344643Y-105409285D01*
D12*
%TO.C,D1*%
X126315000Y-92400000D02*
X126315000Y-94100000D01*
X126315000Y-92400000D02*
X128975000Y-92400000D01*
X126315000Y-94100000D02*
X128975000Y-94100000D01*
%TO.C,R4*%
X116670000Y-103053641D02*
X116670000Y-102746359D01*
X117430000Y-103053641D02*
X117430000Y-102746359D01*
%TO.C,R7*%
X131596359Y-97645000D02*
X131903641Y-97645000D01*
X131596359Y-98405000D02*
X131903641Y-98405000D01*
%TO.C,R20*%
X128870000Y-96963640D02*
X128870000Y-96656358D01*
X129630000Y-96963640D02*
X129630000Y-96656358D01*
%TO.C,C8*%
X141510000Y-97072164D02*
X141510000Y-97287836D01*
X140790000Y-97072164D02*
X140790000Y-97287836D01*
%TO.C,C9*%
X123197836Y-87330000D02*
X122982164Y-87330000D01*
X123197836Y-86610000D02*
X122982164Y-86610000D01*
D13*
%TO.C,U5*%
X123410000Y-90340000D02*
X123410000Y-90285000D01*
X123410000Y-90340000D02*
X122855000Y-90340000D01*
X123410000Y-87895000D02*
X123410000Y-87840000D01*
X123410000Y-87840000D02*
X122855000Y-87840000D01*
X120965000Y-90340000D02*
X120410000Y-90340000D01*
X120965000Y-87840000D02*
X120410000Y-87840000D01*
X120410000Y-90340000D02*
X120410000Y-90285000D01*
X120410000Y-87895000D02*
X120410000Y-87840000D01*
D10*
X123985000Y-89990000D02*
G75*
G03*
X123985000Y-89990000I-75000J0D01*
G01*
D14*
%TO.C,D7*%
X156773934Y-101050000D02*
G75*
G03*
X156773934Y-101050000I-50000J0D01*
G01*
D12*
%TO.C,U4*%
X142115000Y-97565000D02*
X142115000Y-96840000D01*
X142840000Y-92345000D02*
X142115000Y-92345000D01*
X142840000Y-97565000D02*
X142115000Y-97565000D01*
X146610000Y-92345000D02*
X147335000Y-92345000D01*
X146610000Y-97565000D02*
X147335000Y-97565000D01*
X147335000Y-92345000D02*
X147335000Y-93070000D01*
X147335000Y-97565000D02*
X147335000Y-96840000D01*
%TO.C,R5*%
X116211359Y-100870000D02*
X116518641Y-100870000D01*
X116211359Y-101630000D02*
X116518641Y-101630000D01*
%TO.C,R8*%
X141471359Y-98350000D02*
X141778641Y-98350000D01*
X141471359Y-99110000D02*
X141778641Y-99110000D01*
D13*
%TO.C,U3*%
X125155000Y-103855000D02*
X125155000Y-105455000D01*
X125155000Y-108815000D02*
X125155000Y-107955000D01*
X125155000Y-108815000D02*
X134095000Y-108815000D01*
X134095000Y-103855000D02*
X134095000Y-105455000D01*
X134095000Y-108815000D02*
X134095000Y-107955000D01*
D15*
X124155000Y-101955000D02*
G75*
G03*
X124155000Y-101955000I-100000J0D01*
G01*
D12*
%TO.C,R18*%
X135696359Y-98820000D02*
X136003641Y-98820000D01*
X135696359Y-99580000D02*
X136003641Y-99580000D01*
%TO.C,C1*%
X120217164Y-99915000D02*
X120432836Y-99915000D01*
X120217164Y-100635000D02*
X120432836Y-100635000D01*
%TO.C,R15*%
X158010293Y-102920000D02*
X158317575Y-102920000D01*
X158010293Y-103680000D02*
X158317575Y-103680000D01*
%TO.C,R3*%
X122653641Y-108930000D02*
X122346359Y-108930000D01*
X122653641Y-108170000D02*
X122346359Y-108170000D01*
%TO.C,L1*%
X120940000Y-94315000D02*
X120940000Y-95165000D01*
X120940000Y-94315000D02*
X125860000Y-94315000D01*
X120940000Y-99035000D02*
X120940000Y-98185000D01*
X120940000Y-99035000D02*
X125860000Y-99035000D01*
X125860000Y-94315000D02*
X125860000Y-95165000D01*
X125860000Y-99035000D02*
X125860000Y-98185000D01*
%TO.C,R13*%
X151480000Y-98231358D02*
X151480000Y-98538640D01*
X150720000Y-98231358D02*
X150720000Y-98538640D01*
%TO.C,R10*%
X146619734Y-100143375D02*
X146927016Y-100143375D01*
X146619734Y-100903375D02*
X146927016Y-100903375D01*
%TO.C,D6*%
X150275000Y-95865000D02*
X148275000Y-95865000D01*
X150275000Y-95865000D02*
X150275000Y-99875000D01*
X148275000Y-95865000D02*
X148275000Y-99875000D01*
%TO.C,C10*%
X119330000Y-89017836D02*
X119330000Y-88802164D01*
X120050000Y-89017836D02*
X120050000Y-88802164D01*
%TO.C,D2*%
X144710875Y-99873375D02*
X144710875Y-99073375D01*
X143350875Y-99873375D02*
X144710875Y-99873375D01*
X143350875Y-99073375D02*
X144710875Y-99073375D01*
%TO.C,D3*%
X129285000Y-99500000D02*
X129285000Y-98700000D01*
X127925000Y-99500000D02*
X129285000Y-99500000D01*
X127925000Y-98700000D02*
X129285000Y-98700000D01*
%TO.C,C2*%
X127510000Y-95659420D02*
X127510000Y-95940580D01*
X126490000Y-95659420D02*
X126490000Y-95940580D01*
%TO.C,C14*%
X153590000Y-92265580D02*
X153590000Y-91984420D01*
X154610000Y-92265580D02*
X154610000Y-91984420D01*
%TO.C,R11*%
X127863640Y-100905000D02*
X127556358Y-100905000D01*
X127863640Y-100145000D02*
X127556358Y-100145000D01*
%TO.C,C4*%
X124260000Y-106384420D02*
X124260000Y-106665580D01*
X123240000Y-106384420D02*
X123240000Y-106665580D01*
D14*
%TO.C,D9*%
X151055000Y-108510000D02*
G75*
G03*
X151055000Y-108510000I-50000J0D01*
G01*
D12*
%TO.C,j1*%
X126910000Y-85170000D02*
X126910000Y-84370000D01*
X127410000Y-85170000D02*
X126910000Y-85170000D01*
X129110000Y-85170000D02*
X127410000Y-85170000D01*
X147110000Y-85170000D02*
X144910000Y-85170000D01*
X147110000Y-84170000D02*
X147110000Y-85170000D01*
X126910000Y-83170000D02*
X126910000Y-82370000D01*
X126910000Y-82370000D02*
X129110000Y-82370000D01*
X144910000Y-82370000D02*
X146610000Y-82370000D01*
X146610000Y-82370000D02*
X147110000Y-82370000D01*
X147110000Y-82370000D02*
X147110000Y-83370000D01*
%TO.C,R12*%
X131796359Y-100145000D02*
X132103641Y-100145000D01*
X131796359Y-100905000D02*
X132103641Y-100905000D01*
%TO.C,R2*%
X120555000Y-105871359D02*
X120555000Y-106178641D01*
X119795000Y-105871359D02*
X119795000Y-106178641D01*
%TO.C,R22*%
X152261361Y-107092235D02*
X152568643Y-107092235D01*
X152261361Y-107852235D02*
X152568643Y-107852235D01*
%TO.C,R19*%
X136003641Y-98505000D02*
X135696359Y-98505000D01*
X136003641Y-97745000D02*
X135696359Y-97745000D01*
%TO.C,R6*%
X116255000Y-102746359D02*
X116255000Y-103053641D01*
X115495000Y-102746359D02*
X115495000Y-103053641D01*
%TO.C,R14*%
X157995292Y-99645000D02*
X158302574Y-99645000D01*
X157995292Y-100405000D02*
X158302574Y-100405000D01*
%TO.C,D5*%
X130090000Y-98675000D02*
X130090000Y-99475000D01*
X131450000Y-98675000D02*
X130090000Y-98675000D01*
X131450000Y-99475000D02*
X130090000Y-99475000D01*
%TO.C,C13*%
X151267164Y-95790000D02*
X151482836Y-95790000D01*
X151267164Y-96510000D02*
X151482836Y-96510000D01*
%TO.C,U6*%
X148525000Y-90995000D02*
X149665000Y-90995000D01*
X149665000Y-90765000D02*
X149665000Y-90995000D01*
X149665000Y-90765000D02*
X152385000Y-90765000D01*
X149665000Y-95485000D02*
X149665000Y-95255000D01*
X152385000Y-90765000D02*
X152385000Y-92075000D01*
X152385000Y-94175000D02*
X152385000Y-95485000D01*
X152385000Y-95485000D02*
X149665000Y-95485000D01*
%TO.C,J2*%
X112085000Y-76140001D02*
X112085000Y-74700001D01*
X111515000Y-74700001D02*
X112085000Y-74700001D01*
X111515000Y-74700001D02*
X111515000Y-69500001D01*
X113605000Y-74700001D02*
X114625000Y-74700001D01*
X116145000Y-74700001D02*
X117165000Y-74700001D01*
X118685000Y-74700001D02*
X119705000Y-74700001D01*
X121225000Y-74700001D02*
X122245000Y-74700001D01*
X123765000Y-74700001D02*
X124785000Y-74700001D01*
X126305000Y-74700001D02*
X127325000Y-74700001D01*
X128845000Y-74700001D02*
X129865000Y-74700001D01*
X131385000Y-74700001D02*
X132405000Y-74700001D01*
X133925000Y-74700001D02*
X134945000Y-74700001D01*
X136465000Y-74700001D02*
X137485000Y-74700001D01*
X139005000Y-74700001D02*
X140025000Y-74700001D01*
X141545000Y-74700001D02*
X142565000Y-74700001D01*
X144085000Y-74700001D02*
X145105000Y-74700001D01*
X146625000Y-74700001D02*
X147645000Y-74700001D01*
X149165000Y-74700001D02*
X150185000Y-74700001D01*
X151705000Y-74700001D02*
X152725000Y-74700001D01*
X154245000Y-74700001D02*
X155265000Y-74700001D01*
X156785000Y-74700001D02*
X157805000Y-74700001D01*
X159325000Y-74700001D02*
X160345000Y-74700001D01*
X161865000Y-74700001D02*
X162435000Y-74700001D01*
X162435000Y-74700001D02*
X162435000Y-69500001D01*
X111515000Y-69500001D02*
X112085000Y-69500001D01*
X113605000Y-69500001D02*
X114625000Y-69500001D01*
X116145000Y-69500001D02*
X117165000Y-69500001D01*
X118685000Y-69500001D02*
X119705000Y-69500001D01*
X121225000Y-69500001D02*
X122245000Y-69500001D01*
X123765000Y-69500001D02*
X124785000Y-69500001D01*
X126305000Y-69500001D02*
X127325000Y-69500001D01*
X128845000Y-69500001D02*
X129865000Y-69500001D01*
X131385000Y-69500001D02*
X132405000Y-69500001D01*
X133925000Y-69500001D02*
X134945000Y-69500001D01*
X136465000Y-69500001D02*
X137485000Y-69500001D01*
X139005000Y-69500001D02*
X140025000Y-69500001D01*
X141545000Y-69500001D02*
X142565000Y-69500001D01*
X144085000Y-69500001D02*
X145105000Y-69500001D01*
X146625000Y-69500001D02*
X147645000Y-69500001D01*
X149165000Y-69500001D02*
X150185000Y-69500001D01*
X151705000Y-69500001D02*
X152725000Y-69500001D01*
X154245000Y-69500001D02*
X155265000Y-69500001D01*
X156785000Y-69500001D02*
X157805000Y-69500001D01*
X159325000Y-69500001D02*
X160345000Y-69500001D01*
X161865000Y-69500001D02*
X162435000Y-69500001D01*
D13*
%TO.C,U2*%
X139996625Y-103858375D02*
X139996625Y-105458375D01*
X139996625Y-108818375D02*
X139996625Y-107958375D01*
X139996625Y-108818375D02*
X148936625Y-108818375D01*
X148936625Y-103858375D02*
X148936625Y-105458375D01*
X148936625Y-108818375D02*
X148936625Y-107958375D01*
D15*
X138996625Y-101958375D02*
G75*
G03*
X138996625Y-101958375I-100000J0D01*
G01*
D12*
%TO.C,R9*%
X142742017Y-100903375D02*
X142434735Y-100903375D01*
X142742017Y-100143375D02*
X142434735Y-100143375D01*
%TO.C,R21*%
X129870000Y-96953641D02*
X129870000Y-96646359D01*
X130630000Y-96953641D02*
X130630000Y-96646359D01*
%TO.C,D4*%
X145356625Y-99098375D02*
X145356625Y-99898375D01*
X146716625Y-99098375D02*
X145356625Y-99098375D01*
X146716625Y-99898375D02*
X145356625Y-99898375D01*
%TO.C,C7*%
X120457836Y-108910000D02*
X120242164Y-108910000D01*
X120457836Y-108190000D02*
X120242164Y-108190000D01*
%TO.C,R1*%
X118245000Y-100928641D02*
X118245000Y-100621359D01*
X119005000Y-100928641D02*
X119005000Y-100621359D01*
%TO.C,C6*%
X121510000Y-106042164D02*
X121510000Y-106257836D01*
X120790000Y-106042164D02*
X120790000Y-106257836D01*
%TO.C,U1*%
X121300000Y-104135000D02*
X123100000Y-104135000D01*
X121300000Y-104135000D02*
X120500000Y-104135000D01*
X121300000Y-101015000D02*
X122100000Y-101015000D01*
X121300000Y-101015000D02*
X120500000Y-101015000D01*
%TO.C,C5*%
X122810000Y-106384420D02*
X122810000Y-106665580D01*
X121790000Y-106384420D02*
X121790000Y-106665580D01*
%TO.C,C3*%
X124534420Y-92965000D02*
X124815580Y-92965000D01*
X124534420Y-93985000D02*
X124815580Y-93985000D01*
D14*
%TO.C,D8*%
X156798934Y-102250002D02*
G75*
G03*
X156798934Y-102250002I-50000J0D01*
G01*
%TD*%
M02*
