%TF.GenerationSoftware,KiCad,Pcbnew,(7.0.0)*%
%TF.CreationDate,2023-04-19T19:20:55+08:00*%
%TF.ProjectId,Commander,436f6d6d-616e-4646-9572-2e6b69636164,rev?*%
%TF.SameCoordinates,Original*%
%TF.FileFunction,Paste,Top*%
%TF.FilePolarity,Positive*%
%FSLAX46Y46*%
G04 Gerber Fmt 4.6, Leading zero omitted, Abs format (unit mm)*
G04 Created by KiCad (PCBNEW (7.0.0)) date 2023-04-19 19:20:55*
%MOMM*%
%LPD*%
G01*
G04 APERTURE LIST*
G04 Aperture macros list*
%AMRoundRect*
0 Rectangle with rounded corners*
0 $1 Rounding radius*
0 $2 $3 $4 $5 $6 $7 $8 $9 X,Y pos of 4 corners*
0 Add a 4 corners polygon primitive as box body*
4,1,4,$2,$3,$4,$5,$6,$7,$8,$9,$2,$3,0*
0 Add four circle primitives for the rounded corners*
1,1,$1+$1,$2,$3*
1,1,$1+$1,$4,$5*
1,1,$1+$1,$6,$7*
1,1,$1+$1,$8,$9*
0 Add four rect primitives between the rounded corners*
20,1,$1+$1,$2,$3,$4,$5,0*
20,1,$1+$1,$4,$5,$6,$7,0*
20,1,$1+$1,$6,$7,$8,$9,0*
20,1,$1+$1,$8,$9,$2,$3,0*%
G04 Aperture macros list end*
%ADD10C,0.100000*%
%ADD11RoundRect,0.212500X0.212500X-0.387500X0.212500X0.387500X-0.212500X0.387500X-0.212500X-0.387500X0*%
%ADD12RoundRect,0.147500X-0.147500X-0.172500X0.147500X-0.172500X0.147500X0.172500X-0.147500X0.172500X0*%
%ADD13RoundRect,0.135000X-0.185000X0.135000X-0.185000X-0.135000X0.185000X-0.135000X0.185000X0.135000X0*%
%ADD14RoundRect,0.135000X0.185000X-0.135000X0.185000X0.135000X-0.185000X0.135000X-0.185000X-0.135000X0*%
%ADD15R,1.400000X1.200000*%
%ADD16RoundRect,0.135000X-0.135000X-0.185000X0.135000X-0.185000X0.135000X0.185000X-0.135000X0.185000X0*%
%ADD17R,0.800000X0.900000*%
%ADD18RoundRect,0.140000X-0.170000X0.140000X-0.170000X-0.140000X0.170000X-0.140000X0.170000X0.140000X0*%
%ADD19RoundRect,0.140000X0.170000X-0.140000X0.170000X0.140000X-0.170000X0.140000X-0.170000X-0.140000X0*%
%ADD20RoundRect,0.160000X0.222500X0.160000X-0.222500X0.160000X-0.222500X-0.160000X0.222500X-0.160000X0*%
%ADD21RoundRect,0.155000X-0.212500X-0.155000X0.212500X-0.155000X0.212500X0.155000X-0.212500X0.155000X0*%
%ADD22R,1.800000X2.200000*%
%ADD23R,0.300000X1.300000*%
%ADD24C,1.200000*%
%ADD25RoundRect,0.250000X0.555000X-0.435000X0.555000X0.435000X-0.555000X0.435000X-0.555000X-0.435000X0*%
%ADD26RoundRect,0.125000X0.125000X-0.262500X0.125000X0.262500X-0.125000X0.262500X-0.125000X-0.262500X0*%
%ADD27R,1.050000X1.100000*%
%ADD28R,0.254800X0.807999*%
%ADD29R,0.807999X0.254800*%
%ADD30RoundRect,0.155000X0.155000X-0.212500X0.155000X0.212500X-0.155000X0.212500X-0.155000X-0.212500X0*%
%ADD31RoundRect,0.155000X-0.155000X0.212500X-0.155000X-0.212500X0.155000X-0.212500X0.155000X0.212500X0*%
%ADD32RoundRect,0.140000X0.140000X0.170000X-0.140000X0.170000X-0.140000X-0.170000X0.140000X-0.170000X0*%
%ADD33RoundRect,0.155000X0.212500X0.155000X-0.212500X0.155000X-0.212500X-0.155000X0.212500X-0.155000X0*%
%ADD34RoundRect,0.140000X-0.140000X-0.170000X0.140000X-0.170000X0.140000X0.170000X-0.140000X0.170000X0*%
%ADD35RoundRect,0.160000X-0.160000X0.222500X-0.160000X-0.222500X0.160000X-0.222500X0.160000X0.222500X0*%
G04 APERTURE END LIST*
%TO.C,U1*%
G36*
X137777600Y-73396800D02*
G01*
X137255200Y-73396800D01*
X137255200Y-72874400D01*
X137777600Y-72874400D01*
X137777600Y-73396800D01*
G37*
D10*
X137777600Y-73396800D02*
X137255200Y-73396800D01*
X137255200Y-72874400D01*
X137777600Y-72874400D01*
X137777600Y-73396800D01*
G36*
X139200000Y-73396800D02*
G01*
X137977600Y-73396800D01*
X137977600Y-72874400D01*
X139200000Y-72874400D01*
X139200000Y-73396800D01*
G37*
X139200000Y-73396800D02*
X137977600Y-73396800D01*
X137977600Y-72874400D01*
X139200000Y-72874400D01*
X139200000Y-73396800D01*
G36*
X140622400Y-73396800D02*
G01*
X139400000Y-73396800D01*
X139400000Y-72874400D01*
X140622400Y-72874400D01*
X140622400Y-73396800D01*
G37*
X140622400Y-73396800D02*
X139400000Y-73396800D01*
X139400000Y-72874400D01*
X140622400Y-72874400D01*
X140622400Y-73396800D01*
G36*
X141344800Y-73396800D02*
G01*
X140822400Y-73396800D01*
X140822400Y-72874400D01*
X141344800Y-72874400D01*
X141344800Y-73396800D01*
G37*
X141344800Y-73396800D02*
X140822400Y-73396800D01*
X140822400Y-72874400D01*
X141344800Y-72874400D01*
X141344800Y-73396800D01*
G36*
X137777600Y-72674400D02*
G01*
X137255200Y-72674400D01*
X137255200Y-71452000D01*
X137777600Y-71452000D01*
X137777600Y-72674400D01*
G37*
X137777600Y-72674400D02*
X137255200Y-72674400D01*
X137255200Y-71452000D01*
X137777600Y-71452000D01*
X137777600Y-72674400D01*
G36*
X139200000Y-72674400D02*
G01*
X137977600Y-72674400D01*
X137977600Y-71452000D01*
X139200000Y-71452000D01*
X139200000Y-72674400D01*
G37*
X139200000Y-72674400D02*
X137977600Y-72674400D01*
X137977600Y-71452000D01*
X139200000Y-71452000D01*
X139200000Y-72674400D01*
G36*
X140622400Y-72674400D02*
G01*
X139400000Y-72674400D01*
X139400000Y-71452000D01*
X140622400Y-71452000D01*
X140622400Y-72674400D01*
G37*
X140622400Y-72674400D02*
X139400000Y-72674400D01*
X139400000Y-71452000D01*
X140622400Y-71452000D01*
X140622400Y-72674400D01*
G36*
X141344800Y-72674400D02*
G01*
X140822400Y-72674400D01*
X140822400Y-71452000D01*
X141344800Y-71452000D01*
X141344800Y-72674400D01*
G37*
X141344800Y-72674400D02*
X140822400Y-72674400D01*
X140822400Y-71452000D01*
X141344800Y-71452000D01*
X141344800Y-72674400D01*
G36*
X137777600Y-71252000D02*
G01*
X137255200Y-71252000D01*
X137255200Y-70029600D01*
X137777600Y-70029600D01*
X137777600Y-71252000D01*
G37*
X137777600Y-71252000D02*
X137255200Y-71252000D01*
X137255200Y-70029600D01*
X137777600Y-70029600D01*
X137777600Y-71252000D01*
G36*
X139200000Y-71252000D02*
G01*
X137977600Y-71252000D01*
X137977600Y-70029600D01*
X139200000Y-70029600D01*
X139200000Y-71252000D01*
G37*
X139200000Y-71252000D02*
X137977600Y-71252000D01*
X137977600Y-70029600D01*
X139200000Y-70029600D01*
X139200000Y-71252000D01*
G36*
X140622400Y-71252000D02*
G01*
X139400000Y-71252000D01*
X139400000Y-70029600D01*
X140622400Y-70029600D01*
X140622400Y-71252000D01*
G37*
X140622400Y-71252000D02*
X139400000Y-71252000D01*
X139400000Y-70029600D01*
X140622400Y-70029600D01*
X140622400Y-71252000D01*
G36*
X141344800Y-71252000D02*
G01*
X140822400Y-71252000D01*
X140822400Y-70029600D01*
X141344800Y-70029600D01*
X141344800Y-71252000D01*
G37*
X141344800Y-71252000D02*
X140822400Y-71252000D01*
X140822400Y-70029600D01*
X141344800Y-70029600D01*
X141344800Y-71252000D01*
G36*
X137777600Y-69829600D02*
G01*
X137255200Y-69829600D01*
X137255200Y-69207200D01*
X137777600Y-69207200D01*
X137777600Y-69829600D01*
G37*
X137777600Y-69829600D02*
X137255200Y-69829600D01*
X137255200Y-69207200D01*
X137777600Y-69207200D01*
X137777600Y-69829600D01*
G36*
X139200000Y-69829600D02*
G01*
X137977600Y-69829600D01*
X137977600Y-69207200D01*
X139200000Y-69207200D01*
X139200000Y-69829600D01*
G37*
X139200000Y-69829600D02*
X137977600Y-69829600D01*
X137977600Y-69207200D01*
X139200000Y-69207200D01*
X139200000Y-69829600D01*
G36*
X140622400Y-69829600D02*
G01*
X139400000Y-69829600D01*
X139400000Y-69207200D01*
X140622400Y-69207200D01*
X140622400Y-69829600D01*
G37*
X140622400Y-69829600D02*
X139400000Y-69829600D01*
X139400000Y-69207200D01*
X140622400Y-69207200D01*
X140622400Y-69829600D01*
G36*
X141344800Y-69829600D02*
G01*
X140822400Y-69829600D01*
X140822400Y-69207200D01*
X141344800Y-69207200D01*
X141344800Y-69829600D01*
G37*
X141344800Y-69829600D02*
X140822400Y-69829600D01*
X140822400Y-69207200D01*
X141344800Y-69207200D01*
X141344800Y-69829600D01*
%TD*%
D11*
%TO.C,SW2*%
X126720000Y-79340000D03*
X126720000Y-74940000D03*
X128870000Y-74940000D03*
X128870000Y-79340000D03*
%TD*%
D12*
%TO.C,D3*%
X127575000Y-73520000D03*
X128545000Y-73520000D03*
%TD*%
D13*
%TO.C,R10*%
X145825000Y-74990000D03*
X145825000Y-76010000D03*
%TD*%
D14*
%TO.C,R5*%
X134400000Y-66200000D03*
X134400000Y-65180000D03*
%TD*%
D15*
%TO.C,Y1*%
X141409999Y-76969999D03*
X139209999Y-76969999D03*
X139209999Y-78669999D03*
X141409999Y-78669999D03*
%TD*%
D16*
%TO.C,R13*%
X131080000Y-69310001D03*
X132100000Y-69310001D03*
%TD*%
D17*
%TO.C,D1*%
X130869999Y-75709999D03*
X132769999Y-75709999D03*
X131819999Y-73709999D03*
%TD*%
D18*
%TO.C,C13*%
X142960000Y-76570000D03*
X142960000Y-77530000D03*
%TD*%
D19*
%TO.C,C8*%
X147925000Y-70935000D03*
X147925000Y-69975000D03*
%TD*%
D20*
%TO.C,D7*%
X132302500Y-68310000D03*
X131157500Y-68310000D03*
%TD*%
D16*
%TO.C,R2*%
X131935000Y-77940000D03*
X132955000Y-77940000D03*
%TD*%
D12*
%TO.C,D2*%
X123412500Y-73560000D03*
X124382500Y-73560000D03*
%TD*%
D21*
%TO.C,C15*%
X136510000Y-78345000D03*
X137645000Y-78345000D03*
%TD*%
D22*
%TO.C,J3*%
X147919999Y-78189999D03*
X155219999Y-78189999D03*
D23*
X149819999Y-75239999D03*
X150319999Y-75239999D03*
X150819999Y-75239999D03*
X151319999Y-75239999D03*
X151819999Y-75239999D03*
X152319999Y-75239999D03*
X152819999Y-75239999D03*
X153319999Y-75239999D03*
%TD*%
D24*
%TO.C,J1*%
X130840000Y-63280000D03*
X132340000Y-63280000D03*
X133840000Y-63280000D03*
X135340000Y-63280000D03*
%TD*%
D25*
%TO.C,U3*%
X150200000Y-71425000D03*
X152200000Y-71425000D03*
X150200000Y-69725000D03*
X152200000Y-69725000D03*
D26*
X149295000Y-73237500D03*
X150565000Y-73237500D03*
X151835000Y-73237500D03*
X153105000Y-73237500D03*
X153105000Y-67912500D03*
X151835000Y-67912500D03*
X150565000Y-67912500D03*
X149295000Y-67912500D03*
%TD*%
D27*
%TO.C,Y2*%
X136759999Y-76919999D03*
X134909999Y-76919999D03*
%TD*%
D13*
%TO.C,R3*%
X131990000Y-70460000D03*
X131990000Y-71480000D03*
%TD*%
D28*
%TO.C,U1*%
X136549999Y-74803999D03*
X137049998Y-74803999D03*
X137550000Y-74803999D03*
X138049999Y-74803999D03*
X138549998Y-74803999D03*
X139049999Y-74803999D03*
X139549999Y-74803999D03*
X140050000Y-74803999D03*
X140549999Y-74803999D03*
X141049998Y-74803999D03*
X141550000Y-74803999D03*
X142049999Y-74803999D03*
D29*
X142751999Y-74101999D03*
X142751999Y-73602000D03*
X142751999Y-73101998D03*
X142751999Y-72601999D03*
X142751999Y-72102000D03*
X142751999Y-71601999D03*
X142751999Y-71101999D03*
X142751999Y-70601998D03*
X142751999Y-70101999D03*
X142751999Y-69602000D03*
X142751999Y-69101998D03*
X142751999Y-68601999D03*
D28*
X142049999Y-67899999D03*
X141550000Y-67899999D03*
X141049998Y-67899999D03*
X140549999Y-67899999D03*
X140050000Y-67899999D03*
X139549999Y-67899999D03*
X139049999Y-67899999D03*
X138549998Y-67899999D03*
X138049999Y-67899999D03*
X137550000Y-67899999D03*
X137049998Y-67899999D03*
X136549999Y-67899999D03*
D29*
X135847999Y-68601999D03*
X135847999Y-69101998D03*
X135847999Y-69602000D03*
X135847999Y-70101999D03*
X135847999Y-70601998D03*
X135847999Y-71101999D03*
X135847999Y-71601999D03*
X135847999Y-72102000D03*
X135847999Y-72601999D03*
X135847999Y-73101998D03*
X135847999Y-73602000D03*
X135847999Y-74101999D03*
%TD*%
D30*
%TO.C,C17*%
X154475000Y-73367500D03*
X154475000Y-72232500D03*
%TD*%
D31*
%TO.C,C16*%
X147925000Y-67815000D03*
X147925000Y-68950000D03*
%TD*%
D32*
%TO.C,C11*%
X132955000Y-76950000D03*
X131995000Y-76950000D03*
%TD*%
D11*
%TO.C,SW1*%
X122720000Y-79340000D03*
X122720000Y-74940000D03*
X124870000Y-74940000D03*
X124870000Y-79340000D03*
%TD*%
D14*
%TO.C,R4*%
X135400000Y-66200000D03*
X135400000Y-65180000D03*
%TD*%
D33*
%TO.C,C14*%
X135412500Y-78345000D03*
X134277500Y-78345000D03*
%TD*%
D34*
%TO.C,C12*%
X138630000Y-80045000D03*
X139590000Y-80045000D03*
%TD*%
D35*
%TO.C,D6*%
X144825000Y-74752500D03*
X144825000Y-75897500D03*
%TD*%
M02*
