%TF.GenerationSoftware,KiCad,Pcbnew,(7.0.0)*%
%TF.CreationDate,2023-04-19T19:20:55+08:00*%
%TF.ProjectId,Commander,436f6d6d-616e-4646-9572-2e6b69636164,rev?*%
%TF.SameCoordinates,Original*%
%TF.FileFunction,Legend,Top*%
%TF.FilePolarity,Positive*%
%FSLAX46Y46*%
G04 Gerber Fmt 4.6, Leading zero omitted, Abs format (unit mm)*
G04 Created by KiCad (PCBNEW (7.0.0)) date 2023-04-19 19:20:55*
%MOMM*%
%LPD*%
G01*
G04 APERTURE LIST*
%ADD10C,0.200000*%
%ADD11C,0.010050*%
%ADD12C,0.150000*%
%ADD13C,0.120000*%
%ADD14C,0.100000*%
G04 APERTURE END LIST*
D10*
X116800000Y-78675000D02*
X116800000Y-64675000D01*
X161800000Y-64675000D02*
X161800000Y-78675000D01*
X161800000Y-64675000D02*
G75*
G03*
X158800000Y-61675000I-3000000J0D01*
G01*
X119800000Y-61675000D02*
X158800000Y-61675000D01*
X119800000Y-61675000D02*
G75*
G03*
X116800000Y-64675000I0J-3000000D01*
G01*
X158800000Y-81675000D02*
X119800000Y-81675000D01*
X116800000Y-78675000D02*
G75*
G03*
X119800000Y-81675000I3000000J0D01*
G01*
D11*
X116805025Y-81675000D02*
G75*
G03*
X116805025Y-81675000I-5025J0D01*
G01*
D10*
X158800000Y-81675000D02*
G75*
G03*
X161800000Y-78675000I0J3000000D01*
G01*
D12*
X127441428Y-80528571D02*
X127584285Y-80576190D01*
X127584285Y-80576190D02*
X127631904Y-80623809D01*
X127631904Y-80623809D02*
X127679523Y-80719047D01*
X127679523Y-80719047D02*
X127679523Y-80861904D01*
X127679523Y-80861904D02*
X127631904Y-80957142D01*
X127631904Y-80957142D02*
X127584285Y-81004761D01*
X127584285Y-81004761D02*
X127489047Y-81052380D01*
X127489047Y-81052380D02*
X127108095Y-81052380D01*
X127108095Y-81052380D02*
X127108095Y-80052380D01*
X127108095Y-80052380D02*
X127441428Y-80052380D01*
X127441428Y-80052380D02*
X127536666Y-80100000D01*
X127536666Y-80100000D02*
X127584285Y-80147619D01*
X127584285Y-80147619D02*
X127631904Y-80242857D01*
X127631904Y-80242857D02*
X127631904Y-80338095D01*
X127631904Y-80338095D02*
X127584285Y-80433333D01*
X127584285Y-80433333D02*
X127536666Y-80480952D01*
X127536666Y-80480952D02*
X127441428Y-80528571D01*
X127441428Y-80528571D02*
X127108095Y-80528571D01*
X128298571Y-80052380D02*
X128393809Y-80052380D01*
X128393809Y-80052380D02*
X128489047Y-80100000D01*
X128489047Y-80100000D02*
X128536666Y-80147619D01*
X128536666Y-80147619D02*
X128584285Y-80242857D01*
X128584285Y-80242857D02*
X128631904Y-80433333D01*
X128631904Y-80433333D02*
X128631904Y-80671428D01*
X128631904Y-80671428D02*
X128584285Y-80861904D01*
X128584285Y-80861904D02*
X128536666Y-80957142D01*
X128536666Y-80957142D02*
X128489047Y-81004761D01*
X128489047Y-81004761D02*
X128393809Y-81052380D01*
X128393809Y-81052380D02*
X128298571Y-81052380D01*
X128298571Y-81052380D02*
X128203333Y-81004761D01*
X128203333Y-81004761D02*
X128155714Y-80957142D01*
X128155714Y-80957142D02*
X128108095Y-80861904D01*
X128108095Y-80861904D02*
X128060476Y-80671428D01*
X128060476Y-80671428D02*
X128060476Y-80433333D01*
X128060476Y-80433333D02*
X128108095Y-80242857D01*
X128108095Y-80242857D02*
X128155714Y-80147619D01*
X128155714Y-80147619D02*
X128203333Y-80100000D01*
X128203333Y-80100000D02*
X128298571Y-80052380D01*
X123038095Y-81052380D02*
X123038095Y-80052380D01*
X123038095Y-80052380D02*
X123609523Y-81052380D01*
X123609523Y-81052380D02*
X123609523Y-80052380D01*
X124657142Y-81052380D02*
X124323809Y-80576190D01*
X124085714Y-81052380D02*
X124085714Y-80052380D01*
X124085714Y-80052380D02*
X124466666Y-80052380D01*
X124466666Y-80052380D02*
X124561904Y-80100000D01*
X124561904Y-80100000D02*
X124609523Y-80147619D01*
X124609523Y-80147619D02*
X124657142Y-80242857D01*
X124657142Y-80242857D02*
X124657142Y-80385714D01*
X124657142Y-80385714D02*
X124609523Y-80480952D01*
X124609523Y-80480952D02*
X124561904Y-80528571D01*
X124561904Y-80528571D02*
X124466666Y-80576190D01*
X124466666Y-80576190D02*
X124085714Y-80576190D01*
D13*
%TO.C,SW2*%
X126695000Y-78540000D02*
X126695000Y-75740000D01*
X128895000Y-75740000D02*
X128895000Y-78540000D01*
X127795000Y-77140000D02*
G75*
G03*
X127795000Y-77140000I0J0D01*
G01*
X127895000Y-77140000D02*
G75*
G03*
X127895000Y-77140000I-100000J0D01*
G01*
X127995000Y-77140000D02*
G75*
G03*
X127995000Y-77140000I-200000J0D01*
G01*
X128095000Y-77140000D02*
G75*
G03*
X128095000Y-77140000I-300000J0D01*
G01*
X128195000Y-77140000D02*
G75*
G03*
X128195000Y-77140000I-400000J0D01*
G01*
D14*
%TO.C,D3*%
X127020000Y-73520000D02*
G75*
G03*
X127020000Y-73520000I-50000J0D01*
G01*
D13*
%TO.C,R10*%
X146205000Y-75346359D02*
X146205000Y-75653641D01*
X145445000Y-75346359D02*
X145445000Y-75653641D01*
%TO.C,R5*%
X134020000Y-65843641D02*
X134020000Y-65536359D01*
X134780000Y-65843641D02*
X134780000Y-65536359D01*
%TO.C,Y1*%
X142310000Y-79470000D02*
X142310000Y-76170000D01*
X142310000Y-76170000D02*
X138310000Y-76170000D01*
%TO.C,R13*%
X131436359Y-68930001D02*
X131743641Y-68930001D01*
X131436359Y-69690001D02*
X131743641Y-69690001D01*
%TO.C,D1*%
X130240000Y-73950000D02*
X130240000Y-76110000D01*
X130240000Y-73950000D02*
X131170000Y-73950000D01*
X133400000Y-73950000D02*
X133400000Y-75410000D01*
X133400000Y-73950000D02*
X132470000Y-73950000D01*
%TO.C,C13*%
X143320000Y-76942164D02*
X143320000Y-77157836D01*
X142600000Y-76942164D02*
X142600000Y-77157836D01*
%TO.C,C8*%
X147565000Y-70562836D02*
X147565000Y-70347164D01*
X148285000Y-70562836D02*
X148285000Y-70347164D01*
D14*
%TO.C,D7*%
X133045000Y-68310000D02*
G75*
G03*
X133045000Y-68310000I-50000J0D01*
G01*
D13*
%TO.C,R2*%
X132291359Y-77560000D02*
X132598641Y-77560000D01*
X132291359Y-78320000D02*
X132598641Y-78320000D01*
D14*
%TO.C,D2*%
X122857500Y-73560000D02*
G75*
G03*
X122857500Y-73560000I-50000J0D01*
G01*
D13*
%TO.C,C15*%
X136961665Y-77985000D02*
X137193335Y-77985000D01*
X136961665Y-78705000D02*
X137193335Y-78705000D01*
%TO.C,J3*%
X147920000Y-75790000D02*
X147920000Y-77130000D01*
X147970000Y-79390000D02*
X147970000Y-79960000D01*
X147970000Y-79990000D02*
X155220000Y-79990000D01*
X149410000Y-75790000D02*
X147920000Y-75790000D01*
X149410000Y-75790000D02*
X149410000Y-74590000D01*
X153730000Y-75790000D02*
X155220000Y-75790000D01*
X155220000Y-75790000D02*
X155220000Y-77130000D01*
X155220000Y-79990000D02*
X155220000Y-79390000D01*
%TO.C,U3*%
X153810000Y-73575000D02*
X153810000Y-67575000D01*
X148590000Y-70575000D02*
X148590000Y-67575000D01*
%TO.C,G\u002A\u002A\u002A*%
G36*
X125145256Y-62496739D02*
G01*
X125175274Y-62545849D01*
X125223337Y-62624978D01*
X125285530Y-62727661D01*
X125357942Y-62847433D01*
X125436660Y-62977830D01*
X125495901Y-63076086D01*
X125582674Y-63219856D01*
X125671505Y-63366624D01*
X125757117Y-63507699D01*
X125834230Y-63634392D01*
X125897569Y-63738013D01*
X125924412Y-63781682D01*
X125978955Y-63871480D01*
X126024241Y-63948593D01*
X126056061Y-64005663D01*
X126070205Y-64035329D01*
X126070549Y-64037173D01*
X126051861Y-64055789D01*
X126001302Y-64085709D01*
X125926898Y-64123350D01*
X125836673Y-64165131D01*
X125738651Y-64207468D01*
X125640857Y-64246779D01*
X125551316Y-64279481D01*
X125478053Y-64301992D01*
X125476444Y-64302408D01*
X125382290Y-64322883D01*
X125287930Y-64337442D01*
X125214791Y-64342892D01*
X125089494Y-64347898D01*
X124939781Y-64361513D01*
X124782454Y-64381638D01*
X124634308Y-64406171D01*
X124529410Y-64428609D01*
X124367364Y-64479312D01*
X124243375Y-64542620D01*
X124154331Y-64620265D01*
X124131438Y-64650276D01*
X124095291Y-64696212D01*
X124065786Y-64721612D01*
X124058684Y-64723505D01*
X124030444Y-64712569D01*
X123976882Y-64686143D01*
X123909648Y-64649977D01*
X123845976Y-64610191D01*
X123801046Y-64573868D01*
X123784429Y-64548767D01*
X123784448Y-64548475D01*
X123795731Y-64523932D01*
X123826749Y-64467272D01*
X123875042Y-64382716D01*
X123938145Y-64274485D01*
X124013597Y-64146802D01*
X124098935Y-64003886D01*
X124191698Y-63849958D01*
X124197903Y-63839709D01*
X124303829Y-63664775D01*
X124413875Y-63482966D01*
X124523387Y-63301975D01*
X124627711Y-63129498D01*
X124722193Y-62973227D01*
X124802179Y-62840858D01*
X124842839Y-62773521D01*
X125076863Y-62385792D01*
X125145256Y-62496739D01*
G37*
G36*
X126688444Y-65046646D02*
G01*
X126719121Y-65096620D01*
X126762498Y-65168433D01*
X126814078Y-65254685D01*
X126816289Y-65258399D01*
X126875165Y-65356690D01*
X126948737Y-65478559D01*
X127029335Y-65611349D01*
X127109287Y-65742406D01*
X127145387Y-65801316D01*
X127215876Y-65916485D01*
X127284624Y-66029422D01*
X127345992Y-66130823D01*
X127394345Y-66211384D01*
X127416276Y-66248425D01*
X127454633Y-66313086D01*
X127508993Y-66403646D01*
X127573089Y-66509711D01*
X127640650Y-66620887D01*
X127665186Y-66661099D01*
X127724160Y-66758478D01*
X127773804Y-66842078D01*
X127810495Y-66905664D01*
X127830609Y-66943003D01*
X127833213Y-66950214D01*
X127813198Y-66942595D01*
X127765826Y-66918626D01*
X127700654Y-66883183D01*
X127688776Y-66876527D01*
X127525618Y-66784242D01*
X127386603Y-66704397D01*
X127258402Y-66629206D01*
X127127688Y-66550883D01*
X127035101Y-66494628D01*
X126995640Y-66470611D01*
X126956326Y-66446860D01*
X126912406Y-66420569D01*
X126859128Y-66388928D01*
X126791738Y-66349130D01*
X126705486Y-66298366D01*
X126595619Y-66233829D01*
X126457383Y-66152710D01*
X126330170Y-66078090D01*
X126204229Y-66004680D01*
X126090102Y-65939025D01*
X125993010Y-65884059D01*
X125918175Y-65842715D01*
X125870818Y-65817925D01*
X125856448Y-65811962D01*
X125837186Y-65802273D01*
X125855027Y-65773820D01*
X125909315Y-65727525D01*
X125924561Y-65716153D01*
X125984163Y-65666878D01*
X126058839Y-65597030D01*
X126141427Y-65514265D01*
X126224765Y-65426236D01*
X126301692Y-65340597D01*
X126365046Y-65265003D01*
X126407667Y-65207108D01*
X126418460Y-65188270D01*
X126463844Y-65127320D01*
X126541083Y-65076157D01*
X126559363Y-65067249D01*
X126619380Y-65041235D01*
X126661860Y-65026750D01*
X126674966Y-65025912D01*
X126688444Y-65046646D01*
G37*
G36*
X124086825Y-66221900D02*
G01*
X124152592Y-66221900D01*
X124155130Y-66284680D01*
X124163576Y-66325841D01*
X124179777Y-66355836D01*
X124198442Y-66377625D01*
X124244919Y-66416100D01*
X124280878Y-66415251D01*
X124314128Y-66374191D01*
X124319712Y-66363843D01*
X124336345Y-66295873D01*
X124333033Y-66227866D01*
X124327777Y-66174527D01*
X124323726Y-66095304D01*
X124321082Y-66002820D01*
X124321061Y-66000968D01*
X124351140Y-66000968D01*
X124367871Y-66058509D01*
X124399139Y-66104033D01*
X124439948Y-66129065D01*
X124485302Y-66125129D01*
X124512180Y-66105776D01*
X124536438Y-66054018D01*
X124528986Y-65988374D01*
X124491913Y-65920857D01*
X124477085Y-65903856D01*
X124437821Y-65864714D01*
X124414666Y-65853682D01*
X124394413Y-65867986D01*
X124381276Y-65883737D01*
X124353942Y-65939886D01*
X124351140Y-66000968D01*
X124321061Y-66000968D01*
X124320049Y-65909701D01*
X124320832Y-65828571D01*
X124321678Y-65811521D01*
X124520548Y-65811521D01*
X124523388Y-65873060D01*
X124549448Y-65928927D01*
X124559020Y-65939707D01*
X124602916Y-65973868D01*
X124635150Y-65981194D01*
X124646245Y-65966321D01*
X124647945Y-65937619D01*
X124650117Y-65880832D01*
X124651568Y-65833552D01*
X124650822Y-65763092D01*
X124641944Y-65725284D01*
X124622503Y-65710582D01*
X124620154Y-65710066D01*
X124572051Y-65718305D01*
X124537809Y-65756030D01*
X124520548Y-65811521D01*
X124321678Y-65811521D01*
X124323635Y-65772055D01*
X124325455Y-65758735D01*
X124328815Y-65708528D01*
X124326734Y-65695818D01*
X124390272Y-65695818D01*
X124401583Y-65749063D01*
X124413735Y-65764615D01*
X124446843Y-65777222D01*
X124475980Y-65755435D01*
X124493292Y-65707265D01*
X124495147Y-65681610D01*
X124483663Y-65633135D01*
X124453574Y-65621228D01*
X124414242Y-65645893D01*
X124390272Y-65695818D01*
X124326734Y-65695818D01*
X124321481Y-65663737D01*
X124306574Y-65641886D01*
X124304613Y-65641635D01*
X124274077Y-65659385D01*
X124236631Y-65704044D01*
X124200517Y-65762726D01*
X124173976Y-65822546D01*
X124165403Y-65859281D01*
X124162056Y-65912032D01*
X124158451Y-65993074D01*
X124155189Y-66088123D01*
X124154110Y-66127049D01*
X124152592Y-66221900D01*
X124086825Y-66221900D01*
X124086856Y-66208244D01*
X124092653Y-66126556D01*
X124099912Y-66046067D01*
X124122557Y-65801128D01*
X124233900Y-65653488D01*
X124285297Y-65584094D01*
X124326305Y-65526408D01*
X124350384Y-65489719D01*
X124353721Y-65483255D01*
X124376157Y-65478441D01*
X124425943Y-65496264D01*
X124455286Y-65511120D01*
X124606252Y-65594557D01*
X124722744Y-65662461D01*
X124803648Y-65714135D01*
X124847847Y-65748879D01*
X124856370Y-65762144D01*
X124843803Y-65786369D01*
X124808639Y-65837173D01*
X124755457Y-65908355D01*
X124688839Y-65993716D01*
X124644648Y-66048758D01*
X124547523Y-66171683D01*
X124475503Y-66272333D01*
X124424401Y-66359339D01*
X124390026Y-66441330D01*
X124368192Y-66526935D01*
X124354708Y-66624784D01*
X124352235Y-66651206D01*
X124346425Y-66728047D01*
X124346902Y-66770675D01*
X124355138Y-66787184D01*
X124372601Y-66785668D01*
X124376401Y-66784274D01*
X124424337Y-66771803D01*
X124443114Y-66770051D01*
X124472310Y-66752821D01*
X124503273Y-66710929D01*
X124505473Y-66706796D01*
X124564659Y-66621337D01*
X124633837Y-66570223D01*
X124692179Y-66557142D01*
X124778176Y-66573470D01*
X124850121Y-66616773D01*
X124870402Y-66639173D01*
X124883208Y-66646664D01*
X124904708Y-66640330D01*
X124938982Y-66616916D01*
X124990108Y-66573167D01*
X125019939Y-66545291D01*
X125137617Y-66545291D01*
X125168970Y-66614972D01*
X125187388Y-66638765D01*
X125249237Y-66687160D01*
X125315768Y-66694996D01*
X125378272Y-66663966D01*
X125397993Y-66625931D01*
X125408806Y-66562828D01*
X125410293Y-66491316D01*
X125402037Y-66428052D01*
X125385105Y-66391073D01*
X125333530Y-66367170D01*
X125268020Y-66378141D01*
X125199379Y-66420644D01*
X125147686Y-66481730D01*
X125137617Y-66545291D01*
X125019939Y-66545291D01*
X125062166Y-66505831D01*
X125159237Y-66411652D01*
X125175020Y-66396173D01*
X125264341Y-66308517D01*
X125342899Y-66231462D01*
X125405759Y-66169844D01*
X125447988Y-66128499D01*
X125464590Y-66112323D01*
X125485548Y-66117371D01*
X125508724Y-66133614D01*
X125546022Y-66159927D01*
X125605908Y-66197201D01*
X125657426Y-66227134D01*
X125709300Y-66256743D01*
X125790758Y-66303742D01*
X125894652Y-66363984D01*
X126013834Y-66433321D01*
X126141154Y-66507603D01*
X126192245Y-66537471D01*
X126316095Y-66609909D01*
X126430203Y-66676635D01*
X126528549Y-66734128D01*
X126605111Y-66778870D01*
X126653868Y-66807340D01*
X126665731Y-66814252D01*
X126712291Y-66842485D01*
X126740249Y-66861016D01*
X126767767Y-66878793D01*
X126819898Y-66910658D01*
X126887242Y-66951054D01*
X126960400Y-66994424D01*
X127029974Y-67035212D01*
X127086565Y-67067860D01*
X127120774Y-67086811D01*
X127126539Y-67089414D01*
X127146006Y-67099725D01*
X127193619Y-67127454D01*
X127261201Y-67167795D01*
X127307628Y-67195868D01*
X127482898Y-67302322D01*
X122106930Y-67302322D01*
X122158337Y-67211836D01*
X122181218Y-67172774D01*
X122223309Y-67102138D01*
X122281711Y-67004745D01*
X122353524Y-66885413D01*
X122435849Y-66748961D01*
X122525788Y-66600207D01*
X122609912Y-66461333D01*
X122714736Y-66288372D01*
X122823796Y-66108300D01*
X122932329Y-65928986D01*
X123035575Y-65758299D01*
X123128774Y-65604108D01*
X123207164Y-65474284D01*
X123241059Y-65418081D01*
X123311159Y-65301910D01*
X123374654Y-65196949D01*
X123427956Y-65109106D01*
X123467478Y-65044289D01*
X123489632Y-65008408D01*
X123492222Y-65004370D01*
X123508965Y-64991321D01*
X123538202Y-64994070D01*
X123588585Y-65014861D01*
X123647155Y-65044533D01*
X123716275Y-65081623D01*
X123770556Y-65112328D01*
X123798781Y-65130291D01*
X123799346Y-65130775D01*
X123799889Y-65150059D01*
X123782033Y-65192989D01*
X123744372Y-65262068D01*
X123685501Y-65359799D01*
X123604016Y-65488687D01*
X123561585Y-65554450D01*
X123521532Y-65622229D01*
X123493841Y-65687331D01*
X123478839Y-65755860D01*
X123476854Y-65833922D01*
X123488212Y-65927624D01*
X123513242Y-66043071D01*
X123552270Y-66186370D01*
X123604829Y-66361051D01*
X123635073Y-66457492D01*
X123657058Y-66519920D01*
X123674823Y-66555090D01*
X123692406Y-66569758D01*
X123713847Y-66570678D01*
X123728479Y-66567831D01*
X123786319Y-66570505D01*
X123823755Y-66598917D01*
X123844785Y-66632148D01*
X123835667Y-66642333D01*
X123804902Y-66624294D01*
X123795920Y-66615870D01*
X123766667Y-66606070D01*
X123742577Y-66631141D01*
X123729743Y-66683380D01*
X123729002Y-66700425D01*
X123737816Y-66759013D01*
X123760494Y-66825911D01*
X123790372Y-66885900D01*
X123820788Y-66923759D01*
X123828838Y-66928456D01*
X123874164Y-66926503D01*
X123910122Y-66891237D01*
X123924338Y-66848345D01*
X123931458Y-66828247D01*
X123945563Y-66839361D01*
X123970489Y-66885469D01*
X123978165Y-66901443D01*
X124016821Y-66974685D01*
X124048474Y-67011407D01*
X124078939Y-67015695D01*
X124110784Y-66994625D01*
X124154429Y-66929976D01*
X124160187Y-66910501D01*
X124498463Y-66910501D01*
X124500103Y-66960973D01*
X124502746Y-66972052D01*
X124532425Y-66995693D01*
X124588546Y-67003729D01*
X124657615Y-66995330D01*
X124694911Y-66983910D01*
X124760891Y-66936929D01*
X124770391Y-66921214D01*
X124857092Y-66921214D01*
X124875418Y-66962993D01*
X124921948Y-66990144D01*
X124984002Y-66999961D01*
X125048906Y-66989735D01*
X125087521Y-66970429D01*
X125114549Y-66946219D01*
X125128048Y-66913904D01*
X125131335Y-66860626D01*
X125129517Y-66807639D01*
X125118217Y-66713518D01*
X125095045Y-66659875D01*
X125059332Y-66646106D01*
X125010411Y-66671608D01*
X124994367Y-66685600D01*
X124950202Y-66736633D01*
X124906896Y-66801975D01*
X124873073Y-66866825D01*
X124857356Y-66916382D01*
X124857092Y-66921214D01*
X124770391Y-66921214D01*
X124809789Y-66856044D01*
X124835949Y-66758425D01*
X124842730Y-66700000D01*
X124835599Y-66669065D01*
X124808393Y-66651239D01*
X124786536Y-66643166D01*
X124722915Y-66625122D01*
X124676316Y-66628010D01*
X124629040Y-66655753D01*
X124592818Y-66686108D01*
X124536346Y-66749621D01*
X124508394Y-66823608D01*
X124504536Y-66845528D01*
X124498463Y-66910501D01*
X124160187Y-66910501D01*
X124182084Y-66836436D01*
X124193426Y-66724709D01*
X124188130Y-66605500D01*
X124165873Y-66489512D01*
X124129017Y-66392636D01*
X124106940Y-66347241D01*
X124093132Y-66308261D01*
X124086726Y-66265371D01*
X124086825Y-66221900D01*
G37*
%TO.C,Y2*%
X137485000Y-77720000D02*
X137485000Y-76120000D01*
X137485000Y-76120000D02*
X134635000Y-76120000D01*
X134635000Y-77720000D02*
X137485000Y-77720000D01*
%TO.C,G\u002A\u002A\u002A*%
G36*
X159650398Y-68044760D02*
G01*
X161736219Y-68945434D01*
X161738780Y-69748899D01*
X161739227Y-69894564D01*
X161739561Y-70021503D01*
X161739759Y-70130988D01*
X161739796Y-70224293D01*
X161739649Y-70302690D01*
X161739294Y-70367453D01*
X161738706Y-70419856D01*
X161737862Y-70461171D01*
X161736738Y-70492671D01*
X161735309Y-70515629D01*
X161733553Y-70531320D01*
X161731445Y-70541015D01*
X161728960Y-70545988D01*
X161726076Y-70547512D01*
X161723774Y-70547199D01*
X161712318Y-70542583D01*
X161683589Y-70530485D01*
X161638589Y-70511338D01*
X161578318Y-70485573D01*
X161503774Y-70453623D01*
X161415960Y-70415920D01*
X161315874Y-70372896D01*
X161204517Y-70324984D01*
X161082889Y-70272614D01*
X160951991Y-70216221D01*
X160812822Y-70156234D01*
X160666382Y-70093088D01*
X160513672Y-70027214D01*
X160355693Y-69959044D01*
X160193443Y-69889010D01*
X160027923Y-69817545D01*
X159860134Y-69745080D01*
X159691076Y-69672048D01*
X159521748Y-69598881D01*
X159353151Y-69526011D01*
X159186285Y-69453871D01*
X159022151Y-69382891D01*
X158861748Y-69313506D01*
X158706076Y-69246145D01*
X158556136Y-69181243D01*
X158412928Y-69119231D01*
X158277452Y-69060541D01*
X158150708Y-69005605D01*
X158033697Y-68954855D01*
X157927418Y-68908725D01*
X157832872Y-68867645D01*
X157751058Y-68832047D01*
X157682978Y-68802365D01*
X157629631Y-68779030D01*
X157592017Y-68762475D01*
X157571136Y-68753131D01*
X157567018Y-68751136D01*
X157565870Y-68740235D01*
X157564838Y-68710850D01*
X157563932Y-68664495D01*
X157563160Y-68602686D01*
X157562531Y-68526937D01*
X157562056Y-68438764D01*
X157561743Y-68339681D01*
X157561603Y-68231204D01*
X157561644Y-68114848D01*
X157561875Y-67992127D01*
X157562016Y-67943983D01*
X157564577Y-67144085D01*
X159650398Y-68044760D01*
G37*
G36*
X159652899Y-70823470D02*
G01*
X161741221Y-71724244D01*
X161740820Y-72129622D01*
X161740618Y-72233235D01*
X161740192Y-72318685D01*
X161739478Y-72387808D01*
X161738410Y-72442441D01*
X161736923Y-72484419D01*
X161734952Y-72515579D01*
X161732433Y-72537757D01*
X161729300Y-72552790D01*
X161725495Y-72562500D01*
X161704710Y-72584727D01*
X161678843Y-72588863D01*
X161651842Y-72574662D01*
X161644734Y-72567500D01*
X161630964Y-72547048D01*
X161613779Y-72514750D01*
X161596825Y-72477476D01*
X161596310Y-72476238D01*
X161564256Y-72410345D01*
X161520200Y-72336130D01*
X161467469Y-72258124D01*
X161409392Y-72180856D01*
X161349296Y-72108857D01*
X161290510Y-72046657D01*
X161259763Y-72018108D01*
X161146169Y-71925932D01*
X161034147Y-71850137D01*
X160919354Y-71787999D01*
X160832849Y-71750306D01*
X160680271Y-71698717D01*
X160526915Y-71664127D01*
X160375487Y-71646962D01*
X160228697Y-71647653D01*
X160198995Y-71650079D01*
X160126922Y-71659632D01*
X160044395Y-71674882D01*
X159958251Y-71694235D01*
X159875327Y-71716098D01*
X159802460Y-71738876D01*
X159774868Y-71748963D01*
X159703975Y-71780256D01*
X159625352Y-71821225D01*
X159545485Y-71868043D01*
X159470860Y-71916880D01*
X159407962Y-71963909D01*
X159401073Y-71969617D01*
X159382743Y-71986390D01*
X159351692Y-72016468D01*
X159309038Y-72058712D01*
X159255901Y-72111984D01*
X159193399Y-72175147D01*
X159122652Y-72247062D01*
X159044780Y-72326592D01*
X158960901Y-72412598D01*
X158872135Y-72503944D01*
X158779600Y-72599489D01*
X158684417Y-72698098D01*
X158677312Y-72705472D01*
X158561712Y-72825346D01*
X158459119Y-72931463D01*
X158368777Y-73024583D01*
X158289928Y-73105464D01*
X158221814Y-73174863D01*
X158163676Y-73233539D01*
X158114759Y-73282251D01*
X158074303Y-73321755D01*
X158041551Y-73352812D01*
X158015745Y-73376178D01*
X157996128Y-73392612D01*
X157981942Y-73402872D01*
X157978045Y-73405185D01*
X157947000Y-73420714D01*
X157919672Y-73429433D01*
X157888000Y-73433085D01*
X157847334Y-73433458D01*
X157767837Y-73424416D01*
X157700418Y-73399501D01*
X157645241Y-73358822D01*
X157602469Y-73302489D01*
X157580578Y-73255366D01*
X157559515Y-73199091D01*
X157564577Y-69922695D01*
X159652899Y-70823470D01*
G37*
G36*
X155544989Y-66278341D02*
G01*
X155573346Y-66290431D01*
X155616390Y-66308862D01*
X155672279Y-66332840D01*
X155739171Y-66361577D01*
X155815222Y-66394280D01*
X155898592Y-66430158D01*
X155987438Y-66468421D01*
X155993355Y-66470970D01*
X156439133Y-66663031D01*
X156439133Y-69970206D01*
X156439127Y-70278552D01*
X156439113Y-70567556D01*
X156439101Y-70837873D01*
X156439101Y-71090162D01*
X156439122Y-71325078D01*
X156439174Y-71543280D01*
X156439267Y-71745423D01*
X156439409Y-71932165D01*
X156439611Y-72104163D01*
X156439882Y-72262074D01*
X156440231Y-72406554D01*
X156440668Y-72538262D01*
X156441202Y-72657853D01*
X156441843Y-72765985D01*
X156442601Y-72863315D01*
X156443485Y-72950500D01*
X156444504Y-73028196D01*
X156445669Y-73097061D01*
X156446988Y-73157752D01*
X156448471Y-73210926D01*
X156450127Y-73257239D01*
X156451967Y-73297349D01*
X156453999Y-73331912D01*
X156456233Y-73361586D01*
X156458679Y-73387028D01*
X156461346Y-73408894D01*
X156464244Y-73427842D01*
X156467382Y-73444529D01*
X156470769Y-73459611D01*
X156474416Y-73473745D01*
X156478331Y-73487589D01*
X156482525Y-73501799D01*
X156487007Y-73517033D01*
X156490695Y-73530000D01*
X156513722Y-73600605D01*
X156545395Y-73680706D01*
X156582708Y-73763541D01*
X156622657Y-73842346D01*
X156653259Y-73895920D01*
X156741811Y-74022918D01*
X156846340Y-74140423D01*
X156963986Y-74245671D01*
X157091883Y-74335898D01*
X157136020Y-74362000D01*
X157255726Y-74423984D01*
X157374571Y-74473569D01*
X157499703Y-74513434D01*
X157614596Y-74541301D01*
X157660097Y-74547936D01*
X157720416Y-74552279D01*
X157790501Y-74554383D01*
X157865301Y-74554303D01*
X157939765Y-74552093D01*
X158008841Y-74547806D01*
X158067476Y-74541496D01*
X158098489Y-74536146D01*
X158199693Y-74510925D01*
X158302436Y-74478934D01*
X158399661Y-74442596D01*
X158484310Y-74404334D01*
X158488212Y-74402350D01*
X158520797Y-74385448D01*
X158551158Y-74368970D01*
X158580286Y-74351999D01*
X158609170Y-74333619D01*
X158638799Y-74312915D01*
X158670163Y-74288970D01*
X158704251Y-74260867D01*
X158742054Y-74227691D01*
X158784560Y-74188526D01*
X158832759Y-74142456D01*
X158887641Y-74088563D01*
X158950195Y-74025933D01*
X159021410Y-73953649D01*
X159102277Y-73870795D01*
X159193784Y-73776455D01*
X159296922Y-73669712D01*
X159412679Y-73549651D01*
X159441247Y-73520000D01*
X159553836Y-73403185D01*
X159653479Y-73299935D01*
X159741065Y-73209372D01*
X159817482Y-73130612D01*
X159883619Y-73062774D01*
X159940363Y-73004976D01*
X159988605Y-72956337D01*
X160029231Y-72915975D01*
X160063131Y-72883009D01*
X160091193Y-72856557D01*
X160114306Y-72835737D01*
X160133358Y-72819667D01*
X160149238Y-72807467D01*
X160162833Y-72798254D01*
X160175034Y-72791147D01*
X160176650Y-72790286D01*
X160214418Y-72771624D01*
X160244476Y-72761300D01*
X160276100Y-72757079D01*
X160316175Y-72756692D01*
X160391707Y-72766170D01*
X160456693Y-72792388D01*
X160511687Y-72835720D01*
X160557240Y-72896543D01*
X160576636Y-72933605D01*
X160600576Y-72985000D01*
X160600674Y-74607500D01*
X160600632Y-74800224D01*
X160600484Y-74984621D01*
X160600236Y-75159814D01*
X160599892Y-75324928D01*
X160599458Y-75479087D01*
X160598937Y-75621414D01*
X160598334Y-75751033D01*
X160597655Y-75867069D01*
X160596904Y-75968644D01*
X160596086Y-76054884D01*
X160595205Y-76124911D01*
X160594266Y-76177851D01*
X160593274Y-76212825D01*
X160592234Y-76228960D01*
X160591888Y-76230000D01*
X160582064Y-76226097D01*
X160554610Y-76214599D01*
X160510271Y-76195827D01*
X160449790Y-76170099D01*
X160373914Y-76137735D01*
X160283386Y-76099054D01*
X160178952Y-76054376D01*
X160061357Y-76004020D01*
X159931344Y-75948305D01*
X159789659Y-75887552D01*
X159637047Y-75822078D01*
X159474252Y-75752204D01*
X159302020Y-75678249D01*
X159121094Y-75600532D01*
X158932220Y-75519373D01*
X158736143Y-75435092D01*
X158533607Y-75348006D01*
X158325356Y-75258436D01*
X158112137Y-75166702D01*
X158053389Y-75141422D01*
X155523773Y-74052843D01*
X155521259Y-70160347D01*
X155521049Y-69824680D01*
X155520867Y-69508453D01*
X155520714Y-69211106D01*
X155520593Y-68932081D01*
X155520504Y-68670816D01*
X155520449Y-68426753D01*
X155520431Y-68199331D01*
X155520451Y-67987991D01*
X155520510Y-67792173D01*
X155520611Y-67611317D01*
X155520754Y-67444865D01*
X155520943Y-67292255D01*
X155521178Y-67152928D01*
X155521462Y-67026325D01*
X155521795Y-66911885D01*
X155522180Y-66809049D01*
X155522618Y-66717258D01*
X155523112Y-66635951D01*
X155523662Y-66564568D01*
X155524271Y-66502551D01*
X155524940Y-66449339D01*
X155525670Y-66404373D01*
X155526465Y-66367092D01*
X155527325Y-66336938D01*
X155528252Y-66313350D01*
X155529248Y-66295768D01*
X155530314Y-66283634D01*
X155531452Y-66276386D01*
X155532665Y-66273466D01*
X155533161Y-66273380D01*
X155544989Y-66278341D01*
G37*
%TO.C,R3*%
X132370000Y-70816359D02*
X132370000Y-71123641D01*
X131610000Y-70816359D02*
X131610000Y-71123641D01*
%TO.C,U1*%
X135617000Y-75035000D02*
X136089860Y-75035000D01*
X142510140Y-75035000D02*
X142983000Y-75035000D01*
X142983000Y-75035000D02*
X142983000Y-74562140D01*
X135617000Y-74562140D02*
X135617000Y-75035000D01*
X142983000Y-68141860D02*
X142983000Y-67669000D01*
X135617000Y-67669000D02*
X135617000Y-68141860D01*
X136089860Y-67669000D02*
X135617000Y-67669000D01*
X142983000Y-67669000D02*
X142510140Y-67669000D01*
X136000000Y-74652000D02*
G75*
G03*
X136000000Y-74652000I0J0D01*
G01*
X136100000Y-74652000D02*
G75*
G03*
X136100000Y-74652000I-100000J0D01*
G01*
G36*
X141240499Y-75715999D02*
G01*
X140859499Y-75715999D01*
X140859499Y-75461999D01*
X141240499Y-75461999D01*
X141240499Y-75715999D01*
G37*
D14*
X141240499Y-75715999D02*
X140859499Y-75715999D01*
X140859499Y-75461999D01*
X141240499Y-75461999D01*
X141240499Y-75715999D01*
G36*
X143663999Y-70792499D02*
G01*
X143409999Y-70792499D01*
X143409999Y-70411499D01*
X143663999Y-70411499D01*
X143663999Y-70792499D01*
G37*
X143663999Y-70792499D02*
X143409999Y-70792499D01*
X143409999Y-70411499D01*
X143663999Y-70411499D01*
X143663999Y-70792499D01*
G36*
X135190001Y-70292500D02*
G01*
X134936001Y-70292500D01*
X134936001Y-69911500D01*
X135190001Y-69911500D01*
X135190001Y-70292500D01*
G37*
X135190001Y-70292500D02*
X134936001Y-70292500D01*
X134936001Y-69911500D01*
X135190001Y-69911500D01*
X135190001Y-70292500D01*
G36*
X139740500Y-67242001D02*
G01*
X139359499Y-67242001D01*
X139359499Y-66988001D01*
X139740500Y-66988001D01*
X139740500Y-67242001D01*
G37*
X139740500Y-67242001D02*
X139359499Y-67242001D01*
X139359499Y-66988001D01*
X139740500Y-66988001D01*
X139740500Y-67242001D01*
D13*
%TO.C,C17*%
X154115000Y-72915835D02*
X154115000Y-72684165D01*
X154835000Y-72915835D02*
X154835000Y-72684165D01*
%TO.C,C16*%
X148285000Y-68266665D02*
X148285000Y-68498335D01*
X147565000Y-68266665D02*
X147565000Y-68498335D01*
%TO.C,C11*%
X132582836Y-77310000D02*
X132367164Y-77310000D01*
X132582836Y-76590000D02*
X132367164Y-76590000D01*
%TO.C,SW1*%
X122695000Y-78540000D02*
X122695000Y-75740000D01*
X124895000Y-75740000D02*
X124895000Y-78540000D01*
X123795000Y-77140000D02*
G75*
G03*
X123795000Y-77140000I0J0D01*
G01*
X123895000Y-77140000D02*
G75*
G03*
X123895000Y-77140000I-100000J0D01*
G01*
X123995000Y-77140000D02*
G75*
G03*
X123995000Y-77140000I-200000J0D01*
G01*
X124095000Y-77140000D02*
G75*
G03*
X124095000Y-77140000I-300000J0D01*
G01*
X124195000Y-77140000D02*
G75*
G03*
X124195000Y-77140000I-400000J0D01*
G01*
%TO.C,R4*%
X135020000Y-65843641D02*
X135020000Y-65536359D01*
X135780000Y-65843641D02*
X135780000Y-65536359D01*
%TO.C,C14*%
X134960835Y-78705000D02*
X134729165Y-78705000D01*
X134960835Y-77985000D02*
X134729165Y-77985000D01*
%TO.C,C12*%
X139002164Y-79685000D02*
X139217836Y-79685000D01*
X139002164Y-80405000D02*
X139217836Y-80405000D01*
D14*
%TO.C,D6*%
X144875000Y-74060000D02*
G75*
G03*
X144875000Y-74060000I-50000J0D01*
G01*
%TD*%
M02*
