M48
; DRILL file {KiCad (7.0.0)} date Wed Apr 19 19:20:56 2023
; FORMAT={-:-/ absolute / inch / decimal}
; #@! TF.CreationDate,2023-04-19T19:20:56+08:00
; #@! TF.GenerationSoftware,Kicad,Pcbnew,(7.0.0)
; #@! TF.FileFunction,Plated,1,2,PTH
FMAT,2
INCH
; #@! TA.AperFunction,Plated,PTH,ViaDrill
T1C0.0118
; #@! TA.AperFunction,Plated,PTH,ViaDrill
T2C0.0157
; #@! TA.AperFunction,Plated,PTH,ComponentDrill
T3C0.0827
%
G90
G05
T1
X4.8988Y-2.865
X5.0244Y-2.8472
X5.0248Y-2.9571
X5.1768Y-2.8496
X5.1894Y-3.002
X5.1969Y-2.7606
X5.2311Y-2.5531
X5.2311Y-2.8638
X5.2564Y-3.075
X5.2565Y-2.8502
X5.26Y-3.1185
X5.2657Y-2.8242
X5.2689Y-3.0012
X5.2689Y-3.0264
X5.2689Y-3.0528
X5.2835Y-2.8031
X5.2873Y-3.1185
X5.289Y-2.5354
X5.3098Y-2.878
X5.313Y-2.7933
X5.3146Y-3.1185
X5.3209Y-2.7598
X5.3236Y-2.5335
X5.3402Y-3.1185
X5.3675Y-3.1185
X5.3705Y-2.5945
X5.3744Y-2.522
X5.3799Y-2.5579
X5.3826Y-2.7382
X5.3826Y-2.7874
X5.3827Y-2.7075
X5.3898Y-2.8508
X5.3898Y-2.8768
X5.3948Y-3.1185
X5.3976Y-2.9094
X5.4051Y-2.522
X5.4142Y-2.8504
X5.4142Y-2.8764
X5.422Y-3.1185
X5.4236Y-3.0409
X5.4374Y-2.5217
X5.439Y-2.824
X5.439Y-2.8498
X5.439Y-2.8756
X5.4657Y-2.7984
X5.4657Y-2.824
X5.4657Y-2.8504
X5.4685Y-2.5217
X5.4795Y-3.0303
X5.4886Y-2.9114
X5.5Y-2.5217
X5.5121Y-2.972
X5.5248Y-3.1421
X5.5264Y-3.1701
X5.5283Y-2.5661
X5.5311Y-2.5217
X5.5335Y-2.9177
X5.5507Y-3.1421
X5.5531Y-2.9709
X5.5532Y-2.6004
X5.5634Y-2.5213
X5.5667Y-2.5732
X5.5748Y-2.9091
X5.5765Y-3.1421
X5.5929Y-2.9756
X5.5941Y-2.5213
X5.5945Y-2.6035
X5.6024Y-3.1421
X5.6173Y-3.1102
X5.6177Y-3.0854
X5.6189Y-2.9339
X5.626Y-2.5217
X5.6575Y-2.5209
X5.6743Y-2.7796
X5.678Y-2.935
X5.6894Y-2.5213
X5.7008Y-3.0276
X5.7034Y-2.7724
X5.7097Y-2.8784
X5.7213Y-2.5213
X5.726Y-2.9111
X5.7429Y-2.8511
X5.8437Y-2.9043
X5.8493Y-2.696
X5.8539Y-2.965
X5.8583Y-2.9299
X5.8591Y-2.7197
X5.8594Y-2.7437
X5.8978Y-2.8753
X5.9256Y-3.0721
X5.9276Y-2.9075
X5.9602Y-3.0917
X5.9772Y-3.0
X5.9776Y-2.6374
X5.9909Y-2.7232
X5.9909Y-2.7497
X5.9909Y-2.7762
X5.9909Y-2.8027
X5.9909Y-2.8291
X5.9969Y-3.0201
X6.0154Y-2.7232
X6.0154Y-2.7497
X6.0154Y-2.7762
X6.0154Y-2.8027
X6.0154Y-2.8291
X6.028Y-2.6433
X6.0555Y-2.9972
T2
X5.0791Y-2.4594
X5.1492Y-2.597
X5.1492Y-2.6358
X5.1496Y-2.5583
X5.185Y-2.5583
X5.185Y-2.5961
X5.2484Y-2.9386
X5.287Y-2.939
X5.8409Y-2.8303
X6.0591Y-2.915
T3
X4.7165Y-2.5463
X4.7165Y-3.0974
X6.2517Y-3.0974
X6.252Y-2.5463
T0
M30
