%TF.GenerationSoftware,KiCad,Pcbnew,(7.0.0)*%
%TF.CreationDate,2023-04-19T19:20:55+08:00*%
%TF.ProjectId,Commander,436f6d6d-616e-4646-9572-2e6b69636164,rev?*%
%TF.SameCoordinates,Original*%
%TF.FileFunction,Copper,L2,Bot*%
%TF.FilePolarity,Positive*%
%FSLAX46Y46*%
G04 Gerber Fmt 4.6, Leading zero omitted, Abs format (unit mm)*
G04 Created by KiCad (PCBNEW (7.0.0)) date 2023-04-19 19:20:55*
%MOMM*%
%LPD*%
G01*
G04 APERTURE LIST*
G04 Aperture macros list*
%AMRoundRect*
0 Rectangle with rounded corners*
0 $1 Rounding radius*
0 $2 $3 $4 $5 $6 $7 $8 $9 X,Y pos of 4 corners*
0 Add a 4 corners polygon primitive as box body*
4,1,4,$2,$3,$4,$5,$6,$7,$8,$9,$2,$3,0*
0 Add four circle primitives for the rounded corners*
1,1,$1+$1,$2,$3*
1,1,$1+$1,$4,$5*
1,1,$1+$1,$6,$7*
1,1,$1+$1,$8,$9*
0 Add four rect primitives between the rounded corners*
20,1,$1+$1,$2,$3,$4,$5,0*
20,1,$1+$1,$4,$5,$6,$7,0*
20,1,$1+$1,$6,$7,$8,$9,0*
20,1,$1+$1,$8,$9,$2,$3,0*%
G04 Aperture macros list end*
%TA.AperFunction,ComponentPad*%
%ADD10C,4.000000*%
%TD*%
%TA.AperFunction,SMDPad,CuDef*%
%ADD11RoundRect,0.147500X0.172500X-0.147500X0.172500X0.147500X-0.172500X0.147500X-0.172500X-0.147500X0*%
%TD*%
%TA.AperFunction,SMDPad,CuDef*%
%ADD12R,0.550000X1.550000*%
%TD*%
%TA.AperFunction,SMDPad,CuDef*%
%ADD13RoundRect,0.140000X-0.140000X-0.170000X0.140000X-0.170000X0.140000X0.170000X-0.140000X0.170000X0*%
%TD*%
%TA.AperFunction,SMDPad,CuDef*%
%ADD14RoundRect,0.135000X-0.185000X0.135000X-0.185000X-0.135000X0.185000X-0.135000X0.185000X0.135000X0*%
%TD*%
%TA.AperFunction,SMDPad,CuDef*%
%ADD15RoundRect,0.135000X0.135000X0.185000X-0.135000X0.185000X-0.135000X-0.185000X0.135000X-0.185000X0*%
%TD*%
%TA.AperFunction,SMDPad,CuDef*%
%ADD16RoundRect,0.140000X-0.170000X0.140000X-0.170000X-0.140000X0.170000X-0.140000X0.170000X0.140000X0*%
%TD*%
%TA.AperFunction,SMDPad,CuDef*%
%ADD17RoundRect,0.135000X-0.135000X-0.185000X0.135000X-0.185000X0.135000X0.185000X-0.135000X0.185000X0*%
%TD*%
%TA.AperFunction,ViaPad*%
%ADD18C,0.500000*%
%TD*%
%TA.AperFunction,ViaPad*%
%ADD19C,0.800000*%
%TD*%
%TA.AperFunction,Conductor*%
%ADD20C,0.500000*%
%TD*%
%TA.AperFunction,Conductor*%
%ADD21C,0.350000*%
%TD*%
%TA.AperFunction,Conductor*%
%ADD22C,0.200000*%
%TD*%
%TA.AperFunction,Conductor*%
%ADD23C,0.250000*%
%TD*%
G04 APERTURE END LIST*
D10*
%TO.P,J4,*%
%TO.N,*%
X119800000Y-64675000D03*
X119800000Y-78675000D03*
X158792442Y-78673977D03*
X158800000Y-64675000D03*
%TD*%
D11*
%TO.P,FB1,1*%
%TO.N,+3V3*%
X147564999Y-71815002D03*
%TO.P,FB1,2*%
%TO.N,Net-(U1B-VDDA)*%
X147564999Y-70845002D03*
%TD*%
D12*
%TO.P,j2,1*%
%TO.N,GND*%
X146899999Y-67324999D03*
%TO.P,j2,2*%
X146899999Y-63024999D03*
%TO.P,j2,3*%
X146099999Y-67324999D03*
%TO.P,j2,4*%
X146099999Y-63024999D03*
%TO.P,j2,5*%
%TO.N,/LCD.SCL*%
X145299999Y-67324999D03*
%TO.P,j2,6*%
%TO.N,/LCD.BKControl*%
X145299999Y-63024999D03*
%TO.P,j2,7*%
%TO.N,/LCD.CS*%
X144499999Y-67324999D03*
%TO.P,j2,8*%
%TO.N,/LCD.SDA*%
X144499999Y-63024999D03*
%TO.P,j2,9*%
%TO.N,/LCD.~{RES}*%
X143699999Y-67324999D03*
%TO.P,j2,10*%
%TO.N,/PB0*%
X143699999Y-63024999D03*
%TO.P,j2,11*%
%TO.N,/LCD.D{slash}C*%
X142899999Y-67324999D03*
%TO.P,j2,12*%
%TO.N,/PB1*%
X142899999Y-63024999D03*
%TO.P,j2,13*%
%TO.N,/PA1*%
X142099999Y-67324999D03*
%TO.P,j2,14*%
%TO.N,/PB2*%
X142099999Y-63024999D03*
%TO.P,j2,15*%
%TO.N,/PA0*%
X141299999Y-67324999D03*
%TO.P,j2,16*%
%TO.N,/PB10*%
X141299999Y-63024999D03*
%TO.P,j2,17*%
%TO.N,/PC13*%
X140499999Y-67324999D03*
%TO.P,j2,18*%
%TO.N,/PB11*%
X140499999Y-63024999D03*
%TO.P,j2,19*%
%TO.N,/PB4*%
X139699999Y-67324999D03*
%TO.P,j2,20*%
%TO.N,/PC6*%
X139699999Y-63024999D03*
%TO.P,j2,21*%
%TO.N,/PB3*%
X138899999Y-67324999D03*
%TO.P,j2,22*%
%TO.N,/PA8*%
X138899999Y-63024999D03*
%TO.P,j2,23*%
%TO.N,/PC11*%
X138099999Y-67324999D03*
%TO.P,j2,24*%
%TO.N,/PA9*%
X138099999Y-63024999D03*
%TO.P,j2,25*%
%TO.N,/PC10*%
X137299999Y-67324999D03*
%TO.P,j2,26*%
%TO.N,/PA10*%
X137299999Y-63024999D03*
%TO.P,j2,27*%
%TO.N,/PA15*%
X136499999Y-67324999D03*
%TO.P,j2,28*%
%TO.N,/PA11*%
X136499999Y-63024999D03*
%TO.P,j2,29*%
%TO.N,/PA12*%
X135699999Y-63024999D03*
%TO.P,j2,30*%
%TO.N,/PB5*%
X135699999Y-67324999D03*
%TO.P,j2,31*%
%TO.N,/SWDIO-L*%
X134899999Y-63024999D03*
%TO.P,j2,32*%
%TO.N,/PB6*%
X134899999Y-67324999D03*
%TO.P,j2,33*%
%TO.N,/SWCLK-L*%
X134099999Y-63024999D03*
%TO.P,j2,34*%
%TO.N,/PB7*%
X134099999Y-67324999D03*
%TO.P,j2,35*%
%TO.N,/VBAT_Pin*%
X133299999Y-63024999D03*
%TO.P,j2,36*%
%TO.N,/PB9*%
X133299999Y-67324999D03*
%TO.P,j2,37*%
%TO.N,+3V3*%
X132499999Y-63024999D03*
%TO.P,j2,38*%
X132499999Y-67324999D03*
%TO.P,j2,39*%
X131699999Y-63024999D03*
%TO.P,j2,40*%
X131699999Y-67324999D03*
%TD*%
D13*
%TO.P,C1,1*%
%TO.N,Net-(U1B-VREF+)*%
X146585000Y-72730000D03*
%TO.P,C1,2*%
%TO.N,GND*%
X147545000Y-72730000D03*
%TD*%
%TO.P,C3,1*%
%TO.N,GND*%
X146610000Y-69930000D03*
%TO.P,C3,2*%
%TO.N,Net-(U1B-VDDA)*%
X147570000Y-69930000D03*
%TD*%
D14*
%TO.P,R1,1*%
%TO.N,Net-(U1B-VDDA)*%
X146615000Y-70820000D03*
%TO.P,R1,2*%
%TO.N,Net-(U1B-VREF+)*%
X146615000Y-71840000D03*
%TD*%
D15*
%TO.P,R14,1*%
%TO.N,+3V3*%
X154610000Y-75175000D03*
%TO.P,R14,2*%
%TO.N,/LCD.CS*%
X153590000Y-75175000D03*
%TD*%
D16*
%TO.P,C9,1*%
%TO.N,+3V3*%
X135225000Y-74695000D03*
%TO.P,C9,2*%
%TO.N,GND*%
X135225000Y-75655000D03*
%TD*%
D17*
%TO.P,R12,1*%
%TO.N,/LCD.SCL*%
X146365000Y-76275000D03*
%TO.P,R12,2*%
%TO.N,Net-(J3-Pin_6)*%
X147385000Y-76275000D03*
%TD*%
%TO.P,R11,1*%
%TO.N,/LCD.SDA*%
X146365000Y-75250000D03*
%TO.P,R11,2*%
%TO.N,Net-(J3-Pin_5)*%
X147385000Y-75250000D03*
%TD*%
D13*
%TO.P,C6,1*%
%TO.N,+3V3*%
X131040000Y-69150000D03*
%TO.P,C6,2*%
%TO.N,GND*%
X132000000Y-69150000D03*
%TD*%
%TO.P,C5,1*%
%TO.N,+3V3*%
X131040000Y-70110000D03*
%TO.P,C5,2*%
%TO.N,GND*%
X132000000Y-70110000D03*
%TD*%
D16*
%TO.P,C4,1*%
%TO.N,GND*%
X145610000Y-69880000D03*
%TO.P,C4,2*%
%TO.N,Net-(U1B-VDDA)*%
X145610000Y-70840000D03*
%TD*%
%TO.P,C10,1*%
%TO.N,+3V3*%
X136200000Y-74690000D03*
%TO.P,C10,2*%
%TO.N,GND*%
X136200000Y-75650000D03*
%TD*%
D13*
%TO.P,C2,1*%
%TO.N,Net-(U1B-VREF+)*%
X146580000Y-73679999D03*
%TO.P,C2,2*%
%TO.N,GND*%
X147540000Y-73679999D03*
%TD*%
%TO.P,C7,1*%
%TO.N,+3V3*%
X131050000Y-71080000D03*
%TO.P,C7,2*%
%TO.N,GND*%
X132010000Y-71080000D03*
%TD*%
D18*
%TO.N,Net-(U1B-VREF+)*%
X144126700Y-70602500D03*
%TO.N,GND*%
X135640000Y-79210000D03*
X152170000Y-70515000D03*
X136900000Y-73070000D03*
X138150000Y-73040000D03*
X138830000Y-72400000D03*
X140986666Y-79810000D03*
X152790000Y-69170000D03*
X148690000Y-75310000D03*
X152790000Y-71187500D03*
X131810000Y-76250000D03*
X136333333Y-79210000D03*
X137520000Y-73060000D03*
X144800000Y-76900000D03*
X140330000Y-79810000D03*
X137720000Y-79210000D03*
X134296666Y-79210000D03*
X148820000Y-69080000D03*
X138830000Y-71730000D03*
X133830000Y-76870000D03*
X152170000Y-69170000D03*
X148830000Y-69690000D03*
X138830000Y-71080000D03*
X141643332Y-79810000D03*
X139180000Y-76970000D03*
X138150000Y-71730000D03*
X152170000Y-71187500D03*
X137760500Y-77240000D03*
X148430000Y-73770000D03*
X138150000Y-72385000D03*
X137520000Y-72400000D03*
X132000000Y-70120000D03*
X134990000Y-79210000D03*
X152790000Y-70515000D03*
X152790000Y-71860000D03*
X142680000Y-79000000D03*
X142690000Y-78370000D03*
X140370000Y-80520000D03*
X133830000Y-76230000D03*
X133830000Y-77540000D03*
X136900000Y-72410000D03*
X137026666Y-79210000D03*
X133603333Y-79210000D03*
X142300000Y-79810000D03*
X152790000Y-69842500D03*
X152170000Y-69842500D03*
X152170000Y-71860000D03*
%TO.N,Net-(U1B-VDDA)*%
X144865593Y-70420093D03*
D19*
%TO.N,+3V3*%
X130790000Y-66950000D03*
X153900000Y-74040000D03*
X130790000Y-65965000D03*
X130800000Y-64980000D03*
X148360000Y-71890000D03*
X131700000Y-65940000D03*
X131700000Y-64980000D03*
D18*
X127630000Y-75110000D03*
X148572183Y-68479633D03*
D19*
X133310000Y-74640000D03*
D18*
X136410000Y-65900000D03*
D19*
X129010000Y-62470000D03*
X134290000Y-74650000D03*
D18*
%TO.N,/NRST*%
X133511575Y-78106091D03*
X139410000Y-73950000D03*
X124430000Y-72770000D03*
%TO.N,/VBAT_Pin*%
X132870000Y-64850000D03*
%TO.N,/BOOT0*%
X131490000Y-72380000D03*
X134870000Y-73101500D03*
X127620000Y-72320000D03*
%TO.N,/PC4*%
X144220000Y-74550000D03*
X145868864Y-72417537D03*
%TO.N,/PB7*%
X133515492Y-72394317D03*
%TO.N,/PB6*%
X133749500Y-71735118D03*
%TO.N,/PB5*%
X134200000Y-71200000D03*
%TO.N,/PB4*%
X134950000Y-70950000D03*
%TO.N,/PB3*%
X136717572Y-70800000D03*
%TO.N,/PC11*%
X135150000Y-70100000D03*
%TO.N,/PC10*%
X136717572Y-69550500D03*
%TO.N,/PA15*%
X136719960Y-68771000D03*
%TO.N,/PA12*%
X136650000Y-64970000D03*
%TO.N,/PA11*%
X136510000Y-64060000D03*
%TO.N,/PA10*%
X137290000Y-64060000D03*
%TO.N,/PA9*%
X138110000Y-64050000D03*
%TO.N,/PA8*%
X138900000Y-64050000D03*
%TO.N,/PC6*%
X139700000Y-64050000D03*
%TO.N,/PB11*%
X140490000Y-64050000D03*
%TO.N,/PB10*%
X141310000Y-64040000D03*
%TO.N,/PB2*%
X142090000Y-64040000D03*
%TO.N,/PB1*%
X142900000Y-64050000D03*
%TO.N,/PB0*%
X143700000Y-64030000D03*
%TO.N,/PA1*%
X140550500Y-74110000D03*
%TO.N,/PA0*%
X140008305Y-75490001D03*
%TO.N,/PC13*%
X137100000Y-73900000D03*
%TO.N,/LCD.~{RES}*%
X150510000Y-78030500D03*
X141600000Y-73890000D03*
%TO.N,/LCD.D{slash}C*%
X151390000Y-78530000D03*
X141049999Y-75460000D03*
%TO.N,Net-(J3-Pin_5)*%
X151820500Y-76200000D03*
%TO.N,Net-(J3-Pin_6)*%
X152320000Y-76710000D03*
%TO.N,/LCD.CS*%
X153810000Y-76130000D03*
X142060000Y-75580000D03*
%TO.N,/LCD.SDA*%
X144510000Y-64040000D03*
X145025139Y-73111261D03*
%TO.N,/LCD.SCL*%
X142720000Y-74520000D03*
%TO.N,/LCD.BKControl*%
X145439918Y-73941343D03*
X148800000Y-74420000D03*
X145320000Y-64040000D03*
%TO.N,/SPI2.CS*%
X142100000Y-66130000D03*
X149803642Y-73033642D03*
%TO.N,/SPI2.CLK*%
X141393600Y-65360000D03*
X151830000Y-66990000D03*
%TO.N,/SPI2.MISO*%
X141050501Y-66050000D03*
X150560000Y-73850000D03*
%TO.N,/SPI2.MOSI*%
X153110000Y-67140000D03*
X140420000Y-65180000D03*
%TO.N,/PB9*%
X132870000Y-72740000D03*
%TO.N,/SWDIO-L*%
X135220000Y-64350000D03*
%TO.N,/SWCLK-L*%
X134340000Y-64400000D03*
%TD*%
D20*
%TO.N,Net-(U1B-VREF+)*%
X146580000Y-71875000D02*
X146615000Y-71840000D01*
D21*
X144126700Y-70602500D02*
X145364200Y-71840000D01*
X145364200Y-71840000D02*
X146615000Y-71840000D01*
D20*
X146580000Y-73679999D02*
X146580000Y-71875000D01*
D22*
%TO.N,GND*%
X132010000Y-71080000D02*
X132010000Y-70130000D01*
D21*
X148430000Y-73770000D02*
X147630001Y-73770000D01*
D22*
X132010000Y-70110000D02*
X132010000Y-69160000D01*
D21*
X148830000Y-69090000D02*
X148820000Y-69080000D01*
X147540000Y-73679999D02*
X147540000Y-72735000D01*
X146610000Y-69930000D02*
X145660000Y-69930000D01*
X148830000Y-69690000D02*
X148830000Y-69090000D01*
D20*
%TO.N,Net-(U1B-VDDA)*%
X147564999Y-70845002D02*
X145290502Y-70845002D01*
X147570000Y-69930000D02*
X147570000Y-70840001D01*
X145290502Y-70845002D02*
X144865593Y-70420093D01*
%TO.N,+3V3*%
X148360000Y-71890000D02*
X148360000Y-72030000D01*
D21*
X153900000Y-74040000D02*
X152220000Y-74040000D01*
D20*
X148220000Y-71890000D02*
X148360000Y-71890000D01*
D21*
X133360000Y-74690000D02*
X133310000Y-74640000D01*
D20*
X154610000Y-75175000D02*
X154610000Y-74750000D01*
X148360000Y-72030000D02*
X148170000Y-71840000D01*
D21*
X152220000Y-74040000D02*
X151440000Y-74820000D01*
D23*
X148572183Y-68479633D02*
X148245000Y-68806816D01*
D20*
X132500000Y-66050000D02*
X133040000Y-65510000D01*
X136030000Y-65510000D02*
X136420000Y-65900000D01*
X129565000Y-63025000D02*
X129010000Y-62470000D01*
X132500000Y-63025000D02*
X129565000Y-63025000D01*
D21*
X136200000Y-74690000D02*
X133360000Y-74690000D01*
D22*
X128020000Y-75500000D02*
X132450000Y-75500000D01*
D20*
X133040000Y-65510000D02*
X136030000Y-65510000D01*
D21*
X148360000Y-72820000D02*
X148360000Y-71890000D01*
X151440000Y-74820000D02*
X150360000Y-74820000D01*
D20*
X148145002Y-71815002D02*
X148220000Y-71890000D01*
D23*
X148245000Y-68806816D02*
X148245000Y-71775000D01*
D21*
X150360000Y-74820000D02*
X148360000Y-72820000D01*
D20*
X154610000Y-74750000D02*
X153900000Y-74040000D01*
X147564999Y-71815002D02*
X148145002Y-71815002D01*
D21*
X148245000Y-71775000D02*
X148360000Y-71890000D01*
D22*
X132450000Y-75500000D02*
X133310000Y-74640000D01*
D20*
X132500000Y-67325000D02*
X132500000Y-66050000D01*
D22*
X127630000Y-75110000D02*
X128020000Y-75500000D01*
D21*
X130790000Y-70820000D02*
X131050000Y-71080000D01*
X130790000Y-66950000D02*
X130790000Y-70820000D01*
D22*
%TO.N,/NRST*%
X133511575Y-78106091D02*
X128436091Y-78106091D01*
X128436091Y-78106091D02*
X124430000Y-74100000D01*
X124430000Y-74100000D02*
X124430000Y-72770000D01*
X133625484Y-78220000D02*
X136020000Y-78220000D01*
X133511575Y-78106091D02*
X133625484Y-78220000D01*
X139410000Y-74830000D02*
X139410000Y-73950000D01*
X136020000Y-78220000D02*
X139410000Y-74830000D01*
%TO.N,/VBAT_Pin*%
X132870000Y-64850000D02*
X133300000Y-64420000D01*
X133300000Y-64420000D02*
X133300000Y-63025000D01*
%TO.N,/BOOT0*%
X134611500Y-73360000D02*
X132210000Y-73360000D01*
X131490000Y-72380000D02*
X131490000Y-72640000D01*
X131490000Y-72640000D02*
X132210000Y-73360000D01*
X131870000Y-73700000D02*
X132210000Y-73360000D01*
X128360000Y-73700000D02*
X131870000Y-73700000D01*
X127620000Y-72320000D02*
X127620000Y-72960000D01*
X127620000Y-72960000D02*
X128360000Y-73700000D01*
X134870000Y-73101500D02*
X134611500Y-73360000D01*
%TO.N,/PC4*%
X145868864Y-72417537D02*
X145012463Y-72417537D01*
X144220000Y-73210000D02*
X144220000Y-74550000D01*
X145012463Y-72417537D02*
X144220000Y-73210000D01*
%TO.N,/PB7*%
X133515492Y-72394317D02*
X133199500Y-72078325D01*
X133199500Y-69769129D02*
X134100000Y-68868628D01*
X134100000Y-68868628D02*
X134100000Y-67325000D01*
X133199500Y-72078325D02*
X133199500Y-69769129D01*
%TO.N,/PB6*%
X133650000Y-71700000D02*
X133650000Y-70050000D01*
X134900000Y-68800000D02*
X134900000Y-67325000D01*
X133734618Y-71750000D02*
X133700000Y-71750000D01*
X133749500Y-71735118D02*
X133685118Y-71735118D01*
X133685118Y-71735118D02*
X133650000Y-71700000D01*
X133749500Y-71735118D02*
X133734618Y-71750000D01*
X133650000Y-70050000D02*
X134900000Y-68800000D01*
%TO.N,/PB5*%
X135700000Y-68650000D02*
X134200000Y-70150000D01*
X135700000Y-67325000D02*
X135700000Y-68650000D01*
X134200000Y-70150000D02*
X134200000Y-71200000D01*
%TO.N,/PB4*%
X135350000Y-71350000D02*
X137400000Y-71350000D01*
X139700000Y-69050000D02*
X139700000Y-67325000D01*
X137400000Y-71350000D02*
X139700000Y-69050000D01*
X134950000Y-70950000D02*
X135350000Y-71350000D01*
%TO.N,/PB3*%
X138900000Y-69050000D02*
X138900000Y-67325000D01*
X136717572Y-70800000D02*
X137150000Y-70800000D01*
X137150000Y-70800000D02*
X138900000Y-69050000D01*
%TO.N,/PC11*%
X138100000Y-69000000D02*
X138100000Y-67325000D01*
X137000000Y-70100000D02*
X138100000Y-69000000D01*
X135150000Y-70100000D02*
X137000000Y-70100000D01*
%TO.N,/PC10*%
X136717572Y-69550500D02*
X137300000Y-68968072D01*
X137300000Y-68968072D02*
X137300000Y-67325000D01*
%TO.N,/PA15*%
X136719960Y-68771000D02*
X136500000Y-68551040D01*
X136500000Y-68551040D02*
X136500000Y-67325000D01*
%TO.N,/PA12*%
X135700000Y-64020000D02*
X135700000Y-63025000D01*
X136650000Y-64970000D02*
X135700000Y-64020000D01*
%TO.N,/PA11*%
X136510000Y-63960000D02*
X136510000Y-64060000D01*
X136500000Y-63950000D02*
X136510000Y-63960000D01*
X136610000Y-64060000D02*
X136520000Y-63970000D01*
X136510000Y-64060000D02*
X136610000Y-64060000D01*
X136500000Y-63025000D02*
X136500000Y-63950000D01*
%TO.N,/PA10*%
X137300000Y-63025000D02*
X137300000Y-63980000D01*
X137290000Y-63990000D02*
X137290000Y-64060000D01*
X137220000Y-64060000D02*
X137290000Y-63990000D01*
X137290000Y-64060000D02*
X137220000Y-64060000D01*
X137300000Y-63980000D02*
X137290000Y-63990000D01*
%TO.N,/PA9*%
X138100000Y-63025000D02*
X138110000Y-64050000D01*
%TO.N,/PA8*%
X138900000Y-63025000D02*
X138900000Y-64050000D01*
%TO.N,/PC6*%
X139700000Y-63025000D02*
X139700000Y-64050000D01*
%TO.N,/PB11*%
X140500000Y-63025000D02*
X140490000Y-64050000D01*
%TO.N,/PB10*%
X141300000Y-63025000D02*
X141300000Y-63870000D01*
X141310000Y-64040000D02*
X141330000Y-63900000D01*
X141300000Y-63870000D02*
X141310000Y-64040000D01*
%TO.N,/PB2*%
X142100000Y-63025000D02*
X142100000Y-63880000D01*
%TO.N,/PB1*%
X142900000Y-63025000D02*
X142900000Y-64050000D01*
%TO.N,/PB0*%
X143700000Y-63025000D02*
X143700000Y-64030000D01*
%TO.N,/PA1*%
X140507805Y-74067305D02*
X140507805Y-70132195D01*
X140550500Y-74110000D02*
X140507805Y-74067305D01*
X142100000Y-68540000D02*
X142100000Y-67325000D01*
X140507805Y-70132195D02*
X142100000Y-68540000D01*
%TO.N,/PA0*%
X140008305Y-75490001D02*
X140020000Y-75478306D01*
X140020000Y-75478306D02*
X140020000Y-69905686D01*
X140020000Y-69905686D02*
X141300000Y-68625686D01*
X141300000Y-68625686D02*
X141300000Y-67325000D01*
%TO.N,/PC13*%
X138420000Y-73900000D02*
X139520000Y-72800000D01*
X140500000Y-68815686D02*
X140500000Y-67325000D01*
X139520000Y-72800000D02*
X139520000Y-69795686D01*
X139520000Y-69795686D02*
X140500000Y-68815686D01*
X137100000Y-73900000D02*
X138420000Y-73900000D01*
%TO.N,/LCD.~{RES}*%
X141600000Y-70630000D02*
X143700000Y-68530000D01*
X141600000Y-73890000D02*
X141600000Y-70630000D01*
X141560000Y-73930000D02*
X141600000Y-73890000D01*
X143832893Y-78060000D02*
X141560000Y-75787107D01*
X143700000Y-68530000D02*
X143700000Y-67325000D01*
X150510000Y-78030500D02*
X150480500Y-78060000D01*
X141560000Y-75787107D02*
X141560000Y-73930000D01*
X150480500Y-78060000D02*
X143832893Y-78060000D01*
%TO.N,/LCD.D{slash}C*%
X141049999Y-73902392D02*
X141050000Y-70330000D01*
X143807918Y-78530000D02*
X141049999Y-75772081D01*
X141050000Y-70330000D02*
X142900000Y-68480000D01*
X141049999Y-75772081D02*
X141049999Y-75460000D01*
X142900000Y-68480000D02*
X142900000Y-67325000D01*
X141050500Y-75459499D02*
X141050500Y-73902893D01*
X151390000Y-78530000D02*
X143807918Y-78530000D01*
X141050500Y-73902893D02*
X141049999Y-73902392D01*
X141049999Y-75460000D02*
X141050500Y-75459499D01*
%TO.N,Net-(J3-Pin_5)*%
X148215000Y-76080000D02*
X147385000Y-75250000D01*
X151700500Y-76080000D02*
X148215000Y-76080000D01*
X151820500Y-76200000D02*
X151700500Y-76080000D01*
%TO.N,Net-(J3-Pin_6)*%
X152190000Y-76840000D02*
X147950000Y-76840000D01*
X152320000Y-76710000D02*
X152190000Y-76840000D01*
X147950000Y-76840000D02*
X147385000Y-76275000D01*
%TO.N,/LCD.CS*%
X153810000Y-76230000D02*
X153760000Y-76180000D01*
X142150000Y-75490000D02*
X142060000Y-75580000D01*
X142150000Y-70880000D02*
X142150000Y-75490000D01*
X153810000Y-76130000D02*
X153810000Y-76230000D01*
X144500000Y-68530000D02*
X142150000Y-70880000D01*
X153590000Y-76010000D02*
X153710000Y-76130000D01*
X142060000Y-75580000D02*
X143950000Y-77470000D01*
X152540000Y-77470000D02*
X153810000Y-76200000D01*
X153710000Y-76130000D02*
X153810000Y-76130000D01*
X153810000Y-76200000D02*
X153810000Y-76130000D01*
X143950000Y-77470000D02*
X152540000Y-77470000D01*
X144500000Y-67325000D02*
X144500000Y-68530000D01*
X153590000Y-75175000D02*
X153590000Y-76010000D01*
%TO.N,/LCD.SDA*%
X144510000Y-64040000D02*
X144520000Y-63930000D01*
X144939918Y-73196482D02*
X144939918Y-74569918D01*
X144500000Y-63025000D02*
X144500000Y-63910000D01*
X145025139Y-73111261D02*
X144939918Y-73196482D01*
X144500000Y-63910000D02*
X144510000Y-64040000D01*
X145620000Y-75250000D02*
X146365000Y-75250000D01*
X144939918Y-74569918D02*
X145620000Y-75250000D01*
%TO.N,/LCD.SCL*%
X146365000Y-76275000D02*
X144475000Y-76275000D01*
X142720000Y-71140000D02*
X142720000Y-74520000D01*
X145300000Y-68560000D02*
X142720000Y-71140000D01*
X145300000Y-67325000D02*
X145300000Y-68560000D01*
X144475000Y-76275000D02*
X142720000Y-74520000D01*
%TO.N,/LCD.BKControl*%
X145300000Y-63025000D02*
X145300000Y-63950000D01*
X145928575Y-74430000D02*
X148790000Y-74430000D01*
X145439918Y-73941343D02*
X145928575Y-74430000D01*
%TO.N,/SPI2.CS*%
X142330000Y-65900000D02*
X142100000Y-66130000D01*
X149920000Y-72917284D02*
X149920000Y-68324974D01*
X147495026Y-65900000D02*
X142330000Y-65900000D01*
X149803642Y-73033642D02*
X149920000Y-72917284D01*
X149920000Y-68324974D02*
X147495026Y-65900000D01*
%TO.N,/SPI2.CLK*%
X149210000Y-66540000D02*
X151380000Y-66540000D01*
X151380000Y-66540000D02*
X151830000Y-66990000D01*
X147770000Y-65100000D02*
X149210000Y-66540000D01*
X141393600Y-65360000D02*
X141653600Y-65100000D01*
X141653600Y-65100000D02*
X147770000Y-65100000D01*
%TO.N,/SPI2.MISO*%
X150561812Y-73848188D02*
X150560000Y-73850000D01*
X141940000Y-65520000D02*
X147610000Y-65520000D01*
X141410000Y-66050000D02*
X141940000Y-65520000D01*
X141050501Y-66050000D02*
X141410000Y-66050000D01*
X147610000Y-65520000D02*
X150561812Y-68471812D01*
X150561812Y-68471812D02*
X150561812Y-73848188D01*
%TO.N,/SPI2.MOSI*%
X147860000Y-64070000D02*
X150040000Y-64070000D01*
X141000000Y-64600000D02*
X147330000Y-64600000D01*
X147330000Y-64600000D02*
X147860000Y-64070000D01*
X140420000Y-65180000D02*
X141000000Y-64600000D01*
X150040000Y-64070000D02*
X153110000Y-67140000D01*
%TO.N,/PB9*%
X132870000Y-72740000D02*
X132870000Y-72670000D01*
X132870000Y-72670000D02*
X132800000Y-72600000D01*
X132800000Y-69602944D02*
X133300000Y-69102943D01*
X132800000Y-72600000D02*
X132800000Y-69602944D01*
X133300000Y-69102943D02*
X133300000Y-67325000D01*
%TO.N,/SWDIO-L*%
X135180000Y-64350000D02*
X134900000Y-64070000D01*
X135220000Y-64350000D02*
X135180000Y-64350000D01*
X134900000Y-64070000D02*
X134900000Y-63025000D01*
%TO.N,/SWCLK-L*%
X134340000Y-64400000D02*
X134310768Y-64400000D01*
X134310768Y-64400000D02*
X134100000Y-64189232D01*
X134100000Y-64189232D02*
X134100000Y-63025000D01*
%TD*%
%TA.AperFunction,Conductor*%
%TO.N,GND*%
G36*
X142555102Y-74889948D02*
G01*
X142555660Y-74889069D01*
X142559551Y-74891536D01*
X142563194Y-74894353D01*
X142567291Y-74896445D01*
X142567294Y-74896447D01*
X142704815Y-74966674D01*
X142897201Y-75064919D01*
X142910778Y-75071852D01*
X142935757Y-75090017D01*
X144273529Y-76427790D01*
X144285837Y-76442788D01*
X144294399Y-76455601D01*
X144302508Y-76461019D01*
X144315316Y-76469577D01*
X144315317Y-76469578D01*
X144364773Y-76502623D01*
X144377260Y-76510966D01*
X144475000Y-76530409D01*
X144484567Y-76528506D01*
X144490116Y-76527403D01*
X144509431Y-76525500D01*
X145749498Y-76525500D01*
X145797992Y-76538190D01*
X146029067Y-76668028D01*
X146050575Y-76684332D01*
X146065859Y-76699616D01*
X146074253Y-76703322D01*
X146074254Y-76703323D01*
X146156685Y-76739720D01*
X146163502Y-76742730D01*
X146187377Y-76745500D01*
X146542622Y-76745499D01*
X146566498Y-76742730D01*
X146664141Y-76699616D01*
X146739616Y-76624141D01*
X146782730Y-76526498D01*
X146783713Y-76526932D01*
X146805159Y-76490051D01*
X146849451Y-76464570D01*
X146900549Y-76464570D01*
X146944841Y-76490051D01*
X146966286Y-76526932D01*
X146967270Y-76526498D01*
X147006676Y-76615745D01*
X147006678Y-76615748D01*
X147010384Y-76624141D01*
X147085859Y-76699616D01*
X147094253Y-76703322D01*
X147094254Y-76703323D01*
X147176685Y-76739720D01*
X147183502Y-76742730D01*
X147207377Y-76745500D01*
X147257926Y-76745499D01*
X147298113Y-76754021D01*
X147655988Y-76912978D01*
X147662078Y-76915683D01*
X147691895Y-76936156D01*
X147748529Y-76992790D01*
X147760837Y-77007788D01*
X147769399Y-77020601D01*
X147790316Y-77034577D01*
X147790317Y-77034578D01*
X147795713Y-77038183D01*
X147798414Y-77041222D01*
X147805319Y-77046889D01*
X147805320Y-77046890D01*
X147804330Y-77047879D01*
X147828922Y-77075553D01*
X147839637Y-77124386D01*
X147825125Y-77172227D01*
X147789087Y-77206877D01*
X147740713Y-77219500D01*
X144094769Y-77219500D01*
X144056883Y-77211964D01*
X144024765Y-77190504D01*
X142630017Y-75795757D01*
X142611852Y-75770778D01*
X142459239Y-75471925D01*
X142449168Y-75439133D01*
X142405586Y-75088952D01*
X142404239Y-75084671D01*
X142403289Y-75080302D01*
X142403966Y-75080154D01*
X142400500Y-75057581D01*
X142400500Y-74970247D01*
X142415476Y-74917893D01*
X142455872Y-74881379D01*
X142509467Y-74871750D01*
X142555102Y-74889948D01*
G37*
%TD.AperFunction*%
%TA.AperFunction,Conductor*%
G36*
X149323194Y-74260839D02*
G01*
X149365578Y-74285904D01*
X150116730Y-75037056D01*
X150122564Y-75043424D01*
X150141975Y-75066557D01*
X150141978Y-75066559D01*
X150147545Y-75073194D01*
X150181215Y-75092633D01*
X150188483Y-75097264D01*
X150213219Y-75114585D01*
X150213220Y-75114585D01*
X150220316Y-75119554D01*
X150228684Y-75121795D01*
X150233967Y-75124259D01*
X150239450Y-75126255D01*
X150246955Y-75130588D01*
X150285233Y-75137337D01*
X150293642Y-75139201D01*
X150331193Y-75149263D01*
X150369896Y-75145877D01*
X150378525Y-75145500D01*
X151421466Y-75145500D01*
X151430095Y-75145877D01*
X151460177Y-75148509D01*
X151460177Y-75148508D01*
X151468807Y-75149264D01*
X151506354Y-75139202D01*
X151514777Y-75137335D01*
X151553045Y-75130588D01*
X151560548Y-75126255D01*
X151566027Y-75124261D01*
X151571311Y-75121796D01*
X151579684Y-75119554D01*
X151611533Y-75097251D01*
X151618779Y-75092635D01*
X151652455Y-75073194D01*
X151677442Y-75043414D01*
X151683266Y-75037059D01*
X152325831Y-74394496D01*
X152357948Y-74373036D01*
X152395834Y-74365500D01*
X153045934Y-74365500D01*
X153074444Y-74369693D01*
X153543304Y-74510695D01*
X153589949Y-74541060D01*
X153612839Y-74591794D01*
X153604738Y-74646861D01*
X153568207Y-74688853D01*
X153514793Y-74704500D01*
X153415233Y-74704500D01*
X153415215Y-74704500D01*
X153412378Y-74704501D01*
X153409557Y-74704828D01*
X153409542Y-74704829D01*
X153395898Y-74706412D01*
X153395896Y-74706412D01*
X153388502Y-74707270D01*
X153381692Y-74710276D01*
X153381688Y-74710278D01*
X153299254Y-74746676D01*
X153299249Y-74746679D01*
X153290859Y-74750384D01*
X153284374Y-74756868D01*
X153284371Y-74756871D01*
X153221871Y-74819371D01*
X153221868Y-74819374D01*
X153215384Y-74825859D01*
X153211679Y-74834249D01*
X153211676Y-74834254D01*
X153175279Y-74916685D01*
X153175277Y-74916691D01*
X153172270Y-74923502D01*
X153171412Y-74930897D01*
X153171411Y-74930902D01*
X153169830Y-74944528D01*
X153169829Y-74944537D01*
X153169500Y-74947377D01*
X153169500Y-74950233D01*
X153169500Y-74950241D01*
X153169500Y-75399766D01*
X153169500Y-75399783D01*
X153169501Y-75402622D01*
X153169828Y-75405443D01*
X153169829Y-75405457D01*
X153170738Y-75413290D01*
X153172270Y-75426498D01*
X153175278Y-75433311D01*
X153175279Y-75433314D01*
X153180341Y-75444779D01*
X153185246Y-75458564D01*
X153191044Y-75479693D01*
X153191046Y-75479700D01*
X153192073Y-75483440D01*
X153193672Y-75486977D01*
X153193674Y-75486982D01*
X153330711Y-75790132D01*
X153339500Y-75830911D01*
X153339500Y-75975574D01*
X153337598Y-75994887D01*
X153334592Y-76010000D01*
X153336494Y-76019562D01*
X153350766Y-76091315D01*
X153354034Y-76107741D01*
X153357563Y-76113022D01*
X153364356Y-76145623D01*
X153358153Y-76181958D01*
X153297118Y-76345929D01*
X153274341Y-76381396D01*
X152892996Y-76762742D01*
X152846103Y-76789004D01*
X152792399Y-76786894D01*
X152747712Y-76757034D01*
X152725211Y-76708226D01*
X152722820Y-76693128D01*
X152705646Y-76584696D01*
X152648050Y-76471658D01*
X152558342Y-76381950D01*
X152445304Y-76324354D01*
X152437610Y-76323135D01*
X152437609Y-76323135D01*
X152327697Y-76305727D01*
X152320000Y-76304508D01*
X152319511Y-76304585D01*
X152274273Y-76292464D01*
X152238036Y-76256227D01*
X152224869Y-76207087D01*
X152225992Y-76200000D01*
X152206146Y-76074696D01*
X152148550Y-75961658D01*
X152058842Y-75871950D01*
X151964372Y-75823815D01*
X151952744Y-75817890D01*
X151952743Y-75817889D01*
X151945804Y-75814354D01*
X151938110Y-75813135D01*
X151938109Y-75813135D01*
X151828194Y-75795726D01*
X151828190Y-75795726D01*
X151820500Y-75794508D01*
X151812807Y-75795726D01*
X151805641Y-75795726D01*
X151803751Y-75795871D01*
X151801429Y-75795862D01*
X151798079Y-75795623D01*
X151794732Y-75795839D01*
X151794722Y-75795839D01*
X151361365Y-75823815D01*
X151361357Y-75823816D01*
X151356713Y-75824116D01*
X151352206Y-75825280D01*
X151352196Y-75825282D01*
X151348056Y-75826352D01*
X151323290Y-75829500D01*
X148359768Y-75829500D01*
X148321882Y-75821964D01*
X148289764Y-75800504D01*
X148043262Y-75554002D01*
X148024780Y-75528397D01*
X148017150Y-75513191D01*
X147834167Y-75148508D01*
X147816013Y-75112327D01*
X147805499Y-75067928D01*
X147805499Y-75025233D01*
X147805499Y-75022378D01*
X147802730Y-74998502D01*
X147759616Y-74900859D01*
X147708261Y-74849504D01*
X147681167Y-74798814D01*
X147686801Y-74741614D01*
X147723264Y-74697185D01*
X147778265Y-74680500D01*
X148247929Y-74680500D01*
X148276434Y-74684693D01*
X148649462Y-74796850D01*
X148650411Y-74796953D01*
X148660132Y-74800347D01*
X148660343Y-74799701D01*
X148667754Y-74802109D01*
X148674696Y-74805646D01*
X148800000Y-74825492D01*
X148925304Y-74805646D01*
X149038342Y-74748050D01*
X149128050Y-74658342D01*
X149185646Y-74545304D01*
X149205492Y-74420000D01*
X149197793Y-74371392D01*
X149202426Y-74322374D01*
X149230103Y-74281648D01*
X149273977Y-74259292D01*
X149323194Y-74260839D01*
G37*
%TD.AperFunction*%
%TA.AperFunction,Conductor*%
G36*
X147163663Y-72155102D02*
G01*
X147221171Y-72212610D01*
X147323090Y-72257611D01*
X147348008Y-72260502D01*
X147666572Y-72260501D01*
X147695698Y-72264882D01*
X147864611Y-72316877D01*
X147905714Y-72341720D01*
X147930290Y-72382985D01*
X147975001Y-72531658D01*
X148027410Y-72705928D01*
X148030306Y-72715556D01*
X148034500Y-72744067D01*
X148034500Y-72801466D01*
X148034123Y-72810094D01*
X148030736Y-72848807D01*
X148036441Y-72870100D01*
X148040795Y-72886349D01*
X148042664Y-72894778D01*
X148047907Y-72924515D01*
X148047908Y-72924519D01*
X148049412Y-72933045D01*
X148053741Y-72940544D01*
X148055739Y-72946031D01*
X148058204Y-72951317D01*
X148060446Y-72959684D01*
X148065414Y-72966779D01*
X148065415Y-72966781D01*
X148082732Y-72991512D01*
X148087371Y-72998793D01*
X148106806Y-73032455D01*
X148113443Y-73038024D01*
X148136570Y-73057430D01*
X148142938Y-73063264D01*
X148934095Y-73854421D01*
X148961872Y-73908938D01*
X148952301Y-73969370D01*
X148909036Y-74012635D01*
X148848604Y-74022206D01*
X148807697Y-74015727D01*
X148800000Y-74014508D01*
X148792303Y-74015727D01*
X148682390Y-74033135D01*
X148682387Y-74033135D01*
X148674696Y-74034354D01*
X148667758Y-74037888D01*
X148663254Y-74039352D01*
X148648182Y-74044971D01*
X148647120Y-74045233D01*
X148642507Y-74045922D01*
X148638108Y-74047463D01*
X148638097Y-74047466D01*
X148277158Y-74173931D01*
X148244422Y-74179500D01*
X147038283Y-74179500D01*
X146987142Y-74165268D01*
X146950705Y-74126664D01*
X146939448Y-74074788D01*
X146956607Y-74024553D01*
X146957328Y-74023499D01*
X146963813Y-74017015D01*
X147007682Y-73917661D01*
X147010500Y-73893372D01*
X147010499Y-73548860D01*
X147011322Y-73536567D01*
X147011825Y-73534116D01*
X147014597Y-73491813D01*
X146985881Y-73089786D01*
X146984601Y-73084953D01*
X146984561Y-73084510D01*
X146983930Y-73080715D01*
X146984214Y-73080667D01*
X146981608Y-73051850D01*
X146989737Y-73019625D01*
X147012682Y-72967662D01*
X147015500Y-72943373D01*
X147015499Y-72516628D01*
X147012682Y-72492338D01*
X146991914Y-72445304D01*
X146988935Y-72438556D01*
X146980500Y-72398568D01*
X146980500Y-72239265D01*
X146988036Y-72201379D01*
X147009496Y-72169261D01*
X147023655Y-72155102D01*
X147068036Y-72129479D01*
X147119282Y-72129479D01*
X147163663Y-72155102D01*
G37*
%TD.AperFunction*%
%TA.AperFunction,Conductor*%
G36*
X147388144Y-66158036D02*
G01*
X147420262Y-66179496D01*
X149640504Y-68399738D01*
X149661964Y-68431856D01*
X149669500Y-68469742D01*
X149669500Y-72482011D01*
X149652906Y-72536877D01*
X149496767Y-72771388D01*
X149484373Y-72786518D01*
X149481100Y-72789790D01*
X149481095Y-72789796D01*
X149475592Y-72795300D01*
X149472056Y-72802238D01*
X149472056Y-72802239D01*
X149470249Y-72805786D01*
X149461463Y-72823029D01*
X149461066Y-72823808D01*
X149455271Y-72833714D01*
X149453111Y-72836958D01*
X149453103Y-72836971D01*
X149451094Y-72839990D01*
X149449550Y-72843264D01*
X149449543Y-72843277D01*
X149431692Y-72881140D01*
X149431636Y-72881113D01*
X149430019Y-72884740D01*
X149421532Y-72901396D01*
X149421530Y-72901401D01*
X149417996Y-72908338D01*
X149416777Y-72916029D01*
X149416777Y-72916032D01*
X149402190Y-73008133D01*
X149398150Y-73033642D01*
X149399369Y-73041339D01*
X149410602Y-73112259D01*
X149417038Y-73152902D01*
X149417039Y-73152907D01*
X149417996Y-73158946D01*
X149417328Y-73159051D01*
X149419450Y-73204105D01*
X149395000Y-73250276D01*
X149350453Y-73277572D01*
X149298214Y-73278391D01*
X149252832Y-73252506D01*
X148737592Y-72737266D01*
X148711592Y-72691432D01*
X148712789Y-72638754D01*
X148875424Y-72097962D01*
X148875927Y-72093341D01*
X148875973Y-72093161D01*
X148876821Y-72088989D01*
X148877030Y-72089031D01*
X148882879Y-72066180D01*
X148896330Y-72033709D01*
X148915250Y-71890000D01*
X148896330Y-71746291D01*
X148879144Y-71704801D01*
X148876004Y-71695200D01*
X148875873Y-71695243D01*
X148874802Y-71691905D01*
X148873971Y-71688502D01*
X148857650Y-71647775D01*
X148853301Y-71640227D01*
X148847619Y-71628692D01*
X148844422Y-71620974D01*
X148840861Y-71612375D01*
X148835579Y-71605492D01*
X148830360Y-71598690D01*
X148823123Y-71587850D01*
X148562911Y-71136214D01*
X148533719Y-71085547D01*
X148520500Y-71036124D01*
X148520500Y-69011172D01*
X148536404Y-68957357D01*
X148579007Y-68920832D01*
X148581459Y-68919733D01*
X148689231Y-68871426D01*
X148692814Y-68869766D01*
X148693340Y-68869514D01*
X148696751Y-68867828D01*
X148727952Y-68851930D01*
X148731603Y-68849109D01*
X148735509Y-68846637D01*
X148735680Y-68846907D01*
X148744468Y-68841339D01*
X148810525Y-68807683D01*
X148900233Y-68717975D01*
X148957829Y-68604937D01*
X148977675Y-68479633D01*
X148957829Y-68354329D01*
X148900233Y-68241291D01*
X148810525Y-68151583D01*
X148724783Y-68107895D01*
X148704427Y-68097523D01*
X148704426Y-68097522D01*
X148697487Y-68093987D01*
X148689793Y-68092768D01*
X148689792Y-68092768D01*
X148579880Y-68075360D01*
X148572183Y-68074141D01*
X148564486Y-68075360D01*
X148454573Y-68092768D01*
X148454570Y-68092768D01*
X148446879Y-68093987D01*
X148439941Y-68097521D01*
X148439938Y-68097523D01*
X148340780Y-68148047D01*
X148340778Y-68148048D01*
X148333841Y-68151583D01*
X148328337Y-68157086D01*
X148328334Y-68157089D01*
X148249640Y-68235783D01*
X148249637Y-68235786D01*
X148244133Y-68241291D01*
X148240596Y-68248231D01*
X148240597Y-68248231D01*
X148214196Y-68300043D01*
X148205570Y-68313982D01*
X148199076Y-68322758D01*
X148199073Y-68322762D01*
X148196289Y-68326525D01*
X148194264Y-68330736D01*
X148194261Y-68330742D01*
X148079120Y-68570249D01*
X148059900Y-68597356D01*
X148054477Y-68602778D01*
X148046376Y-68608192D01*
X148040964Y-68616290D01*
X148040960Y-68616295D01*
X148031007Y-68631192D01*
X148031006Y-68631194D01*
X148018200Y-68650360D01*
X147990902Y-68691213D01*
X147990900Y-68691215D01*
X147985485Y-68699321D01*
X147983583Y-68708881D01*
X147983582Y-68708885D01*
X147971250Y-68770887D01*
X147971249Y-68770890D01*
X147966005Y-68797251D01*
X147966005Y-68797254D01*
X147964103Y-68806816D01*
X147966005Y-68816377D01*
X147967598Y-68824385D01*
X147969500Y-68843700D01*
X147969500Y-69405089D01*
X147957539Y-69452261D01*
X147924547Y-69488034D01*
X147878495Y-69503766D01*
X147830511Y-69495653D01*
X147784476Y-69475326D01*
X147784472Y-69475324D01*
X147777662Y-69472318D01*
X147770264Y-69471459D01*
X147770262Y-69471459D01*
X147756221Y-69469830D01*
X147756213Y-69469829D01*
X147753373Y-69469500D01*
X147750508Y-69469500D01*
X147389483Y-69469500D01*
X147389465Y-69469500D01*
X147386628Y-69469501D01*
X147383807Y-69469828D01*
X147383792Y-69469829D01*
X147369733Y-69471460D01*
X147369730Y-69471460D01*
X147362338Y-69472318D01*
X147355529Y-69475324D01*
X147355527Y-69475325D01*
X147271374Y-69512482D01*
X147271372Y-69512483D01*
X147262984Y-69516187D01*
X147256502Y-69522668D01*
X147256499Y-69522671D01*
X147192671Y-69586499D01*
X147192668Y-69586502D01*
X147186187Y-69592984D01*
X147182483Y-69601372D01*
X147182482Y-69601374D01*
X147145325Y-69685526D01*
X147145323Y-69685530D01*
X147142318Y-69692338D01*
X147141459Y-69699733D01*
X147141459Y-69699737D01*
X147139830Y-69713778D01*
X147139829Y-69713787D01*
X147139500Y-69716627D01*
X147139500Y-69719492D01*
X147139500Y-70061137D01*
X147138675Y-70073432D01*
X147138177Y-70075864D01*
X147137956Y-70079227D01*
X147137955Y-70079238D01*
X147136617Y-70099653D01*
X147135402Y-70118182D01*
X147135644Y-70121570D01*
X147149949Y-70321844D01*
X147140675Y-70371269D01*
X147108314Y-70409762D01*
X147061217Y-70427389D01*
X146975240Y-70436132D01*
X146925236Y-70428205D01*
X146873311Y-70405278D01*
X146873309Y-70405277D01*
X146866498Y-70402270D01*
X146859100Y-70401411D01*
X146859098Y-70401411D01*
X146845471Y-70399830D01*
X146845463Y-70399829D01*
X146842623Y-70399500D01*
X146839758Y-70399500D01*
X146390233Y-70399500D01*
X146390215Y-70399500D01*
X146387378Y-70399501D01*
X146384557Y-70399828D01*
X146384542Y-70399829D01*
X146370897Y-70401412D01*
X146370894Y-70401412D01*
X146363502Y-70402270D01*
X146356693Y-70405276D01*
X146356687Y-70405278D01*
X146286961Y-70436066D01*
X146246973Y-70444502D01*
X145941436Y-70444502D01*
X145901448Y-70436066D01*
X145854479Y-70415327D01*
X145854473Y-70415325D01*
X145847662Y-70412318D01*
X145840264Y-70411459D01*
X145840262Y-70411459D01*
X145826221Y-70409830D01*
X145826213Y-70409829D01*
X145823373Y-70409500D01*
X145820508Y-70409500D01*
X145462401Y-70409500D01*
X145424515Y-70401964D01*
X145392397Y-70380504D01*
X145126509Y-70114616D01*
X145126508Y-70114615D01*
X145126502Y-70114609D01*
X145126498Y-70114606D01*
X145103935Y-70092043D01*
X145096995Y-70088506D01*
X145096990Y-70088503D01*
X145082443Y-70081091D01*
X145069202Y-70072977D01*
X145055985Y-70063375D01*
X145055982Y-70063373D01*
X145049683Y-70058797D01*
X145042280Y-70056391D01*
X145042273Y-70056388D01*
X145026733Y-70051339D01*
X145012389Y-70045398D01*
X144990897Y-70034447D01*
X144983202Y-70033228D01*
X144983199Y-70033227D01*
X144967067Y-70030672D01*
X144951967Y-70027046D01*
X144936437Y-70022000D01*
X144936432Y-70021999D01*
X144929026Y-70019593D01*
X144921236Y-70019593D01*
X144904902Y-70019593D01*
X144889415Y-70018374D01*
X144873290Y-70015820D01*
X144865593Y-70014601D01*
X144857896Y-70015820D01*
X144841771Y-70018374D01*
X144826284Y-70019593D01*
X144802160Y-70019593D01*
X144794755Y-70021998D01*
X144794753Y-70021999D01*
X144779217Y-70027047D01*
X144764123Y-70030670D01*
X144747987Y-70033226D01*
X144747977Y-70033229D01*
X144740289Y-70034447D01*
X144733350Y-70037982D01*
X144733348Y-70037983D01*
X144718794Y-70045399D01*
X144704446Y-70051342D01*
X144688912Y-70056389D01*
X144688908Y-70056390D01*
X144681503Y-70058797D01*
X144675201Y-70063375D01*
X144675194Y-70063379D01*
X144661981Y-70072978D01*
X144648743Y-70081090D01*
X144634197Y-70088502D01*
X144634189Y-70088507D01*
X144627251Y-70092043D01*
X144621746Y-70097546D01*
X144621744Y-70097549D01*
X144615968Y-70103325D01*
X144610187Y-70109105D01*
X144598388Y-70119182D01*
X144578867Y-70133367D01*
X144564682Y-70152888D01*
X144554605Y-70164687D01*
X144548825Y-70170468D01*
X144543049Y-70176244D01*
X144543046Y-70176246D01*
X144537543Y-70181751D01*
X144534007Y-70188689D01*
X144534002Y-70188697D01*
X144526590Y-70203243D01*
X144518478Y-70216481D01*
X144508875Y-70229698D01*
X144508868Y-70229710D01*
X144504297Y-70236003D01*
X144503483Y-70238506D01*
X144466726Y-70277239D01*
X144412045Y-70290365D01*
X144365357Y-70273831D01*
X144365042Y-70274450D01*
X144358100Y-70270913D01*
X144358099Y-70270912D01*
X144258944Y-70220390D01*
X144258943Y-70220389D01*
X144252004Y-70216854D01*
X144244310Y-70215635D01*
X144244309Y-70215635D01*
X144224122Y-70212438D01*
X144175314Y-70189937D01*
X144145454Y-70145250D01*
X144143344Y-70091546D01*
X144169603Y-70044655D01*
X145452791Y-68761467D01*
X145467787Y-68749161D01*
X145480601Y-68740601D01*
X145522252Y-68678265D01*
X145535966Y-68657741D01*
X145555408Y-68560000D01*
X145552401Y-68544887D01*
X145550500Y-68525574D01*
X145550500Y-68456967D01*
X145565977Y-68403816D01*
X145584905Y-68374072D01*
X145703126Y-68188296D01*
X145718544Y-68156646D01*
X145720298Y-68151685D01*
X145722666Y-68130817D01*
X145723936Y-68122677D01*
X145725500Y-68114820D01*
X145725500Y-68109946D01*
X145725702Y-68107895D01*
X145726132Y-68100306D01*
X145726448Y-68097523D01*
X145728187Y-68082209D01*
X145727590Y-68076981D01*
X145726956Y-68074240D01*
X145726935Y-68074115D01*
X145725500Y-68057320D01*
X145725500Y-66540038D01*
X145725500Y-66535180D01*
X145716767Y-66491278D01*
X145683504Y-66441496D01*
X145667912Y-66431078D01*
X145641828Y-66413649D01*
X145641827Y-66413648D01*
X145633722Y-66408233D01*
X145617432Y-66404992D01*
X145594582Y-66400447D01*
X145594579Y-66400446D01*
X145589820Y-66399500D01*
X145010180Y-66399500D01*
X145005421Y-66400446D01*
X145005417Y-66400447D01*
X144975839Y-66406331D01*
X144975838Y-66406331D01*
X144966278Y-66408233D01*
X144958173Y-66413648D01*
X144958167Y-66413651D01*
X144954996Y-66415770D01*
X144900000Y-66432451D01*
X144845004Y-66415770D01*
X144841832Y-66413651D01*
X144841828Y-66413649D01*
X144833722Y-66408233D01*
X144817432Y-66404992D01*
X144794582Y-66400447D01*
X144794579Y-66400446D01*
X144789820Y-66399500D01*
X144210180Y-66399500D01*
X144205421Y-66400446D01*
X144205417Y-66400447D01*
X144175839Y-66406331D01*
X144175838Y-66406331D01*
X144166278Y-66408233D01*
X144158173Y-66413648D01*
X144158167Y-66413651D01*
X144154996Y-66415770D01*
X144100000Y-66432451D01*
X144045004Y-66415770D01*
X144041832Y-66413651D01*
X144041828Y-66413649D01*
X144033722Y-66408233D01*
X144017432Y-66404992D01*
X143994582Y-66400447D01*
X143994579Y-66400446D01*
X143989820Y-66399500D01*
X143410180Y-66399500D01*
X143405421Y-66400446D01*
X143405417Y-66400447D01*
X143375839Y-66406331D01*
X143375838Y-66406331D01*
X143366278Y-66408233D01*
X143358173Y-66413648D01*
X143358167Y-66413651D01*
X143354996Y-66415770D01*
X143300000Y-66432451D01*
X143245004Y-66415770D01*
X143241832Y-66413651D01*
X143241828Y-66413649D01*
X143233722Y-66408233D01*
X143217432Y-66404992D01*
X143194582Y-66400447D01*
X143194579Y-66400446D01*
X143189820Y-66399500D01*
X142610180Y-66399500D01*
X142606805Y-66400171D01*
X142551968Y-66389602D01*
X142511425Y-66350492D01*
X142498779Y-66295597D01*
X142518124Y-66242692D01*
X142556942Y-66190452D01*
X142591935Y-66161050D01*
X142636406Y-66150500D01*
X147350258Y-66150500D01*
X147388144Y-66158036D01*
G37*
%TD.AperFunction*%
%TA.AperFunction,Conductor*%
G36*
X158802594Y-61675635D02*
G01*
X158933454Y-61682494D01*
X159115157Y-61692698D01*
X159125065Y-61693758D01*
X159275230Y-61717541D01*
X159276055Y-61717677D01*
X159436461Y-61744931D01*
X159445489Y-61746903D01*
X159595854Y-61787193D01*
X159597551Y-61787665D01*
X159750198Y-61831642D01*
X159758251Y-61834342D01*
X159904991Y-61890670D01*
X159907376Y-61891622D01*
X160014881Y-61936152D01*
X160052662Y-61951801D01*
X160059722Y-61955056D01*
X160200438Y-62026755D01*
X160203370Y-62028311D01*
X160340334Y-62104008D01*
X160346329Y-62107605D01*
X160479181Y-62193881D01*
X160482504Y-62196137D01*
X160600434Y-62279813D01*
X160609788Y-62286450D01*
X160614798Y-62290249D01*
X160714244Y-62370779D01*
X160738050Y-62390056D01*
X160741708Y-62393169D01*
X160857931Y-62497032D01*
X160861967Y-62500847D01*
X160974151Y-62613031D01*
X160977966Y-62617067D01*
X161081823Y-62733283D01*
X161084942Y-62736948D01*
X161184746Y-62860196D01*
X161188548Y-62865210D01*
X161278846Y-62992472D01*
X161281132Y-62995840D01*
X161367375Y-63128642D01*
X161367382Y-63128652D01*
X161371001Y-63134683D01*
X161446681Y-63271617D01*
X161448243Y-63274560D01*
X161519942Y-63415276D01*
X161523197Y-63422336D01*
X161583376Y-63567622D01*
X161584337Y-63570029D01*
X161640653Y-63716738D01*
X161643359Y-63724809D01*
X161687321Y-63877404D01*
X161687817Y-63879188D01*
X161728094Y-64029504D01*
X161730068Y-64038544D01*
X161757299Y-64198812D01*
X161757479Y-64199908D01*
X161781238Y-64349919D01*
X161782301Y-64359855D01*
X161792499Y-64541440D01*
X161792519Y-64541809D01*
X161799364Y-64672405D01*
X161799500Y-64677587D01*
X161799500Y-78672413D01*
X161799364Y-78677595D01*
X161792519Y-78808189D01*
X161792499Y-78808558D01*
X161782301Y-78990143D01*
X161781238Y-79000079D01*
X161757479Y-79150090D01*
X161757299Y-79151186D01*
X161730068Y-79311454D01*
X161728094Y-79320494D01*
X161687817Y-79470810D01*
X161687321Y-79472594D01*
X161643359Y-79625189D01*
X161640653Y-79633260D01*
X161584337Y-79779969D01*
X161583376Y-79782376D01*
X161523197Y-79927662D01*
X161519942Y-79934722D01*
X161448243Y-80075438D01*
X161446681Y-80078381D01*
X161371001Y-80215315D01*
X161367382Y-80221346D01*
X161281134Y-80354156D01*
X161278846Y-80357526D01*
X161188548Y-80484788D01*
X161184746Y-80489802D01*
X161084942Y-80613050D01*
X161081823Y-80616715D01*
X160977966Y-80732931D01*
X160974151Y-80736967D01*
X160861967Y-80849151D01*
X160857931Y-80852966D01*
X160741715Y-80956823D01*
X160738050Y-80959942D01*
X160614802Y-81059746D01*
X160609788Y-81063548D01*
X160482526Y-81153846D01*
X160479156Y-81156134D01*
X160346346Y-81242382D01*
X160340315Y-81246001D01*
X160203381Y-81321681D01*
X160200438Y-81323243D01*
X160059722Y-81394942D01*
X160052662Y-81398197D01*
X159907376Y-81458376D01*
X159904969Y-81459337D01*
X159758260Y-81515653D01*
X159750189Y-81518359D01*
X159597594Y-81562321D01*
X159595810Y-81562817D01*
X159445494Y-81603094D01*
X159436454Y-81605068D01*
X159276186Y-81632299D01*
X159275090Y-81632479D01*
X159125079Y-81656238D01*
X159115143Y-81657301D01*
X158933558Y-81667499D01*
X158933189Y-81667519D01*
X158802595Y-81674364D01*
X158797413Y-81674500D01*
X119802587Y-81674500D01*
X119797405Y-81674364D01*
X119666809Y-81667519D01*
X119666440Y-81667499D01*
X119484855Y-81657301D01*
X119474919Y-81656238D01*
X119324908Y-81632479D01*
X119323812Y-81632299D01*
X119163544Y-81605068D01*
X119154504Y-81603094D01*
X119004188Y-81562817D01*
X119002404Y-81562321D01*
X118849809Y-81518359D01*
X118841738Y-81515653D01*
X118695041Y-81459342D01*
X118692633Y-81458381D01*
X118547331Y-81398194D01*
X118540272Y-81394940D01*
X118399572Y-81323250D01*
X118396629Y-81321687D01*
X118259673Y-81245994D01*
X118253642Y-81242375D01*
X118120853Y-81156141D01*
X118117483Y-81153853D01*
X117990200Y-81063540D01*
X117985187Y-81059738D01*
X117861959Y-80959951D01*
X117858293Y-80956832D01*
X117742067Y-80852966D01*
X117738031Y-80849151D01*
X117625847Y-80736967D01*
X117622032Y-80732931D01*
X117518166Y-80616705D01*
X117515047Y-80613039D01*
X117415260Y-80489811D01*
X117411458Y-80484798D01*
X117321153Y-80357526D01*
X117321132Y-80357497D01*
X117318870Y-80354165D01*
X117232617Y-80221346D01*
X117229004Y-80215325D01*
X117153297Y-80078343D01*
X117151762Y-80075454D01*
X117080056Y-79934722D01*
X117076804Y-79927667D01*
X117016622Y-79782376D01*
X117016598Y-79782317D01*
X117015661Y-79779969D01*
X116959342Y-79633251D01*
X116956639Y-79625189D01*
X116929088Y-79529558D01*
X116912665Y-79472551D01*
X116912181Y-79470810D01*
X116871904Y-79320494D01*
X116869930Y-79311454D01*
X116842677Y-79151055D01*
X116842541Y-79150230D01*
X116818758Y-79000065D01*
X116817698Y-78990157D01*
X116807480Y-78808189D01*
X116800635Y-78677594D01*
X116800567Y-78675000D01*
X117644475Y-78675000D01*
X117644706Y-78678377D01*
X117664320Y-78965131D01*
X117664321Y-78965142D01*
X117664552Y-78968511D01*
X117665240Y-78971824D01*
X117665241Y-78971828D01*
X117723718Y-79253238D01*
X117723721Y-79253250D01*
X117724408Y-79256554D01*
X117725537Y-79259732D01*
X117725540Y-79259741D01*
X117739362Y-79298631D01*
X117822928Y-79533764D01*
X117824480Y-79536759D01*
X117956726Y-79791982D01*
X117956730Y-79791988D01*
X117958278Y-79794976D01*
X117960221Y-79797729D01*
X117960225Y-79797735D01*
X118125986Y-80032566D01*
X118125991Y-80032573D01*
X118127935Y-80035326D01*
X118328740Y-80250335D01*
X118331356Y-80252463D01*
X118331360Y-80252467D01*
X118403838Y-80311432D01*
X118556951Y-80435999D01*
X118808318Y-80588859D01*
X119078159Y-80706067D01*
X119361445Y-80785440D01*
X119652902Y-80825500D01*
X119943721Y-80825500D01*
X119947098Y-80825500D01*
X120238555Y-80785440D01*
X120521841Y-80706067D01*
X120791682Y-80588859D01*
X121043049Y-80435999D01*
X121271260Y-80250335D01*
X121472065Y-80035326D01*
X121641722Y-79794976D01*
X121777072Y-79533764D01*
X121875592Y-79256554D01*
X121935448Y-78968511D01*
X121955525Y-78675000D01*
X121935448Y-78381489D01*
X121886171Y-78144354D01*
X121876281Y-78096761D01*
X121876280Y-78096759D01*
X121875592Y-78093446D01*
X121777072Y-77816236D01*
X121641722Y-77555024D01*
X121472065Y-77314674D01*
X121271260Y-77099665D01*
X121268644Y-77097537D01*
X121268639Y-77097532D01*
X121130138Y-76984853D01*
X121043049Y-76914001D01*
X120791682Y-76761141D01*
X120788586Y-76759796D01*
X120788578Y-76759792D01*
X120524942Y-76645280D01*
X120521841Y-76643933D01*
X120518594Y-76643023D01*
X120518585Y-76643020D01*
X120241803Y-76565470D01*
X120241802Y-76565469D01*
X120238555Y-76564560D01*
X120235219Y-76564101D01*
X120235212Y-76564100D01*
X119950443Y-76524959D01*
X119950431Y-76524958D01*
X119947098Y-76524500D01*
X119652902Y-76524500D01*
X119649568Y-76524958D01*
X119649556Y-76524959D01*
X119364787Y-76564100D01*
X119364777Y-76564101D01*
X119361445Y-76564560D01*
X119358200Y-76565469D01*
X119358196Y-76565470D01*
X119081414Y-76643020D01*
X119081400Y-76643024D01*
X119078159Y-76643933D01*
X119075061Y-76645278D01*
X119075057Y-76645280D01*
X118811421Y-76759792D01*
X118811406Y-76759799D01*
X118808318Y-76761141D01*
X118805428Y-76762898D01*
X118805423Y-76762901D01*
X118559844Y-76912241D01*
X118559836Y-76912246D01*
X118556951Y-76914001D01*
X118554328Y-76916134D01*
X118554325Y-76916137D01*
X118331360Y-77097532D01*
X118331347Y-77097543D01*
X118328740Y-77099665D01*
X118326443Y-77102124D01*
X118326436Y-77102131D01*
X118130238Y-77312208D01*
X118127935Y-77314674D01*
X118125997Y-77317419D01*
X118125986Y-77317433D01*
X117960225Y-77552264D01*
X117960217Y-77552276D01*
X117958278Y-77555024D01*
X117956733Y-77558004D01*
X117956726Y-77558017D01*
X117835607Y-77791766D01*
X117822928Y-77816236D01*
X117821797Y-77819416D01*
X117821797Y-77819418D01*
X117725540Y-78090258D01*
X117725536Y-78090271D01*
X117724408Y-78093446D01*
X117723722Y-78096745D01*
X117723718Y-78096761D01*
X117665454Y-78377148D01*
X117664552Y-78381489D01*
X117664321Y-78384855D01*
X117664320Y-78384868D01*
X117654393Y-78530000D01*
X117644475Y-78675000D01*
X116800567Y-78675000D01*
X116800500Y-78672414D01*
X116800500Y-72770000D01*
X124024508Y-72770000D01*
X124025727Y-72777697D01*
X124042935Y-72886349D01*
X124044354Y-72895304D01*
X124047890Y-72902243D01*
X124050299Y-72909658D01*
X124050042Y-72909741D01*
X124054026Y-72920800D01*
X124054414Y-72923830D01*
X124055829Y-72928199D01*
X124055831Y-72928207D01*
X124174682Y-73295119D01*
X124179500Y-73325627D01*
X124179500Y-74065574D01*
X124177598Y-74084887D01*
X124174592Y-74100000D01*
X124176494Y-74109562D01*
X124192131Y-74188178D01*
X124192132Y-74188181D01*
X124194034Y-74197741D01*
X124199449Y-74205845D01*
X124199450Y-74205847D01*
X124200716Y-74207741D01*
X124200717Y-74207743D01*
X124238861Y-74264830D01*
X124249399Y-74280601D01*
X124262211Y-74289161D01*
X124277212Y-74301472D01*
X128234618Y-78258878D01*
X128246926Y-78273876D01*
X128255490Y-78286692D01*
X128301959Y-78317741D01*
X128338350Y-78342057D01*
X128436091Y-78361499D01*
X128451203Y-78358492D01*
X128470517Y-78356591D01*
X132955949Y-78356591D01*
X132986456Y-78361409D01*
X133357744Y-78481676D01*
X133360769Y-78482063D01*
X133371833Y-78486048D01*
X133371917Y-78485792D01*
X133379329Y-78488200D01*
X133386271Y-78491737D01*
X133491980Y-78508479D01*
X133501510Y-78509989D01*
X133511575Y-78511583D01*
X133519271Y-78510364D01*
X133527064Y-78510364D01*
X133527064Y-78510549D01*
X133529292Y-78510441D01*
X133529289Y-78509989D01*
X133532662Y-78509960D01*
X133536058Y-78510165D01*
X133981493Y-78475872D01*
X133987896Y-78474144D01*
X133988741Y-78473917D01*
X134014526Y-78470500D01*
X135985574Y-78470500D01*
X136004887Y-78472401D01*
X136020000Y-78475408D01*
X136117741Y-78455966D01*
X136125851Y-78450546D01*
X136125853Y-78450546D01*
X136153219Y-78432261D01*
X136153219Y-78432260D01*
X136153219Y-78432259D01*
X136200601Y-78400601D01*
X136209161Y-78387787D01*
X136221467Y-78372791D01*
X139529341Y-75064917D01*
X139575238Y-75038902D01*
X139627983Y-75040156D01*
X139672594Y-75068325D01*
X139696400Y-75115408D01*
X139692642Y-75168033D01*
X139636060Y-75327469D01*
X139636056Y-75327481D01*
X139634492Y-75331891D01*
X139633783Y-75336523D01*
X139633364Y-75338194D01*
X139627273Y-75354438D01*
X139626194Y-75357756D01*
X139622659Y-75364697D01*
X139621440Y-75372390D01*
X139621440Y-75372392D01*
X139605918Y-75470395D01*
X139602813Y-75490001D01*
X139604032Y-75497698D01*
X139619146Y-75593128D01*
X139622659Y-75615305D01*
X139626194Y-75622244D01*
X139626195Y-75622245D01*
X139637876Y-75645170D01*
X139680255Y-75728343D01*
X139769963Y-75818051D01*
X139883001Y-75875647D01*
X140008305Y-75895493D01*
X140133609Y-75875647D01*
X140246647Y-75818051D01*
X140336355Y-75728343D01*
X140393951Y-75615305D01*
X140413797Y-75490001D01*
X140393951Y-75364697D01*
X140390414Y-75357755D01*
X140388006Y-75350343D01*
X140388723Y-75350109D01*
X140385425Y-75340607D01*
X140385365Y-75340032D01*
X140274588Y-74966673D01*
X140270500Y-74938514D01*
X140270500Y-74578378D01*
X140283123Y-74530004D01*
X140317773Y-74493966D01*
X140365614Y-74479454D01*
X140414446Y-74490169D01*
X140416533Y-74491232D01*
X140425196Y-74495646D01*
X140550500Y-74515492D01*
X140675804Y-74495646D01*
X140675878Y-74496117D01*
X140731596Y-74496120D01*
X140781094Y-74532084D01*
X140800000Y-74590273D01*
X140800000Y-74904378D01*
X140795146Y-74934998D01*
X140675912Y-75301602D01*
X140675910Y-75301607D01*
X140674487Y-75305985D01*
X140674081Y-75309125D01*
X140670061Y-75320266D01*
X140670297Y-75320343D01*
X140667887Y-75327759D01*
X140664353Y-75334696D01*
X140663135Y-75342383D01*
X140663134Y-75342388D01*
X140647812Y-75439130D01*
X140644507Y-75460000D01*
X140645726Y-75467697D01*
X140652931Y-75513191D01*
X140664353Y-75585304D01*
X140667888Y-75592243D01*
X140667889Y-75592244D01*
X140679639Y-75615305D01*
X140721949Y-75698342D01*
X140727455Y-75703848D01*
X140735079Y-75711472D01*
X140750303Y-75731247D01*
X140751786Y-75734398D01*
X140754270Y-75737921D01*
X140754277Y-75737933D01*
X140788877Y-75787005D01*
X140805065Y-75824739D01*
X140812130Y-75860260D01*
X140812131Y-75860264D01*
X140814033Y-75869822D01*
X140830211Y-75894034D01*
X140869398Y-75952682D01*
X140882210Y-75961242D01*
X140897211Y-75973553D01*
X140973193Y-76049535D01*
X140976747Y-76053459D01*
X140977072Y-76053919D01*
X140979091Y-76056046D01*
X141005565Y-76083940D01*
X141005570Y-76083944D01*
X141008042Y-76086549D01*
X141010868Y-76088771D01*
X141013307Y-76090689D01*
X141013167Y-76090866D01*
X141013525Y-76091192D01*
X141013412Y-76091315D01*
X141022264Y-76098606D01*
X143606445Y-78682787D01*
X143618753Y-78697785D01*
X143627317Y-78710601D01*
X143710178Y-78765966D01*
X143783244Y-78780500D01*
X143783245Y-78780500D01*
X143792811Y-78782403D01*
X143807918Y-78785408D01*
X143817480Y-78783506D01*
X143817484Y-78783506D01*
X143823029Y-78782403D01*
X143842344Y-78780500D01*
X150834374Y-78780500D01*
X150864881Y-78785318D01*
X151236169Y-78905585D01*
X151239194Y-78905972D01*
X151250258Y-78909957D01*
X151250342Y-78909701D01*
X151257754Y-78912109D01*
X151264696Y-78915646D01*
X151390000Y-78935492D01*
X151515304Y-78915646D01*
X151628342Y-78858050D01*
X151718050Y-78768342D01*
X151766132Y-78673977D01*
X156636917Y-78673977D01*
X156637148Y-78677354D01*
X156656762Y-78964108D01*
X156656763Y-78964119D01*
X156656994Y-78967488D01*
X156657682Y-78970801D01*
X156657683Y-78970805D01*
X156716160Y-79252215D01*
X156716163Y-79252227D01*
X156716850Y-79255531D01*
X156717979Y-79258709D01*
X156717982Y-79258718D01*
X156786906Y-79452652D01*
X156815370Y-79532741D01*
X156816922Y-79535736D01*
X156949168Y-79790959D01*
X156949172Y-79790965D01*
X156950720Y-79793953D01*
X156952663Y-79796706D01*
X156952667Y-79796712D01*
X157118428Y-80031543D01*
X157118433Y-80031550D01*
X157120377Y-80034303D01*
X157321182Y-80249312D01*
X157323798Y-80251440D01*
X157323802Y-80251444D01*
X157397537Y-80311432D01*
X157549393Y-80434976D01*
X157800760Y-80587836D01*
X157803860Y-80589182D01*
X157803863Y-80589184D01*
X157858783Y-80613039D01*
X158070601Y-80705044D01*
X158353887Y-80784417D01*
X158645344Y-80824477D01*
X158936163Y-80824477D01*
X158939540Y-80824477D01*
X159230997Y-80784417D01*
X159514283Y-80705044D01*
X159784124Y-80587836D01*
X160035491Y-80434976D01*
X160263702Y-80249312D01*
X160464507Y-80034303D01*
X160634164Y-79793953D01*
X160769514Y-79532741D01*
X160868034Y-79255531D01*
X160927890Y-78967488D01*
X160947967Y-78673977D01*
X160927890Y-78380466D01*
X160871937Y-78111203D01*
X160868723Y-78095738D01*
X160868722Y-78095736D01*
X160868034Y-78092423D01*
X160769514Y-77815213D01*
X160634164Y-77554001D01*
X160464507Y-77313651D01*
X160263702Y-77098642D01*
X160261086Y-77096514D01*
X160261081Y-77096509D01*
X160078959Y-76948342D01*
X160035491Y-76912978D01*
X159784124Y-76760118D01*
X159781028Y-76758773D01*
X159781020Y-76758769D01*
X159517384Y-76644257D01*
X159514283Y-76642910D01*
X159511036Y-76642000D01*
X159511027Y-76641997D01*
X159234245Y-76564447D01*
X159234244Y-76564446D01*
X159230997Y-76563537D01*
X159227661Y-76563078D01*
X159227654Y-76563077D01*
X158942885Y-76523936D01*
X158942873Y-76523935D01*
X158939540Y-76523477D01*
X158645344Y-76523477D01*
X158642010Y-76523935D01*
X158641998Y-76523936D01*
X158357229Y-76563077D01*
X158357219Y-76563078D01*
X158353887Y-76563537D01*
X158350642Y-76564446D01*
X158350638Y-76564447D01*
X158073856Y-76641997D01*
X158073842Y-76642001D01*
X158070601Y-76642910D01*
X158067503Y-76644255D01*
X158067499Y-76644257D01*
X157803863Y-76758769D01*
X157803848Y-76758776D01*
X157800760Y-76760118D01*
X157797870Y-76761875D01*
X157797865Y-76761878D01*
X157552286Y-76911218D01*
X157552278Y-76911223D01*
X157549393Y-76912978D01*
X157546770Y-76915111D01*
X157546767Y-76915114D01*
X157323802Y-77096509D01*
X157323789Y-77096520D01*
X157321182Y-77098642D01*
X157318885Y-77101101D01*
X157318878Y-77101108D01*
X157220097Y-77206877D01*
X157120377Y-77313651D01*
X157118439Y-77316396D01*
X157118428Y-77316410D01*
X156952667Y-77551241D01*
X156952659Y-77551253D01*
X156950720Y-77554001D01*
X156949175Y-77556981D01*
X156949168Y-77556994D01*
X156827519Y-77791766D01*
X156815370Y-77815213D01*
X156814239Y-77818393D01*
X156814239Y-77818395D01*
X156717982Y-78089235D01*
X156717978Y-78089248D01*
X156716850Y-78092423D01*
X156716164Y-78095722D01*
X156716160Y-78095738D01*
X156657683Y-78377148D01*
X156656994Y-78380466D01*
X156656763Y-78383832D01*
X156656762Y-78383845D01*
X156646765Y-78530000D01*
X156636917Y-78673977D01*
X151766132Y-78673977D01*
X151775646Y-78655304D01*
X151795492Y-78530000D01*
X151775646Y-78404696D01*
X151718050Y-78291658D01*
X151628342Y-78201950D01*
X151515304Y-78144354D01*
X151507610Y-78143135D01*
X151507609Y-78143135D01*
X151397697Y-78125727D01*
X151390000Y-78124508D01*
X151382303Y-78125727D01*
X151272388Y-78143135D01*
X151272383Y-78143136D01*
X151264696Y-78144354D01*
X151257759Y-78147888D01*
X151250343Y-78150298D01*
X151250260Y-78150043D01*
X151239201Y-78154026D01*
X151236170Y-78154414D01*
X151231798Y-78155829D01*
X151231785Y-78155833D01*
X151030997Y-78220873D01*
X150981110Y-78223776D01*
X150936160Y-78201942D01*
X150907601Y-78160935D01*
X150902709Y-78111207D01*
X150915492Y-78030500D01*
X150895646Y-77905196D01*
X150874883Y-77864446D01*
X150864168Y-77815614D01*
X150878680Y-77767773D01*
X150914718Y-77733123D01*
X150963092Y-77720500D01*
X152505574Y-77720500D01*
X152524887Y-77722401D01*
X152540000Y-77725408D01*
X152637741Y-77705966D01*
X152667536Y-77686057D01*
X152720601Y-77650601D01*
X152729161Y-77637787D01*
X152741467Y-77622791D01*
X153641777Y-76722481D01*
X153662535Y-76707002D01*
X153662525Y-76706987D01*
X153662525Y-76706986D01*
X153983062Y-76496187D01*
X153986173Y-76493264D01*
X153989520Y-76490625D01*
X153989913Y-76491124D01*
X154006963Y-76479132D01*
X154048342Y-76458050D01*
X154138050Y-76368342D01*
X154195646Y-76255304D01*
X154215492Y-76130000D01*
X154195646Y-76004696D01*
X154138050Y-75891658D01*
X154048342Y-75801950D01*
X154041400Y-75798413D01*
X154041399Y-75798412D01*
X154004120Y-75779417D01*
X153986400Y-75767234D01*
X153986286Y-75767387D01*
X153982808Y-75764768D01*
X153979581Y-75761860D01*
X153975892Y-75759558D01*
X153975890Y-75759557D01*
X153961405Y-75750520D01*
X153928581Y-75716899D01*
X153914955Y-75671932D01*
X153923595Y-75625751D01*
X153987926Y-75483440D01*
X153991085Y-75471928D01*
X153994749Y-75458575D01*
X153999656Y-75444781D01*
X154007730Y-75426498D01*
X154007729Y-75426498D01*
X154007731Y-75426496D01*
X154008715Y-75426930D01*
X154030147Y-75390060D01*
X154074436Y-75364572D01*
X154125536Y-75364565D01*
X154169832Y-75390041D01*
X154191288Y-75426931D01*
X154192270Y-75426498D01*
X154231676Y-75515745D01*
X154231678Y-75515748D01*
X154235384Y-75524141D01*
X154310859Y-75599616D01*
X154319253Y-75603322D01*
X154319254Y-75603323D01*
X154346391Y-75615305D01*
X154408502Y-75642730D01*
X154432377Y-75645500D01*
X154787622Y-75645499D01*
X154811498Y-75642730D01*
X154909141Y-75599616D01*
X154984616Y-75524141D01*
X155027730Y-75426498D01*
X155030500Y-75402623D01*
X155030499Y-74947378D01*
X155027730Y-74923502D01*
X155018935Y-74903583D01*
X155010500Y-74863595D01*
X155010500Y-74694359D01*
X155010500Y-74686567D01*
X155003044Y-74663623D01*
X154999420Y-74648531D01*
X154995646Y-74624696D01*
X154984693Y-74603201D01*
X154978751Y-74588855D01*
X154973702Y-74573317D01*
X154971296Y-74565911D01*
X154966719Y-74559611D01*
X154966717Y-74559607D01*
X154957113Y-74546388D01*
X154949003Y-74533155D01*
X154938050Y-74511658D01*
X154915486Y-74489094D01*
X154915484Y-74489091D01*
X154781453Y-74355060D01*
X154766123Y-74334869D01*
X154765313Y-74333087D01*
X154395930Y-73793220D01*
X154386176Y-73775209D01*
X154380861Y-73762375D01*
X154376914Y-73757232D01*
X154376910Y-73757224D01*
X154326790Y-73691907D01*
X154323629Y-73687547D01*
X154321162Y-73683941D01*
X154321159Y-73683938D01*
X154319118Y-73680954D01*
X154316662Y-73678298D01*
X154314770Y-73675925D01*
X154312032Y-73672676D01*
X154296570Y-73652526D01*
X154292621Y-73647379D01*
X154277583Y-73635840D01*
X154182773Y-73563089D01*
X154182771Y-73563088D01*
X154177625Y-73559139D01*
X154171626Y-73556654D01*
X154049702Y-73506152D01*
X154049699Y-73506151D01*
X154043709Y-73503670D01*
X154037278Y-73502823D01*
X154037277Y-73502823D01*
X153927906Y-73488424D01*
X153900000Y-73484750D01*
X153893567Y-73485597D01*
X153762724Y-73502822D01*
X153762716Y-73502824D01*
X153756291Y-73503670D01*
X153750298Y-73506152D01*
X153750295Y-73506153D01*
X153723820Y-73517118D01*
X153700964Y-73522972D01*
X153701006Y-73523178D01*
X153696938Y-73524004D01*
X153696697Y-73524066D01*
X153696560Y-73524080D01*
X153696542Y-73524083D01*
X153692038Y-73524575D01*
X153687696Y-73525880D01*
X153687690Y-73525882D01*
X153301695Y-73641964D01*
X153075658Y-73709941D01*
X153074444Y-73710306D01*
X153045933Y-73714500D01*
X152238534Y-73714500D01*
X152229905Y-73714123D01*
X152199819Y-73711490D01*
X152199814Y-73711490D01*
X152191193Y-73710736D01*
X152182834Y-73712975D01*
X152182830Y-73712976D01*
X152153649Y-73720795D01*
X152145224Y-73722662D01*
X152115485Y-73727906D01*
X152115475Y-73727909D01*
X152106955Y-73729412D01*
X152099459Y-73733739D01*
X152093971Y-73735737D01*
X152088678Y-73738205D01*
X152080316Y-73740446D01*
X152073223Y-73745411D01*
X152073219Y-73745414D01*
X152048483Y-73762734D01*
X152041206Y-73767370D01*
X152015045Y-73782475D01*
X152015042Y-73782477D01*
X152007545Y-73786806D01*
X152001979Y-73793438D01*
X152001979Y-73793439D01*
X151982568Y-73816571D01*
X151976736Y-73822935D01*
X151334170Y-74465503D01*
X151302052Y-74486964D01*
X151264166Y-74494500D01*
X150535834Y-74494500D01*
X150497948Y-74486964D01*
X150465830Y-74465504D01*
X150414023Y-74413697D01*
X150386246Y-74359180D01*
X150395817Y-74298748D01*
X150439082Y-74255483D01*
X150499514Y-74245912D01*
X150560000Y-74255492D01*
X150685304Y-74235646D01*
X150798342Y-74178050D01*
X150888050Y-74088342D01*
X150945646Y-73975304D01*
X150965492Y-73850000D01*
X150945646Y-73724696D01*
X150942108Y-73717753D01*
X150939700Y-73710341D01*
X150940023Y-73710235D01*
X150936148Y-73699418D01*
X150935817Y-73696758D01*
X150817014Y-73325173D01*
X150812312Y-73295024D01*
X150812312Y-68506243D01*
X150814215Y-68486928D01*
X150815318Y-68481379D01*
X150817221Y-68471812D01*
X150797778Y-68374072D01*
X150784586Y-68354329D01*
X150756390Y-68312129D01*
X150756389Y-68312127D01*
X150747832Y-68299321D01*
X150747831Y-68299320D01*
X150742413Y-68291211D01*
X150729600Y-68282649D01*
X150714602Y-68270341D01*
X150087459Y-67643198D01*
X149403763Y-66959503D01*
X149376670Y-66908814D01*
X149382304Y-66851614D01*
X149418767Y-66807185D01*
X149473768Y-66790500D01*
X151213087Y-66790500D01*
X151264776Y-66805065D01*
X151301256Y-66844475D01*
X151347657Y-66935339D01*
X151455646Y-67146805D01*
X151458458Y-67150442D01*
X151458461Y-67150447D01*
X151463932Y-67157523D01*
X151473812Y-67173120D01*
X151501950Y-67228342D01*
X151591658Y-67318050D01*
X151704696Y-67375646D01*
X151830000Y-67395492D01*
X151955304Y-67375646D01*
X152068342Y-67318050D01*
X152158050Y-67228342D01*
X152215646Y-67115304D01*
X152235492Y-66990000D01*
X152215646Y-66864696D01*
X152213636Y-66860753D01*
X152211270Y-66810558D01*
X152235718Y-66764384D01*
X152280266Y-66737086D01*
X152332506Y-66736265D01*
X152377890Y-66762151D01*
X152539981Y-66924242D01*
X152558146Y-66949221D01*
X152591582Y-67014696D01*
X152735646Y-67296805D01*
X152738458Y-67300442D01*
X152738461Y-67300447D01*
X152743932Y-67307523D01*
X152753812Y-67323120D01*
X152781950Y-67378342D01*
X152871658Y-67468050D01*
X152984696Y-67525646D01*
X153110000Y-67545492D01*
X153235304Y-67525646D01*
X153348342Y-67468050D01*
X153438050Y-67378342D01*
X153495646Y-67265304D01*
X153515492Y-67140000D01*
X153495646Y-67014696D01*
X153438050Y-66901658D01*
X153348342Y-66811950D01*
X153293120Y-66783812D01*
X153277523Y-66773932D01*
X153270447Y-66768461D01*
X153270442Y-66768458D01*
X153266805Y-66765646D01*
X153063745Y-66661950D01*
X152919221Y-66588146D01*
X152894242Y-66569981D01*
X150999260Y-64675000D01*
X156644475Y-64675000D01*
X156644706Y-64678377D01*
X156664320Y-64965131D01*
X156664321Y-64965142D01*
X156664552Y-64968511D01*
X156665240Y-64971824D01*
X156665241Y-64971828D01*
X156723718Y-65253238D01*
X156723721Y-65253250D01*
X156724408Y-65256554D01*
X156725537Y-65259732D01*
X156725540Y-65259741D01*
X156778537Y-65408860D01*
X156822928Y-65533764D01*
X156824480Y-65536759D01*
X156956726Y-65791982D01*
X156956730Y-65791988D01*
X156958278Y-65794976D01*
X156960221Y-65797729D01*
X156960225Y-65797735D01*
X157125986Y-66032566D01*
X157125991Y-66032573D01*
X157127935Y-66035326D01*
X157328740Y-66250335D01*
X157331356Y-66252463D01*
X157331360Y-66252467D01*
X157419215Y-66323942D01*
X157556951Y-66435999D01*
X157808318Y-66588859D01*
X158078159Y-66706067D01*
X158361445Y-66785440D01*
X158652902Y-66825500D01*
X158943721Y-66825500D01*
X158947098Y-66825500D01*
X159238555Y-66785440D01*
X159521841Y-66706067D01*
X159791682Y-66588859D01*
X160043049Y-66435999D01*
X160271260Y-66250335D01*
X160472065Y-66035326D01*
X160641722Y-65794976D01*
X160777072Y-65533764D01*
X160875592Y-65256554D01*
X160935448Y-64968511D01*
X160955525Y-64675000D01*
X160935448Y-64381489D01*
X160882801Y-64128137D01*
X160876281Y-64096761D01*
X160876280Y-64096759D01*
X160875592Y-64093446D01*
X160777072Y-63816236D01*
X160641722Y-63555024D01*
X160620470Y-63524916D01*
X160474013Y-63317433D01*
X160474009Y-63317428D01*
X160472065Y-63314674D01*
X160271260Y-63099665D01*
X160268644Y-63097537D01*
X160268639Y-63097532D01*
X160109625Y-62968165D01*
X160043049Y-62914001D01*
X159791682Y-62761141D01*
X159788586Y-62759796D01*
X159788578Y-62759792D01*
X159524942Y-62645280D01*
X159521841Y-62643933D01*
X159518594Y-62643023D01*
X159518585Y-62643020D01*
X159241803Y-62565470D01*
X159241802Y-62565469D01*
X159238555Y-62564560D01*
X159235219Y-62564101D01*
X159235212Y-62564100D01*
X158950443Y-62524959D01*
X158950431Y-62524958D01*
X158947098Y-62524500D01*
X158652902Y-62524500D01*
X158649568Y-62524958D01*
X158649556Y-62524959D01*
X158364787Y-62564100D01*
X158364777Y-62564101D01*
X158361445Y-62564560D01*
X158358200Y-62565469D01*
X158358196Y-62565470D01*
X158081414Y-62643020D01*
X158081400Y-62643024D01*
X158078159Y-62643933D01*
X158075061Y-62645278D01*
X158075057Y-62645280D01*
X157811421Y-62759792D01*
X157811406Y-62759799D01*
X157808318Y-62761141D01*
X157805428Y-62762898D01*
X157805423Y-62762901D01*
X157559844Y-62912241D01*
X157559836Y-62912246D01*
X157556951Y-62914001D01*
X157554328Y-62916134D01*
X157554325Y-62916137D01*
X157331360Y-63097532D01*
X157331347Y-63097543D01*
X157328740Y-63099665D01*
X157326443Y-63102124D01*
X157326436Y-63102131D01*
X157168065Y-63271705D01*
X157127935Y-63314674D01*
X157125997Y-63317419D01*
X157125986Y-63317433D01*
X156960225Y-63552264D01*
X156960217Y-63552276D01*
X156958278Y-63555024D01*
X156956733Y-63558004D01*
X156956726Y-63558017D01*
X156832966Y-63796863D01*
X156822928Y-63816236D01*
X156821797Y-63819416D01*
X156821797Y-63819418D01*
X156725540Y-64090258D01*
X156725536Y-64090271D01*
X156724408Y-64093446D01*
X156723722Y-64096745D01*
X156723718Y-64096761D01*
X156665241Y-64378171D01*
X156664552Y-64381489D01*
X156664321Y-64384855D01*
X156664320Y-64384868D01*
X156646763Y-64641549D01*
X156644475Y-64675000D01*
X150999260Y-64675000D01*
X150241472Y-63917212D01*
X150229161Y-63902211D01*
X150220601Y-63889399D01*
X150153238Y-63844389D01*
X150153237Y-63844388D01*
X150145850Y-63839452D01*
X150145848Y-63839451D01*
X150137741Y-63834034D01*
X150128177Y-63832131D01*
X150128176Y-63832131D01*
X150049562Y-63816494D01*
X150040000Y-63814592D01*
X150030438Y-63816494D01*
X150024888Y-63817598D01*
X150005574Y-63819500D01*
X147894426Y-63819500D01*
X147875112Y-63817598D01*
X147869562Y-63816494D01*
X147860000Y-63814592D01*
X147850438Y-63816494D01*
X147771823Y-63832131D01*
X147771820Y-63832132D01*
X147762259Y-63834034D01*
X147754153Y-63839450D01*
X147754149Y-63839452D01*
X147746761Y-63844389D01*
X147746762Y-63844389D01*
X147742748Y-63847071D01*
X147687508Y-63883980D01*
X147687505Y-63883982D01*
X147679399Y-63889399D01*
X147673981Y-63897506D01*
X147673979Y-63897509D01*
X147670835Y-63902215D01*
X147658527Y-63917211D01*
X147255237Y-64320503D01*
X147223119Y-64341964D01*
X147185233Y-64349500D01*
X145773347Y-64349500D01*
X145724973Y-64336877D01*
X145688936Y-64302227D01*
X145674423Y-64254387D01*
X145685137Y-64205555D01*
X145695455Y-64185304D01*
X145705646Y-64165304D01*
X145725492Y-64040000D01*
X145706106Y-63917603D01*
X145712282Y-63865432D01*
X145716767Y-63858722D01*
X145718670Y-63849153D01*
X145719533Y-63847071D01*
X145719836Y-63846356D01*
X145719850Y-63846303D01*
X145722834Y-63839460D01*
X145727971Y-63793165D01*
X145727695Y-63786240D01*
X145726991Y-63782588D01*
X145726564Y-63778881D01*
X145726784Y-63778855D01*
X145725500Y-63765394D01*
X145725500Y-62240038D01*
X145725500Y-62235180D01*
X145716767Y-62191278D01*
X145683504Y-62141496D01*
X145633722Y-62108233D01*
X145612558Y-62104023D01*
X145594582Y-62100447D01*
X145594579Y-62100446D01*
X145589820Y-62099500D01*
X145010180Y-62099500D01*
X145005421Y-62100446D01*
X145005417Y-62100447D01*
X144975839Y-62106331D01*
X144975838Y-62106331D01*
X144966278Y-62108233D01*
X144958173Y-62113648D01*
X144958167Y-62113651D01*
X144954996Y-62115770D01*
X144900000Y-62132451D01*
X144845004Y-62115770D01*
X144841832Y-62113651D01*
X144841828Y-62113649D01*
X144833722Y-62108233D01*
X144812558Y-62104023D01*
X144794582Y-62100447D01*
X144794579Y-62100446D01*
X144789820Y-62099500D01*
X144210180Y-62099500D01*
X144205421Y-62100446D01*
X144205417Y-62100447D01*
X144175839Y-62106331D01*
X144175838Y-62106331D01*
X144166278Y-62108233D01*
X144158173Y-62113648D01*
X144158167Y-62113651D01*
X144154996Y-62115770D01*
X144100000Y-62132451D01*
X144045004Y-62115770D01*
X144041832Y-62113651D01*
X144041828Y-62113649D01*
X144033722Y-62108233D01*
X144012558Y-62104023D01*
X143994582Y-62100447D01*
X143994579Y-62100446D01*
X143989820Y-62099500D01*
X143410180Y-62099500D01*
X143405421Y-62100446D01*
X143405417Y-62100447D01*
X143375839Y-62106331D01*
X143375838Y-62106331D01*
X143366278Y-62108233D01*
X143358173Y-62113648D01*
X143358167Y-62113651D01*
X143354996Y-62115770D01*
X143300000Y-62132451D01*
X143245004Y-62115770D01*
X143241832Y-62113651D01*
X143241828Y-62113649D01*
X143233722Y-62108233D01*
X143212558Y-62104023D01*
X143194582Y-62100447D01*
X143194579Y-62100446D01*
X143189820Y-62099500D01*
X142610180Y-62099500D01*
X142605421Y-62100446D01*
X142605417Y-62100447D01*
X142575839Y-62106331D01*
X142575838Y-62106331D01*
X142566278Y-62108233D01*
X142558173Y-62113648D01*
X142558167Y-62113651D01*
X142554996Y-62115770D01*
X142500000Y-62132451D01*
X142445004Y-62115770D01*
X142441832Y-62113651D01*
X142441828Y-62113649D01*
X142433722Y-62108233D01*
X142412558Y-62104023D01*
X142394582Y-62100447D01*
X142394579Y-62100446D01*
X142389820Y-62099500D01*
X141810180Y-62099500D01*
X141805421Y-62100446D01*
X141805417Y-62100447D01*
X141775839Y-62106331D01*
X141775838Y-62106331D01*
X141766278Y-62108233D01*
X141758173Y-62113648D01*
X141758167Y-62113651D01*
X141754996Y-62115770D01*
X141700000Y-62132451D01*
X141645004Y-62115770D01*
X141641832Y-62113651D01*
X141641828Y-62113649D01*
X141633722Y-62108233D01*
X141612558Y-62104023D01*
X141594582Y-62100447D01*
X141594579Y-62100446D01*
X141589820Y-62099500D01*
X141010180Y-62099500D01*
X141005421Y-62100446D01*
X141005417Y-62100447D01*
X140975839Y-62106331D01*
X140975838Y-62106331D01*
X140966278Y-62108233D01*
X140958173Y-62113648D01*
X140958167Y-62113651D01*
X140954996Y-62115770D01*
X140900000Y-62132451D01*
X140845004Y-62115770D01*
X140841832Y-62113651D01*
X140841828Y-62113649D01*
X140833722Y-62108233D01*
X140812558Y-62104023D01*
X140794582Y-62100447D01*
X140794579Y-62100446D01*
X140789820Y-62099500D01*
X140210180Y-62099500D01*
X140205421Y-62100446D01*
X140205417Y-62100447D01*
X140175839Y-62106331D01*
X140175838Y-62106331D01*
X140166278Y-62108233D01*
X140158173Y-62113648D01*
X140158167Y-62113651D01*
X140154996Y-62115770D01*
X140100000Y-62132451D01*
X140045004Y-62115770D01*
X140041832Y-62113651D01*
X140041828Y-62113649D01*
X140033722Y-62108233D01*
X140012558Y-62104023D01*
X139994582Y-62100447D01*
X139994579Y-62100446D01*
X139989820Y-62099500D01*
X139410180Y-62099500D01*
X139405421Y-62100446D01*
X139405417Y-62100447D01*
X139375839Y-62106331D01*
X139375838Y-62106331D01*
X139366278Y-62108233D01*
X139358173Y-62113648D01*
X139358167Y-62113651D01*
X139354996Y-62115770D01*
X139300000Y-62132451D01*
X139245004Y-62115770D01*
X139241832Y-62113651D01*
X139241828Y-62113649D01*
X139233722Y-62108233D01*
X139212558Y-62104023D01*
X139194582Y-62100447D01*
X139194579Y-62100446D01*
X139189820Y-62099500D01*
X138610180Y-62099500D01*
X138605421Y-62100446D01*
X138605417Y-62100447D01*
X138575839Y-62106331D01*
X138575838Y-62106331D01*
X138566278Y-62108233D01*
X138558173Y-62113648D01*
X138558167Y-62113651D01*
X138554996Y-62115770D01*
X138500000Y-62132451D01*
X138445004Y-62115770D01*
X138441832Y-62113651D01*
X138441828Y-62113649D01*
X138433722Y-62108233D01*
X138412558Y-62104023D01*
X138394582Y-62100447D01*
X138394579Y-62100446D01*
X138389820Y-62099500D01*
X137810180Y-62099500D01*
X137805421Y-62100446D01*
X137805417Y-62100447D01*
X137775839Y-62106331D01*
X137775838Y-62106331D01*
X137766278Y-62108233D01*
X137758173Y-62113648D01*
X137758167Y-62113651D01*
X137754996Y-62115770D01*
X137700000Y-62132451D01*
X137645004Y-62115770D01*
X137641832Y-62113651D01*
X137641828Y-62113649D01*
X137633722Y-62108233D01*
X137612558Y-62104023D01*
X137594582Y-62100447D01*
X137594579Y-62100446D01*
X137589820Y-62099500D01*
X137010180Y-62099500D01*
X137005421Y-62100446D01*
X137005417Y-62100447D01*
X136975839Y-62106331D01*
X136975838Y-62106331D01*
X136966278Y-62108233D01*
X136958173Y-62113648D01*
X136958167Y-62113651D01*
X136954996Y-62115770D01*
X136900000Y-62132451D01*
X136845004Y-62115770D01*
X136841832Y-62113651D01*
X136841828Y-62113649D01*
X136833722Y-62108233D01*
X136812558Y-62104023D01*
X136794582Y-62100447D01*
X136794579Y-62100446D01*
X136789820Y-62099500D01*
X136210180Y-62099500D01*
X136205421Y-62100446D01*
X136205417Y-62100447D01*
X136175839Y-62106331D01*
X136175838Y-62106331D01*
X136166278Y-62108233D01*
X136158173Y-62113648D01*
X136158167Y-62113651D01*
X136154996Y-62115770D01*
X136100000Y-62132451D01*
X136045004Y-62115770D01*
X136041832Y-62113651D01*
X136041828Y-62113649D01*
X136033722Y-62108233D01*
X136012558Y-62104023D01*
X135994582Y-62100447D01*
X135994579Y-62100446D01*
X135989820Y-62099500D01*
X135410180Y-62099500D01*
X135405421Y-62100446D01*
X135405417Y-62100447D01*
X135375839Y-62106331D01*
X135375838Y-62106331D01*
X135366278Y-62108233D01*
X135358173Y-62113648D01*
X135358167Y-62113651D01*
X135354996Y-62115770D01*
X135300000Y-62132451D01*
X135245004Y-62115770D01*
X135241832Y-62113651D01*
X135241828Y-62113649D01*
X135233722Y-62108233D01*
X135212558Y-62104023D01*
X135194582Y-62100447D01*
X135194579Y-62100446D01*
X135189820Y-62099500D01*
X134610180Y-62099500D01*
X134605421Y-62100446D01*
X134605417Y-62100447D01*
X134575839Y-62106331D01*
X134575838Y-62106331D01*
X134566278Y-62108233D01*
X134558173Y-62113648D01*
X134558167Y-62113651D01*
X134554996Y-62115770D01*
X134500000Y-62132451D01*
X134445004Y-62115770D01*
X134441832Y-62113651D01*
X134441828Y-62113649D01*
X134433722Y-62108233D01*
X134412558Y-62104023D01*
X134394582Y-62100447D01*
X134394579Y-62100446D01*
X134389820Y-62099500D01*
X133810180Y-62099500D01*
X133805421Y-62100446D01*
X133805417Y-62100447D01*
X133775839Y-62106331D01*
X133775838Y-62106331D01*
X133766278Y-62108233D01*
X133758173Y-62113648D01*
X133758167Y-62113651D01*
X133754996Y-62115770D01*
X133700000Y-62132451D01*
X133645004Y-62115770D01*
X133641832Y-62113651D01*
X133641828Y-62113649D01*
X133633722Y-62108233D01*
X133612558Y-62104023D01*
X133594582Y-62100447D01*
X133594579Y-62100446D01*
X133589820Y-62099500D01*
X133010180Y-62099500D01*
X133005421Y-62100446D01*
X133005417Y-62100447D01*
X132975839Y-62106331D01*
X132975838Y-62106331D01*
X132966278Y-62108233D01*
X132958173Y-62113648D01*
X132958167Y-62113651D01*
X132954996Y-62115770D01*
X132900000Y-62132451D01*
X132845004Y-62115770D01*
X132841832Y-62113651D01*
X132841828Y-62113649D01*
X132833722Y-62108233D01*
X132812558Y-62104023D01*
X132794582Y-62100447D01*
X132794579Y-62100446D01*
X132789820Y-62099500D01*
X132210180Y-62099500D01*
X132205421Y-62100446D01*
X132205417Y-62100447D01*
X132175839Y-62106331D01*
X132175838Y-62106331D01*
X132166278Y-62108233D01*
X132158173Y-62113648D01*
X132158167Y-62113651D01*
X132154996Y-62115770D01*
X132100000Y-62132451D01*
X132045004Y-62115770D01*
X132041832Y-62113651D01*
X132041828Y-62113649D01*
X132033722Y-62108233D01*
X132012558Y-62104023D01*
X131994582Y-62100447D01*
X131994579Y-62100446D01*
X131989820Y-62099500D01*
X131410180Y-62099500D01*
X131405421Y-62100446D01*
X131405417Y-62100447D01*
X131375839Y-62106331D01*
X131375838Y-62106331D01*
X131366278Y-62108233D01*
X131358174Y-62113647D01*
X131358171Y-62113649D01*
X131324605Y-62136077D01*
X131324602Y-62136079D01*
X131316496Y-62141496D01*
X131311079Y-62149602D01*
X131311077Y-62149605D01*
X131288649Y-62183171D01*
X131288647Y-62183174D01*
X131283233Y-62191278D01*
X131281331Y-62200838D01*
X131277599Y-62209849D01*
X131275669Y-62209049D01*
X131264493Y-62233803D01*
X131230106Y-62262285D01*
X131186701Y-62272761D01*
X130483110Y-62279336D01*
X130483094Y-62279337D01*
X130479898Y-62279367D01*
X130476715Y-62279812D01*
X130476711Y-62279813D01*
X130416570Y-62288234D01*
X130416554Y-62288237D01*
X130413378Y-62288682D01*
X130410283Y-62289534D01*
X130410273Y-62289537D01*
X130355123Y-62304736D01*
X130355117Y-62304737D01*
X130352022Y-62305591D01*
X130349070Y-62306834D01*
X130349057Y-62306839D01*
X130296056Y-62329165D01*
X130296048Y-62329169D01*
X130290131Y-62331662D01*
X130285045Y-62335593D01*
X130285044Y-62335595D01*
X130239540Y-62370779D01*
X130239534Y-62370783D01*
X130237002Y-62372742D01*
X130234745Y-62375010D01*
X130234740Y-62375015D01*
X130194372Y-62415591D01*
X130192113Y-62417862D01*
X130190172Y-62420398D01*
X130190166Y-62420406D01*
X130155213Y-62466094D01*
X130155209Y-62466099D01*
X130151304Y-62471205D01*
X130148839Y-62477140D01*
X130148836Y-62477147D01*
X130126785Y-62530260D01*
X130126781Y-62530269D01*
X130125551Y-62533234D01*
X130124714Y-62536332D01*
X130124708Y-62536351D01*
X130120669Y-62551310D01*
X130100849Y-62589235D01*
X130066874Y-62615252D01*
X130025093Y-62624500D01*
X129771901Y-62624500D01*
X129734015Y-62616964D01*
X129701897Y-62595504D01*
X129660619Y-62554226D01*
X129639937Y-62523932D01*
X129526592Y-62265055D01*
X129523853Y-62261106D01*
X129518675Y-62253640D01*
X129508559Y-62235102D01*
X129497767Y-62209049D01*
X129490861Y-62192375D01*
X129402621Y-62077379D01*
X129287625Y-61989139D01*
X129281626Y-61986654D01*
X129159702Y-61936152D01*
X129159699Y-61936151D01*
X129153709Y-61933670D01*
X129147278Y-61932823D01*
X129147277Y-61932823D01*
X129016433Y-61915597D01*
X129010000Y-61914750D01*
X129003567Y-61915597D01*
X128872722Y-61932823D01*
X128872719Y-61932823D01*
X128866291Y-61933670D01*
X128860302Y-61936150D01*
X128860297Y-61936152D01*
X128738373Y-61986654D01*
X128738369Y-61986656D01*
X128732375Y-61989139D01*
X128727231Y-61993086D01*
X128727226Y-61993089D01*
X128622527Y-62073428D01*
X128622523Y-62073431D01*
X128617379Y-62077379D01*
X128613431Y-62082523D01*
X128613428Y-62082527D01*
X128533089Y-62187226D01*
X128533086Y-62187231D01*
X128529139Y-62192375D01*
X128526656Y-62198369D01*
X128526654Y-62198373D01*
X128476152Y-62320297D01*
X128476150Y-62320302D01*
X128473670Y-62326291D01*
X128472823Y-62332719D01*
X128472823Y-62332722D01*
X128467813Y-62370779D01*
X128454750Y-62470000D01*
X128455597Y-62476433D01*
X128462683Y-62530260D01*
X128473670Y-62613709D01*
X128476151Y-62619699D01*
X128476152Y-62619702D01*
X128524721Y-62736959D01*
X128529139Y-62747625D01*
X128617379Y-62862621D01*
X128732375Y-62950861D01*
X128759585Y-62962131D01*
X128780075Y-62973637D01*
X128782020Y-62975057D01*
X128785323Y-62977950D01*
X128789083Y-62980214D01*
X128789090Y-62980219D01*
X129192750Y-63223272D01*
X129211687Y-63238080D01*
X129304091Y-63330484D01*
X129304094Y-63330486D01*
X129326658Y-63353050D01*
X129346916Y-63363371D01*
X129348147Y-63363999D01*
X129361386Y-63372111D01*
X129380911Y-63386297D01*
X129388324Y-63388705D01*
X129388325Y-63388706D01*
X129403855Y-63393752D01*
X129418203Y-63399694D01*
X129439696Y-63410646D01*
X129463528Y-63414420D01*
X129478619Y-63418044D01*
X129486390Y-63420568D01*
X129494158Y-63423093D01*
X129494159Y-63423093D01*
X129501567Y-63425500D01*
X129533481Y-63425500D01*
X129628433Y-63425500D01*
X129997360Y-63425500D01*
X130046980Y-63438833D01*
X130083235Y-63475240D01*
X130096359Y-63524916D01*
X130081043Y-67169950D01*
X130081043Y-67169961D01*
X130081030Y-67173224D01*
X130089739Y-67240987D01*
X130106369Y-67303540D01*
X130107613Y-67306551D01*
X130107615Y-67306556D01*
X130129963Y-67360635D01*
X130129965Y-67360638D01*
X130132463Y-67366683D01*
X130136452Y-67371867D01*
X130136453Y-67371868D01*
X130145675Y-67383851D01*
X130174131Y-67420828D01*
X130220016Y-67466480D01*
X130274373Y-67507873D01*
X130337649Y-67533644D01*
X130390448Y-67547393D01*
X130428779Y-67567061D01*
X130455126Y-67601148D01*
X130464500Y-67643198D01*
X130464500Y-70543745D01*
X130463971Y-70552197D01*
X130463857Y-70552758D01*
X130463514Y-70559762D01*
X130463973Y-70564199D01*
X130464500Y-70574387D01*
X130464500Y-70801466D01*
X130464123Y-70810094D01*
X130460736Y-70848807D01*
X130468472Y-70877679D01*
X130470795Y-70886349D01*
X130472664Y-70894778D01*
X130477907Y-70924515D01*
X130477908Y-70924519D01*
X130479412Y-70933045D01*
X130483741Y-70940544D01*
X130485739Y-70946031D01*
X130488204Y-70951317D01*
X130490446Y-70959684D01*
X130495414Y-70966779D01*
X130495415Y-70966781D01*
X130512732Y-70991512D01*
X130517371Y-70998793D01*
X130536806Y-71032455D01*
X130543443Y-71038024D01*
X130566570Y-71057430D01*
X130572938Y-71063264D01*
X130573828Y-71064154D01*
X130599610Y-71109139D01*
X130616286Y-71172984D01*
X130619500Y-71198002D01*
X130619500Y-71290516D01*
X130619500Y-71290532D01*
X130619501Y-71293372D01*
X130619828Y-71296193D01*
X130619829Y-71296207D01*
X130621460Y-71310262D01*
X130622318Y-71317662D01*
X130666187Y-71417016D01*
X130742984Y-71493813D01*
X130842338Y-71537682D01*
X130866627Y-71540500D01*
X131233372Y-71540499D01*
X131257662Y-71537682D01*
X131357016Y-71493813D01*
X131433813Y-71417016D01*
X131477682Y-71317662D01*
X131480500Y-71293373D01*
X131480499Y-70866628D01*
X131477682Y-70842338D01*
X131433813Y-70742984D01*
X131357016Y-70666187D01*
X131357774Y-70665428D01*
X131327926Y-70628331D01*
X131322659Y-70571465D01*
X131349678Y-70521151D01*
X131417326Y-70453503D01*
X131417325Y-70453503D01*
X131423813Y-70447016D01*
X131467682Y-70347662D01*
X131470500Y-70323373D01*
X131470499Y-69896628D01*
X131467682Y-69872338D01*
X131423813Y-69772984D01*
X131350832Y-69700003D01*
X131325210Y-69655623D01*
X131325210Y-69604377D01*
X131350833Y-69559996D01*
X131372888Y-69537941D01*
X131423813Y-69487016D01*
X131467682Y-69387662D01*
X131470500Y-69363373D01*
X131470499Y-68936628D01*
X131467682Y-68912338D01*
X131423813Y-68812984D01*
X131347016Y-68736187D01*
X131322214Y-68725236D01*
X131254473Y-68695325D01*
X131254470Y-68695324D01*
X131247662Y-68692318D01*
X131240264Y-68691459D01*
X131240262Y-68691459D01*
X131226221Y-68689830D01*
X131226213Y-68689829D01*
X131223373Y-68689500D01*
X131220508Y-68689500D01*
X131214500Y-68689500D01*
X131165000Y-68676237D01*
X131128763Y-68640000D01*
X131115500Y-68590500D01*
X131115500Y-68234052D01*
X131128123Y-68185679D01*
X131162773Y-68149641D01*
X131210613Y-68135128D01*
X131259445Y-68145842D01*
X131296815Y-68179050D01*
X131304569Y-68190654D01*
X131316496Y-68208504D01*
X131366278Y-68241767D01*
X131410180Y-68250500D01*
X131984962Y-68250500D01*
X131989820Y-68250500D01*
X132033722Y-68241767D01*
X132044994Y-68234234D01*
X132099995Y-68217548D01*
X132154997Y-68234230D01*
X132158169Y-68236349D01*
X132166278Y-68241767D01*
X132210180Y-68250500D01*
X132784962Y-68250500D01*
X132789820Y-68250500D01*
X132833722Y-68241767D01*
X132837324Y-68239360D01*
X132877897Y-68232815D01*
X132921459Y-68246561D01*
X132954212Y-68278401D01*
X133006123Y-68359975D01*
X133032295Y-68401102D01*
X133034022Y-68403815D01*
X133049500Y-68456966D01*
X133049500Y-68958175D01*
X133041964Y-68996061D01*
X133020503Y-69028179D01*
X132647207Y-69401473D01*
X132632213Y-69413780D01*
X132627504Y-69416926D01*
X132627501Y-69416928D01*
X132619399Y-69422343D01*
X132613985Y-69430444D01*
X132613981Y-69430449D01*
X132605480Y-69443171D01*
X132605422Y-69443260D01*
X132605422Y-69443261D01*
X132569450Y-69497097D01*
X132569448Y-69497100D01*
X132564034Y-69505204D01*
X132562132Y-69514761D01*
X132562131Y-69514766D01*
X132548194Y-69584834D01*
X132544592Y-69602944D01*
X132546494Y-69612506D01*
X132547598Y-69618056D01*
X132549500Y-69637370D01*
X132549500Y-72209781D01*
X132546396Y-72234370D01*
X132544951Y-72238470D01*
X132544243Y-72242769D01*
X132544243Y-72242771D01*
X132469371Y-72697683D01*
X132469369Y-72697696D01*
X132468793Y-72701201D01*
X132468725Y-72704767D01*
X132468725Y-72704771D01*
X132468669Y-72707709D01*
X132467469Y-72721300D01*
X132466653Y-72726453D01*
X132464508Y-72740000D01*
X132465727Y-72747697D01*
X132483065Y-72857170D01*
X132484354Y-72865304D01*
X132487888Y-72872239D01*
X132487891Y-72872249D01*
X132535434Y-72965555D01*
X132546149Y-73014386D01*
X132531636Y-73062227D01*
X132495599Y-73096877D01*
X132447225Y-73109500D01*
X132354768Y-73109500D01*
X132316882Y-73101964D01*
X132284766Y-73080505D01*
X131917556Y-72713296D01*
X131895599Y-72679955D01*
X131888596Y-72640651D01*
X131891653Y-72526151D01*
X131895125Y-72396128D01*
X131894776Y-72392858D01*
X131894692Y-72390750D01*
X131894464Y-72386482D01*
X131895492Y-72380000D01*
X131875646Y-72254696D01*
X131818050Y-72141658D01*
X131728342Y-72051950D01*
X131660972Y-72017623D01*
X131622244Y-71997890D01*
X131622243Y-71997889D01*
X131615304Y-71994354D01*
X131607610Y-71993135D01*
X131607609Y-71993135D01*
X131497697Y-71975727D01*
X131490000Y-71974508D01*
X131482303Y-71975727D01*
X131372390Y-71993135D01*
X131372387Y-71993135D01*
X131364696Y-71994354D01*
X131357758Y-71997888D01*
X131357755Y-71997890D01*
X131258597Y-72048414D01*
X131258595Y-72048415D01*
X131251658Y-72051950D01*
X131246154Y-72057453D01*
X131246151Y-72057456D01*
X131167456Y-72136151D01*
X131167453Y-72136154D01*
X131161950Y-72141658D01*
X131158415Y-72148595D01*
X131158414Y-72148597D01*
X131107890Y-72247755D01*
X131107888Y-72247758D01*
X131104354Y-72254696D01*
X131103135Y-72262387D01*
X131103135Y-72262390D01*
X131085727Y-72372303D01*
X131084508Y-72380000D01*
X131085727Y-72387697D01*
X131101221Y-72485527D01*
X131104354Y-72505304D01*
X131107889Y-72512243D01*
X131107890Y-72512244D01*
X131111649Y-72519621D01*
X131161950Y-72618342D01*
X131167456Y-72623848D01*
X131182340Y-72638732D01*
X131198256Y-72659555D01*
X131199551Y-72661817D01*
X131201842Y-72665819D01*
X131204828Y-72669323D01*
X131204830Y-72669326D01*
X131239306Y-72709786D01*
X131252887Y-72731976D01*
X131254034Y-72737741D01*
X131270446Y-72762303D01*
X131272030Y-72764674D01*
X131298574Y-72804401D01*
X131309399Y-72820601D01*
X131322214Y-72829163D01*
X131337214Y-72841474D01*
X131386264Y-72890525D01*
X131431126Y-72935387D01*
X131436475Y-72941180D01*
X131452738Y-72960266D01*
X131462417Y-72971624D01*
X131467550Y-72976196D01*
X131488187Y-72994579D01*
X131494232Y-72999963D01*
X131495759Y-73000986D01*
X131503873Y-73008133D01*
X131776236Y-73280497D01*
X131803330Y-73331186D01*
X131797696Y-73388386D01*
X131761233Y-73432816D01*
X131706232Y-73449500D01*
X128504768Y-73449500D01*
X128466882Y-73441964D01*
X128434764Y-73420504D01*
X127914272Y-72900012D01*
X127888022Y-72853163D01*
X127890094Y-72799501D01*
X127891455Y-72795300D01*
X127995585Y-72473830D01*
X127995972Y-72470802D01*
X127999956Y-72459742D01*
X127999700Y-72459659D01*
X128002108Y-72452247D01*
X128005646Y-72445304D01*
X128025492Y-72320000D01*
X128005646Y-72194696D01*
X127948050Y-72081658D01*
X127858342Y-71991950D01*
X127745304Y-71934354D01*
X127737610Y-71933135D01*
X127737609Y-71933135D01*
X127627697Y-71915727D01*
X127620000Y-71914508D01*
X127612303Y-71915727D01*
X127502390Y-71933135D01*
X127502387Y-71933135D01*
X127494696Y-71934354D01*
X127487758Y-71937888D01*
X127487755Y-71937890D01*
X127388597Y-71988414D01*
X127388595Y-71988415D01*
X127381658Y-71991950D01*
X127376154Y-71997453D01*
X127376151Y-71997456D01*
X127297456Y-72076151D01*
X127297453Y-72076154D01*
X127291950Y-72081658D01*
X127288415Y-72088595D01*
X127288414Y-72088597D01*
X127237890Y-72187755D01*
X127237888Y-72187758D01*
X127234354Y-72194696D01*
X127233135Y-72202387D01*
X127233135Y-72202390D01*
X127223632Y-72262390D01*
X127214508Y-72320000D01*
X127215727Y-72327697D01*
X127230259Y-72419453D01*
X127234354Y-72445304D01*
X127237890Y-72452243D01*
X127240299Y-72459658D01*
X127240042Y-72459741D01*
X127244026Y-72470800D01*
X127244414Y-72473830D01*
X127245829Y-72478199D01*
X127245831Y-72478207D01*
X127364682Y-72845119D01*
X127369500Y-72875627D01*
X127369500Y-72925574D01*
X127367598Y-72944887D01*
X127364592Y-72960000D01*
X127366494Y-72969562D01*
X127382131Y-73048178D01*
X127382132Y-73048181D01*
X127384034Y-73057741D01*
X127389449Y-73065845D01*
X127389451Y-73065849D01*
X127391861Y-73069455D01*
X127396881Y-73076967D01*
X127439399Y-73140601D01*
X127452211Y-73149161D01*
X127467212Y-73161472D01*
X128158527Y-73852787D01*
X128170835Y-73867785D01*
X128179399Y-73880601D01*
X128230394Y-73914674D01*
X128262259Y-73935966D01*
X128360000Y-73955408D01*
X128375112Y-73952401D01*
X128394426Y-73950500D01*
X131835574Y-73950500D01*
X131854887Y-73952401D01*
X131870000Y-73955408D01*
X131967741Y-73935966D01*
X131999606Y-73914674D01*
X132050601Y-73880601D01*
X132059163Y-73867784D01*
X132071472Y-73852787D01*
X132284764Y-73639496D01*
X132316883Y-73618036D01*
X132354768Y-73610500D01*
X134468087Y-73610500D01*
X134476550Y-73611029D01*
X134477117Y-73611145D01*
X134484120Y-73611488D01*
X134488572Y-73611026D01*
X134498769Y-73610500D01*
X134577074Y-73610500D01*
X134596387Y-73612401D01*
X134611500Y-73615408D01*
X134709241Y-73595966D01*
X134717351Y-73590546D01*
X134717353Y-73590546D01*
X134741208Y-73574607D01*
X134741207Y-73574607D01*
X134764356Y-73559139D01*
X134783442Y-73546386D01*
X134813436Y-73532912D01*
X134974026Y-73490996D01*
X134983520Y-73489011D01*
X134995304Y-73487146D01*
X135010427Y-73479440D01*
X135016841Y-73476172D01*
X135023473Y-73473095D01*
X135032604Y-73469263D01*
X135038231Y-73465894D01*
X135038271Y-73465961D01*
X135046046Y-73461291D01*
X135069188Y-73449500D01*
X135108342Y-73429550D01*
X135198050Y-73339842D01*
X135255646Y-73226804D01*
X135275492Y-73101500D01*
X135255646Y-72976196D01*
X135198050Y-72863158D01*
X135108342Y-72773450D01*
X135042693Y-72740000D01*
X135002244Y-72719390D01*
X135002243Y-72719389D01*
X134995304Y-72715854D01*
X134987610Y-72714635D01*
X134987609Y-72714635D01*
X134877697Y-72697227D01*
X134870000Y-72696008D01*
X134862303Y-72697227D01*
X134752390Y-72714635D01*
X134752387Y-72714635D01*
X134744696Y-72715854D01*
X134737758Y-72719388D01*
X134737755Y-72719390D01*
X134638597Y-72769914D01*
X134638595Y-72769915D01*
X134631658Y-72773450D01*
X134626154Y-72778953D01*
X134626151Y-72778956D01*
X134547457Y-72857650D01*
X134547454Y-72857653D01*
X134541950Y-72863158D01*
X134538414Y-72870096D01*
X134538412Y-72870100D01*
X134519996Y-72906242D01*
X134507886Y-72923703D01*
X134508170Y-72923921D01*
X134505544Y-72927342D01*
X134502625Y-72930529D01*
X134500306Y-72934167D01*
X134500300Y-72934176D01*
X134446952Y-73017900D01*
X134418047Y-73063264D01*
X134417769Y-73063700D01*
X134381892Y-73097298D01*
X134334278Y-73109500D01*
X133292775Y-73109500D01*
X133244401Y-73096877D01*
X133208364Y-73062227D01*
X133193851Y-73014386D01*
X133204566Y-72965555D01*
X133252108Y-72872249D01*
X133252109Y-72872245D01*
X133255646Y-72865304D01*
X133257145Y-72855834D01*
X133258072Y-72853890D01*
X133259272Y-72850200D01*
X133259757Y-72850357D01*
X133281355Y-72805076D01*
X133329303Y-72775693D01*
X133384649Y-72777141D01*
X133390188Y-72779963D01*
X133473272Y-72793122D01*
X133500875Y-72797494D01*
X133515492Y-72799809D01*
X133530109Y-72797494D01*
X133532811Y-72797065D01*
X133640796Y-72779963D01*
X133753834Y-72722367D01*
X133843542Y-72632659D01*
X133901138Y-72519621D01*
X133920984Y-72394317D01*
X133901138Y-72269013D01*
X133897602Y-72262073D01*
X133897600Y-72262067D01*
X133880688Y-72228876D01*
X133870033Y-72178750D01*
X133885869Y-72130011D01*
X133923953Y-72095721D01*
X133926403Y-72094473D01*
X133987842Y-72063168D01*
X134077550Y-71973460D01*
X134135146Y-71860422D01*
X134154992Y-71735118D01*
X134151552Y-71713398D01*
X134156909Y-71662434D01*
X134187031Y-71620974D01*
X134233846Y-71600131D01*
X134325304Y-71585646D01*
X134438342Y-71528050D01*
X134528050Y-71438342D01*
X134585646Y-71325304D01*
X134588500Y-71326758D01*
X134611526Y-71293111D01*
X134663525Y-71271499D01*
X134718895Y-71281737D01*
X134766877Y-71306185D01*
X134782475Y-71316066D01*
X134793194Y-71324353D01*
X134797291Y-71326445D01*
X134797294Y-71326447D01*
X134815731Y-71335862D01*
X135132101Y-71497421D01*
X135154754Y-71517932D01*
X135157088Y-71515599D01*
X135163980Y-71522491D01*
X135169399Y-71530601D01*
X135252260Y-71585966D01*
X135325326Y-71600500D01*
X135325327Y-71600500D01*
X135334893Y-71602403D01*
X135350000Y-71605408D01*
X135359562Y-71603506D01*
X135359566Y-71603506D01*
X135365111Y-71602403D01*
X135384426Y-71600500D01*
X137365574Y-71600500D01*
X137384887Y-71602401D01*
X137400000Y-71605408D01*
X137497741Y-71585966D01*
X137533683Y-71561950D01*
X137580601Y-71530601D01*
X137589161Y-71517787D01*
X137601467Y-71502791D01*
X139100495Y-70003764D01*
X139151186Y-69976670D01*
X139208386Y-69982304D01*
X139252816Y-70018767D01*
X139269500Y-70073768D01*
X139269500Y-72655232D01*
X139261964Y-72693118D01*
X139240504Y-72725236D01*
X138345236Y-73620504D01*
X138313118Y-73641964D01*
X138275232Y-73649500D01*
X137655628Y-73649500D01*
X137625120Y-73644682D01*
X137512358Y-73608156D01*
X137512358Y-73608155D01*
X137512355Y-73608155D01*
X137258213Y-73525834D01*
X137258212Y-73525833D01*
X137253829Y-73524414D01*
X137250798Y-73524026D01*
X137239740Y-73520042D01*
X137239657Y-73520298D01*
X137232241Y-73517888D01*
X137225304Y-73514354D01*
X137217614Y-73513136D01*
X137217611Y-73513135D01*
X137107697Y-73495727D01*
X137100000Y-73494508D01*
X137092303Y-73495727D01*
X136982390Y-73513135D01*
X136982387Y-73513135D01*
X136974696Y-73514354D01*
X136967758Y-73517888D01*
X136967755Y-73517890D01*
X136868597Y-73568414D01*
X136868595Y-73568415D01*
X136861658Y-73571950D01*
X136856154Y-73577453D01*
X136856151Y-73577456D01*
X136777456Y-73656151D01*
X136777453Y-73656154D01*
X136771950Y-73661658D01*
X136768415Y-73668595D01*
X136768414Y-73668597D01*
X136717890Y-73767755D01*
X136717888Y-73767758D01*
X136714354Y-73774696D01*
X136713135Y-73782387D01*
X136713135Y-73782390D01*
X136696010Y-73890515D01*
X136694508Y-73900000D01*
X136695727Y-73907697D01*
X136711940Y-74010067D01*
X136714354Y-74025304D01*
X136717889Y-74032243D01*
X136717890Y-74032244D01*
X136734873Y-74065574D01*
X136771950Y-74138342D01*
X136861658Y-74228050D01*
X136974696Y-74285646D01*
X137100000Y-74305492D01*
X137225304Y-74285646D01*
X137232247Y-74282108D01*
X137239659Y-74279700D01*
X137239742Y-74279956D01*
X137250802Y-74275972D01*
X137253830Y-74275585D01*
X137571942Y-74172543D01*
X137625119Y-74155318D01*
X137655626Y-74150500D01*
X138385574Y-74150500D01*
X138404887Y-74152401D01*
X138420000Y-74155408D01*
X138517741Y-74135966D01*
X138555702Y-74110601D01*
X138600601Y-74080601D01*
X138609161Y-74067787D01*
X138621467Y-74052791D01*
X138841801Y-73832457D01*
X138896316Y-73804682D01*
X138956748Y-73814253D01*
X139000012Y-73857517D01*
X139009584Y-73917949D01*
X139005727Y-73942302D01*
X139004508Y-73950000D01*
X139005727Y-73957697D01*
X139020787Y-74052786D01*
X139024354Y-74075304D01*
X139027890Y-74082243D01*
X139030299Y-74089658D01*
X139030042Y-74089741D01*
X139034026Y-74100800D01*
X139034414Y-74103830D01*
X139035829Y-74108199D01*
X139035831Y-74108207D01*
X139154682Y-74475119D01*
X139159500Y-74505627D01*
X139159500Y-74685232D01*
X139151964Y-74723118D01*
X139130504Y-74755236D01*
X135945236Y-77940504D01*
X135913118Y-77961964D01*
X135875232Y-77969500D01*
X134064034Y-77969500D01*
X134009713Y-77953266D01*
X133772141Y-77797344D01*
X133756458Y-77784582D01*
X133755424Y-77783548D01*
X133749917Y-77778041D01*
X133742975Y-77774503D01*
X133742974Y-77774503D01*
X133722616Y-77764130D01*
X133713242Y-77758688D01*
X133707362Y-77754829D01*
X133704339Y-77752845D01*
X133701064Y-77751325D01*
X133701059Y-77751322D01*
X133663238Y-77733767D01*
X133663285Y-77733665D01*
X133659716Y-77732080D01*
X133643824Y-77723983D01*
X133643820Y-77723981D01*
X133636879Y-77720445D01*
X133629185Y-77719226D01*
X133629181Y-77719225D01*
X133519272Y-77701818D01*
X133511575Y-77700599D01*
X133503878Y-77701818D01*
X133393963Y-77719226D01*
X133393958Y-77719227D01*
X133386271Y-77720445D01*
X133379334Y-77723979D01*
X133371918Y-77726389D01*
X133371835Y-77726134D01*
X133360776Y-77730117D01*
X133357745Y-77730505D01*
X133353367Y-77731923D01*
X133353363Y-77731924D01*
X132986456Y-77850773D01*
X132955948Y-77855591D01*
X128580859Y-77855591D01*
X128542973Y-77848055D01*
X128510855Y-77826595D01*
X125794260Y-75110000D01*
X127224508Y-75110000D01*
X127225727Y-75117697D01*
X127238053Y-75195525D01*
X127244354Y-75235304D01*
X127301950Y-75348342D01*
X127391658Y-75438050D01*
X127446880Y-75466186D01*
X127462475Y-75476066D01*
X127473194Y-75484353D01*
X127477291Y-75486445D01*
X127477294Y-75486447D01*
X127551108Y-75524141D01*
X127788757Y-75645500D01*
X127812090Y-75657415D01*
X127835075Y-75674130D01*
X127839399Y-75680601D01*
X127885591Y-75711465D01*
X127922259Y-75735966D01*
X128020000Y-75755408D01*
X128035112Y-75752401D01*
X128054426Y-75750500D01*
X132415574Y-75750500D01*
X132434887Y-75752401D01*
X132450000Y-75755408D01*
X132547741Y-75735966D01*
X132584409Y-75711465D01*
X132630601Y-75680601D01*
X132639161Y-75667787D01*
X132651467Y-75652791D01*
X132876971Y-75427287D01*
X132909276Y-75405751D01*
X133502530Y-75161469D01*
X133518311Y-75156468D01*
X133880051Y-75074377D01*
X133923145Y-75074217D01*
X133962226Y-75092381D01*
X134007222Y-75126907D01*
X134012375Y-75130861D01*
X134146291Y-75186330D01*
X134290000Y-75205250D01*
X134433709Y-75186330D01*
X134567625Y-75130861D01*
X134682621Y-75042621D01*
X134682901Y-75042255D01*
X134711666Y-75023036D01*
X134749552Y-75015500D01*
X134783663Y-75015500D01*
X134821549Y-75023036D01*
X134853667Y-75044496D01*
X134887984Y-75078813D01*
X134987338Y-75122682D01*
X135011627Y-75125500D01*
X135438372Y-75125499D01*
X135462662Y-75122682D01*
X135562016Y-75078813D01*
X135574219Y-75066608D01*
X135618131Y-75041112D01*
X135668909Y-75040738D01*
X135930486Y-75108087D01*
X135933961Y-75108474D01*
X135935375Y-75108734D01*
X135948336Y-75112724D01*
X135948338Y-75112718D01*
X135955522Y-75114672D01*
X135962338Y-75117682D01*
X135986627Y-75120500D01*
X136413372Y-75120499D01*
X136437662Y-75117682D01*
X136537016Y-75073813D01*
X136613813Y-74997016D01*
X136657682Y-74897662D01*
X136660500Y-74873373D01*
X136660499Y-74506628D01*
X136657682Y-74482338D01*
X136613813Y-74382984D01*
X136537016Y-74306187D01*
X136520168Y-74298748D01*
X136444473Y-74265325D01*
X136444470Y-74265324D01*
X136437662Y-74262318D01*
X136430264Y-74261459D01*
X136430262Y-74261459D01*
X136416221Y-74259830D01*
X136416213Y-74259829D01*
X136413373Y-74259500D01*
X136410508Y-74259500D01*
X135989483Y-74259500D01*
X135989465Y-74259500D01*
X135986628Y-74259501D01*
X135983807Y-74259828D01*
X135983792Y-74259829D01*
X135969733Y-74261460D01*
X135969730Y-74261460D01*
X135962338Y-74262318D01*
X135955527Y-74265324D01*
X135948341Y-74267280D01*
X135948339Y-74267274D01*
X135935387Y-74271262D01*
X135933948Y-74271525D01*
X135930489Y-74271912D01*
X135927126Y-74272777D01*
X135927114Y-74272780D01*
X135660956Y-74341308D01*
X135610180Y-74340935D01*
X135576918Y-74321622D01*
X135576072Y-74322858D01*
X135568500Y-74317671D01*
X135562016Y-74311187D01*
X135540014Y-74301472D01*
X135469473Y-74270325D01*
X135469470Y-74270324D01*
X135462662Y-74267318D01*
X135455264Y-74266459D01*
X135455262Y-74266459D01*
X135441221Y-74264830D01*
X135441213Y-74264829D01*
X135438373Y-74264500D01*
X135435508Y-74264500D01*
X135014483Y-74264500D01*
X135014465Y-74264500D01*
X135011628Y-74264501D01*
X135008807Y-74264828D01*
X135008792Y-74264829D01*
X134994733Y-74266460D01*
X134994730Y-74266460D01*
X134987338Y-74267318D01*
X134980529Y-74270324D01*
X134980527Y-74270325D01*
X134896374Y-74307482D01*
X134896372Y-74307483D01*
X134887984Y-74311187D01*
X134881503Y-74317667D01*
X134881494Y-74317674D01*
X134874966Y-74324203D01*
X134826390Y-74350851D01*
X134771103Y-74347226D01*
X134726426Y-74314467D01*
X134682621Y-74257379D01*
X134655885Y-74236864D01*
X134572773Y-74173089D01*
X134572771Y-74173088D01*
X134567625Y-74169139D01*
X134561626Y-74166654D01*
X134439702Y-74116152D01*
X134439699Y-74116151D01*
X134433709Y-74113670D01*
X134427278Y-74112823D01*
X134427277Y-74112823D01*
X134296433Y-74095597D01*
X134290000Y-74094750D01*
X134283567Y-74095597D01*
X134152722Y-74112823D01*
X134152719Y-74112823D01*
X134146291Y-74113670D01*
X134140302Y-74116150D01*
X134140297Y-74116152D01*
X134018373Y-74166654D01*
X134018369Y-74166656D01*
X134012375Y-74169139D01*
X134007228Y-74173088D01*
X134007227Y-74173089D01*
X133929864Y-74232451D01*
X133883800Y-74251884D01*
X133834114Y-74246331D01*
X133533876Y-74131064D01*
X133533872Y-74131063D01*
X133529421Y-74129354D01*
X133524722Y-74128529D01*
X133524714Y-74128527D01*
X133516350Y-74127059D01*
X133495582Y-74121014D01*
X133459702Y-74106152D01*
X133459699Y-74106151D01*
X133453709Y-74103670D01*
X133447278Y-74102823D01*
X133447277Y-74102823D01*
X133337283Y-74088342D01*
X133310000Y-74084750D01*
X133282717Y-74088342D01*
X133172722Y-74102823D01*
X133172719Y-74102823D01*
X133166291Y-74103670D01*
X133160302Y-74106150D01*
X133160297Y-74106152D01*
X133038373Y-74156654D01*
X133038369Y-74156656D01*
X133032375Y-74159139D01*
X133027231Y-74163086D01*
X133027226Y-74163089D01*
X132922527Y-74243428D01*
X132922523Y-74243431D01*
X132917379Y-74247379D01*
X132913431Y-74252523D01*
X132913428Y-74252527D01*
X132833087Y-74357229D01*
X132833084Y-74357232D01*
X132829139Y-74362375D01*
X132826658Y-74368363D01*
X132826657Y-74368366D01*
X132810172Y-74408165D01*
X132801140Y-74425104D01*
X132794901Y-74434483D01*
X132794896Y-74434492D01*
X132792207Y-74438535D01*
X132790358Y-74443025D01*
X132790355Y-74443031D01*
X132544246Y-75040723D01*
X132522706Y-75073032D01*
X132446476Y-75149264D01*
X132375237Y-75220503D01*
X132343119Y-75241964D01*
X132305233Y-75249500D01*
X128216272Y-75249500D01*
X128164583Y-75234935D01*
X128128103Y-75195525D01*
X128086770Y-75114585D01*
X128004354Y-74953195D01*
X127996061Y-74942468D01*
X127986187Y-74926879D01*
X127958050Y-74871658D01*
X127868342Y-74781950D01*
X127755304Y-74724354D01*
X127747610Y-74723135D01*
X127747609Y-74723135D01*
X127637697Y-74705727D01*
X127630000Y-74704508D01*
X127622303Y-74705727D01*
X127512390Y-74723135D01*
X127512387Y-74723135D01*
X127504696Y-74724354D01*
X127497758Y-74727888D01*
X127497755Y-74727890D01*
X127398597Y-74778414D01*
X127398595Y-74778415D01*
X127391658Y-74781950D01*
X127386154Y-74787453D01*
X127386151Y-74787456D01*
X127307456Y-74866151D01*
X127307453Y-74866154D01*
X127301950Y-74871658D01*
X127298415Y-74878595D01*
X127298414Y-74878597D01*
X127247890Y-74977755D01*
X127247888Y-74977758D01*
X127244354Y-74984696D01*
X127243135Y-74992387D01*
X127243135Y-74992390D01*
X127227260Y-75092622D01*
X127224508Y-75110000D01*
X125794260Y-75110000D01*
X124709496Y-74025236D01*
X124688036Y-73993118D01*
X124680500Y-73955232D01*
X124680500Y-73325626D01*
X124685318Y-73295119D01*
X124715987Y-73200438D01*
X124805585Y-72923830D01*
X124805972Y-72920802D01*
X124809956Y-72909742D01*
X124809700Y-72909659D01*
X124812108Y-72902247D01*
X124815646Y-72895304D01*
X124835492Y-72770000D01*
X124815646Y-72644696D01*
X124758050Y-72531658D01*
X124668342Y-72441950D01*
X124584851Y-72399409D01*
X124562244Y-72387890D01*
X124562243Y-72387889D01*
X124555304Y-72384354D01*
X124547610Y-72383135D01*
X124547609Y-72383135D01*
X124437697Y-72365727D01*
X124430000Y-72364508D01*
X124422303Y-72365727D01*
X124312390Y-72383135D01*
X124312387Y-72383135D01*
X124304696Y-72384354D01*
X124297758Y-72387888D01*
X124297755Y-72387890D01*
X124198597Y-72438414D01*
X124198595Y-72438415D01*
X124191658Y-72441950D01*
X124186154Y-72447453D01*
X124186151Y-72447456D01*
X124107456Y-72526151D01*
X124107453Y-72526154D01*
X124101950Y-72531658D01*
X124098415Y-72538595D01*
X124098414Y-72538597D01*
X124047890Y-72637755D01*
X124047888Y-72637758D01*
X124044354Y-72644696D01*
X124043135Y-72652387D01*
X124043135Y-72652390D01*
X124028040Y-72747697D01*
X124024508Y-72770000D01*
X116800500Y-72770000D01*
X116800500Y-64677586D01*
X116800568Y-64675000D01*
X117644475Y-64675000D01*
X117644706Y-64678377D01*
X117664320Y-64965131D01*
X117664321Y-64965142D01*
X117664552Y-64968511D01*
X117665240Y-64971824D01*
X117665241Y-64971828D01*
X117723718Y-65253238D01*
X117723721Y-65253250D01*
X117724408Y-65256554D01*
X117725537Y-65259732D01*
X117725540Y-65259741D01*
X117778537Y-65408860D01*
X117822928Y-65533764D01*
X117824480Y-65536759D01*
X117956726Y-65791982D01*
X117956730Y-65791988D01*
X117958278Y-65794976D01*
X117960221Y-65797729D01*
X117960225Y-65797735D01*
X118125986Y-66032566D01*
X118125991Y-66032573D01*
X118127935Y-66035326D01*
X118328740Y-66250335D01*
X118331356Y-66252463D01*
X118331360Y-66252467D01*
X118419215Y-66323942D01*
X118556951Y-66435999D01*
X118808318Y-66588859D01*
X119078159Y-66706067D01*
X119361445Y-66785440D01*
X119652902Y-66825500D01*
X119943721Y-66825500D01*
X119947098Y-66825500D01*
X120238555Y-66785440D01*
X120521841Y-66706067D01*
X120791682Y-66588859D01*
X121043049Y-66435999D01*
X121271260Y-66250335D01*
X121472065Y-66035326D01*
X121641722Y-65794976D01*
X121777072Y-65533764D01*
X121875592Y-65256554D01*
X121901094Y-65133830D01*
X128545624Y-65133830D01*
X128546014Y-65140034D01*
X128546014Y-65140041D01*
X128555553Y-65291649D01*
X128555944Y-65297860D01*
X128561892Y-65316167D01*
X128596879Y-65423848D01*
X128606732Y-65454171D01*
X128610069Y-65459430D01*
X128610070Y-65459431D01*
X128678249Y-65566864D01*
X128694798Y-65592940D01*
X128814607Y-65705448D01*
X128958632Y-65784627D01*
X129117823Y-65825500D01*
X129237820Y-65825500D01*
X129240925Y-65825500D01*
X129363058Y-65810071D01*
X129515871Y-65749568D01*
X129648837Y-65652963D01*
X129753600Y-65526326D01*
X129823579Y-65377613D01*
X129854376Y-65216170D01*
X129844056Y-65052140D01*
X129793268Y-64895829D01*
X129705202Y-64757060D01*
X129585393Y-64644552D01*
X129574097Y-64638342D01*
X129446825Y-64568373D01*
X129446824Y-64568372D01*
X129441368Y-64565373D01*
X129435340Y-64563825D01*
X129435337Y-64563824D01*
X129288204Y-64526047D01*
X129288200Y-64526046D01*
X129282177Y-64524500D01*
X129159075Y-64524500D01*
X129156000Y-64524888D01*
X129155991Y-64524889D01*
X129043122Y-64539148D01*
X129043119Y-64539148D01*
X129036942Y-64539929D01*
X129031158Y-64542218D01*
X129031150Y-64542221D01*
X128889918Y-64598139D01*
X128889911Y-64598142D01*
X128884129Y-64600432D01*
X128879097Y-64604087D01*
X128879093Y-64604090D01*
X128772431Y-64681585D01*
X128751163Y-64697037D01*
X128747196Y-64701831D01*
X128747194Y-64701834D01*
X128650369Y-64818875D01*
X128650365Y-64818880D01*
X128646400Y-64823674D01*
X128643749Y-64829306D01*
X128643748Y-64829309D01*
X128579072Y-64966751D01*
X128579069Y-64966758D01*
X128576421Y-64972387D01*
X128575254Y-64978500D01*
X128575253Y-64978506D01*
X128546790Y-65127713D01*
X128546789Y-65127719D01*
X128545624Y-65133830D01*
X121901094Y-65133830D01*
X121935448Y-64968511D01*
X121955525Y-64675000D01*
X121935448Y-64381489D01*
X121882801Y-64128137D01*
X121876281Y-64096761D01*
X121876280Y-64096759D01*
X121875592Y-64093446D01*
X121777072Y-63816236D01*
X121641722Y-63555024D01*
X121620470Y-63524916D01*
X121474013Y-63317433D01*
X121474009Y-63317428D01*
X121472065Y-63314674D01*
X121271260Y-63099665D01*
X121268644Y-63097537D01*
X121268639Y-63097532D01*
X121109625Y-62968165D01*
X121043049Y-62914001D01*
X120791682Y-62761141D01*
X120788586Y-62759796D01*
X120788578Y-62759792D01*
X120524942Y-62645280D01*
X120521841Y-62643933D01*
X120518594Y-62643023D01*
X120518585Y-62643020D01*
X120241803Y-62565470D01*
X120241802Y-62565469D01*
X120238555Y-62564560D01*
X120235219Y-62564101D01*
X120235212Y-62564100D01*
X119950443Y-62524959D01*
X119950431Y-62524958D01*
X119947098Y-62524500D01*
X119652902Y-62524500D01*
X119649568Y-62524958D01*
X119649556Y-62524959D01*
X119364787Y-62564100D01*
X119364777Y-62564101D01*
X119361445Y-62564560D01*
X119358200Y-62565469D01*
X119358196Y-62565470D01*
X119081414Y-62643020D01*
X119081400Y-62643024D01*
X119078159Y-62643933D01*
X119075061Y-62645278D01*
X119075057Y-62645280D01*
X118811421Y-62759792D01*
X118811406Y-62759799D01*
X118808318Y-62761141D01*
X118805428Y-62762898D01*
X118805423Y-62762901D01*
X118559844Y-62912241D01*
X118559836Y-62912246D01*
X118556951Y-62914001D01*
X118554328Y-62916134D01*
X118554325Y-62916137D01*
X118331360Y-63097532D01*
X118331347Y-63097543D01*
X118328740Y-63099665D01*
X118326443Y-63102124D01*
X118326436Y-63102131D01*
X118168065Y-63271705D01*
X118127935Y-63314674D01*
X118125997Y-63317419D01*
X118125986Y-63317433D01*
X117960225Y-63552264D01*
X117960217Y-63552276D01*
X117958278Y-63555024D01*
X117956733Y-63558004D01*
X117956726Y-63558017D01*
X117832966Y-63796863D01*
X117822928Y-63816236D01*
X117821797Y-63819416D01*
X117821797Y-63819418D01*
X117725540Y-64090258D01*
X117725536Y-64090271D01*
X117724408Y-64093446D01*
X117723722Y-64096745D01*
X117723718Y-64096761D01*
X117665241Y-64378171D01*
X117664552Y-64381489D01*
X117664321Y-64384855D01*
X117664320Y-64384868D01*
X117646763Y-64641549D01*
X117644475Y-64675000D01*
X116800568Y-64675000D01*
X116800636Y-64672405D01*
X116802636Y-64634243D01*
X116807500Y-64541440D01*
X116817698Y-64359838D01*
X116818757Y-64349938D01*
X116842554Y-64199693D01*
X116842667Y-64199002D01*
X116869933Y-64038529D01*
X116871900Y-64029518D01*
X116912208Y-63879089D01*
X116912649Y-63877504D01*
X116956646Y-63724786D01*
X116959336Y-63716762D01*
X117015696Y-63569939D01*
X117016576Y-63567734D01*
X117076812Y-63422311D01*
X117080048Y-63415292D01*
X117151788Y-63274496D01*
X117153270Y-63271705D01*
X117229023Y-63134640D01*
X117232603Y-63128674D01*
X117318900Y-62995788D01*
X117321101Y-62992547D01*
X117411474Y-62865178D01*
X117415244Y-62860208D01*
X117515089Y-62736909D01*
X117518123Y-62733342D01*
X117622067Y-62617029D01*
X117625812Y-62613067D01*
X117738067Y-62500812D01*
X117742029Y-62497067D01*
X117858342Y-62393123D01*
X117861909Y-62390089D01*
X117985208Y-62290244D01*
X117990178Y-62286474D01*
X118117547Y-62196101D01*
X118120788Y-62193900D01*
X118253674Y-62107603D01*
X118259640Y-62104023D01*
X118396705Y-62028270D01*
X118399496Y-62026788D01*
X118540292Y-61955048D01*
X118547311Y-61951812D01*
X118692734Y-61891576D01*
X118694939Y-61890696D01*
X118841762Y-61834336D01*
X118849786Y-61831646D01*
X119002504Y-61787649D01*
X119004089Y-61787208D01*
X119154518Y-61746900D01*
X119163529Y-61744933D01*
X119324002Y-61717667D01*
X119324693Y-61717554D01*
X119474938Y-61693757D01*
X119484838Y-61692698D01*
X119666494Y-61682496D01*
X119797405Y-61675635D01*
X119802586Y-61675500D01*
X158797414Y-61675500D01*
X158802594Y-61675635D01*
G37*
%TD.AperFunction*%
%TD*%
%TA.AperFunction,Conductor*%
%TO.N,/PB9*%
G36*
X133306751Y-67349472D02*
G01*
X133311028Y-67355119D01*
X133573094Y-68094623D01*
X133573691Y-68099851D01*
X133571937Y-68104812D01*
X133403448Y-68369581D01*
X133399207Y-68373556D01*
X133393577Y-68375000D01*
X133206423Y-68375000D01*
X133200793Y-68373556D01*
X133196552Y-68369581D01*
X133028062Y-68104812D01*
X133026308Y-68099851D01*
X133026904Y-68094625D01*
X133288972Y-67355118D01*
X133293249Y-67349472D01*
X133300000Y-67347327D01*
X133306751Y-67349472D01*
G37*
%TD.AperFunction*%
%TD*%
%TA.AperFunction,Conductor*%
%TO.N,+3V3*%
G36*
X132437141Y-62537439D02*
G01*
X132483017Y-62582983D01*
X132499736Y-62645428D01*
X132495912Y-64465338D01*
X132488049Y-64508531D01*
X132465627Y-64546277D01*
X132447033Y-64567735D01*
X132447028Y-64567742D01*
X132441223Y-64574442D01*
X132437539Y-64582507D01*
X132437536Y-64582513D01*
X132384644Y-64698331D01*
X132384642Y-64698335D01*
X132380958Y-64706404D01*
X132360312Y-64850000D01*
X132380958Y-64993596D01*
X132384643Y-65001665D01*
X132384644Y-65001668D01*
X132437537Y-65117488D01*
X132437538Y-65117490D01*
X132441223Y-65125558D01*
X132447029Y-65132258D01*
X132447030Y-65132260D01*
X132464012Y-65151858D01*
X132486526Y-65189850D01*
X132494299Y-65233321D01*
X132490257Y-67157405D01*
X132473749Y-67218962D01*
X132428847Y-67264189D01*
X132367410Y-67281140D01*
X130465680Y-67298830D01*
X130403043Y-67282519D01*
X130357158Y-67236867D01*
X130340528Y-67174314D01*
X130348684Y-65233321D01*
X130359486Y-62662329D01*
X130376078Y-62600885D01*
X130420967Y-62555765D01*
X130482323Y-62538856D01*
X132374577Y-62521172D01*
X132437141Y-62537439D01*
G37*
%TD.AperFunction*%
%TD*%
%TA.AperFunction,Conductor*%
%TO.N,/PB2*%
G36*
X142198281Y-63544300D02*
G01*
X142202505Y-63550320D01*
X142317935Y-63934236D01*
X142317310Y-63942601D01*
X142311247Y-63948398D01*
X142094517Y-64039109D01*
X142090000Y-64040016D01*
X142085483Y-64039109D01*
X141869200Y-63948585D01*
X141863028Y-63942549D01*
X141862675Y-63933925D01*
X141997256Y-63549819D01*
X142001530Y-63544146D01*
X142008298Y-63541989D01*
X142191300Y-63541989D01*
X142198281Y-63544300D01*
G37*
%TD.AperFunction*%
%TD*%
%TA.AperFunction,Conductor*%
%TO.N,/LCD.SDA*%
G36*
X146133809Y-74987085D02*
G01*
X146359160Y-75242255D01*
X146362090Y-75249999D01*
X146359160Y-75257744D01*
X146133810Y-75512913D01*
X146126993Y-75516704D01*
X146119309Y-75515368D01*
X145830969Y-75353354D01*
X145826602Y-75349063D01*
X145825000Y-75343154D01*
X145825000Y-75156846D01*
X145826602Y-75150937D01*
X145830969Y-75146646D01*
X146119310Y-74984630D01*
X146126993Y-74983295D01*
X146133809Y-74987085D01*
G37*
%TD.AperFunction*%
%TD*%
%TA.AperFunction,Conductor*%
%TO.N,/NRST*%
G36*
X133619017Y-77882847D02*
G01*
X133891490Y-78061674D01*
X133975079Y-78116535D01*
X133978955Y-78120758D01*
X133980359Y-78126316D01*
X133980359Y-78309167D01*
X133977244Y-78317116D01*
X133969557Y-78320831D01*
X133851457Y-78329923D01*
X133524122Y-78355124D01*
X133517914Y-78353885D01*
X133513261Y-78349593D01*
X133511524Y-78343508D01*
X133510584Y-78108462D01*
X133511490Y-78103903D01*
X133601809Y-77888110D01*
X133606098Y-77882903D01*
X133612551Y-77880929D01*
X133619017Y-77882847D01*
G37*
%TD.AperFunction*%
%TD*%
%TA.AperFunction,Conductor*%
%TO.N,/PA11*%
G36*
X136598471Y-63564146D02*
G01*
X136602744Y-63569820D01*
X136737324Y-63953923D01*
X136736971Y-63962549D01*
X136730799Y-63968585D01*
X136514517Y-64059109D01*
X136510000Y-64060016D01*
X136505483Y-64059109D01*
X136288752Y-63968398D01*
X136282689Y-63962601D01*
X136282064Y-63954237D01*
X136397495Y-63570319D01*
X136401719Y-63564300D01*
X136408700Y-63561989D01*
X136591702Y-63561989D01*
X136598471Y-63564146D01*
G37*
%TD.AperFunction*%
%TD*%
%TA.AperFunction,Conductor*%
%TO.N,/SWDIO-L*%
G36*
X135001997Y-64000642D02*
G01*
X135304389Y-64114772D01*
X135309382Y-64118395D01*
X135311838Y-64124055D01*
X135311073Y-64130178D01*
X135221861Y-64346486D01*
X135219309Y-64350307D01*
X135215482Y-64352851D01*
X134999726Y-64441286D01*
X134990837Y-64441280D01*
X134984517Y-64435028D01*
X134855248Y-64130178D01*
X134806897Y-64016156D01*
X134806352Y-64008624D01*
X134810522Y-64002327D01*
X134817670Y-63999889D01*
X134997867Y-63999889D01*
X135001997Y-64000642D01*
G37*
%TD.AperFunction*%
%TD*%
%TA.AperFunction,Conductor*%
%TO.N,/LCD.CS*%
G36*
X144506751Y-67349472D02*
G01*
X144511028Y-67355119D01*
X144773094Y-68094623D01*
X144773691Y-68099851D01*
X144771937Y-68104812D01*
X144603448Y-68369581D01*
X144599207Y-68373556D01*
X144593577Y-68375000D01*
X144406423Y-68375000D01*
X144400793Y-68373556D01*
X144396552Y-68369581D01*
X144228062Y-68104812D01*
X144226308Y-68099851D01*
X144226904Y-68094625D01*
X144488972Y-67355118D01*
X144493249Y-67349472D01*
X144500000Y-67347327D01*
X144506751Y-67349472D01*
G37*
%TD.AperFunction*%
%TD*%
%TA.AperFunction,Conductor*%
%TO.N,/SPI2.MOSI*%
G36*
X152834733Y-66719604D02*
G01*
X153196084Y-66904134D01*
X153201733Y-66910488D01*
X153201588Y-66918991D01*
X153112564Y-67136176D01*
X153110011Y-67140011D01*
X153106176Y-67142564D01*
X152888991Y-67231588D01*
X152880488Y-67231733D01*
X152874134Y-67226084D01*
X152689604Y-66864733D01*
X152688468Y-66857588D01*
X152691750Y-66851142D01*
X152821142Y-66721750D01*
X152827588Y-66718468D01*
X152834733Y-66719604D01*
G37*
%TD.AperFunction*%
%TD*%
%TA.AperFunction,Conductor*%
%TO.N,/PB6*%
G36*
X134906751Y-67349472D02*
G01*
X134911028Y-67355119D01*
X135173094Y-68094623D01*
X135173691Y-68099851D01*
X135171937Y-68104812D01*
X135003448Y-68369581D01*
X134999207Y-68373556D01*
X134993577Y-68375000D01*
X134806423Y-68375000D01*
X134800793Y-68373556D01*
X134796552Y-68369581D01*
X134628062Y-68104812D01*
X134626308Y-68099851D01*
X134626904Y-68094625D01*
X134888972Y-67355118D01*
X134893249Y-67349472D01*
X134900000Y-67347327D01*
X134906751Y-67349472D01*
G37*
%TD.AperFunction*%
%TD*%
%TA.AperFunction,Conductor*%
%TO.N,/PA10*%
G36*
X137307340Y-63050256D02*
G01*
X137311583Y-63055960D01*
X137565045Y-63793951D01*
X137565511Y-63799724D01*
X137563152Y-63805014D01*
X137368865Y-64050409D01*
X137363582Y-64054180D01*
X137357102Y-64054556D01*
X137351419Y-64051419D01*
X137219772Y-63919772D01*
X137219771Y-63919771D01*
X137219290Y-63919290D01*
X137185505Y-63898547D01*
X137033076Y-63804958D01*
X137028165Y-63798881D01*
X137028174Y-63791069D01*
X137289494Y-63055840D01*
X137293795Y-63050183D01*
X137300579Y-63048060D01*
X137307340Y-63050256D01*
G37*
%TD.AperFunction*%
%TD*%
%TA.AperFunction,Conductor*%
%TO.N,/SPI2.CLK*%
G36*
X151554733Y-66569604D02*
G01*
X151916084Y-66754134D01*
X151921733Y-66760488D01*
X151921588Y-66768991D01*
X151832564Y-66986176D01*
X151830011Y-66990011D01*
X151826176Y-66992564D01*
X151608991Y-67081588D01*
X151600488Y-67081733D01*
X151594134Y-67076084D01*
X151409604Y-66714733D01*
X151408468Y-66707588D01*
X151411750Y-66701142D01*
X151541142Y-66571750D01*
X151547588Y-66568468D01*
X151554733Y-66569604D01*
G37*
%TD.AperFunction*%
%TD*%
%TA.AperFunction,Conductor*%
%TO.N,+3V3*%
G36*
X148353519Y-71492380D02*
G01*
X148358263Y-71496683D01*
X148360032Y-71502839D01*
X148360994Y-71887644D01*
X148360093Y-71892175D01*
X148211015Y-72249746D01*
X148205185Y-72255837D01*
X148196774Y-72256426D01*
X147583176Y-72067544D01*
X147577206Y-72063312D01*
X147574918Y-72056362D01*
X147574918Y-71575638D01*
X147577960Y-71567768D01*
X147585505Y-71563991D01*
X148347219Y-71491221D01*
X148353519Y-71492380D01*
G37*
%TD.AperFunction*%
%TD*%
%TA.AperFunction,Conductor*%
%TO.N,/PB5*%
G36*
X134298372Y-70702238D02*
G01*
X134302622Y-70708095D01*
X134427652Y-71094087D01*
X134427153Y-71102576D01*
X134421038Y-71108485D01*
X134204517Y-71199109D01*
X134200000Y-71200016D01*
X134195483Y-71199109D01*
X133978961Y-71108485D01*
X133972846Y-71102576D01*
X133972347Y-71094088D01*
X134097377Y-70708095D01*
X134101628Y-70702238D01*
X134108509Y-70700000D01*
X134291491Y-70700000D01*
X134298372Y-70702238D01*
G37*
%TD.AperFunction*%
%TD*%
%TA.AperFunction,Conductor*%
%TO.N,/LCD.BKControl*%
G36*
X148702549Y-74193028D02*
G01*
X148708585Y-74199200D01*
X148799109Y-74415483D01*
X148800016Y-74420000D01*
X148799109Y-74424517D01*
X148708398Y-74641247D01*
X148702601Y-74647310D01*
X148694236Y-74647935D01*
X148419950Y-74565467D01*
X148310319Y-74532504D01*
X148304300Y-74528281D01*
X148301989Y-74521300D01*
X148301989Y-74338298D01*
X148304146Y-74331530D01*
X148309819Y-74327256D01*
X148693925Y-74192675D01*
X148702549Y-74193028D01*
G37*
%TD.AperFunction*%
%TD*%
%TA.AperFunction,Conductor*%
%TO.N,+3V3*%
G36*
X135975765Y-74422695D02*
G01*
X135981161Y-74426338D01*
X136194752Y-74682507D01*
X136197466Y-74690000D01*
X136194752Y-74697493D01*
X135981161Y-74953661D01*
X135975765Y-74957304D01*
X135969258Y-74957498D01*
X135618783Y-74867261D01*
X135612453Y-74863099D01*
X135610000Y-74855931D01*
X135610000Y-74524069D01*
X135612453Y-74516901D01*
X135618783Y-74512739D01*
X135708762Y-74489571D01*
X135969261Y-74422501D01*
X135975765Y-74422695D01*
G37*
%TD.AperFunction*%
%TD*%
%TA.AperFunction,Conductor*%
%TO.N,/PA0*%
G36*
X140118265Y-74994651D02*
G01*
X140122484Y-75000699D01*
X140236288Y-75384263D01*
X140235642Y-75392606D01*
X140229588Y-75398384D01*
X140012822Y-75489110D01*
X140008305Y-75490017D01*
X140003788Y-75489110D01*
X139787546Y-75398603D01*
X139781364Y-75392545D01*
X139781037Y-75383898D01*
X139917237Y-75000114D01*
X139921514Y-74994470D01*
X139928263Y-74992327D01*
X140111267Y-74992327D01*
X140118265Y-74994651D01*
G37*
%TD.AperFunction*%
%TD*%
%TA.AperFunction,Conductor*%
%TO.N,/LCD.SDA*%
G36*
X144506811Y-63049896D02*
G01*
X144511109Y-63055558D01*
X144772967Y-63794266D01*
X144773526Y-63799794D01*
X144771472Y-63804958D01*
X144612880Y-64027867D01*
X144609106Y-64031269D01*
X144604244Y-64032750D01*
X144416859Y-64047164D01*
X144411023Y-64046104D01*
X144406456Y-64042318D01*
X144236132Y-63804913D01*
X144234061Y-63799787D01*
X144234575Y-63794284D01*
X144489021Y-63055653D01*
X144493266Y-63049957D01*
X144500029Y-63047767D01*
X144506811Y-63049896D01*
G37*
%TD.AperFunction*%
%TD*%
%TA.AperFunction,Conductor*%
%TO.N,/PA9*%
G36*
X138203519Y-63551770D02*
G01*
X138207826Y-63557580D01*
X138337508Y-63944014D01*
X138337074Y-63952563D01*
X138330933Y-63958529D01*
X138114525Y-64049108D01*
X138110008Y-64050015D01*
X138105491Y-64049108D01*
X137888863Y-63958444D01*
X137882772Y-63952587D01*
X137882214Y-63944156D01*
X138002591Y-63559588D01*
X138006781Y-63553693D01*
X138013637Y-63551389D01*
X138196622Y-63549603D01*
X138203519Y-63551770D01*
G37*
%TD.AperFunction*%
%TD*%
%TA.AperFunction,Conductor*%
%TO.N,/LCD.~{RES}*%
G36*
X141698372Y-73392238D02*
G01*
X141702622Y-73398095D01*
X141827652Y-73784087D01*
X141827153Y-73792576D01*
X141821038Y-73798485D01*
X141604517Y-73889109D01*
X141600000Y-73890016D01*
X141595483Y-73889109D01*
X141378961Y-73798485D01*
X141372846Y-73792576D01*
X141372347Y-73784088D01*
X141497377Y-73398095D01*
X141501628Y-73392238D01*
X141508509Y-73390000D01*
X141691491Y-73390000D01*
X141698372Y-73392238D01*
G37*
%TD.AperFunction*%
%TD*%
%TA.AperFunction,Conductor*%
%TO.N,/LCD.CS*%
G36*
X153597898Y-75181227D02*
G01*
X153843468Y-75405937D01*
X153847031Y-75412215D01*
X153846231Y-75419388D01*
X153693111Y-75758119D01*
X153688794Y-75763130D01*
X153682450Y-75765000D01*
X153497550Y-75765000D01*
X153491206Y-75763130D01*
X153486889Y-75758119D01*
X153333768Y-75419388D01*
X153332968Y-75412215D01*
X153336529Y-75405939D01*
X153582102Y-75181226D01*
X153590000Y-75178159D01*
X153597898Y-75181227D01*
G37*
%TD.AperFunction*%
%TD*%
%TA.AperFunction,Conductor*%
%TO.N,/PC11*%
G36*
X138106751Y-67349472D02*
G01*
X138111028Y-67355119D01*
X138373094Y-68094623D01*
X138373691Y-68099851D01*
X138371937Y-68104812D01*
X138203448Y-68369581D01*
X138199207Y-68373556D01*
X138193577Y-68375000D01*
X138006423Y-68375000D01*
X138000793Y-68373556D01*
X137996552Y-68369581D01*
X137828062Y-68104812D01*
X137826308Y-68099851D01*
X137826904Y-68094625D01*
X138088972Y-67355118D01*
X138093249Y-67349472D01*
X138100000Y-67347327D01*
X138106751Y-67349472D01*
G37*
%TD.AperFunction*%
%TD*%
%TA.AperFunction,Conductor*%
%TO.N,/PB10*%
G36*
X141398471Y-63544146D02*
G01*
X141402744Y-63549820D01*
X141537324Y-63933923D01*
X141536971Y-63942549D01*
X141530799Y-63948585D01*
X141314517Y-64039109D01*
X141310000Y-64040016D01*
X141305483Y-64039109D01*
X141088752Y-63948398D01*
X141082689Y-63942601D01*
X141082064Y-63934237D01*
X141197495Y-63550319D01*
X141201719Y-63544300D01*
X141208700Y-63541989D01*
X141391702Y-63541989D01*
X141398471Y-63544146D01*
G37*
%TD.AperFunction*%
%TD*%
%TA.AperFunction,Conductor*%
%TO.N,/NRST*%
G36*
X124434514Y-72770889D02*
G01*
X124651038Y-72861514D01*
X124657153Y-72867423D01*
X124657652Y-72875912D01*
X124532622Y-73261905D01*
X124528372Y-73267762D01*
X124521491Y-73270000D01*
X124338509Y-73270000D01*
X124331628Y-73267762D01*
X124327378Y-73261905D01*
X124202347Y-72875912D01*
X124202846Y-72867423D01*
X124208960Y-72861514D01*
X124425485Y-72770889D01*
X124430000Y-72769983D01*
X124434514Y-72770889D01*
G37*
%TD.AperFunction*%
%TD*%
%TA.AperFunction,Conductor*%
%TO.N,+3V3*%
G36*
X153745192Y-73674115D02*
G01*
X153750988Y-73680189D01*
X153899123Y-74035497D01*
X153900024Y-74039999D01*
X153899123Y-74044501D01*
X153750988Y-74399810D01*
X153745192Y-74405884D01*
X153736820Y-74406512D01*
X153108331Y-74217505D01*
X153102311Y-74213282D01*
X153100000Y-74206301D01*
X153100000Y-73873699D01*
X153102311Y-73866718D01*
X153108330Y-73862495D01*
X153179083Y-73841217D01*
X153736821Y-73673487D01*
X153745192Y-73674115D01*
G37*
%TD.AperFunction*%
%TD*%
%TA.AperFunction,Conductor*%
%TO.N,/PB5*%
G36*
X135706751Y-67349472D02*
G01*
X135711028Y-67355119D01*
X135973094Y-68094623D01*
X135973691Y-68099851D01*
X135971937Y-68104812D01*
X135803448Y-68369581D01*
X135799207Y-68373556D01*
X135793577Y-68375000D01*
X135606423Y-68375000D01*
X135600793Y-68373556D01*
X135596552Y-68369581D01*
X135428062Y-68104812D01*
X135426308Y-68099851D01*
X135426904Y-68094625D01*
X135688972Y-67355118D01*
X135693249Y-67349472D01*
X135700000Y-67347327D01*
X135706751Y-67349472D01*
G37*
%TD.AperFunction*%
%TD*%
%TA.AperFunction,Conductor*%
%TO.N,/PA15*%
G36*
X136506751Y-67349472D02*
G01*
X136511028Y-67355119D01*
X136773094Y-68094623D01*
X136773691Y-68099851D01*
X136771937Y-68104812D01*
X136603448Y-68369581D01*
X136599207Y-68373556D01*
X136593577Y-68375000D01*
X136406423Y-68375000D01*
X136400793Y-68373556D01*
X136396552Y-68369581D01*
X136228062Y-68104812D01*
X136226308Y-68099851D01*
X136226904Y-68094625D01*
X136488972Y-67355118D01*
X136493249Y-67349472D01*
X136500000Y-67347327D01*
X136506751Y-67349472D01*
G37*
%TD.AperFunction*%
%TD*%
%TA.AperFunction,Conductor*%
%TO.N,/BOOT0*%
G36*
X131728017Y-72379966D02*
G01*
X131733943Y-72381597D01*
X131738224Y-72386007D01*
X131739680Y-72391978D01*
X131730540Y-72734331D01*
X131727117Y-72742292D01*
X131597953Y-72871456D01*
X131592407Y-72874561D01*
X131586056Y-72874308D01*
X131580776Y-72870771D01*
X131320201Y-72564966D01*
X131317414Y-72556935D01*
X131320799Y-72549140D01*
X131485851Y-72382762D01*
X131489668Y-72380199D01*
X131494181Y-72379306D01*
X131728017Y-72379966D01*
G37*
%TD.AperFunction*%
%TD*%
%TA.AperFunction,Conductor*%
%TO.N,+3V3*%
G36*
X154185534Y-73764531D02*
G01*
X154190783Y-73768762D01*
X154636978Y-74420895D01*
X154638972Y-74428585D01*
X154635595Y-74435775D01*
X154295775Y-74775595D01*
X154288585Y-74778972D01*
X154280895Y-74776978D01*
X153628762Y-74330783D01*
X153624531Y-74325534D01*
X153623898Y-74318821D01*
X153627075Y-74312875D01*
X153899251Y-74039335D01*
X153899293Y-74039293D01*
X154172875Y-73767075D01*
X154178821Y-73763898D01*
X154185534Y-73764531D01*
G37*
%TD.AperFunction*%
%TD*%
%TA.AperFunction,Conductor*%
%TO.N,/PB11*%
G36*
X140586361Y-63551389D02*
G01*
X140593218Y-63553693D01*
X140597410Y-63559592D01*
X140717785Y-63944156D01*
X140717227Y-63952587D01*
X140711136Y-63958444D01*
X140494508Y-64049108D01*
X140489991Y-64050015D01*
X140485474Y-64049108D01*
X140269066Y-63958529D01*
X140262925Y-63952563D01*
X140262491Y-63944015D01*
X140392173Y-63557578D01*
X140396480Y-63551770D01*
X140403376Y-63549603D01*
X140586361Y-63551389D01*
G37*
%TD.AperFunction*%
%TD*%
%TA.AperFunction,Conductor*%
%TO.N,+3V3*%
G36*
X130968338Y-70555716D02*
G01*
X131204316Y-70768108D01*
X131208006Y-70774741D01*
X131206848Y-70782243D01*
X131052489Y-71076258D01*
X131049285Y-71080076D01*
X131044782Y-71082214D01*
X130781093Y-71143586D01*
X130772392Y-71142206D01*
X130767121Y-71135149D01*
X130618828Y-70567368D01*
X130619171Y-70560364D01*
X130623457Y-70554814D01*
X130630148Y-70552712D01*
X130960511Y-70552712D01*
X130968338Y-70555716D01*
G37*
%TD.AperFunction*%
%TD*%
%TA.AperFunction,Conductor*%
%TO.N,/PA12*%
G36*
X135706598Y-63051419D02*
G01*
X135710959Y-63057118D01*
X135972697Y-63793521D01*
X135973163Y-63799646D01*
X135970461Y-63805163D01*
X135809847Y-63987900D01*
X135809332Y-63988449D01*
X135678389Y-64119392D01*
X135672351Y-64122603D01*
X135665550Y-64121891D01*
X135660309Y-64117500D01*
X135517231Y-63897543D01*
X135456797Y-63804636D01*
X135455012Y-63799832D01*
X135455450Y-63794726D01*
X135688781Y-63057503D01*
X135692940Y-63051658D01*
X135699730Y-63049338D01*
X135706598Y-63051419D01*
G37*
%TD.AperFunction*%
%TD*%
%TA.AperFunction,Conductor*%
%TO.N,/PB1*%
G36*
X142906751Y-63049472D02*
G01*
X142911028Y-63055119D01*
X143172986Y-63794319D01*
X143173551Y-63799803D01*
X143171543Y-63804936D01*
X143003493Y-64045009D01*
X142999311Y-64048678D01*
X142993908Y-64050000D01*
X142806092Y-64050000D01*
X142800689Y-64048678D01*
X142796507Y-64045010D01*
X142628456Y-63804937D01*
X142626448Y-63799803D01*
X142627013Y-63794319D01*
X142888972Y-63055119D01*
X142893249Y-63049472D01*
X142900000Y-63047327D01*
X142906751Y-63049472D01*
G37*
%TD.AperFunction*%
%TD*%
%TA.AperFunction,Conductor*%
%TO.N,+3V3*%
G36*
X127865866Y-75023916D02*
G01*
X128050394Y-75385265D01*
X128051531Y-75392411D01*
X128048247Y-75398859D01*
X127918859Y-75528247D01*
X127912411Y-75531531D01*
X127905265Y-75530394D01*
X127635062Y-75392411D01*
X127543915Y-75345865D01*
X127538266Y-75339511D01*
X127538410Y-75331011D01*
X127627438Y-75113818D01*
X127629988Y-75109988D01*
X127633818Y-75107438D01*
X127851011Y-75018410D01*
X127859511Y-75018266D01*
X127865866Y-75023916D01*
G37*
%TD.AperFunction*%
%TD*%
%TA.AperFunction,Conductor*%
%TO.N,/SWDIO-L*%
G36*
X134906107Y-63049880D02*
G01*
X134910394Y-63055528D01*
X135172538Y-63793074D01*
X135172934Y-63799538D01*
X135169829Y-63805223D01*
X134974246Y-64002824D01*
X134974246Y-64002825D01*
X134843447Y-64133623D01*
X134837261Y-64136862D01*
X134830331Y-64136001D01*
X134825127Y-64131345D01*
X134748444Y-64002825D01*
X134630230Y-63804698D01*
X134628637Y-63799878D01*
X134629235Y-63794840D01*
X134888330Y-63055573D01*
X134892591Y-63049910D01*
X134899344Y-63047746D01*
X134906107Y-63049880D01*
G37*
%TD.AperFunction*%
%TD*%
%TA.AperFunction,Conductor*%
%TO.N,/SPI2.MISO*%
G36*
X150660169Y-73352611D02*
G01*
X150664414Y-73358497D01*
X150787703Y-73744113D01*
X150787182Y-73752580D01*
X150781076Y-73758469D01*
X150564516Y-73849109D01*
X150559999Y-73850016D01*
X150555482Y-73849109D01*
X150339004Y-73758503D01*
X150332878Y-73752571D01*
X150332406Y-73744057D01*
X150459167Y-73358407D01*
X150463421Y-73352583D01*
X150470282Y-73350360D01*
X150653270Y-73350360D01*
X150660169Y-73352611D01*
G37*
%TD.AperFunction*%
%TD*%
%TA.AperFunction,Conductor*%
%TO.N,+3V3*%
G36*
X148364497Y-71890875D02*
G01*
X148719810Y-72039011D01*
X148725884Y-72044807D01*
X148726512Y-72053179D01*
X148537505Y-72681669D01*
X148533282Y-72687689D01*
X148526301Y-72690000D01*
X148193699Y-72690000D01*
X148186718Y-72687689D01*
X148182495Y-72681670D01*
X148150654Y-72575795D01*
X147993487Y-72053178D01*
X147994115Y-72044807D01*
X148000187Y-72039012D01*
X148355502Y-71890875D01*
X148360000Y-71889975D01*
X148364497Y-71890875D01*
G37*
%TD.AperFunction*%
%TD*%
%TA.AperFunction,Conductor*%
%TO.N,/SPI2.CS*%
G36*
X142497518Y-65803433D02*
G01*
X142502763Y-65807743D01*
X142504732Y-65814239D01*
X142504732Y-65996129D01*
X142502423Y-66003107D01*
X142284836Y-66295931D01*
X142279570Y-66299902D01*
X142272993Y-66300393D01*
X142267195Y-66297249D01*
X142265870Y-66295931D01*
X142102467Y-66133448D01*
X142099907Y-66129625D01*
X142099019Y-66125109D01*
X142099961Y-65889572D01*
X142102636Y-65882175D01*
X142109390Y-65878143D01*
X142490763Y-65802761D01*
X142497518Y-65803433D01*
G37*
%TD.AperFunction*%
%TD*%
%TA.AperFunction,Conductor*%
%TO.N,/PB3*%
G36*
X138906751Y-67349472D02*
G01*
X138911028Y-67355119D01*
X139173094Y-68094623D01*
X139173691Y-68099851D01*
X139171937Y-68104812D01*
X139003448Y-68369581D01*
X138999207Y-68373556D01*
X138993577Y-68375000D01*
X138806423Y-68375000D01*
X138800793Y-68373556D01*
X138796552Y-68369581D01*
X138628062Y-68104812D01*
X138626308Y-68099851D01*
X138626904Y-68094625D01*
X138888972Y-67355118D01*
X138893249Y-67349472D01*
X138900000Y-67347327D01*
X138906751Y-67349472D01*
G37*
%TD.AperFunction*%
%TD*%
%TA.AperFunction,Conductor*%
%TO.N,/PA0*%
G36*
X141306751Y-67349472D02*
G01*
X141311028Y-67355119D01*
X141573094Y-68094623D01*
X141573691Y-68099851D01*
X141571937Y-68104812D01*
X141403448Y-68369581D01*
X141399207Y-68373556D01*
X141393577Y-68375000D01*
X141206423Y-68375000D01*
X141200793Y-68373556D01*
X141196552Y-68369581D01*
X141028062Y-68104812D01*
X141026308Y-68099851D01*
X141026904Y-68094625D01*
X141288972Y-67355118D01*
X141293249Y-67349472D01*
X141300000Y-67347327D01*
X141306751Y-67349472D01*
G37*
%TD.AperFunction*%
%TD*%
%TA.AperFunction,Conductor*%
%TO.N,/PC13*%
G36*
X140506751Y-67349472D02*
G01*
X140511028Y-67355119D01*
X140773094Y-68094623D01*
X140773691Y-68099851D01*
X140771937Y-68104812D01*
X140603448Y-68369581D01*
X140599207Y-68373556D01*
X140593577Y-68375000D01*
X140406423Y-68375000D01*
X140400793Y-68373556D01*
X140396552Y-68369581D01*
X140228062Y-68104812D01*
X140226308Y-68099851D01*
X140226904Y-68094625D01*
X140488972Y-67355118D01*
X140493249Y-67349472D01*
X140500000Y-67347327D01*
X140506751Y-67349472D01*
G37*
%TD.AperFunction*%
%TD*%
%TA.AperFunction,Conductor*%
%TO.N,/PB11*%
G36*
X140506669Y-63049949D02*
G01*
X140510916Y-63055648D01*
X140765497Y-63794329D01*
X140766019Y-63799794D01*
X140763989Y-63804896D01*
X140593533Y-64045970D01*
X140589308Y-64049632D01*
X140583866Y-64050914D01*
X140396214Y-64049083D01*
X140390743Y-64047665D01*
X140386575Y-64043847D01*
X140228225Y-63804867D01*
X140226365Y-63799831D01*
X140226949Y-63794498D01*
X140488827Y-63055550D01*
X140493124Y-63049890D01*
X140499906Y-63047760D01*
X140506669Y-63049949D01*
G37*
%TD.AperFunction*%
%TD*%
%TA.AperFunction,Conductor*%
%TO.N,/PC6*%
G36*
X139706751Y-63049472D02*
G01*
X139711028Y-63055119D01*
X139972986Y-63794319D01*
X139973551Y-63799803D01*
X139971543Y-63804936D01*
X139803493Y-64045009D01*
X139799311Y-64048678D01*
X139793908Y-64050000D01*
X139606092Y-64050000D01*
X139600689Y-64048678D01*
X139596507Y-64045010D01*
X139428456Y-63804937D01*
X139426448Y-63799803D01*
X139427013Y-63794319D01*
X139688972Y-63055119D01*
X139693249Y-63049472D01*
X139700000Y-63047327D01*
X139706751Y-63049472D01*
G37*
%TD.AperFunction*%
%TD*%
%TA.AperFunction,Conductor*%
%TO.N,/LCD.D{slash}C*%
G36*
X141148868Y-74962341D02*
G01*
X141153116Y-74968206D01*
X141277665Y-75354094D01*
X141277161Y-75362577D01*
X141271048Y-75368481D01*
X141054515Y-75459109D01*
X141049998Y-75460016D01*
X141045481Y-75459109D01*
X140828971Y-75368490D01*
X140822853Y-75362574D01*
X140822362Y-75354080D01*
X140947871Y-74968181D01*
X140952122Y-74962333D01*
X140958998Y-74960100D01*
X141141982Y-74960100D01*
X141148868Y-74962341D01*
G37*
%TD.AperFunction*%
%TD*%
%TA.AperFunction,Conductor*%
%TO.N,/PC10*%
G36*
X137006431Y-69132252D02*
G01*
X137135819Y-69261640D01*
X137139103Y-69268088D01*
X137137966Y-69275234D01*
X136953438Y-69636583D01*
X136947083Y-69642233D01*
X136938581Y-69642088D01*
X136721394Y-69553063D01*
X136717560Y-69550511D01*
X136715008Y-69546678D01*
X136625982Y-69329488D01*
X136625838Y-69320988D01*
X136631485Y-69314635D01*
X136992839Y-69130104D01*
X136999983Y-69128968D01*
X137006431Y-69132252D01*
G37*
%TD.AperFunction*%
%TD*%
%TA.AperFunction,Conductor*%
%TO.N,/VBAT_Pin*%
G36*
X133306751Y-63049472D02*
G01*
X133311028Y-63055119D01*
X133573094Y-63794623D01*
X133573691Y-63799851D01*
X133571937Y-63804812D01*
X133403448Y-64069581D01*
X133399207Y-64073556D01*
X133393577Y-64075000D01*
X133206423Y-64075000D01*
X133200793Y-64073556D01*
X133196552Y-64069581D01*
X133028062Y-63804812D01*
X133026308Y-63799851D01*
X133026904Y-63794625D01*
X133288972Y-63055118D01*
X133293249Y-63049472D01*
X133300000Y-63047327D01*
X133306751Y-63049472D01*
G37*
%TD.AperFunction*%
%TD*%
%TA.AperFunction,Conductor*%
%TO.N,/SPI2.CS*%
G36*
X150017082Y-72569630D02*
G01*
X150020782Y-72577355D01*
X150052742Y-73021152D01*
X150051480Y-73027336D01*
X150047190Y-73031965D01*
X150041119Y-73033692D01*
X149806016Y-73034632D01*
X149801452Y-73033725D01*
X149585752Y-72943445D01*
X149580528Y-72939134D01*
X149578569Y-72932650D01*
X149580530Y-72926168D01*
X149816527Y-72571711D01*
X149820742Y-72567881D01*
X149826266Y-72566495D01*
X150009112Y-72566495D01*
X150017082Y-72569630D01*
G37*
%TD.AperFunction*%
%TD*%
%TA.AperFunction,Conductor*%
%TO.N,Net-(J3-Pin_6)*%
G36*
X147659864Y-76172857D02*
G01*
X147893328Y-76638146D01*
X147894421Y-76645259D01*
X147891144Y-76651666D01*
X147761375Y-76781435D01*
X147755239Y-76784665D01*
X147748353Y-76783855D01*
X147437297Y-76645695D01*
X147331642Y-76598766D01*
X147326026Y-76593500D01*
X147324899Y-76585885D01*
X147383107Y-76280514D01*
X147385537Y-76275308D01*
X147390152Y-76271887D01*
X147644966Y-76167280D01*
X147653508Y-76167146D01*
X147659864Y-76172857D01*
G37*
%TD.AperFunction*%
%TD*%
%TA.AperFunction,Conductor*%
%TO.N,/LCD.~{RES}*%
G36*
X143706751Y-67349472D02*
G01*
X143711028Y-67355119D01*
X143973094Y-68094623D01*
X143973691Y-68099851D01*
X143971937Y-68104812D01*
X143803448Y-68369581D01*
X143799207Y-68373556D01*
X143793577Y-68375000D01*
X143606423Y-68375000D01*
X143600793Y-68373556D01*
X143596552Y-68369581D01*
X143428062Y-68104812D01*
X143426308Y-68099851D01*
X143426904Y-68094625D01*
X143688972Y-67355118D01*
X143693249Y-67349472D01*
X143700000Y-67347327D01*
X143706751Y-67349472D01*
G37*
%TD.AperFunction*%
%TD*%
%TA.AperFunction,Conductor*%
%TO.N,/PA15*%
G36*
X136603175Y-68364592D02*
G01*
X136617480Y-68375782D01*
X136886356Y-68586103D01*
X136890162Y-68591375D01*
X136890567Y-68597865D01*
X136887443Y-68603569D01*
X136723410Y-68768530D01*
X136719585Y-68771092D01*
X136715067Y-68771980D01*
X136479787Y-68771039D01*
X136472273Y-68768267D01*
X136468302Y-68761312D01*
X136439226Y-68591375D01*
X136402339Y-68375780D01*
X136403144Y-68369139D01*
X136407458Y-68364023D01*
X136413871Y-68362109D01*
X136595967Y-68362109D01*
X136603175Y-68364592D01*
G37*
%TD.AperFunction*%
%TD*%
%TA.AperFunction,Conductor*%
%TO.N,/PA1*%
G36*
X142106751Y-67349472D02*
G01*
X142111028Y-67355119D01*
X142373094Y-68094623D01*
X142373691Y-68099851D01*
X142371937Y-68104812D01*
X142203448Y-68369581D01*
X142199207Y-68373556D01*
X142193577Y-68375000D01*
X142006423Y-68375000D01*
X142000793Y-68373556D01*
X141996552Y-68369581D01*
X141828062Y-68104812D01*
X141826308Y-68099851D01*
X141826904Y-68094625D01*
X142088972Y-67355118D01*
X142093249Y-67349472D01*
X142100000Y-67347327D01*
X142106751Y-67349472D01*
G37*
%TD.AperFunction*%
%TD*%
%TA.AperFunction,Conductor*%
%TO.N,/PB0*%
G36*
X143706751Y-63049472D02*
G01*
X143711028Y-63055119D01*
X143972887Y-63794039D01*
X143973419Y-63799752D01*
X143971170Y-63805032D01*
X143803511Y-64025385D01*
X143799396Y-64028783D01*
X143794200Y-64030000D01*
X143605800Y-64030000D01*
X143600604Y-64028783D01*
X143596489Y-64025385D01*
X143428829Y-63805032D01*
X143426580Y-63799752D01*
X143427112Y-63794039D01*
X143688972Y-63055119D01*
X143693249Y-63049472D01*
X143700000Y-63047327D01*
X143706751Y-63049472D01*
G37*
%TD.AperFunction*%
%TD*%
%TA.AperFunction,Conductor*%
%TO.N,/NRST*%
G36*
X133414150Y-77878937D02*
G01*
X133420060Y-77885052D01*
X133510684Y-78101573D01*
X133511591Y-78106090D01*
X133510684Y-78110607D01*
X133420060Y-78327129D01*
X133414151Y-78333244D01*
X133405662Y-78333743D01*
X133019670Y-78208713D01*
X133013813Y-78204463D01*
X133011575Y-78197582D01*
X133011575Y-78014600D01*
X133013813Y-78007719D01*
X133019670Y-78003469D01*
X133088959Y-77981024D01*
X133405663Y-77878438D01*
X133414150Y-77878937D01*
G37*
%TD.AperFunction*%
%TD*%
%TA.AperFunction,Conductor*%
%TO.N,+3V3*%
G36*
X133306196Y-74637436D02*
G01*
X133310016Y-74639983D01*
X133312563Y-74643804D01*
X133458621Y-74998734D01*
X133458601Y-75007687D01*
X133452256Y-75014005D01*
X132822237Y-75273426D01*
X132815487Y-75274080D01*
X132809509Y-75270880D01*
X132679119Y-75140490D01*
X132675919Y-75134512D01*
X132676572Y-75127765D01*
X132935994Y-74497742D01*
X132942312Y-74491398D01*
X132951264Y-74491378D01*
X133306196Y-74637436D01*
G37*
%TD.AperFunction*%
%TD*%
%TA.AperFunction,Conductor*%
%TO.N,/PB3*%
G36*
X137124601Y-70680624D02*
G01*
X137128926Y-70683365D01*
X137256578Y-70811017D01*
X137259886Y-70817624D01*
X137258575Y-70824896D01*
X137253168Y-70829931D01*
X136824233Y-71025947D01*
X136818136Y-71026941D01*
X136812382Y-71024690D01*
X136808577Y-71019823D01*
X136718750Y-70805210D01*
X136717843Y-70800706D01*
X136718740Y-70796199D01*
X136765679Y-70683365D01*
X136808969Y-70579302D01*
X136815041Y-70573097D01*
X136823717Y-70572784D01*
X137124601Y-70680624D01*
G37*
%TD.AperFunction*%
%TD*%
%TA.AperFunction,Conductor*%
%TO.N,/LCD.~{RES}*%
G36*
X150412503Y-77803899D02*
G01*
X150418785Y-77810178D01*
X150509109Y-78025983D01*
X150510016Y-78030500D01*
X150509109Y-78035017D01*
X150418226Y-78252157D01*
X150412654Y-78258111D01*
X150404546Y-78258978D01*
X150024681Y-78162244D01*
X150018330Y-78158086D01*
X150015868Y-78150906D01*
X150015868Y-77967901D01*
X150017872Y-77961353D01*
X150023195Y-77957048D01*
X150403621Y-77803842D01*
X150412503Y-77803899D01*
G37*
%TD.AperFunction*%
%TD*%
%TA.AperFunction,Conductor*%
%TO.N,/VBAT_Pin*%
G36*
X133158859Y-64431752D02*
G01*
X133288247Y-64561140D01*
X133291531Y-64567588D01*
X133290394Y-64574734D01*
X133105866Y-64936083D01*
X133099511Y-64941733D01*
X133091009Y-64941588D01*
X132873822Y-64852563D01*
X132869988Y-64850011D01*
X132867436Y-64846178D01*
X132778410Y-64628988D01*
X132778266Y-64620488D01*
X132783913Y-64614135D01*
X133145267Y-64429604D01*
X133152411Y-64428468D01*
X133158859Y-64431752D01*
G37*
%TD.AperFunction*%
%TD*%
%TA.AperFunction,Conductor*%
%TO.N,/PC11*%
G36*
X135514439Y-69956089D02*
G01*
X135641905Y-69997378D01*
X135647762Y-70001628D01*
X135650000Y-70008509D01*
X135650000Y-70191491D01*
X135647762Y-70198372D01*
X135641905Y-70202622D01*
X135255912Y-70327652D01*
X135247423Y-70327153D01*
X135241514Y-70321038D01*
X135150889Y-70104514D01*
X135149983Y-70100000D01*
X135150889Y-70095485D01*
X135241514Y-69878960D01*
X135247423Y-69872846D01*
X135255911Y-69872347D01*
X135514439Y-69956089D01*
G37*
%TD.AperFunction*%
%TD*%
%TA.AperFunction,Conductor*%
%TO.N,/PB0*%
G36*
X143798372Y-63532238D02*
G01*
X143802622Y-63538095D01*
X143927652Y-63924087D01*
X143927153Y-63932576D01*
X143921038Y-63938485D01*
X143704516Y-64029109D01*
X143699999Y-64030016D01*
X143695482Y-64029109D01*
X143478961Y-63938485D01*
X143472846Y-63932575D01*
X143472347Y-63924088D01*
X143597377Y-63538095D01*
X143601628Y-63532238D01*
X143608509Y-63530000D01*
X143791491Y-63530000D01*
X143798372Y-63532238D01*
G37*
%TD.AperFunction*%
%TD*%
%TA.AperFunction,Conductor*%
%TO.N,Net-(U1B-VREF+)*%
G36*
X144306258Y-70432618D02*
G01*
X144311519Y-70436604D01*
X144598008Y-70824207D01*
X144600267Y-70832031D01*
X144596872Y-70839434D01*
X144363634Y-71072672D01*
X144356231Y-71076067D01*
X144348407Y-71073808D01*
X143960804Y-70787319D01*
X143956818Y-70782058D01*
X143956314Y-70775477D01*
X143959450Y-70769673D01*
X144125993Y-70601793D01*
X144293873Y-70435250D01*
X144299677Y-70432114D01*
X144306258Y-70432618D01*
G37*
%TD.AperFunction*%
%TD*%
%TA.AperFunction,Conductor*%
%TO.N,/SWCLK-L*%
G36*
X134202946Y-64014045D02*
G01*
X134427679Y-64163708D01*
X134432385Y-64170032D01*
X134432010Y-64177906D01*
X134341861Y-64396486D01*
X134339309Y-64400307D01*
X134335482Y-64402851D01*
X134121836Y-64490421D01*
X134115185Y-64491084D01*
X134109257Y-64487997D01*
X134105986Y-64482169D01*
X134003217Y-64026356D01*
X134003748Y-64019489D01*
X134008050Y-64014110D01*
X134014632Y-64012083D01*
X134196461Y-64012083D01*
X134202946Y-64014045D01*
G37*
%TD.AperFunction*%
%TD*%
%TA.AperFunction,Conductor*%
%TO.N,/LCD.SCL*%
G36*
X142818372Y-74022238D02*
G01*
X142822622Y-74028095D01*
X142947652Y-74414087D01*
X142947153Y-74422576D01*
X142941038Y-74428485D01*
X142724517Y-74519109D01*
X142720000Y-74520016D01*
X142715483Y-74519109D01*
X142498961Y-74428485D01*
X142492846Y-74422576D01*
X142492347Y-74414088D01*
X142617377Y-74028095D01*
X142621628Y-74022238D01*
X142628509Y-74020000D01*
X142811491Y-74020000D01*
X142818372Y-74022238D01*
G37*
%TD.AperFunction*%
%TD*%
%TA.AperFunction,Conductor*%
%TO.N,/SPI2.MISO*%
G36*
X141435220Y-65879229D02*
G01*
X141441107Y-65882410D01*
X141569449Y-66010752D01*
X141572688Y-66016933D01*
X141571831Y-66023859D01*
X141567183Y-66029065D01*
X141157758Y-66274037D01*
X141151377Y-66275691D01*
X141145114Y-66273632D01*
X141140958Y-66268514D01*
X141051679Y-66055210D01*
X141050772Y-66050706D01*
X141051669Y-66046199D01*
X141058797Y-66029065D01*
X141142457Y-65827959D01*
X141147797Y-65822109D01*
X141155641Y-65821002D01*
X141435220Y-65879229D01*
G37*
%TD.AperFunction*%
%TD*%
%TA.AperFunction,Conductor*%
%TO.N,+3V3*%
G36*
X129384147Y-62327422D02*
G01*
X129579130Y-62772757D01*
X129580112Y-62777450D01*
X129580112Y-63254298D01*
X129577328Y-63261873D01*
X129570302Y-63265844D01*
X129562377Y-63264321D01*
X128865535Y-62844735D01*
X128860461Y-62838384D01*
X128860749Y-62830261D01*
X129007148Y-62474499D01*
X129009687Y-62470687D01*
X129013497Y-62468142D01*
X129368963Y-62321300D01*
X129377803Y-62321263D01*
X129384147Y-62327422D01*
G37*
%TD.AperFunction*%
%TD*%
%TA.AperFunction,Conductor*%
%TO.N,/SPI2.MOSI*%
G36*
X140708859Y-64761752D02*
G01*
X140838247Y-64891140D01*
X140841531Y-64897588D01*
X140840394Y-64904734D01*
X140655866Y-65266083D01*
X140649511Y-65271733D01*
X140641009Y-65271588D01*
X140423822Y-65182563D01*
X140419988Y-65180011D01*
X140417436Y-65176178D01*
X140328410Y-64958988D01*
X140328266Y-64950488D01*
X140333913Y-64944135D01*
X140695267Y-64759604D01*
X140702411Y-64758468D01*
X140708859Y-64761752D01*
G37*
%TD.AperFunction*%
%TD*%
%TA.AperFunction,Conductor*%
%TO.N,/PA12*%
G36*
X136374733Y-64549604D02*
G01*
X136736084Y-64734134D01*
X136741733Y-64740488D01*
X136741588Y-64748991D01*
X136652564Y-64966176D01*
X136650011Y-64970011D01*
X136646176Y-64972564D01*
X136428991Y-65061588D01*
X136420488Y-65061733D01*
X136414134Y-65056084D01*
X136229604Y-64694733D01*
X136228468Y-64687588D01*
X136231750Y-64681142D01*
X136361142Y-64551750D01*
X136367588Y-64548468D01*
X136374733Y-64549604D01*
G37*
%TD.AperFunction*%
%TD*%
%TA.AperFunction,Conductor*%
%TO.N,/LCD.SCL*%
G36*
X142955866Y-74433916D02*
G01*
X143140394Y-74795265D01*
X143141531Y-74802411D01*
X143138247Y-74808859D01*
X143008859Y-74938247D01*
X143002411Y-74941531D01*
X142995265Y-74940394D01*
X142725062Y-74802411D01*
X142633915Y-74755865D01*
X142628266Y-74749511D01*
X142628410Y-74741011D01*
X142717438Y-74523818D01*
X142719988Y-74519988D01*
X142723818Y-74517438D01*
X142941011Y-74428410D01*
X142949511Y-74428266D01*
X142955866Y-74433916D01*
G37*
%TD.AperFunction*%
%TD*%
%TA.AperFunction,Conductor*%
%TO.N,/LCD.D{slash}C*%
G36*
X151292576Y-78302846D02*
G01*
X151298485Y-78308961D01*
X151389109Y-78525483D01*
X151390016Y-78530000D01*
X151389109Y-78534517D01*
X151298485Y-78751038D01*
X151292576Y-78757153D01*
X151284087Y-78757652D01*
X150898095Y-78632622D01*
X150892238Y-78628372D01*
X150890000Y-78621491D01*
X150890000Y-78438509D01*
X150892238Y-78431628D01*
X150898095Y-78427378D01*
X150967384Y-78404933D01*
X151284088Y-78302347D01*
X151292576Y-78302846D01*
G37*
%TD.AperFunction*%
%TD*%
%TA.AperFunction,Conductor*%
%TO.N,/LCD.BKControl*%
G36*
X145306751Y-63049472D02*
G01*
X145311028Y-63055119D01*
X145572318Y-63792433D01*
X145572594Y-63799358D01*
X145568904Y-63805224D01*
X145403286Y-63947183D01*
X145395672Y-63950000D01*
X145204328Y-63950000D01*
X145196714Y-63947183D01*
X145031095Y-63805224D01*
X145027405Y-63799358D01*
X145027680Y-63792434D01*
X145288972Y-63055118D01*
X145293249Y-63049472D01*
X145300000Y-63047327D01*
X145306751Y-63049472D01*
G37*
%TD.AperFunction*%
%TD*%
%TA.AperFunction,Conductor*%
%TO.N,/PC4*%
G36*
X144318372Y-74052238D02*
G01*
X144322622Y-74058095D01*
X144447652Y-74444087D01*
X144447153Y-74452576D01*
X144441038Y-74458485D01*
X144224516Y-74549109D01*
X144219999Y-74550016D01*
X144215482Y-74549109D01*
X143998961Y-74458485D01*
X143992846Y-74452575D01*
X143992347Y-74444088D01*
X144117377Y-74058095D01*
X144121628Y-74052238D01*
X144128509Y-74050000D01*
X144311491Y-74050000D01*
X144318372Y-74052238D01*
G37*
%TD.AperFunction*%
%TD*%
%TA.AperFunction,Conductor*%
%TO.N,/PA10*%
G36*
X137398281Y-63564300D02*
G01*
X137402505Y-63570320D01*
X137517935Y-63954236D01*
X137517310Y-63962601D01*
X137511247Y-63968398D01*
X137294517Y-64059109D01*
X137290000Y-64060016D01*
X137285483Y-64059109D01*
X137069200Y-63968585D01*
X137063028Y-63962549D01*
X137062675Y-63953925D01*
X137197256Y-63569819D01*
X137201530Y-63564146D01*
X137208298Y-63561989D01*
X137391300Y-63561989D01*
X137398281Y-63564300D01*
G37*
%TD.AperFunction*%
%TD*%
%TA.AperFunction,Conductor*%
%TO.N,/LCD.CS*%
G36*
X142295866Y-75493916D02*
G01*
X142480394Y-75855265D01*
X142481531Y-75862411D01*
X142478247Y-75868859D01*
X142348859Y-75998247D01*
X142342411Y-76001531D01*
X142335265Y-76000394D01*
X142065062Y-75862411D01*
X141973915Y-75815865D01*
X141968266Y-75809511D01*
X141968410Y-75801011D01*
X142057438Y-75583818D01*
X142059988Y-75579988D01*
X142063818Y-75577438D01*
X142281011Y-75488410D01*
X142289511Y-75488266D01*
X142295866Y-75493916D01*
G37*
%TD.AperFunction*%
%TD*%
%TA.AperFunction,Conductor*%
%TO.N,Net-(J3-Pin_6)*%
G36*
X152150328Y-76540288D02*
G01*
X152317531Y-76706550D01*
X152320092Y-76710374D01*
X152320980Y-76714892D01*
X152320048Y-76947826D01*
X152318378Y-76953803D01*
X152313887Y-76958085D01*
X152307838Y-76959468D01*
X151999608Y-76946010D01*
X151873157Y-76940488D01*
X151865216Y-76936891D01*
X151861968Y-76928800D01*
X151861968Y-76745920D01*
X151863228Y-76740638D01*
X151866738Y-76736493D01*
X152135151Y-76539157D01*
X152142948Y-76536917D01*
X152150328Y-76540288D01*
G37*
%TD.AperFunction*%
%TD*%
%TA.AperFunction,Conductor*%
%TO.N,+3V3*%
G36*
X148351416Y-68388144D02*
G01*
X148567665Y-68476781D01*
X148571492Y-68479325D01*
X148574044Y-68483146D01*
X148662859Y-68698493D01*
X148663017Y-68707012D01*
X148657355Y-68713379D01*
X148626154Y-68729277D01*
X148625628Y-68729529D01*
X148372282Y-68843087D01*
X148367496Y-68844110D01*
X148138607Y-68844110D01*
X148131314Y-68841559D01*
X148127202Y-68835019D01*
X148128062Y-68827341D01*
X148194467Y-68689209D01*
X148336435Y-68393899D01*
X148342783Y-68388048D01*
X148351416Y-68388144D01*
G37*
%TD.AperFunction*%
%TD*%
%TA.AperFunction,Conductor*%
%TO.N,/LCD.SCL*%
G36*
X146133810Y-76012086D02*
G01*
X146359160Y-76267255D01*
X146362090Y-76275000D01*
X146359160Y-76282745D01*
X146133810Y-76537913D01*
X146126993Y-76541704D01*
X146119309Y-76540368D01*
X145830969Y-76378354D01*
X145826602Y-76374063D01*
X145825000Y-76368154D01*
X145825000Y-76181846D01*
X145826602Y-76175937D01*
X145830969Y-76171646D01*
X146119310Y-76009630D01*
X146126993Y-76008295D01*
X146133810Y-76012086D01*
G37*
%TD.AperFunction*%
%TD*%
%TA.AperFunction,Conductor*%
%TO.N,Net-(U1B-VDDA)*%
G36*
X147391505Y-70551964D02*
G01*
X147396303Y-70556470D01*
X147562510Y-70839071D01*
X147564125Y-70845002D01*
X147562510Y-70850933D01*
X147396303Y-71133533D01*
X147391505Y-71138039D01*
X147385034Y-71139242D01*
X146960515Y-71096071D01*
X146953017Y-71092274D01*
X146949999Y-71084431D01*
X146949999Y-70605573D01*
X146953017Y-70597730D01*
X146960515Y-70593933D01*
X147272661Y-70562188D01*
X147385034Y-70550761D01*
X147391505Y-70551964D01*
G37*
%TD.AperFunction*%
%TD*%
%TA.AperFunction,Conductor*%
%TO.N,/LCD.CS*%
G36*
X153692841Y-75766253D02*
G01*
X153897274Y-75893791D01*
X153902220Y-75900139D01*
X153901897Y-75908179D01*
X153812998Y-76123729D01*
X153808670Y-76129004D01*
X153802135Y-76130968D01*
X153569632Y-76130038D01*
X153562206Y-76127341D01*
X153558188Y-76120539D01*
X153492662Y-75778382D01*
X153493365Y-75771652D01*
X153497676Y-75766437D01*
X153504153Y-75764481D01*
X153686649Y-75764481D01*
X153692841Y-75766253D01*
G37*
%TD.AperFunction*%
%TD*%
%TA.AperFunction,Conductor*%
%TO.N,/LCD.CS*%
G36*
X153590212Y-76038912D02*
G01*
X153806178Y-76127436D01*
X153810011Y-76129988D01*
X153812564Y-76133823D01*
X153902016Y-76352052D01*
X153902367Y-76359948D01*
X153897619Y-76366265D01*
X153577082Y-76577065D01*
X153569464Y-76578929D01*
X153562380Y-76575563D01*
X153433011Y-76446194D01*
X153429852Y-76440412D01*
X153430319Y-76433839D01*
X153574813Y-76045656D01*
X153578421Y-76040641D01*
X153584082Y-76038163D01*
X153590212Y-76038912D01*
G37*
%TD.AperFunction*%
%TD*%
%TA.AperFunction,Conductor*%
%TO.N,/PB4*%
G36*
X135185866Y-70863916D02*
G01*
X135370394Y-71225265D01*
X135371531Y-71232411D01*
X135368247Y-71238859D01*
X135238859Y-71368247D01*
X135232411Y-71371531D01*
X135225265Y-71370394D01*
X134955062Y-71232411D01*
X134863915Y-71185865D01*
X134858266Y-71179511D01*
X134858410Y-71171011D01*
X134947438Y-70953818D01*
X134949988Y-70949988D01*
X134953818Y-70947438D01*
X135171011Y-70858410D01*
X135179511Y-70858266D01*
X135185866Y-70863916D01*
G37*
%TD.AperFunction*%
%TD*%
%TA.AperFunction,Conductor*%
%TO.N,/PA8*%
G36*
X138906751Y-63049472D02*
G01*
X138911028Y-63055119D01*
X139172986Y-63794319D01*
X139173551Y-63799803D01*
X139171543Y-63804936D01*
X139003493Y-64045009D01*
X138999311Y-64048678D01*
X138993908Y-64050000D01*
X138806092Y-64050000D01*
X138800689Y-64048678D01*
X138796507Y-64045010D01*
X138628456Y-63804937D01*
X138626448Y-63799803D01*
X138627013Y-63794319D01*
X138888972Y-63055119D01*
X138893249Y-63049472D01*
X138900000Y-63047327D01*
X138906751Y-63049472D01*
G37*
%TD.AperFunction*%
%TD*%
%TA.AperFunction,Conductor*%
%TO.N,/LCD.BKControl*%
G36*
X145398563Y-63546055D02*
G01*
X145402855Y-63551550D01*
X145546986Y-63933766D01*
X145546784Y-63942524D01*
X145540556Y-63948687D01*
X145324517Y-64039109D01*
X145320000Y-64040016D01*
X145315483Y-64039109D01*
X145098542Y-63948310D01*
X145092534Y-63942627D01*
X145091784Y-63934392D01*
X145197623Y-63552553D01*
X145201815Y-63546365D01*
X145208898Y-63543978D01*
X145391908Y-63543978D01*
X145398563Y-63546055D01*
G37*
%TD.AperFunction*%
%TD*%
%TA.AperFunction,Conductor*%
%TO.N,/NRST*%
G36*
X139414514Y-73950889D02*
G01*
X139631038Y-74041514D01*
X139637153Y-74047423D01*
X139637652Y-74055912D01*
X139512622Y-74441905D01*
X139508372Y-74447762D01*
X139501491Y-74450000D01*
X139318509Y-74450000D01*
X139311628Y-74447762D01*
X139307378Y-74441905D01*
X139182347Y-74055912D01*
X139182846Y-74047423D01*
X139188960Y-74041514D01*
X139405485Y-73950889D01*
X139410000Y-73949983D01*
X139414514Y-73950889D01*
G37*
%TD.AperFunction*%
%TD*%
%TA.AperFunction,Conductor*%
%TO.N,/PB10*%
G36*
X141306829Y-63049895D02*
G01*
X141311127Y-63055557D01*
X141572977Y-63794293D01*
X141573540Y-63799798D01*
X141571509Y-63804947D01*
X141413075Y-64029521D01*
X141409202Y-64033001D01*
X141404202Y-64034456D01*
X141216584Y-64045493D01*
X141210879Y-64044382D01*
X141206412Y-64040663D01*
X141036164Y-63804921D01*
X141034075Y-63799783D01*
X141034587Y-63794260D01*
X141289037Y-63055653D01*
X141293284Y-63049955D01*
X141300047Y-63047766D01*
X141306829Y-63049895D01*
G37*
%TD.AperFunction*%
%TD*%
%TA.AperFunction,Conductor*%
%TO.N,Net-(J3-Pin_5)*%
G36*
X151814244Y-75952094D02*
G01*
X151818837Y-75956383D01*
X151820549Y-75962429D01*
X151821480Y-76195107D01*
X151820592Y-76199625D01*
X151818030Y-76203450D01*
X151650585Y-76369953D01*
X151643405Y-76373308D01*
X151635734Y-76371317D01*
X151505948Y-76282621D01*
X151360884Y-76183484D01*
X151357139Y-76179286D01*
X151355786Y-76173825D01*
X151355786Y-75990969D01*
X151358951Y-75982967D01*
X151366731Y-75979293D01*
X151808097Y-75950800D01*
X151814244Y-75952094D01*
G37*
%TD.AperFunction*%
%TD*%
%TA.AperFunction,Conductor*%
%TO.N,/LCD.SDA*%
G36*
X144598471Y-63544146D02*
G01*
X144602744Y-63549820D01*
X144737324Y-63933923D01*
X144736971Y-63942549D01*
X144730799Y-63948585D01*
X144514517Y-64039109D01*
X144510000Y-64040016D01*
X144505483Y-64039109D01*
X144288752Y-63948398D01*
X144282689Y-63942601D01*
X144282064Y-63934237D01*
X144397495Y-63550319D01*
X144401719Y-63544300D01*
X144408700Y-63541989D01*
X144591702Y-63541989D01*
X144598471Y-63544146D01*
G37*
%TD.AperFunction*%
%TD*%
%TA.AperFunction,Conductor*%
%TO.N,/LCD.SDA*%
G36*
X145027327Y-73111176D02*
G01*
X145244025Y-73201874D01*
X145249076Y-73205933D01*
X145251192Y-73212058D01*
X145249725Y-73218369D01*
X145043265Y-73588312D01*
X145038972Y-73592700D01*
X145033048Y-73594310D01*
X144850154Y-73594310D01*
X144842450Y-73591416D01*
X144838558Y-73584165D01*
X144787835Y-73205933D01*
X144776909Y-73124460D01*
X144777887Y-73117994D01*
X144782184Y-73113061D01*
X144788455Y-73111207D01*
X145022766Y-73110270D01*
X145027327Y-73111176D01*
G37*
%TD.AperFunction*%
%TD*%
%TA.AperFunction,Conductor*%
%TO.N,/PC4*%
G36*
X145771440Y-72190383D02*
G01*
X145777349Y-72196498D01*
X145867973Y-72413020D01*
X145868880Y-72417537D01*
X145867973Y-72422054D01*
X145777349Y-72638575D01*
X145771440Y-72644690D01*
X145762951Y-72645189D01*
X145376959Y-72520159D01*
X145371102Y-72515909D01*
X145368864Y-72509028D01*
X145368864Y-72326046D01*
X145371102Y-72319165D01*
X145376959Y-72314915D01*
X145446248Y-72292470D01*
X145762952Y-72189884D01*
X145771440Y-72190383D01*
G37*
%TD.AperFunction*%
%TD*%
%TA.AperFunction,Conductor*%
%TO.N,+3V3*%
G36*
X148369093Y-71114445D02*
G01*
X148373376Y-71118734D01*
X148722913Y-71725404D01*
X148724464Y-71731753D01*
X148722367Y-71737944D01*
X148717277Y-71742044D01*
X148364502Y-71889123D01*
X148360000Y-71890024D01*
X148355498Y-71889123D01*
X147999365Y-71740644D01*
X147993519Y-71735305D01*
X147992411Y-71727469D01*
X148118064Y-71122197D01*
X148122136Y-71115500D01*
X148129521Y-71112875D01*
X148363238Y-71112875D01*
X148369093Y-71114445D01*
G37*
%TD.AperFunction*%
%TD*%
%TA.AperFunction,Conductor*%
%TO.N,/LCD.D{slash}C*%
G36*
X142906751Y-67349472D02*
G01*
X142911028Y-67355119D01*
X143173094Y-68094623D01*
X143173691Y-68099851D01*
X143171937Y-68104812D01*
X143003448Y-68369581D01*
X142999207Y-68373556D01*
X142993577Y-68375000D01*
X142806423Y-68375000D01*
X142800793Y-68373556D01*
X142796552Y-68369581D01*
X142628062Y-68104812D01*
X142626308Y-68099851D01*
X142626904Y-68094625D01*
X142888972Y-67355118D01*
X142893249Y-67349472D01*
X142900000Y-67347327D01*
X142906751Y-67349472D01*
G37*
%TD.AperFunction*%
%TD*%
%TA.AperFunction,Conductor*%
%TO.N,Net-(U1B-VREF+)*%
G36*
X146827079Y-73093136D02*
G01*
X146830776Y-73100865D01*
X146859492Y-73502892D01*
X146858223Y-73509083D01*
X146853920Y-73513711D01*
X146586098Y-73677274D01*
X146580000Y-73678989D01*
X146573902Y-73677274D01*
X146306079Y-73513711D01*
X146301776Y-73509083D01*
X146300507Y-73502894D01*
X146329223Y-73100865D01*
X146332921Y-73093136D01*
X146340894Y-73089999D01*
X146819106Y-73089999D01*
X146827079Y-73093136D01*
G37*
%TD.AperFunction*%
%TD*%
%TA.AperFunction,Conductor*%
%TO.N,/LCD.CS*%
G36*
X142247411Y-75100833D02*
G01*
X142251276Y-75108157D01*
X142308370Y-75566907D01*
X142307347Y-75573333D01*
X142303049Y-75578218D01*
X142296807Y-75580052D01*
X142062374Y-75580990D01*
X142057810Y-75580083D01*
X141841240Y-75489439D01*
X141836166Y-75485347D01*
X141834069Y-75479174D01*
X141835599Y-75472840D01*
X142046630Y-75103794D01*
X142050917Y-75099482D01*
X142056788Y-75097902D01*
X142239666Y-75097902D01*
X142247411Y-75100833D01*
G37*
%TD.AperFunction*%
%TD*%
%TA.AperFunction,Conductor*%
%TO.N,Net-(U1B-VREF+)*%
G36*
X146377786Y-71582073D02*
G01*
X146382992Y-71585362D01*
X146608772Y-71832102D01*
X146611840Y-71840000D01*
X146608772Y-71847898D01*
X146382992Y-72094637D01*
X146377786Y-72097926D01*
X146371632Y-72098116D01*
X146033972Y-72017151D01*
X146027513Y-72013019D01*
X146025000Y-72005774D01*
X146025000Y-71674226D01*
X146027513Y-71666981D01*
X146033972Y-71662849D01*
X146117667Y-71642779D01*
X146371635Y-71581883D01*
X146377786Y-71582073D01*
G37*
%TD.AperFunction*%
%TD*%
%TA.AperFunction,Conductor*%
%TO.N,/PB9*%
G36*
X132898955Y-72255635D02*
G01*
X132903266Y-72260269D01*
X133095174Y-72633070D01*
X133096439Y-72639296D01*
X133094263Y-72645266D01*
X133089288Y-72649218D01*
X132872189Y-72740083D01*
X132867625Y-72740990D01*
X132633727Y-72740054D01*
X132627356Y-72738137D01*
X132623060Y-72733055D01*
X132622229Y-72726454D01*
X132635592Y-72645266D01*
X132698387Y-72263723D01*
X132702360Y-72256704D01*
X132709932Y-72253924D01*
X132892863Y-72253924D01*
X132898955Y-72255635D01*
G37*
%TD.AperFunction*%
%TD*%
%TA.AperFunction,Conductor*%
%TO.N,/PA9*%
G36*
X138106875Y-63049890D02*
G01*
X138111172Y-63055552D01*
X138373049Y-63794496D01*
X138373634Y-63799831D01*
X138371774Y-63804867D01*
X138213424Y-64043847D01*
X138209256Y-64047665D01*
X138203785Y-64049083D01*
X138016133Y-64050914D01*
X138010691Y-64049632D01*
X138006468Y-64045971D01*
X137836010Y-63804896D01*
X137833980Y-63799794D01*
X137834502Y-63794329D01*
X138089084Y-63055645D01*
X138093330Y-63049949D01*
X138100093Y-63047760D01*
X138106875Y-63049890D01*
G37*
%TD.AperFunction*%
%TD*%
%TA.AperFunction,Conductor*%
%TO.N,/PC13*%
G36*
X137464439Y-73756089D02*
G01*
X137591905Y-73797378D01*
X137597762Y-73801628D01*
X137600000Y-73808509D01*
X137600000Y-73991491D01*
X137597762Y-73998372D01*
X137591905Y-74002622D01*
X137205912Y-74127652D01*
X137197423Y-74127153D01*
X137191514Y-74121038D01*
X137100889Y-73904514D01*
X137099983Y-73900000D01*
X137100889Y-73895485D01*
X137191514Y-73678960D01*
X137197423Y-73672846D01*
X137205911Y-73672347D01*
X137464439Y-73756089D01*
G37*
%TD.AperFunction*%
%TD*%
%TA.AperFunction,Conductor*%
%TO.N,/PB7*%
G36*
X134106751Y-67349472D02*
G01*
X134111028Y-67355119D01*
X134373094Y-68094623D01*
X134373691Y-68099851D01*
X134371937Y-68104812D01*
X134203448Y-68369581D01*
X134199207Y-68373556D01*
X134193577Y-68375000D01*
X134006423Y-68375000D01*
X134000793Y-68373556D01*
X133996552Y-68369581D01*
X133828062Y-68104812D01*
X133826308Y-68099851D01*
X133826904Y-68094625D01*
X134088972Y-67355118D01*
X134093249Y-67349472D01*
X134100000Y-67347327D01*
X134106751Y-67349472D01*
G37*
%TD.AperFunction*%
%TD*%
%TA.AperFunction,Conductor*%
%TO.N,Net-(U1B-VDDA)*%
G36*
X147817348Y-70257974D02*
G01*
X147821181Y-70265380D01*
X147861135Y-70616621D01*
X147860254Y-70622574D01*
X147856531Y-70627302D01*
X147572156Y-70840632D01*
X147565027Y-70842973D01*
X147557942Y-70840501D01*
X147277207Y-70621687D01*
X147273572Y-70616890D01*
X147272802Y-70610921D01*
X147318652Y-70265162D01*
X147322540Y-70257902D01*
X147330250Y-70255002D01*
X147809556Y-70255002D01*
X147817348Y-70257974D01*
G37*
%TD.AperFunction*%
%TD*%
%TA.AperFunction,Conductor*%
%TO.N,+3V3*%
G36*
X148326167Y-71658118D02*
G01*
X148332910Y-71662611D01*
X148335116Y-71670410D01*
X148331725Y-71677771D01*
X147994621Y-72014875D01*
X147990817Y-72017415D01*
X147802025Y-72095434D01*
X147794663Y-72095958D01*
X147788452Y-72091970D01*
X147570239Y-71821662D01*
X147567643Y-71814299D01*
X147570256Y-71806943D01*
X147789307Y-71536945D01*
X147794628Y-71533240D01*
X147801105Y-71532937D01*
X148326167Y-71658118D01*
G37*
%TD.AperFunction*%
%TD*%
%TA.AperFunction,Conductor*%
%TO.N,/PC6*%
G36*
X139798372Y-63552238D02*
G01*
X139802622Y-63558095D01*
X139927652Y-63944087D01*
X139927153Y-63952576D01*
X139921038Y-63958485D01*
X139704517Y-64049109D01*
X139700000Y-64050016D01*
X139695483Y-64049109D01*
X139478961Y-63958485D01*
X139472846Y-63952576D01*
X139472347Y-63944088D01*
X139597377Y-63558095D01*
X139601628Y-63552238D01*
X139608509Y-63550000D01*
X139791491Y-63550000D01*
X139798372Y-63552238D01*
G37*
%TD.AperFunction*%
%TD*%
%TA.AperFunction,Conductor*%
%TO.N,/LCD.BKControl*%
G36*
X145675784Y-73855259D02*
G01*
X145860312Y-74216608D01*
X145861449Y-74223754D01*
X145858165Y-74230202D01*
X145728777Y-74359590D01*
X145722329Y-74362874D01*
X145715183Y-74361737D01*
X145444980Y-74223754D01*
X145353833Y-74177208D01*
X145348184Y-74170854D01*
X145348328Y-74162354D01*
X145437356Y-73945161D01*
X145439906Y-73941331D01*
X145443736Y-73938781D01*
X145660929Y-73849753D01*
X145669429Y-73849609D01*
X145675784Y-73855259D01*
G37*
%TD.AperFunction*%
%TD*%
%TA.AperFunction,Conductor*%
%TO.N,Net-(U1B-VDDA)*%
G36*
X147576098Y-69932724D02*
G01*
X147843920Y-70096287D01*
X147848223Y-70100915D01*
X147849492Y-70107106D01*
X147820776Y-70509134D01*
X147817079Y-70516863D01*
X147809106Y-70520000D01*
X147330894Y-70520000D01*
X147322921Y-70516863D01*
X147319224Y-70509134D01*
X147313480Y-70428728D01*
X147290507Y-70107103D01*
X147291776Y-70100915D01*
X147296077Y-70096288D01*
X147563902Y-69932723D01*
X147570000Y-69931009D01*
X147576098Y-69932724D01*
G37*
%TD.AperFunction*%
%TD*%
%TA.AperFunction,Conductor*%
%TO.N,/LCD.~{RES}*%
G36*
X141604514Y-73890889D02*
G01*
X141820059Y-73981104D01*
X141824876Y-73984842D01*
X141827158Y-73990497D01*
X141826285Y-73996531D01*
X141663048Y-74374978D01*
X141658734Y-74380119D01*
X141652305Y-74382044D01*
X141469319Y-74382044D01*
X141462030Y-74379496D01*
X141457915Y-74372961D01*
X141371234Y-73995275D01*
X141372230Y-73987313D01*
X141378118Y-73981866D01*
X141595485Y-73890889D01*
X141600000Y-73889983D01*
X141604514Y-73890889D01*
G37*
%TD.AperFunction*%
%TD*%
%TA.AperFunction,Conductor*%
%TO.N,/PB7*%
G36*
X133301765Y-72026208D02*
G01*
X133600741Y-72158727D01*
X133606860Y-72165070D01*
X133606816Y-72173884D01*
X133517353Y-72390803D01*
X133514801Y-72394624D01*
X133510974Y-72397168D01*
X133295457Y-72485505D01*
X133289411Y-72486268D01*
X133283801Y-72483886D01*
X133280150Y-72479006D01*
X133105880Y-72041231D01*
X133105477Y-72033772D01*
X133109670Y-72027589D01*
X133116750Y-72025204D01*
X133297024Y-72025204D01*
X133301765Y-72026208D01*
G37*
%TD.AperFunction*%
%TD*%
%TA.AperFunction,Conductor*%
%TO.N,/SPI2.CLK*%
G36*
X141778231Y-65004210D02*
G01*
X141783796Y-65008496D01*
X141785905Y-65015196D01*
X141785905Y-65196616D01*
X141784100Y-65202860D01*
X141629823Y-65447345D01*
X141623479Y-65452249D01*
X141615467Y-65451917D01*
X141498236Y-65403567D01*
X141397113Y-65361861D01*
X141393292Y-65359309D01*
X141390748Y-65355482D01*
X141302986Y-65141368D01*
X141302297Y-65134858D01*
X141305213Y-65128997D01*
X141310817Y-65125621D01*
X141644199Y-65037469D01*
X141771214Y-65003885D01*
X141778231Y-65004210D01*
G37*
%TD.AperFunction*%
%TD*%
%TA.AperFunction,Conductor*%
%TO.N,/PA8*%
G36*
X138998372Y-63552238D02*
G01*
X139002622Y-63558095D01*
X139127652Y-63944087D01*
X139127153Y-63952576D01*
X139121038Y-63958485D01*
X138904517Y-64049109D01*
X138900000Y-64050016D01*
X138895483Y-64049109D01*
X138678961Y-63958485D01*
X138672846Y-63952576D01*
X138672347Y-63944088D01*
X138797377Y-63558095D01*
X138801628Y-63552238D01*
X138808509Y-63550000D01*
X138991491Y-63550000D01*
X138998372Y-63552238D01*
G37*
%TD.AperFunction*%
%TD*%
%TA.AperFunction,Conductor*%
%TO.N,/PB1*%
G36*
X142998372Y-63552238D02*
G01*
X143002622Y-63558095D01*
X143127652Y-63944087D01*
X143127153Y-63952576D01*
X143121038Y-63958485D01*
X142904517Y-64049109D01*
X142900000Y-64050016D01*
X142895483Y-64049109D01*
X142678961Y-63958485D01*
X142672846Y-63952576D01*
X142672347Y-63944088D01*
X142797377Y-63558095D01*
X142801628Y-63552238D01*
X142808509Y-63550000D01*
X142991491Y-63550000D01*
X142998372Y-63552238D01*
G37*
%TD.AperFunction*%
%TD*%
%TA.AperFunction,Conductor*%
%TO.N,Net-(J3-Pin_5)*%
G36*
X147659864Y-75147857D02*
G01*
X147893328Y-75613146D01*
X147894421Y-75620259D01*
X147891144Y-75626666D01*
X147761375Y-75756435D01*
X147755239Y-75759665D01*
X147748353Y-75758855D01*
X147437297Y-75620695D01*
X147331642Y-75573766D01*
X147326026Y-75568500D01*
X147324899Y-75560885D01*
X147383107Y-75255514D01*
X147385537Y-75250308D01*
X147390152Y-75246887D01*
X147644966Y-75142280D01*
X147653508Y-75142146D01*
X147659864Y-75147857D01*
G37*
%TD.AperFunction*%
%TD*%
%TA.AperFunction,Conductor*%
%TO.N,/PB2*%
G36*
X142106751Y-63049472D02*
G01*
X142111028Y-63055119D01*
X142371422Y-63789904D01*
X142371167Y-63798376D01*
X142365258Y-63804453D01*
X142202317Y-63878941D01*
X142197453Y-63880000D01*
X142002547Y-63880000D01*
X141997683Y-63878941D01*
X141834741Y-63804453D01*
X141828832Y-63798376D01*
X141828577Y-63789906D01*
X142088972Y-63055118D01*
X142093249Y-63049471D01*
X142100000Y-63047327D01*
X142106751Y-63049472D01*
G37*
%TD.AperFunction*%
%TD*%
%TA.AperFunction,Conductor*%
%TO.N,+3V3*%
G36*
X133939953Y-74453533D02*
G01*
X134092547Y-74512118D01*
X134097996Y-74516414D01*
X134100054Y-74523041D01*
X134100054Y-74855658D01*
X134097497Y-74862959D01*
X134090944Y-74867067D01*
X133855024Y-74920605D01*
X133472672Y-75007373D01*
X133464718Y-75006361D01*
X133459284Y-75000465D01*
X133310875Y-74644497D01*
X133309975Y-74640000D01*
X133310875Y-74635502D01*
X133458697Y-74280942D01*
X133464889Y-74274691D01*
X133473687Y-74274523D01*
X133939953Y-74453533D01*
G37*
%TD.AperFunction*%
%TD*%
%TA.AperFunction,Conductor*%
%TO.N,/PC10*%
G36*
X137306751Y-67349472D02*
G01*
X137311028Y-67355119D01*
X137573094Y-68094623D01*
X137573691Y-68099851D01*
X137571937Y-68104812D01*
X137403448Y-68369581D01*
X137399207Y-68373556D01*
X137393577Y-68375000D01*
X137206423Y-68375000D01*
X137200793Y-68373556D01*
X137196552Y-68369581D01*
X137028062Y-68104812D01*
X137026308Y-68099851D01*
X137026904Y-68094625D01*
X137288972Y-67355118D01*
X137293249Y-67349472D01*
X137300000Y-67347327D01*
X137306751Y-67349472D01*
G37*
%TD.AperFunction*%
%TD*%
%TA.AperFunction,Conductor*%
%TO.N,/BOOT0*%
G36*
X127624514Y-72320889D02*
G01*
X127841038Y-72411514D01*
X127847153Y-72417423D01*
X127847652Y-72425912D01*
X127722622Y-72811905D01*
X127718372Y-72817762D01*
X127711491Y-72820000D01*
X127528509Y-72820000D01*
X127521628Y-72817762D01*
X127517378Y-72811905D01*
X127392347Y-72425912D01*
X127392846Y-72417423D01*
X127398960Y-72411514D01*
X127615485Y-72320889D01*
X127620000Y-72319983D01*
X127624514Y-72320889D01*
G37*
%TD.AperFunction*%
%TD*%
%TA.AperFunction,Conductor*%
%TO.N,/BOOT0*%
G36*
X134648088Y-73009564D02*
G01*
X134866487Y-73099638D01*
X134870307Y-73102190D01*
X134872851Y-73106017D01*
X134960596Y-73320090D01*
X134961283Y-73326612D01*
X134958352Y-73332479D01*
X134952725Y-73335848D01*
X134542867Y-73442826D01*
X134491727Y-73456174D01*
X134484724Y-73455831D01*
X134479174Y-73451544D01*
X134477073Y-73444854D01*
X134477073Y-73263410D01*
X134478906Y-73257123D01*
X134633765Y-73014091D01*
X134640103Y-73009225D01*
X134648088Y-73009564D01*
G37*
%TD.AperFunction*%
%TD*%
%TA.AperFunction,Conductor*%
%TO.N,/PA1*%
G36*
X140606561Y-73620397D02*
G01*
X140610876Y-73625491D01*
X140776688Y-74003430D01*
X140777596Y-74009483D01*
X140775323Y-74015166D01*
X140770491Y-74018924D01*
X140555017Y-74109109D01*
X140550500Y-74110016D01*
X140545983Y-74109109D01*
X140416185Y-74054783D01*
X140328562Y-74018109D01*
X140322689Y-74012694D01*
X140321661Y-74004772D01*
X140405763Y-73627645D01*
X140409865Y-73621063D01*
X140417183Y-73618492D01*
X140600162Y-73618492D01*
X140606561Y-73620397D01*
G37*
%TD.AperFunction*%
%TD*%
%TA.AperFunction,Conductor*%
%TO.N,/LCD.D{slash}C*%
G36*
X141286798Y-75459962D02*
G01*
X141293043Y-75461790D01*
X141297347Y-75466674D01*
X141298374Y-75473102D01*
X141254082Y-75830259D01*
X141250744Y-75837092D01*
X141121993Y-75965843D01*
X141116098Y-75969026D01*
X141109424Y-75968453D01*
X141104159Y-75964313D01*
X140878873Y-75644792D01*
X140876777Y-75637075D01*
X140880128Y-75629814D01*
X141045850Y-75462762D01*
X141049667Y-75460199D01*
X141054180Y-75459306D01*
X141286798Y-75459962D01*
G37*
%TD.AperFunction*%
%TD*%
%TA.AperFunction,Conductor*%
%TO.N,/PB4*%
G36*
X139706751Y-67349472D02*
G01*
X139711028Y-67355119D01*
X139973094Y-68094623D01*
X139973691Y-68099851D01*
X139971937Y-68104812D01*
X139803448Y-68369581D01*
X139799207Y-68373556D01*
X139793577Y-68375000D01*
X139606423Y-68375000D01*
X139600793Y-68373556D01*
X139596552Y-68369581D01*
X139428062Y-68104812D01*
X139426308Y-68099851D01*
X139426904Y-68094625D01*
X139688972Y-67355118D01*
X139693249Y-67349472D01*
X139700000Y-67347327D01*
X139706751Y-67349472D01*
G37*
%TD.AperFunction*%
%TD*%
%TA.AperFunction,Conductor*%
%TO.N,/PA11*%
G36*
X136506209Y-63050199D02*
G01*
X136510512Y-63055858D01*
X136771416Y-63789918D01*
X136771172Y-63798384D01*
X136765278Y-63804467D01*
X136581654Y-63888855D01*
X136581649Y-63888858D01*
X136580710Y-63889290D01*
X136579977Y-63890022D01*
X136579974Y-63890025D01*
X136448041Y-64021958D01*
X136442584Y-64025041D01*
X136436319Y-64024865D01*
X136431045Y-64021482D01*
X136237713Y-63805106D01*
X136234973Y-63799632D01*
X136235373Y-63793521D01*
X136488422Y-63055977D01*
X136492662Y-63050273D01*
X136499424Y-63048076D01*
X136506209Y-63050199D01*
G37*
%TD.AperFunction*%
%TD*%
%TA.AperFunction,Conductor*%
%TO.N,/PB6*%
G36*
X133749145Y-71258220D02*
G01*
X133753411Y-71262371D01*
X133973485Y-71627847D01*
X133975157Y-71634235D01*
X133973103Y-71640510D01*
X133967979Y-71644675D01*
X133751689Y-71735201D01*
X133747125Y-71736108D01*
X133512447Y-71735169D01*
X133506266Y-71733374D01*
X133501970Y-71728581D01*
X133500859Y-71722241D01*
X133509487Y-71640510D01*
X133548894Y-71267178D01*
X133552703Y-71259709D01*
X133560530Y-71256706D01*
X133743388Y-71256706D01*
X133749145Y-71258220D01*
G37*
%TD.AperFunction*%
%TD*%
%TA.AperFunction,Conductor*%
%TO.N,/SWCLK-L*%
G36*
X134106751Y-63049472D02*
G01*
X134111028Y-63055119D01*
X134373094Y-63794623D01*
X134373691Y-63799851D01*
X134371937Y-63804812D01*
X134203448Y-64069581D01*
X134199207Y-64073556D01*
X134193577Y-64075000D01*
X134006423Y-64075000D01*
X134000793Y-64073556D01*
X133996552Y-64069581D01*
X133828062Y-63804812D01*
X133826308Y-63799851D01*
X133826904Y-63794625D01*
X134088972Y-63055118D01*
X134093249Y-63049472D01*
X134100000Y-63047327D01*
X134106751Y-63049472D01*
G37*
%TD.AperFunction*%
%TD*%
%TA.AperFunction,Conductor*%
%TO.N,/LCD.SCL*%
G36*
X145306751Y-67349472D02*
G01*
X145311028Y-67355119D01*
X145573094Y-68094623D01*
X145573691Y-68099851D01*
X145571937Y-68104812D01*
X145403448Y-68369581D01*
X145399207Y-68373556D01*
X145393577Y-68375000D01*
X145206423Y-68375000D01*
X145200793Y-68373556D01*
X145196552Y-68369581D01*
X145028062Y-68104812D01*
X145026308Y-68099851D01*
X145026904Y-68094625D01*
X145288972Y-67355118D01*
X145293249Y-67349472D01*
X145300000Y-67347327D01*
X145306751Y-67349472D01*
G37*
%TD.AperFunction*%
%TD*%
M02*
